<?xml version="1.0" encoding="UTF-8"?>
<svg id="Layer_1" xmlns="http://www.w3.org/2000/svg" version="1.1" viewBox="0 0 681.4 451.8">
  <!-- Generator: Adobe Illustrator 29.5.0, SVG Export Plug-In . SVG Version: 2.1.0 Build 137)  -->
  <defs>
    <style>
      .st0 {
        fill: #7ac943;
      }
    </style>
  </defs>
  <path class="st0" d="M448.3,154c-54.9,0-99.5,44.6-99.5,99.5s44.6,99.5,99.5,99.5,99.5-44.6,99.5-99.5-44.6-99.5-99.5-99.5h0Z"/>
  <path class="st0" d="M609.8,65.8h-44.5l-15.6-45.9c-3.5-10.1-13-16.9-23.7-16.9h-166.3c-10.7,0-20.2,6.8-23.6,16.9l-15.8,45.9H71.6c-37.8,0-68.6,30.8-68.6,68.6v245.9c0,37.8,30.8,68.6,68.6,68.6h538.3c37.8,0,68.6-30.8,68.6-68.6v-245.9c0-37.8-30.8-68.6-68.6-68.6ZM90.8,175.2c-17.9,0-32.4-14.5-32.4-32.4s14.5-32.4,32.4-32.4,32.4,14.5,32.4,32.4-14.5,32.4-32.4,32.4ZM448.3,403c-82.5,0-149.5-67.1-149.5-149.5s67.1-149.5,149.5-149.5,149.5,67.1,149.5,149.5-67.1,149.5-149.5,149.5h0Z"/>
</svg>