<?xml version="1.0" encoding="UTF-8"?>
<svg id="Layer_1" xmlns="http://www.w3.org/2000/svg" version="1.1" viewBox="0 0 688.5 451.8">
  <!-- Generator: Adobe Illustrator 29.5.0, SVG Export Plug-In . SVG Version: 2.1.0 Build 137)  -->
  <defs>
    <style>
      .st0 {
        fill: #7ac943;
      }
    </style>
  </defs>
  <path class="st0" d="M610.8,65.8h-44.5l-15.6-45.9c-3.5-10.1-13-16.9-23.7-16.9h-166.3c-10.7,0-20.2,6.8-23.6,16.9l-15.8,45.9H72.6c-37.8,0-68.6,30.8-68.6,68.6v245.9c0,37.8,30.8,68.6,68.6,68.6h538.2c37.8,0,68.6-30.8,68.6-68.6v-245.9c0-37.8-30.8-68.6-68.6-68.6ZM629.4,380.3c0,10.2-8.3,18.6-18.6,18.6H72.6c-10.2,0-18.6-8.3-18.6-18.6v-245.9c0-10.2,8.3-18.6,18.6-18.6h266.5c10.7,0,20.2-6.8,23.6-16.9l15.8-45.9h130.6l15.6,45.9c3.5,10.1,13,16.9,23.7,16.9h62.4c10.2,0,18.6,8.3,18.6,18.6v245.9Z"/>
  <circle class="st0" cx="124.1" cy="175.2" r="32.4"/>
  <path class="st0" d="M442.8,118.6c-69.5,0-126.1,56.6-126.1,126.1s56.6,126.1,126.1,126.1,126.1-56.6,126.1-126.1-56.6-126.1-126.1-126.1ZM442.8,320.8c-42,0-76.1-34.1-76.1-76.1s34.1-76.1,76.1-76.1,76.1,34.1,76.1,76.1-34.1,76.1-76.1,76.1Z"/>
</svg>