<?xml version="1.0" encoding="UTF-8" standalone="no"?>
<!-- Generator: Adobe Illustrator 15.1.0, SVG Export Plug-In . SVG Version: 6.00 Build 0)  -->

<svg
   version="1.1"
   id="Layer_1"
   x="0px"
   y="0px"
   width="480.452"
   height="398.00601"
   viewBox="0 0 480.45197 398.00601"
   enable-background="new 0 0 595.28 544"
   xml:space="preserve"
   sodipodi:docname="ISO.svg"
   inkscape:version="1.2.2 (b0a8486541, 2022-12-01)"
   xmlns:inkscape="http://www.inkscape.org/namespaces/inkscape"
   xmlns:sodipodi="http://sodipodi.sourceforge.net/DTD/sodipodi-0.dtd"
   xmlns="http://www.w3.org/2000/svg"
   xmlns:svg="http://www.w3.org/2000/svg"><defs
   id="defs39" /><sodipodi:namedview
   id="namedview37"
   pagecolor="#505050"
   bordercolor="#eeeeee"
   borderopacity="1"
   inkscape:showpageshadow="0"
   inkscape:pageopacity="0"
   inkscape:pagecheckerboard="0"
   inkscape:deskcolor="#505050"
   showgrid="false"
   inkscape:zoom="0.43382353"
   inkscape:cx="-217.83051"
   inkscape:cy="233.9661"
   inkscape:window-width="1920"
   inkscape:window-height="1016"
   inkscape:window-x="0"
   inkscape:window-y="0"
   inkscape:window-maximized="1"
   inkscape:current-layer="Layer_1" />

<polygon
   fill="#00539F"
   points="57.644,149.567 57.644,192.184 83.163,192.184 83.163,283.344 57.644,283.344 57.644,325.961 168.875,325.961 168.875,283.344 143.356,283.344 143.356,192.184 168.875,192.184 168.875,149.567 "
   id="polygon4"
   style="fill:#82cb2a;fill-opacity:1"
   transform="translate(-57.644,-39.027)" />
<path
   fill="#00539F"
   d="m 233.981,178.223 c -6.875,-2 -42.25,-12.125 -48.375,-14.125 -6.125,-2 -11.125,-4.875 -11.125,-8.5 0,-3.625 5.625,-7.5 17,-7.5 35.875,0 53.109,22.125 53.109,22.125 0,0 1.942,2.587 2.593,3.515 h 34.612 v -60.363 h -37.157 v 10.982 c -2.838,-1.96 -23.79,-15.634 -56.282,-15.634 -42.875,0 -66.75,22.25 -66.75,55.5 0,33.25 30.125,47 38.5,50.5 8.375,3.5 41.125,12.75 55.125,17.125 14,4.375 19.125,7.5 19.125,9.75 0,2.25 -6.125,8.125 -23.625,8.125 -30.483,0 -46.181,-17.976 -48.936,-21.457 v -0.027 c -0.876,-1.174 -1.904,-2.563 -2.253,-3.086 -0.404,-0.605 -1.341,-1.948 -1.991,-2.876 h -34.612 v 64.461 h 38.856 v -13.461 c 4.521,3.009 27.664,17.446 55.436,17.446 31,0 70.5,-13.5 70.5,-55.625 0,-42.125 -46.875,-54.875 -53.75,-56.875 z"
   id="path6"
   style="fill:#82cb2a;fill-opacity:1" />
<path
   fill="#00539F"
   d="m 386.391,108.13 c -51.678,0 -94.062,25.838 -94.062,91.795 0,65.957 46.011,90.662 94.288,90.662 48.277,0 93.835,-24.479 93.835,-89.981 0,-65.502 -45.556,-92.476 -94.061,-92.476 z m 0.454,138.486 c -17.68,0 -29.013,-4.08 -29.013,-46.917 0,-42.838 8.387,-47.371 29.692,-47.371 12.919,0 28.559,0.906 28.559,46.011 0,45.105 -11.558,48.277 -29.238,48.277 z"
   id="path8"
   style="fill:#82cb2a;fill-opacity:1" />
<g
   id="g14"
   style="fill:#82cb2a;fill-opacity:1"
   transform="translate(-57.644,-39.027)">
	<path
   fill="#00539F"
   d="m 131.76,130.114 c 11.617,-17.154 25.903,-32.36 42.28,-44.988 6.622,4.896 13.661,9.337 21.061,13.295 -12.398,13.82 -23.506,29.131 -25.346,31.693 h 7.439 c 4.465,-6.018 13.701,-18.124 23.44,-28.857 10.645,5.233 21.958,9.513 33.762,12.773 -3.142,6.666 -5.517,12.495 -6.911,16.084 h 6.463 c 1.485,-3.696 3.661,-8.851 6.376,-14.547 15.058,3.679 30.836,5.741 46.977,6.055 v 8.493 h 6 v -8.464 c 16.023,-0.117 31.714,-1.943 46.719,-5.374 2.558,5.411 4.617,10.296 6.04,13.837 h 6.463 c -1.34,-3.447 -3.582,-8.957 -6.543,-15.296 12.015,-3.126 23.544,-7.294 34.402,-12.445 9.366,10.448 18.122,21.932 22.433,27.741 h 7.438 c -1.783,-2.483 -12.316,-17.006 -24.285,-30.505 8.229,-4.253 16.031,-9.092 23.324,-14.483 16.377,12.628 30.664,27.834 42.28,44.988 h 7.217 C 423.301,75.343 361.647,39.027 291.665,39.027 c -69.982,0 -131.636,36.316 -167.124,91.087 z m 105.313,-21.571 c -11.228,-3.033 -22.001,-7.009 -32.157,-11.873 1.38,-1.434 2.759,-2.823 4.122,-4.138 13.907,-13.411 36.781,-28.137 41.795,-31.307 4.069,2.235 8.509,4.125 13.232,5.625 -3.668,4.81 -10.87,14.574 -18.713,26.959 -3.053,4.82 -5.834,9.886 -8.279,14.734 z m 50.228,7.077 c -15.196,-0.304 -30.054,-2.196 -44.256,-5.564 2.221,-4.342 4.699,-8.81 7.376,-13.036 9.036,-14.267 17.188,-24.979 19.904,-28.464 5.419,1.273 11.114,2.078 16.976,2.341 z m 6,0.03 V 70.965 c 5.783,-0.098 11.441,-0.71 16.856,-1.799 3.104,4.015 10.872,14.339 19.431,27.854 2.816,4.447 5.413,9.161 7.722,13.716 -14.152,3.13 -28.924,4.802 -44.009,4.914 z m 50.024,-6.335 c -2.537,-5.08 -5.454,-10.43 -8.669,-15.506 -7.438,-11.746 -14.302,-21.136 -18.119,-26.178 5.023,-1.411 9.765,-3.245 14.119,-5.464 7.039,4.512 27.483,17.992 40.314,30.365 1.703,1.643 3.429,3.398 5.153,5.218 -10.368,4.787 -21.358,8.662 -32.798,11.565 z m 60.943,-27.94 c -7.039,5.081 -14.56,9.633 -22.479,13.635 -2.213,-2.374 -4.445,-4.667 -6.654,-6.797 -12.001,-11.573 -29.87,-23.714 -38.625,-29.415 2.974,-1.928 5.694,-4.06 8.119,-6.381 21.671,6.192 41.79,16.093 59.639,28.958 z M 291.667,45.027 c 15.844,0 31.243,1.933 45.988,5.551 -11.19,9.089 -27.957,14.421 -45.988,14.421 -18.113,0 -34.834,-5.315 -46.009,-14.416 14.75,-3.621 30.156,-5.556 46.009,-5.556 z m -52.965,7.39 c 1.974,1.892 4.135,3.662 6.476,5.294 -7.932,5.104 -27.469,18.125 -40.304,30.501 -1.848,1.782 -3.711,3.68 -5.567,5.642 -7.099,-3.717 -13.869,-7.88 -20.24,-12.479 17.846,-12.865 37.964,-22.765 59.635,-28.958 z"
   id="path10"
   style="fill:#82cb2a;fill-opacity:1" />
	<path
   fill="#00539F"
   d="m 451.582,345.947 c -11.37,16.793 -25.3,31.717 -41.243,44.185 -7.593,-5.71 -15.743,-10.814 -24.362,-15.272 10.383,-11.712 19.686,-24.194 23.13,-28.912 h -7.472 c -4.606,6.15 -12.669,16.583 -21.245,26.15 -10.858,-5.153 -22.386,-9.324 -34.403,-12.449 2.541,-5.441 4.548,-10.263 5.914,-13.701 h -6.482 c -1.374,3.352 -3.201,7.605 -5.396,12.248 -14.996,-3.426 -30.685,-5.251 -46.721,-5.367 v -6.881 h -6 v 6.908 c -16.154,0.313 -31.931,2.373 -46.98,6.047 -2.344,-4.917 -4.287,-9.434 -5.73,-12.955 h -6.483 c 1.431,3.604 3.567,8.728 6.283,14.49 -11.807,3.261 -23.124,7.535 -33.768,12.771 -8.944,-9.859 -17.461,-20.872 -22.248,-27.262 h -7.472 c 3.558,4.875 13.385,18.057 24.197,30.107 -7.787,4.17 -15.181,8.869 -22.106,14.077 -15.944,-12.468 -29.874,-27.392 -41.243,-44.185 h -7.206 c 35.489,54.771 97.141,91.087 167.122,91.087 69.98,0 131.633,-36.315 167.122,-91.087 h -7.208 z m -108.254,19.208 c 11.444,2.902 22.434,6.776 32.803,11.565 -1.727,1.822 -3.454,3.58 -5.16,5.226 -12.791,12.333 -33.17,25.782 -40.262,30.33 -4.354,-2.228 -9.102,-4.062 -14.141,-5.473 3.824,-5.051 10.67,-14.423 18.088,-26.136 3.217,-5.077 6.134,-10.43 8.672,-15.512 z m -50.027,-6.327 c 15.097,0.112 29.869,1.779 44.012,4.905 -2.31,4.558 -4.907,9.273 -7.726,13.724 -8.547,13.496 -16.303,23.809 -19.416,27.836 -5.4,-1.076 -11.058,-1.683 -16.871,-1.779 v -44.686 z m -6,0.03 v 44.718 c -5.884,0.261 -11.585,1.056 -16.997,2.32 -2.735,-3.511 -10.861,-14.193 -19.883,-28.439 -2.679,-4.229 -5.159,-8.7 -7.381,-13.046 14.194,-3.364 29.052,-5.25 44.261,-5.553 z m -50.231,7.071 c 2.446,4.851 5.229,9.917 8.282,14.739 7.837,12.375 15.034,22.133 18.705,26.947 -4.73,1.499 -9.165,3.391 -13.232,5.632 -5.033,-3.184 -27.887,-17.899 -41.786,-31.301 -1.365,-1.316 -2.744,-2.707 -4.126,-4.142 10.154,-4.866 20.926,-8.843 32.157,-11.875 z m -59.09,27.964 c 6.687,-4.916 13.817,-9.348 21.318,-13.277 1.858,1.964 3.725,3.865 5.575,5.649 12.832,12.373 32.363,25.391 40.298,30.497 -2.827,1.979 -5.404,4.155 -7.694,6.517 -21.642,-6.342 -41.717,-16.382 -59.497,-29.386 z m 113.687,37.141 c -16.363,0 -32.255,-2.055 -47.437,-5.906 11.086,-9.742 28.69,-15.649 47.437,-15.649 18.724,0 36.345,5.911 47.432,15.65 -15.181,3.851 -31.071,5.905 -47.432,5.905 z m 54.186,-7.755 c -2.722,-2.805 -5.833,-5.363 -9.304,-7.626 8.77,-5.711 26.603,-17.833 38.586,-29.389 2.21,-2.131 4.442,-4.425 6.657,-6.801 8.323,4.21 16.211,9.026 23.561,14.429 -17.781,13.006 -37.857,23.046 -59.5,29.387 z"
   id="path12"
   style="fill:#82cb2a;fill-opacity:1" />
</g>

</svg>
