<?xml version="1.0" encoding="UTF-8"?>
<svg id="Layer_1" xmlns="http://www.w3.org/2000/svg" version="1.1" viewBox="0 0 418 664.4">
  <!-- Generator: Adobe Illustrator 29.5.0, SVG Export Plug-In . SVG Version: 2.1.0 Build 137)  -->
  <defs>
    <style>
      .st0 {
        fill: #80cc29;
      }

      .st1 {
        fill: #7ac943;
      }

      .st2 {
        fill: none;
        stroke: #7ac943;
        stroke-linecap: round;
        stroke-linejoin: round;
        stroke-width: 50px;
      }
    </style>
  </defs>
  <g id="Layer_11" data-name="Layer_1">
    <path class="st0" d="M296.7,108.5l-68.7,68.7-19-19c-8.2-8.2-21.6-8.2-29.9,0s-8.2,21.6,0,29.9l33.6,33.6c3.4,3.4,7.7,5.4,12.2,6,1.1.2,2.2.3,3.3.3,5.4,0,10.8-2.1,14.9-6.2l83.4-83.4c8.2-8.2,8.2-21.6,0-29.9-8.2-8.2-21.6-8.2-29.9,0Z"/>
  </g>
  <g id="Layer_2">
    <circle class="st2" cx="252.9" cy="165.2" r="140.2"/>
    <path class="st1" d="M149.9,374.2l26.8,11.9c18.8,8.3,27.3,30.4,19,49.2l-100.2,225.9c-1.2,2.7-4.4,3.9-7.1,2.7L3.2,626.2c-2.7-1.2-3.9-4.4-2.7-7.1l100.2-225.9c8.3-18.8,30.4-27.3,49.2-19h0Z"/>
    <line class="st2" x1="197.1" y1="304" x2="119.1" y2="479.7"/>
  </g>
</svg>