<?xml version="1.0" encoding="UTF-8"?>
<svg id="Layer_5" xmlns="http://www.w3.org/2000/svg" version="1.1" viewBox="0 0 651.3 662.6">
  <!-- Generator: Adobe Illustrator 29.5.0, SVG Export Plug-In . SVG Version: 2.1.0 Build 137)  -->
  <defs>
    <style>
      .st0 {
        fill: #80cc29;
      }
    </style>
  </defs>
  <path class="st0" d="M636.3,180.7h0c-6.3-4.7-14.5-6.2-22.1-3.9l-115.2,34.1c-6.4,19.8-14.5,40-23.2,59l120.5-35.7v322.4l-147.5,43.7v-277.6c-13.6,23.8-27.7,44.4-41.2,60.3-3,3.5-5.9,6.8-8.8,9.8v207.5l-147.5-43.7v-195.4c-11-15.5-22.1-33.7-32.8-53.6-5.8-10.7-11.6-22.4-17.2-34.6v283.6l-147.5,43.7v-322.4l132.9-39.4c-6.2-15.9-11.6-32-15.8-47.5L21.6,235.3c-10.6,3.1-17.9,12.9-17.9,24v374.5c0,7.9,3.7,15.3,10,20,4.4,3.3,9.6,5,15,5s4.8-.3,7.1-1l190.4-56.4,190.4,56.4c.2,0,.5.1.7.2.3,0,.5.1.8.2.4,0,.8.2,1.1.2.2,0,.5,0,.7.1.4,0,.9.1,1.3.2.2,0,.4,0,.6,0,.6,0,1.3,0,1.9,0s1.3,0,1.9,0c.2,0,.4,0,.6,0,.4,0,.9,0,1.3-.2.2,0,.5,0,.7-.1.4,0,.8-.1,1.2-.2.2,0,.5-.1.8-.2.2,0,.5-.1.7-.2l197.5-58.5c10.6-3.2,17.9-12.9,17.9-24V200.7c0-7.9-3.7-15.3-10-20Z"/>
  <path class="st0" d="M337.5,387.6h.7c45.8,0,137.5-177.3,137.5-250.3S414.1,5,338.2,5h-.7c-76,0-137.5,59.2-137.5,132.3s91.7,250.3,137.5,250.3ZM272.3,142.9c0-36.2,29.3-65.5,65.5-65.5s65.5,29.3,65.5,65.5-29.3,65.5-65.5,65.5-65.5-29.3-65.5-65.5Z"/>
</svg>