<?xml version="1.0" encoding="UTF-8"?>
<svg id="Layer_5" xmlns="http://www.w3.org/2000/svg" version="1.1" viewBox="0 0 642.6 653.4">
  <!-- Generator: Adobe Illustrator 29.5.0, SVG Export Plug-In . SVG Version: 2.1.0 Build 137)  -->
  <defs>
    <style>
      .st0 {
        fill: #80cc29;
      }
    </style>
  </defs>
  <path class="st0" d="M632.6,175.3h0c-6.3-4.7-14.5-6.2-22.1-3.9l-190.4,56.4-15.1-4.5c21.9-41.7,39.1-89.6,39.1-117.8,0-58.3-49.1-105.5-109.7-105.5h-.5c-60.6,0-109.7,47.2-109.7,105.5s6.7,42.7,17,69.3l-11.4-3.4s0,0,0,0h0c-.1,0-.2,0-.3-.1-.4,0-.7-.2-1-.3-.2,0-.3,0-.5-.1-.3,0-.6-.1-.9-.2-.2,0-.4,0-.6,0-.3,0-.6,0-.9-.1-.2,0-.4,0-.6,0-.3,0-.5,0-.8,0-.2,0-.4,0-.6,0-.3,0-.5,0-.8,0s-.4,0-.7,0c-.3,0-.5,0-.8,0-.2,0-.5,0-.7,0-.2,0-.5,0-.7,0-.2,0-.5,0-.7.1-.2,0-.5,0-.7,0-.3,0-.5.1-.8.2-.2,0-.4,0-.6.1-.3,0-.6.2-.9.2-.1,0-.3,0-.4.1h0s0,0,0,0L17.9,229.9c-10.6,3.2-17.9,12.9-17.9,24v374.5c0,7.9,3.7,15.3,10,20,4.4,3.3,9.6,5,15,5s4.8-.3,7.1-1l190.4-56.4,190.4,56.4c.2,0,.5.1.7.2.3,0,.5.1.8.2.4,0,.8.2,1.1.2.2,0,.5,0,.7.1.4,0,.9.1,1.3.2.2,0,.4,0,.6,0,.6,0,1.3,0,1.9,0s1.3,0,1.9,0c.2,0,.4,0,.6,0,.4,0,.9,0,1.3-.2.2,0,.5,0,.7-.1.4,0,.8-.1,1.2-.2.2,0,.5-.1.8-.2.2,0,.5-.1.7-.2l197.5-58.5c10.6-3.2,17.9-12.9,17.9-24V195.3c0-7.9-3.7-15.3-10-20ZM334.1,57.7c28.8,0,52.2,23.4,52.2,52.2s-23.4,52.2-52.2,52.2-52.2-23.4-52.2-52.2,23.4-52.2,52.2-52.2ZM197.5,551.2l-147.5,43.7v-322.4l147.5-43.7v322.4ZM395.1,594.9l-147.5-43.7V228.8l22.3,6.6c21.9,38.8,46.9,69.7,64,69.7h.5c12,0,27.9-15.2,43.8-37.6l16.9,5v322.4ZM592.6,551.2l-147.5,43.7v-322.4l147.5-43.7v322.4Z"/>
</svg>