<?xml version="1.0" encoding="UTF-8" standalone="no"?>
<!-- Created with Inkscape (http://www.inkscape.org/) -->

<svg
   width="22.49375mm"
   height="27.328356mm"
   viewBox="0 0 22.49375 27.328356"
   version="1.1"
   id="svg5"
   inkscape:version="1.1.2 (0a00cf5339, 2022-02-04)"
   sodipodi:docname="opacity.svg"
   xmlns:inkscape="http://www.inkscape.org/namespaces/inkscape"
   xmlns:sodipodi="http://sodipodi.sourceforge.net/DTD/sodipodi-0.dtd"
   xmlns="http://www.w3.org/2000/svg"
   xmlns:svg="http://www.w3.org/2000/svg">
  <sodipodi:namedview
     id="namedview7"
     pagecolor="#ffffff"
     bordercolor="#666666"
     borderopacity="1.0"
     inkscape:pageshadow="2"
     inkscape:pageopacity="0.0"
     inkscape:pagecheckerboard="0"
     inkscape:document-units="mm"
     showgrid="false"
     inkscape:zoom="0.56123737"
     inkscape:cx="-79.289089"
     inkscape:cy="163.92351"
     inkscape:window-width="1920"
     inkscape:window-height="1007"
     inkscape:window-x="0"
     inkscape:window-y="0"
     inkscape:window-maximized="1"
     inkscape:current-layer="layer1" />
  <defs
     id="defs2" />
  <g
     inkscape:label="Layer 1"
     inkscape:groupmode="layer"
     id="layer1"
     transform="translate(-128.85016,-105.03902)">
    <path
       style="fill:#000000;stroke-width:0.264583"
       d="m 138.08013,132.03079 c -2.24953,-0.48945 -4.73551,-1.81389 -6.16909,-3.28665 -2.47827,-2.546 -3.58802,-6.33937 -2.82151,-9.64449 0.7784,-3.35639 1.671,-4.66206 6.53744,-9.56271 l 4.46651,-4.49792 4.59455,4.63862 c 5.08293,5.13168 6.00985,6.5022 6.50842,9.62313 0.96715,6.05408 -2.90466,11.40259 -9.22402,12.74207 -2.04926,0.43437 -1.83759,0.43502 -3.8923,-0.012 z m 10.39408,-11.7576 c -0.26149,-2.20787 -1.275,-3.74426 -4.94505,-7.49631 l -3.42794,-3.50452 -3.53043,3.57187 c -3.76703,3.81126 -4.5879,5.05669 -4.86281,7.37788 l -0.16029,1.35337 h 8.54038 8.54037 z"
       id="path882"
       sodipodi:nodetypes="cssscsssccsscsscccs" />
  </g>
</svg>
