<?xml version="1.0" encoding="UTF-8" standalone="no"?>
<!-- Generator: Adobe Illustrator 16.0.0, SVG Export Plug-In . SVG Version: 6.00 Build 0)  -->

<svg
   xmlns:dc="http://purl.org/dc/elements/1.1/"
   xmlns:cc="http://creativecommons.org/ns#"
   xmlns:rdf="http://www.w3.org/1999/02/22-rdf-syntax-ns#"
   xmlns:svg="http://www.w3.org/2000/svg"
   xmlns="http://www.w3.org/2000/svg"
   xmlns:sodipodi="http://sodipodi.sourceforge.net/DTD/sodipodi-0.dtd"
   xmlns:inkscape="http://www.inkscape.org/namespaces/inkscape"
   version="1.1"
   x="0px"
   y="0px"
   width="90.709"
   height="113.387"
   viewBox="0 0 90.708996 113.387"
   enable-background="new 0 0 595.275 841.89"
   xml:space="preserve"
   id="svg2"
   inkscape:version="0.48.4 r9939"
   sodipodi:docname="openGIS-logo-round-green.svg"><metadata
     id="metadata126"><rdf:RDF><cc:Work
         rdf:about=""><dc:format>image/svg+xml</dc:format><dc:type
           rdf:resource="http://purl.org/dc/dcmitype/StillImage" /><dc:title /></cc:Work></rdf:RDF></metadata><defs
     id="defs124" /><sodipodi:namedview
     pagecolor="#ffffff"
     bordercolor="#666666"
     borderopacity="1"
     objecttolerance="10"
     gridtolerance="10"
     guidetolerance="10"
     inkscape:pageopacity="0"
     inkscape:pageshadow="2"
     inkscape:window-width="1600"
     inkscape:window-height="876"
     id="namedview122"
     showgrid="false"
     inkscape:zoom="1.5857387"
     inkscape:cx="-100.88941"
     inkscape:cy="204.35545"
     inkscape:window-x="0"
     inkscape:window-y="24"
     inkscape:window-maximized="1"
     inkscape:current-layer="svg2"
     fit-margin-top="0"
     fit-margin-left="0"
     fit-margin-right="0"
     fit-margin-bottom="0" /><g
     id="g3324"
     transform="translate(-334.48801,-425.197)"><g
       id="g93"><path
         d="m 379.842,425.197 c -25.048,0 -45.354,20.304 -45.354,45.354 0,25.048 20.306,45.354 45.354,45.354 25.049,0 45.354,-20.307 45.354,-45.354 0,-25.05 -20.305,-45.354 -45.354,-45.354 z m 0,86.174 c -22.545,0 -40.819,-18.275 -40.819,-40.82 0,-22.544 18.274,-40.819 40.819,-40.819 22.543,0 40.817,18.275 40.817,40.819 0.001,22.545 -18.274,40.82 -40.817,40.82 z"
         id="path95"
         inkscape:connector-curvature="0"
         style="fill:#95c11f" /></g><g
       id="g97"><path
         d="m 347.319,531.699 c 0,3.496 -2.872,6.368 -6.388,6.368 -3.608,0 -6.443,-2.78 -6.443,-6.331 0,-3.554 2.872,-6.424 6.443,-6.424 3.516,10e-4 6.388,2.871 6.388,6.387 z m -10.971,0.019 c 0,2.575 2.025,4.601 4.565,4.601 2.521,0 4.547,-2.062 4.547,-4.601 0,-2.65 -1.97,-4.657 -4.547,-4.657 -2.577,0 -4.565,2.024 -4.565,4.657 z"
         id="path99"
         inkscape:connector-curvature="0"
         style="fill:#95c11f" /><path
         d="m 351.385,537.828 h -1.859 V 525.55 h 2.098 c 1.878,0 2.651,0.184 3.443,0.774 0.828,0.644 1.344,1.748 1.344,2.872 0,2.227 -1.62,3.644 -4.16,3.644 h -0.866 v 4.988 z m 0.682,-6.7 c 1.73,0 2.558,-0.645 2.558,-1.988 0,-1.251 -0.865,-1.878 -2.632,-1.878 h -0.608 v 3.866 h 0.682 z"
         id="path101"
         inkscape:connector-curvature="0"
         style="fill:#95c11f" /><path
         d="m 360.054,527.299 v 2.946 h 4.769 v 1.749 h -4.769 v 4.085 h 4.916 v 1.749 h -6.774 V 525.55 h 6.774 v 1.749 h -4.916 z"
         id="path103"
         inkscape:connector-curvature="0"
         style="fill:#95c11f" /><path
         d="m 367.289,524.723 8.946,9.35 v -8.522 h 1.859 v 13.033 l -8.947,-9.351 v 8.596 h -1.859 v -13.106 z"
         id="path105"
         inkscape:connector-curvature="0"
         style="fill:#95c11f" /><path
         d="m 392.672,531.938 c 0,1.656 -0.184,2.466 -0.755,3.386 -1.012,1.639 -3.074,2.706 -5.19,2.706 -3.424,0 -6.296,-2.872 -6.296,-6.294 0,-3.498 2.89,-6.352 6.407,-6.352 2.135,0 3.718,0.848 5.32,2.871 l -0.645,0.497 c -0.515,-0.681 -0.792,-0.993 -1.178,-1.307 -0.938,-0.828 -2.264,-1.307 -3.534,-1.307 -3.019,0 -5.559,2.577 -5.559,5.614 0,3.019 2.503,5.522 5.522,5.522 1.786,0 3.663,-0.977 4.492,-2.356 0.368,-0.591 0.515,-1.196 0.552,-2.246 H 387.5 v -0.735 h 5.172 z"
         id="path107"
         inkscape:connector-curvature="0"
         style="fill:#95c11f" /><path
         d="m 395.984,537.828 h -0.791 V 525.55 h 0.791 v 12.278 z"
         id="path109"
         inkscape:connector-curvature="0"
         style="fill:#95c11f" /><path
         d="m 404.765,527.611 c -0.7,-1.066 -1.362,-1.472 -2.412,-1.472 -1.307,0 -2.301,1.013 -2.301,2.319 0,0.994 0.498,1.528 2.172,2.337 1.583,0.756 1.896,0.922 2.449,1.271 0.865,0.57 1.288,1.362 1.288,2.392 0,1.951 -1.749,3.571 -3.829,3.571 -1.694,0 -2.909,-0.884 -3.627,-2.632 l 0.682,-0.332 c 0.754,1.583 1.583,2.21 2.945,2.21 1.657,0 3,-1.308 3,-2.892 0,-0.754 -0.423,-1.416 -1.197,-1.857 -0.276,-0.146 -0.699,-0.368 -1.233,-0.645 l -0.35,-0.165 -0.35,-0.186 -0.35,-0.165 c -1.896,-0.938 -2.43,-1.583 -2.43,-2.982 0,-1.711 1.344,-3 3.148,-3 1.27,0 2.338,0.626 2.982,1.749 l -0.587,0.479 z"
         id="path111"
         inkscape:connector-curvature="0"
         style="fill:#95c11f" /><path
         d="m 409.384,537.276 c 0,0.387 -0.294,0.681 -0.663,0.681 -0.369,0 -0.681,-0.313 -0.681,-0.681 0,-0.369 0.294,-0.663 0.681,-0.663 0.369,0 0.663,0.294 0.663,0.663 z"
         id="path113"
         inkscape:connector-curvature="0"
         style="fill:#95c11f" /><path
         d="m 417.796,532.086 c -0.902,-0.903 -1.639,-1.253 -2.651,-1.253 -1.73,0 -3.093,1.455 -3.093,3.276 0,1.805 1.381,3.24 3.111,3.24 1.031,0 1.915,-0.442 2.725,-1.363 v 0.994 c -0.865,0.719 -1.712,1.05 -2.725,1.05 -2.19,0 -3.866,-1.694 -3.866,-3.884 0,-2.281 1.676,-3.994 3.866,-3.994 1.013,0 1.767,0.276 2.633,0.957 v 0.977 z"
         id="path115"
         inkscape:connector-curvature="0"
         style="fill:#95c11f" /><path
         d="m 420.448,524.41 v 7.085 c 0.607,-0.956 1.289,-1.343 2.301,-1.343 0.865,0 1.692,0.405 2.08,1.05 0.258,0.422 0.368,0.994 0.368,1.896 v 4.73 h -0.737 v -4.73 c 0,-1.62 -0.516,-2.265 -1.803,-2.265 -1.473,0 -2.209,1.032 -2.209,3.093 v 3.902 h -0.737 V 524.41 h 0.737 z"
         id="path117"
         inkscape:connector-curvature="0"
         style="fill:#95c11f" /></g><path
       d="m 397.982,468.737 v 1.813 h 16.331 c 0,9.017 -7.313,16.329 -16.331,16.329 -9.016,0 -16.324,-7.313 -16.324,-16.329 0,-9.016 7.309,-16.328 16.324,-16.328 4.443,0 8.475,1.774 11.419,4.653 l 1.412,-1.153 c -3.284,-3.283 -7.818,-5.313 -12.831,-5.313 -10.019,0 -18.137,8.121 -18.137,18.141 0,10.02 8.118,18.142 18.137,18.142 10.021,0 18.144,-8.122 18.144,-18.142 v -1.813 h -18.144 z"
       id="path119"
       inkscape:connector-curvature="0"
       style="fill:#95c11f" /></g><g
     id="grille"
     transform="translate(-334.48801,-425.197)" /></svg>