<?xml version="1.0" encoding="UTF-8"?>
<svg id="Layer_1" xmlns="http://www.w3.org/2000/svg" version="1.1" viewBox="0 0 726.9 652.5">
  <!-- Generator: Adobe Illustrator 29.5.0, SVG Export Plug-In . SVG Version: 2.1.0 Build 137)  -->
  <defs>
    <style>
      .st0 {
        fill: #80cc29;
      }
    </style>
  </defs>
  <path class="st0" d="M659,497.3L504.3,124.8c9.8-13,15.7-29.3,15.7-46.9,0-43-34.9-77.9-77.9-77.9s-77.9,34.9-77.9,77.9.7,11.5,1.9,17l-247.5,166.8c-11.8-7.3-25.8-11.5-40.7-11.5C34.9,250.2,0,285.1,0,328.1s34.9,77.9,77.9,77.9,9.8-.5,14.5-1.4l117.7,140.1c-3.8,9.2-5.9,19.2-5.9,29.8,0,43,34.9,77.9,77.9,77.9s61.9-21,73-50.6l223.4,5.9c12.5,26.4,39.3,44.7,70.5,44.7s77.9-34.9,77.9-77.9-29.6-72.4-68-77.3ZM573,557.6l-216.3-5.7c-9.7-32-39.4-55.3-74.6-55.3s-27.2,3.7-38.6,10.2l-107-127.4c12-13.7,19.3-31.7,19.3-51.3s-1.8-19.2-5.1-27.8l241.4-162.7c13.5,11.3,31,18.2,50,18.2s13.5-.9,19.9-2.6l147.1,354.4c-18.1,10.8-31.4,28.8-36.2,50Z"/>
</svg>