<?xml version="1.0" encoding="UTF-8"?>
<svg id="Layer_1" data-name="Layer 1" xmlns="http://www.w3.org/2000/svg" viewBox="0 0 683.22 682.98">
  <defs>
    <style>
      .cls-1 {
        fill: #7ac943;
        stroke: #7ac943;
        stroke-linecap: round;
        stroke-linejoin: round;
        stroke-width: .5px;
      }
    </style>
  </defs>
  <path class="cls-1" d="M516.57,623.8h-147.44v-53.74c0-25.98-21.14-47.12-47.12-47.12s-47.12,21.14-47.12,47.12v53.74H127.45c-28.05,0-50.87-22.82-50.87-50.87v-147.44h53.31c25.98,0,47.12-21.14,47.12-47.12s-21.14-47.12-47.12-47.12h-53.31v-147.44c0-28.05,22.82-50.87,50.87-50.87h97.44v-2.86c0-53.55,43.57-97.12,97.12-97.12s97.12,43.57,97.12,97.12v2.86h97.44c28.05,0,50.87,22.82,50.87,50.87v97.44h3.01c53.55,0,97.12,43.57,97.12,97.12s-43.57,97.12-97.12,97.12h-3.01v97.44c0,28.05-22.82,50.87-50.87,50.87ZM419.14,573.8h97.44c.46,0,.87-.42.87-.87v-147.44h53.01c25.98,0,47.12-21.14,47.12-47.12s-21.14-47.12-47.12-47.12h-53.01v-147.44c0-.46-.42-.87-.87-.87h-147.44v-52.86c0-25.98-21.14-47.12-47.12-47.12s-47.12,21.14-47.12,47.12v52.86H127.45c-.46,0-.87.42-.87.87v97.44h3.31c53.55,0,97.12,43.57,97.12,97.12s-43.57,97.12-97.12,97.12h-3.31v97.44c0,.46.42.87.87.87h97.44v-3.74c0-53.55,43.57-97.12,97.12-97.12s97.12,43.57,97.12,97.12v3.74Z"/>
</svg>