<?xml version="1.0" encoding="UTF-8"?>
<svg id="Layer_1" data-name="Layer 1" xmlns="http://www.w3.org/2000/svg" viewBox="0 0 683.22 682.98">
  <defs>
    <style>
      .cls-1 {
        fill: #7ac943;
      }
    </style>
  </defs>
  <path class="cls-1" d="M570.45,306.24h-28.01v-122.44c0-14.27-11.61-25.87-25.87-25.87h-122.44v-27.86c0-39.83-32.29-72.12-72.12-72.12h0c-39.83,0-72.12,32.29-72.12,72.12v27.86h-122.44c-14.27,0-25.87,11.61-25.87,25.87v122.44h28.31c39.83,0,72.12,32.29,72.12,72.12s-32.29,72.12-72.12,72.12h-28.31v122.44c0,14.27,11.61,25.87,25.87,25.87h122.44v-28.74c0-39.83,32.29-72.12,72.12-72.12h0c39.83,0,72.12,32.29,72.12,72.12v28.74h122.44c14.27,0,25.87-11.61,25.87-25.87v-122.44h28.01c39.83,0,72.12-32.29,72.12-72.12s-32.29-72.12-72.12-72.12Z"/>
</svg>