<?xml version="1.0" encoding="UTF-8"?>
<svg id="Layer_1" xmlns="http://www.w3.org/2000/svg" version="1.1" viewBox="0 0 388.2 439.3">
  <!-- Generator: Adobe Illustrator 29.5.0, SVG Export Plug-In . SVG Version: 2.1.0 Build 137)  -->
  <defs>
    <style>
      .st0 {
        fill: #7ac943;
      }
    </style>
  </defs>
  <path class="st0" d="M379,105.3c-10.7-8.7-26.4-7.1-35.2,3.5l-58.4,71.5-83.4-68.1,58.4-71.5c8.7-10.7,7.1-26.4-3.5-35.2-10.7-8.7-26.4-7.1-35.2,3.6l-58.4,71.5-42.9-35.1c-10.7-8.7-26.4-7.1-35.2,3.6-8.7,10.7-7.1,26.4,3.6,35.2l2.8,2.3-55.2,67.6c-49,60-45.8,145.6,4,201.7l-34.7,42.5c-8.7,10.7-7.1,26.4,3.6,35.2,4.6,3.8,10.2,5.6,15.8,5.6s14.4-3.1,19.4-9.2l34.7-42.5c65,37.6,149.4,23.6,198.5-36.4l55.2-67.6,2.8,2.3c4.6,3.8,10.2,5.6,15.8,5.6s14.4-3.1,19.4-9.2c8.7-10.7,7.1-26.4-3.6-35.2l-42.9-35.1,58.4-71.5c8.7-10.7,7.1-26.4-3.5-35.2Z"/>
</svg>