<?xml version="1.0" encoding="UTF-8"?>
<svg width="282.07" height="417.73" data-name="Ebene 1" version="1.1" viewBox="0 0 282.07 417.73" xml:space="preserve" xmlns="http://www.w3.org/2000/svg" xmlns:cc="http://creativecommons.org/ns#" xmlns:dc="http://purl.org/dc/elements/1.1/" xmlns:rdf="http://www.w3.org/1999/02/22-rdf-syntax-ns#"><metadata><rdf:RDF><cc:Work rdf:about=""><dc:format>image/svg+xml</dc:format><dc:type rdf:resource="http://purl.org/dc/dcmitype/StillImage"/></cc:Work></rdf:RDF></metadata><defs><style>.cls-1{fill:#fff;}.cls-2{font-size:46.06px;font-family:Lato-Bold, Lato;font-weight:700;letter-spacing:0.02em;}.cls-2,.cls-3{fill:#4a6fae;}</style><style>.cls-1{fill:#fff;}.cls-2{font-size:46.06px;font-family:Lato-Bold, Lato;font-weight:700;letter-spacing:0.02em;}.cls-2,.cls-3{fill:#4a6fae;}</style></defs><ellipse cx="89.214" cy="144.39" rx="47.786" ry="55.618" fill="#fff"/><ellipse cx="195.77" cy="143.1" rx="47.786" ry="55.618" fill="#fff"/><g fill="none" stroke="#fff" stroke-linecap="round" stroke-linejoin="round"><g stroke-width="14"><path d="m40.762 387.57q0 2.2339-0.4606 4.2836-0.4606 2.0266-1.3357 3.8-0.85211 1.7733-2.0957 3.2703-1.2436 1.4739-2.8327 2.6024l8.452 9.212h-5.1127q-1.1054 0-2.0036-0.29939-0.87514-0.29939-1.6121-1.1054l-4.8824-5.389q-1.1745 0.32242-2.4182 0.48363-1.2206 0.16121-2.5563 0.16121-3.7769 0-6.909-1.2666-3.109-1.2897-5.343-3.5696-2.2109-2.28-3.4315-5.389-1.2206-3.1321-1.2206-6.7938t1.2206-6.7708q1.2206-3.1321 3.4315-5.412 2.2339-2.28 5.343-3.5466 3.1321-1.2897 6.909-1.2897 3.7769 0 6.886 1.2897t5.3199 3.5696q2.2109 2.2569 3.4315 5.389 1.2206 3.109 1.2206 6.7708zm-6.3563 0q0-2.7406-0.73696-4.9054-0.71393-2.1878-2.0727-3.7078t-3.3163-2.326q-1.9345-0.80605-4.3757-0.80605t-4.3987 0.80605q-1.9576 0.80605-3.3394 2.326-1.3588 1.52-2.0957 3.7078-0.73696 2.1648-0.73696 4.9054t0.73696 4.9284q0.73696 2.1648 2.0957 3.6848 1.3818 1.497 3.3394 2.303 1.9576 0.80605 4.3987 0.80605t4.3757-0.80605q1.9576-0.80605 3.3163-2.303 1.3588-1.52 2.0727-3.6848 0.73696-2.1878 0.73696-4.9284z"/><path d="m67.569 370.92v4.9284h-14.762v9.8568h12.459v4.9514h-12.459v13.565h-6.2411v-33.301z"/><path d="m79.084 380.59v23.629h-5.6884v-23.629zm0.85211-6.886q0 0.73696-0.29939 1.3818t-0.80605 1.1285q-0.48363 0.48363-1.1515 0.78302-0.66787 0.27636-1.4279 0.27636-0.73696 0-1.4048-0.27636-0.64484-0.29939-1.1285-0.78302t-0.78302-1.1285q-0.27636-0.64484-0.27636-1.3818 0-0.75999 0.27636-1.4279 0.29939-0.66787 0.78302-1.1515t1.1285-0.75999q0.66787-0.29939 1.4048-0.29939 0.75999 0 1.4279 0.29939 0.66787 0.27636 1.1515 0.75999 0.50666 0.48363 0.80605 1.1515t0.29939 1.4279z"/><path d="m96.195 380.22q2.2339 0 4.0993 0.71393 1.8885 0.71393 3.2472 2.0957 1.3588 1.3588 2.1188 3.3624 0.75999 1.9806 0.75999 4.5369 0 0.64484-0.0691 1.0824-0.0461 0.41454-0.20727 0.66787-0.13818 0.2303-0.39151 0.34545-0.25333 0.0921-0.64484 0.0921h-14.601q0.25333 3.6387 1.9576 5.343t4.5139 1.7042q1.3818 0 2.3721-0.32242 1.0133-0.32242 1.7503-0.71393 0.75999-0.39151 1.3127-0.71393 0.57575-0.32242 1.1054-0.32242 0.34545 0 0.59878 0.13818t0.43757 0.39151l1.6582 2.0727q-0.94423 1.1054-2.1188 1.8654-1.1745 0.73696-2.4642 1.1976-1.2666 0.43757-2.6024 0.62181-1.3127 0.18424-2.5563 0.18424-2.4642 0-4.583-0.80605-2.1188-0.82908-3.6848-2.4182-1.566-1.6121-2.4642-3.9612-0.89817-2.3721-0.89817-5.4811 0-2.4182 0.78302-4.5369 0.78302-2.1418 2.2339-3.7078 1.4739-1.5891 3.5696-2.5103 2.1188-0.9212 4.7672-0.9212zm0.11515 4.0763q-2.4872 0-3.8921 1.4048t-1.7963 3.9842h10.686q0-1.1054-0.29939-2.0727-0.29939-0.99029-0.9212-1.7272-0.62181-0.73696-1.566-1.1515-0.94423-0.43757-2.2109-0.43757z"/><path d="m118.03 369.99v34.223h-5.6884v-34.223z"/><path d="m142 404.22q-1.1054 0-1.4509-1.0364l-0.4606-2.28q-0.73696 0.82908-1.543 1.497t-1.7503 1.1515q-0.9212 0.48363-2.0036 0.73696-1.0594 0.27636-2.303 0.27636-1.9345 0-3.5466-0.80605t-2.7866-2.326q-1.1515-1.543-1.7963-3.8-0.62181-2.2569-0.62181-5.1587 0-2.6254 0.71393-4.8824t2.0497-3.9151 3.2012-2.5794q1.8654-0.94423 4.1915-0.94423 1.9806 0 3.3854 0.64484 1.4048 0.62181 2.5103 1.6812v-12.482h5.6884v34.223zm-7.5769-4.1684q1.7733 0 3.0169-0.73696t2.3491-2.0957v-10.594q-0.96726-1.1745-2.1188-1.6582-1.1285-0.48363-2.4412-0.48363-1.2897 0-2.3491 0.48363-1.0364 0.48363-1.7733 1.4739-0.71393 0.96726-1.1054 2.4872-0.39151 1.497-0.39151 3.5466 0 2.0727 0.32242 3.5236 0.34545 1.4279 0.96726 2.3491 0.62181 0.89817 1.52 1.3127 0.89817 0.39151 2.0036 0.39151z"/><path d="m175.76 396.36q0.50666 0 0.87514 0.39151l2.4412 2.6484q-2.0266 2.5103-4.9975 3.846-2.9478 1.3357-7.0932 1.3357-3.7078 0-6.6787-1.2666-2.9478-1.2666-5.0436-3.5236t-3.2242-5.389q-1.1054-3.1321-1.1054-6.8399 0-3.7539 1.2436-6.8629 1.2436-3.1321 3.5006-5.389t5.389-3.5006q3.1551-1.2666 6.9551-1.2666 3.7078 0 6.4714 1.1976 2.7866 1.1745 4.7672 3.1321l-2.0727 2.8788q-0.18424 0.27636-0.48363 0.48363-0.27636 0.20727-0.78302 0.20727-0.52969 0-1.0824-0.41454t-1.4048-0.89817-2.1648-0.89817q-1.2897-0.41454-3.2933-0.41454-2.3491 0-4.3296 0.82908-1.9576 0.80605-3.3854 2.326-1.4048 1.52-2.2109 3.7078-0.78302 2.1648-0.78302 4.8824 0 2.8097 0.78302 4.9975 0.80605 2.1878 2.1648 3.6848t3.2012 2.303q1.8424 0.78302 3.9612 0.78302 1.2666 0 2.28-0.13818 1.0364-0.13818 1.8885-0.43757 0.87514-0.29939 1.6351-0.75999 0.78302-0.48363 1.543-1.1745 0.2303-0.20727 0.48363-0.32242 0.25333-0.13818 0.55272-0.13818z"/><path d="m190.41 369.99v34.223h-5.6884v-34.223z"/><path d="m207.84 380.22q2.6484 0 4.7902 0.85211 2.1648 0.85211 3.6848 2.4182t2.3491 3.823 0.82908 5.0436q0 2.8097-0.82908 5.0666t-2.3491 3.846-3.6848 2.4412q-2.1418 0.85211-4.7902 0.85211t-4.8133-0.85211-3.7078-2.4412q-1.52-1.5891-2.3721-3.846-0.82908-2.2569-0.82908-5.0666 0-2.7866 0.82908-5.0436 0.85211-2.2569 2.3721-3.823 1.543-1.566 3.7078-2.4182t4.8133-0.85211zm0 19.967q2.9478 0 4.3527-1.9806 1.4279-1.9806 1.4279-5.8036t-1.4279-5.8266q-1.4048-2.0036-4.3527-2.0036-2.9939 0-4.4218 2.0266-1.4279 2.0036-1.4279 5.8036t1.4279 5.8036q1.4279 1.9806 4.4218 1.9806z"/><path d="m230.07 380.59v15.016q0 2.1648 0.99029 3.3624 1.0133 1.1745 3.0169 1.1745 1.4739 0 2.7636-0.64484 1.2897-0.66787 2.4412-1.8194v-17.088h5.6884v23.629h-3.4775q-1.1054 0-1.4509-1.0364l-0.39151-1.8885q-0.73696 0.73696-1.52 1.3588-0.78302 0.59878-1.6812 1.0364-0.87514 0.41454-1.9115 0.64484-1.0133 0.25333-2.1878 0.25333-1.9345 0-3.4315-0.64484-1.4739-0.66787-2.4872-1.8654t-1.543-2.8327q-0.50666-1.6582-0.50666-3.6387v-15.016z"/></g><path d="m268.6 404.22q-1.1054 0-1.4509-1.0364l-0.4606-2.28q-0.73696 0.82908-1.543 1.497t-1.7503 1.1515q-0.9212 0.48363-2.0036 0.73696-1.0594 0.27636-2.303 0.27636-1.9345 0-3.5466-0.80605t-2.7866-2.326q-1.1515-1.543-1.7963-3.8-0.62181-2.2569-0.62181-5.1587 0-2.6254 0.71393-4.8824t2.0497-3.9151 3.2012-2.5794q1.8654-0.94423 4.1915-0.94423 1.9806 0 3.3854 0.64484 1.4048 0.62181 2.5103 1.6812v-12.482h5.6884v34.223zm-7.5769-4.1684q1.7733 0 3.0169-0.73696t2.3491-2.0957v-10.594q-0.96726-1.1745-2.1188-1.6582-1.1285-0.48363-2.4412-0.48363-1.2897 0-2.3491 0.48363-1.0364 0.48363-1.7733 1.4739-0.71393 0.96726-1.1054 2.4872-0.39151 1.497-0.39151 3.5466 0 2.0727 0.32242 3.5236 0.34545 1.4279 0.96726 2.3491 0.62181 0.89817 1.52 1.3127 0.89817 0.39151 2.0036 0.39151z" stroke-width="20"/><path class="cls-3" d="m132.29 153.49a11.92 11.92 0 1 0-11.91 11.91 11.92 11.92 0 0 0 11.91-11.91z" stroke-width="14"/><path class="cls-3" d="m151.6 153.49a11.92 11.92 0 1 0 11.92-11.92 11.92 11.92 0 0 0-11.92 11.92z" stroke-width="14"/><g stroke-width="20"><path class="cls-3" d="m54.417 197.72a94.53 94.53 0 0 0 14.4 24.52 95.82 95.82 0 0 0 72.67 34 98.34 98.34 0 0 0 68.63-28.38 94.44 94.44 0 0 0 21.65-36.62 3.2 3.2 0 0 0-4.62-3.75 53.57 53.57 0 1 1-37.37-99.1 3.2 3.2 0 0 0 1-5.86 93.5 93.5 0 0 0-29.22-11.58c-3-13.37-7.53-21.21-11.6-28.12a270.52 270.52 0 0 0-15.44-22.3 19.34 19.34 0 0 0-8.47-8.23c-8-4.12-17.1-2.52-20.23 3.58-3.13 6.1 0.85 14.39 8.89 18.52 0.47 0.24 0.94 0.46 1.42 0.66a20.41 20.41 0 0 0 5.52 1.48 37.81 37.81 0 0 1 13 7.71c4.28 3.96 12.28 17.71 13.28 24.86-2-0.12-4-0.19-6-0.19q-4.23 0-8.41 0.38c-8-10.49-14.87-17.78-21.31-23.15-7-5.81-16.45-12.32-19.9-14a19.68 19.68 0 0 0-10.4-2.83c-9 0-16.36 5.56-16.36 12.42s7.38 12.43 16.38 12.43a22 22 0 0 0 3.94-0.37h0.06a19 19 0 0 0 3.8-1.11 18.56 18.56 0 0 1 8.56 0c5.64 1.55 22.23 13.7 20.8 19.08a93.75 93.75 0 0 0-26 10.83 3.2 3.2 0 0 0 1 5.86 53.56 53.56 0 1 1-37.36 99.1 3.2 3.2 0 0 0-4.76 2.58q1.06 3.84 2.45 7.58z"/><path class="cls-3" d="m194.14 326.47c-0.92-0.15-5.66-0.27-5.66-0.27-7.7-0.93-10-19.08-10.58-25.61a59.64 59.64 0 0 0 11.82-12.24 113.56 113.56 0 0 1-95.09 0.63 59.55 59.55 0 0 0 11.37 11.61c-0.58 6.53-2.89 24.68-10.59 25.61 0 0-4.74 0.12-5.65 0.27-4.55 1-7.83 4-7.83 7.53 0 4.39 5.11 7.95 11.42 7.95 0 0 13.77 1.17 16.76-1.35s4.55-4.73 4-15.87 9.5-14.18 9.82-14.67c5.68 1.83 11.73 15.63 18 15.63s12.33-13.8 18-15.63c0.33 0.5 10.43 3.54 9.85 14.68s1 13.35 4 15.87 16.77 1.35 16.77 1.35c6.3 0 11.41-3.56 11.41-7.95-0.03-3.52-3.28-6.5-7.82-7.54z"/><path class="cls-3" d="m217.73 266.22h-0.05a3.65 3.65 0 0 0-0.54-0.32c-8.18-5-12.43-10.24-14.63-14.15a100.89 100.89 0 0 1-121.43 0.47c-2.27 3.86-6.5 8.9-14.36 13.68a5.09 5.09 0 0 0-0.54 0.32h-0.05a8.71 8.71 0 1 0 13.08 9.6c0.76-2.33 1.71-5.55 3.08-8.78l2.33 1.35c15.94 10 38.13 16.71 56.87 16.71 19.93 0 41.66-7 58.09-18.08l1.43-1.23a88 88 0 0 1 3.65 10 8.71 8.71 0 1 0 13.07-9.6z"/></g></g><g fill="#4a6fae"><g transform="translate(7.751 10.011)" aria-label="QFieldCloud"><path d="m33.011 377.56q0 2.2339-0.4606 4.2836-0.4606 2.0266-1.3357 3.8-0.85211 1.7733-2.0957 3.2703-1.2436 1.4739-2.8327 2.6024l8.452 9.212h-5.1127q-1.1054 0-2.0036-0.29939-0.87514-0.29939-1.6121-1.1054l-4.8824-5.389q-1.1745 0.32242-2.4182 0.48363-1.2206 0.16121-2.5563 0.16121-3.7769 0-6.909-1.2666-3.1091-1.2897-5.343-3.5696-2.2109-2.28-3.4315-5.389-1.2206-3.1321-1.2206-6.7938t1.2206-6.7708q1.2206-3.1321 3.4315-5.412 2.2339-2.28 5.343-3.5466 3.1321-1.2897 6.909-1.2897 3.7769 0 6.886 1.2897t5.3199 3.5696q2.2109 2.2569 3.4315 5.389 1.2206 3.109 1.2206 6.7708zm-6.3563 0q0-2.7406-0.73696-4.9054-0.71393-2.1878-2.0727-3.7078t-3.3163-2.326q-1.9345-0.80605-4.3757-0.80605t-4.3987 0.80605q-1.9575 0.80605-3.3393 2.326-1.3588 1.52-2.0957 3.7078-0.73696 2.1648-0.73696 4.9054t0.73696 4.9284q0.73696 2.1648 2.0957 3.6848 1.3818 1.497 3.3393 2.303 1.9576 0.80605 4.3987 0.80605t4.3757-0.80605q1.9576-0.80605 3.3163-2.303 1.3588-1.52 2.0727-3.6848 0.73696-2.1878 0.73696-4.9284z"/><path d="m59.818 360.9v4.9284h-14.762v9.8568h12.459v4.9514h-12.459v13.565h-6.2411v-33.301z"/><path d="m71.333 370.58v23.629h-5.6884v-23.629zm0.85211-6.886q0 0.73696-0.29939 1.3818t-0.80605 1.1285q-0.48363 0.48363-1.1515 0.78302-0.66787 0.27636-1.4279 0.27636-0.73696 0-1.4048-0.27636-0.64484-0.29939-1.1285-0.78302t-0.78302-1.1285q-0.27636-0.64484-0.27636-1.3818 0-0.75999 0.27636-1.4279 0.29939-0.66787 0.78302-1.1515t1.1285-0.75999q0.66787-0.29939 1.4048-0.29939 0.75999 0 1.4279 0.29939 0.66787 0.27636 1.1515 0.75999 0.50666 0.48363 0.80605 1.1515t0.29939 1.4279z"/><path d="m88.444 370.21q2.2339 0 4.0993 0.71393 1.8885 0.71393 3.2472 2.0957 1.3588 1.3588 2.1188 3.3624 0.75999 1.9806 0.75999 4.5369 0 0.64484-0.06909 1.0824-0.04606 0.41454-0.20727 0.66787-0.13818 0.2303-0.39151 0.34545-0.25333 0.0921-0.64484 0.0921h-14.601q0.25333 3.6387 1.9576 5.343t4.5139 1.7042q1.3818 0 2.3721-0.32242 1.0133-0.32242 1.7503-0.71393 0.75999-0.39151 1.3127-0.71393 0.57575-0.32242 1.1054-0.32242 0.34545 0 0.59878 0.13818t0.43757 0.39151l1.6582 2.0727q-0.94423 1.1054-2.1188 1.8654-1.1745 0.73696-2.4642 1.1976-1.2666 0.43757-2.6024 0.62181-1.3127 0.18424-2.5563 0.18424-2.4642 0-4.583-0.80605-2.1188-0.82908-3.6848-2.4182-1.566-1.6121-2.4642-3.9612-0.89817-2.3721-0.89817-5.4811 0-2.4182 0.78302-4.5369 0.78302-2.1418 2.2339-3.7078 1.4739-1.5891 3.5696-2.5103 2.1188-0.9212 4.7672-0.9212zm0.11515 4.0763q-2.4872 0-3.8921 1.4048t-1.7963 3.9842h10.686q0-1.1054-0.29939-2.0727-0.29939-0.99029-0.9212-1.7272t-1.566-1.1515q-0.94423-0.43757-2.2109-0.43757z"/><path d="m110.28 359.98v34.223h-5.6884v-34.223z"/><path d="m134.25 394.21q-1.1054 0-1.4509-1.0364l-0.4606-2.28q-0.73696 0.82908-1.543 1.497t-1.7503 1.1515q-0.9212 0.48363-2.0036 0.73696-1.0594 0.27636-2.303 0.27636-1.9345 0-3.5466-0.80605t-2.7866-2.326q-1.1515-1.543-1.7963-3.8-0.62181-2.2569-0.62181-5.1587 0-2.6254 0.71393-4.8824t2.0497-3.9151 3.2012-2.5794q1.8654-0.94423 4.1915-0.94423 1.9806 0 3.3854 0.64484 1.4048 0.62181 2.5103 1.6812v-12.482h5.6884v34.223zm-7.5769-4.1684q1.7733 0 3.0169-0.73696t2.3491-2.0957v-10.594q-0.96726-1.1745-2.1188-1.6582-1.1285-0.48363-2.4412-0.48363-1.2897 0-2.3491 0.48363-1.0364 0.48363-1.7733 1.4739-0.71393 0.96726-1.1054 2.4872-0.39151 1.497-0.39151 3.5466 0 2.0727 0.32242 3.5236 0.34545 1.4279 0.96726 2.3491 0.62181 0.89817 1.52 1.3127 0.89817 0.39151 2.0036 0.39151z"/><path d="m168.01 386.35q0.50666 0 0.87514 0.39151l2.4412 2.6484q-2.0266 2.5103-4.9975 3.846-2.9478 1.3357-7.0932 1.3357-3.7078 0-6.6787-1.2666-2.9478-1.2666-5.0436-3.5236t-3.2242-5.389q-1.1054-3.1321-1.1054-6.8399 0-3.7539 1.2436-6.8629 1.2436-3.1321 3.5006-5.389t5.389-3.5006q3.1551-1.2666 6.9551-1.2666 3.7078 0 6.4714 1.1976 2.7866 1.1745 4.7672 3.1321l-2.0727 2.8788q-0.18424 0.27636-0.48363 0.48363-0.27636 0.20727-0.78302 0.20727-0.52969 0-1.0824-0.41454t-1.4048-0.89817-2.1648-0.89817q-1.2897-0.41454-3.2933-0.41454-2.3491 0-4.3296 0.82908-1.9576 0.80605-3.3854 2.326-1.4048 1.52-2.2109 3.7078-0.78302 2.1648-0.78302 4.8824 0 2.8097 0.78302 4.9975 0.80605 2.1878 2.1648 3.6848t3.2012 2.303q1.8424 0.78302 3.9612 0.78302 1.2666 0 2.28-0.13818 1.0364-0.13818 1.8885-0.43757 0.87514-0.29939 1.6351-0.75999 0.78302-0.48363 1.543-1.1745 0.2303-0.20727 0.48363-0.32242 0.25333-0.13818 0.55272-0.13818z"/><path d="m182.66 359.98v34.223h-5.6884v-34.223z"/><path d="m200.09 370.21q2.6484 0 4.7902 0.85211 2.1648 0.85211 3.6848 2.4182t2.3491 3.823 0.82908 5.0436q0 2.8097-0.82908 5.0666t-2.3491 3.846-3.6848 2.4412q-2.1418 0.85211-4.7902 0.85211t-4.8133-0.85211-3.7078-2.4412q-1.52-1.5891-2.3721-3.846-0.82908-2.2569-0.82908-5.0666 0-2.7866 0.82908-5.0436 0.85211-2.2569 2.3721-3.823 1.543-1.566 3.7078-2.4182t4.8133-0.85211zm0 19.967q2.9478 0 4.3527-1.9806 1.4279-1.9806 1.4279-5.8036t-1.4279-5.8266q-1.4048-2.0036-4.3527-2.0036-2.9939 0-4.4218 2.0266-1.4279 2.0036-1.4279 5.8036t1.4279 5.8036q1.4279 1.9806 4.4218 1.9806z"/><path d="m222.32 370.58v15.016q0 2.1648 0.99029 3.3624 1.0133 1.1745 3.0169 1.1745 1.4739 0 2.7636-0.64484 1.2897-0.66787 2.4412-1.8194v-17.088h5.6884v23.629h-3.4775q-1.1054 0-1.4509-1.0364l-0.39151-1.8885q-0.73696 0.73696-1.52 1.3588-0.78302 0.59878-1.6812 1.0364-0.87514 0.41454-1.9115 0.64484-1.0133 0.25333-2.1878 0.25333-1.9345 0-3.4315-0.64484-1.4739-0.66787-2.4872-1.8654t-1.543-2.8327q-0.50666-1.6582-0.50666-3.6387v-15.016z"/><path d="m260.85 394.21q-1.1054 0-1.4509-1.0364l-0.4606-2.28q-0.73696 0.82908-1.543 1.497t-1.7503 1.1515q-0.9212 0.48363-2.0036 0.73696-1.0594 0.27636-2.303 0.27636-1.9345 0-3.5466-0.80605t-2.7866-2.326q-1.1515-1.543-1.7963-3.8-0.62181-2.2569-0.62181-5.1587 0-2.6254 0.71393-4.8824t2.0497-3.9151 3.2012-2.5794q1.8654-0.94423 4.1915-0.94423 1.9806 0 3.3854 0.64484 1.4048 0.62181 2.5103 1.6812v-12.482h5.6884v34.223zm-7.5769-4.1684q1.7733 0 3.0169-0.73696t2.3491-2.0957v-10.594q-0.96726-1.1745-2.1188-1.6582-1.1285-0.48363-2.4412-0.48363-1.2897 0-2.3491 0.48363-1.0364 0.48363-1.7733 1.4739-0.71393 0.96726-1.1054 2.4872-0.39151 1.497-0.39151 3.5466 0 2.0727 0.32242 3.5236 0.34545 1.4279 0.96726 2.3491 0.62181 0.89817 1.52 1.3127 0.89817 0.39151 2.0036 0.39151z"/></g><path class="cls-3" d="m132.29 153.49a11.92 11.92 0 1 0-11.91 11.91 11.92 11.92 0 0 0 11.91-11.91z"/><path class="cls-3" d="m151.6 153.49a11.92 11.92 0 1 0 11.92-11.92 11.92 11.92 0 0 0-11.92 11.92z"/><path class="cls-3" d="m54.417 197.72a94.53 94.53 0 0 0 14.4 24.52 95.82 95.82 0 0 0 72.67 34 98.34 98.34 0 0 0 68.63-28.38 94.44 94.44 0 0 0 21.65-36.62 3.2 3.2 0 0 0-4.62-3.75 53.57 53.57 0 1 1-37.37-99.1 3.2 3.2 0 0 0 1-5.86 93.5 93.5 0 0 0-29.22-11.58c-3-13.37-7.53-21.21-11.6-28.12a270.52 270.52 0 0 0-15.44-22.3 19.34 19.34 0 0 0-8.47-8.23c-8-4.12-17.1-2.52-20.23 3.58-3.13 6.1 0.85 14.39 8.89 18.52 0.47 0.24 0.94 0.46 1.42 0.66a20.41 20.41 0 0 0 5.52 1.48 37.81 37.81 0 0 1 13 7.71c4.28 3.96 12.28 17.71 13.28 24.86-2-0.12-4-0.19-6-0.19q-4.23 0-8.41 0.38c-8-10.49-14.87-17.78-21.31-23.15-7-5.81-16.45-12.32-19.9-14a19.68 19.68 0 0 0-10.4-2.83c-9 0-16.36 5.56-16.36 12.42s7.38 12.43 16.38 12.43a22 22 0 0 0 3.94-0.37h0.06a19 19 0 0 0 3.8-1.11 18.56 18.56 0 0 1 8.56 0c5.64 1.55 22.23 13.7 20.8 19.08a93.75 93.75 0 0 0-26 10.83 3.2 3.2 0 0 0 1 5.86 53.56 53.56 0 1 1-37.36 99.1 3.2 3.2 0 0 0-4.76 2.58q1.06 3.84 2.45 7.58z"/><path class="cls-3" d="m194.14 326.47c-0.92-0.15-5.66-0.27-5.66-0.27-7.7-0.93-10-19.08-10.58-25.61a59.64 59.64 0 0 0 11.82-12.24 113.56 113.56 0 0 1-95.09 0.63 59.55 59.55 0 0 0 11.37 11.61c-0.58 6.53-2.89 24.68-10.59 25.61 0 0-4.74 0.12-5.65 0.27-4.55 1-7.83 4-7.83 7.53 0 4.39 5.11 7.95 11.42 7.95 0 0 13.77 1.17 16.76-1.35s4.55-4.73 4-15.87 9.5-14.18 9.82-14.67c5.68 1.83 11.73 15.63 18 15.63s12.33-13.8 18-15.63c0.33 0.5 10.43 3.54 9.85 14.68s1 13.35 4 15.87 16.77 1.35 16.77 1.35c6.3 0 11.41-3.56 11.41-7.95-0.03-3.52-3.28-6.5-7.82-7.54z"/><path class="cls-3" d="m217.73 266.22h-0.05a3.65 3.65 0 0 0-0.54-0.32c-8.18-5-12.43-10.24-14.63-14.15a100.89 100.89 0 0 1-121.43 0.47c-2.27 3.86-6.5 8.9-14.36 13.68a5.09 5.09 0 0 0-0.54 0.32h-0.05a8.71 8.71 0 1 0 13.08 9.6c0.76-2.33 1.71-5.55 3.08-8.78l2.33 1.35c15.94 10 38.13 16.71 56.87 16.71 19.93 0 41.66-7 58.09-18.08l1.43-1.23a88 88 0 0 1 3.65 10 8.71 8.71 0 1 0 13.07-9.6z"/></g></svg>
