<?xml version="1.0" encoding="UTF-8" standalone="no"?>
<svg
   xmlns:dc="http://purl.org/dc/elements/1.1/"
   xmlns:cc="http://creativecommons.org/ns#"
   xmlns:rdf="http://www.w3.org/1999/02/22-rdf-syntax-ns#"
   xmlns:svg="http://www.w3.org/2000/svg"
   xmlns="http://www.w3.org/2000/svg"
   xmlns:sodipodi="http://sodipodi.sourceforge.net/DTD/sodipodi-0.dtd"
   xmlns:inkscape="http://www.inkscape.org/namespaces/inkscape"
   sodipodi:docname="qfield_logo_beta.svg"
   inkscape:version="1.0beta2 (2b71d25, 2019-12-03)"
   version="1.1"
   id="svg4136"
   viewBox="0 0 512.00003 512.00003"
   height="512"
   width="512">
  <defs
     id="defs4138" />
  <sodipodi:namedview
     inkscape:document-rotation="0"
     inkscape:window-maximized="1"
     inkscape:window-y="23"
     inkscape:window-x="0"
     inkscape:window-height="1395"
     inkscape:window-width="3440"
     units="px"
     showgrid="false"
     inkscape:current-layer="layer1"
     inkscape:document-units="px"
     inkscape:cy="247.96309"
     inkscape:cx="325.91809"
     inkscape:zoom="1"
     inkscape:pageshadow="2"
     inkscape:pageopacity="0"
     borderopacity="1.0"
     bordercolor="#666666"
     pagecolor="#ffffff"
     id="base">
    <inkscape:grid
       id="grid4684"
       type="xygrid" />
  </sodipodi:namedview>
  <metadata
     id="metadata4141">
    <rdf:RDF>
      <cc:Work
         rdf:about="">
        <dc:format>image/svg+xml</dc:format>
        <dc:type
           rdf:resource="http://purl.org/dc/dcmitype/StillImage" />
        <dc:title></dc:title>
      </cc:Work>
    </rdf:RDF>
  </metadata>
  <g
     transform="translate(0,-540.36215)"
     id="layer1"
     inkscape:groupmode="layer"
     inkscape:label="Layer 1">
    <path
       inkscape:connector-curvature="0"
       id="path4709"
       d="M 255.99999,552.49124 A 243.87096,243.87096 0 0 0 12.129032,796.36221 243.87096,243.87096 0 0 0 255.99999,1040.2331 243.87096,243.87096 0 0 0 394.01889,997.31761 l -99.51713,-26.53845 a 178.83871,178.83871 0 0 1 -8.10522,1.81794 178.83871,178.83871 0 0 1 -17.74256,2.15923 178.83871,178.83871 0 0 1 -12.65399,0.44458 178.83871,178.83871 0 0 1 -17.8537,-0.89704 178.83871,178.83871 0 0 1 -17.67906,-2.66734 178.83871,178.83871 0 0 1 -17.31388,-4.42174 178.83871,178.83871 0 0 1 -16.79789,-6.12856 178.83871,178.83871 0 0 1 -16.09135,-7.77973 178.83871,178.83871 0 0 1 -15.24194,-9.34363 178.83871,178.83871 0 0 1 -14.23374,-10.82017 178.83871,178.83871 0 0 1 -13.08266,-12.18561 178.83871,178.83871 0 0 1 -11.79662,-13.42402 178.83871,178.83871 0 0 1 -10.39945,-14.54334 178.83871,178.83871 0 0 1 -8.89113,-15.50391 178.83871,178.83871 0 0 1 -7.303427,-16.32158 178.83871,178.83871 0 0 1 -5.636338,-16.96459 178.83871,178.83871 0 0 1 -3.913686,-17.4409 178.83871,178.83871 0 0 1 -2.159274,-17.74256 178.83871,178.83871 0 0 1 -0.444556,-12.65398 178.83871,178.83871 0 0 1 0.897051,-17.85371 178.83871,178.83871 0 0 1 2.667338,-17.67906 178.83871,178.83871 0 0 1 4.421751,-17.31388 178.83871,178.83871 0 0 1 6.128526,-16.79789 178.83871,178.83871 0 0 1 7.779745,-16.09135 178.83871,178.83871 0 0 1 9.34362,-15.24194 178.83871,178.83871 0 0 1 10.82018,-14.23374 178.83871,178.83871 0 0 1 12.18561,-13.08266 178.83871,178.83871 0 0 1 13.42402,-11.79662 178.83871,178.83871 0 0 1 14.54334,-10.39945 178.83871,178.83871 0 0 1 15.50391,-8.89113 178.83871,178.83871 0 0 1 16.32158,-7.30343 178.83871,178.83871 0 0 1 16.96459,-5.63633 178.83871,178.83871 0 0 1 17.4409,-3.91369 178.83871,178.83871 0 0 1 17.74256,-2.15927 178.83871,178.83871 0 0 1 12.65398,-0.44456 178.83871,178.83871 0 0 1 17.85371,0.89705 178.83871,178.83871 0 0 1 17.67906,2.66734 178.83871,178.83871 0 0 1 17.31388,4.42175 178.83871,178.83871 0 0 1 16.79789,6.12853 178.83871,178.83871 0 0 1 16.09135,7.77973 178.83871,178.83871 0 0 1 15.24194,9.34363 178.83871,178.83871 0 0 1 14.23374,10.82018 178.83871,178.83871 0 0 1 13.08266,12.18561 178.83871,178.83871 0 0 1 11.79662,13.42402 178.83871,178.83871 0 0 1 10.39945,14.54334 178.83871,178.83871 0 0 1 8.89113,15.50391 178.83871,178.83871 0 0 1 7.30344,16.32158 178.83871,178.83871 0 0 1 5.63631,16.96459 178.83871,178.83871 0 0 1 3.91372,17.4409 178.83871,178.83871 0 0 1 2.15923,17.74256 178.83871,178.83871 0 0 1 0.44458,12.65399 178.83871,178.83871 0 0 1 -0.89704,17.8537 178.83871,178.83871 0 0 1 -2.66734,17.67906 178.83871,178.83871 0 0 1 -0.60333,2.34979 l 26.53048,99.46951 A 243.87096,243.87096 0 0 0 499.87096,796.36221 243.87096,243.87096 0 0 0 255.99999,552.49124 Z"
       style="color:#000000;clip-rule:nonzero;display:inline;overflow:visible;visibility:visible;opacity:1;isolation:auto;mix-blend-mode:normal;color-interpolation:sRGB;color-interpolation-filters:linearRGB;solid-color:#000000;solid-opacity:1;fill:#050028;fill-opacity:1;fill-rule:nonzero;stroke:#ffffff;stroke-width:16.25806427;stroke-linecap:butt;stroke-linejoin:miter;stroke-miterlimit:4;stroke-dasharray:none;stroke-dashoffset:0;stroke-opacity:1;color-rendering:auto;image-rendering:auto;shape-rendering:auto;text-rendering:auto;enable-background:accumulate" />
    <path
       sodipodi:nodetypes="cccc"
       inkscape:connector-curvature="0"
       id="rect4714"
       d="m 353.51229,747.22196 89.41935,235.74193 -227.6129,-89.41935 z"
       style="color:#000000;clip-rule:nonzero;display:inline;overflow:visible;visibility:visible;opacity:1;isolation:auto;mix-blend-mode:normal;color-interpolation:sRGB;color-interpolation-filters:linearRGB;solid-color:#000000;solid-opacity:1;fill:#000028;fill-opacity:1;fill-rule:nonzero;stroke:#ffffff;stroke-width:16.25806427;stroke-linecap:butt;stroke-linejoin:miter;stroke-miterlimit:4;stroke-dasharray:none;stroke-dashoffset:0;stroke-opacity:1;color-rendering:auto;image-rendering:auto;shape-rendering:auto;text-rendering:auto;enable-background:accumulate" />
  </g>
</svg>
