<?xml version="1.0" encoding="UTF-8"?>
<svg id="Layer_1" xmlns="http://www.w3.org/2000/svg" version="1.1" viewBox="0 0 487.3 805.1">
  <!-- Generator: Adobe Illustrator 29.5.0, SVG Export Plug-In . SVG Version: 2.1.0 Build 137)  -->
  <defs>
    <style>
      .st0 {
        fill: none;
        stroke: #80cc29;
        stroke-linecap: round;
        stroke-linejoin: round;
        stroke-width: 50px;
      }

      .st1 {
        fill: #80cc29;
      }
    </style>
  </defs>
  <g id="Layer_11" data-name="Layer_1">
    <path class="st1" d="M283.6,190.9l-62.5,62.5-17.3-17.2c-7.5-7.5-19.7-7.5-27.2,0-7.5,7.5-7.5,19.7,0,27.2l30.6,30.6c3.1,3.1,7,4.9,11.1,5.5,1,.2,2,.2,3,.2,4.9,0,9.8-1.9,13.6-5.6l75.9-75.9c7.5-7.5,7.5-19.7,0-27.2-7.5-7.5-19.7-7.5-27.2,0h0Z"/>
  </g>
  <g id="Layer_5">
    <circle class="st0" cx="243.7" cy="242.4" r="124.1"/>
    <path class="st0" d="M263.5,37.7l36.7-9c21.2-5.2,43.4,4,54.7,22.6l19.6,32.3c6.9,11.4,16.5,21,27.9,27.9l32.3,19.6c18.7,11.3,27.9,33.5,22.7,54.7l-9,36.7c-3.2,13-3.2,26.5,0,39.5l9,36.7c5.2,21.2-4,43.4-22.7,54.7l-32.3,19.6c-11.4,6.9-21,16.5-27.9,27.9l-19.6,32.4c-11.3,18.7-33.5,27.9-54.7,22.6l-36.7-9c-13-3.2-26.5-3.2-39.5,0l-36.7,9c-21.2,5.2-43.4-4-54.7-22.6l-19.6-32.4c-6.9-11.4-16.5-21-27.9-27.9l-32.4-19.6c-18.7-11.3-27.9-33.5-22.6-54.7l9-36.7c3.2-13,3.2-26.5,0-39.5l-9-36.7c-5.2-21.2,4-43.4,22.6-54.7l32.4-19.6c11.4-6.9,21-16.5,27.9-27.9l19.6-32.3c11.3-18.7,33.5-27.9,54.7-22.7l36.7,9c13,3.2,26.5,3.2,39.5,0h0Z"/>
    <g>
      <path class="st0" d="M234.3,445.1l-65.2,325.1c-1.6,6.7-10.4,8.4-14.4,2.8l-21.3-29.4c-12.5-17.3-35.7-23-54.8-13.5l-32,16c-6.3,3.2-13.5-2.5-11.8-9.4l91.5-313.6"/>
      <path class="st0" d="M254.3,451.1l64,319.1c1.6,6.7,10.4,8.4,14.4,2.8l21.3-29.4c12.5-17.3,35.7-23,54.8-13.5l32,16c6.3,3.2,13.5-2.5,11.8-9.4l-90.7-310.7"/>
    </g>
  </g>
</svg>