<?xml version="1.0" encoding="UTF-8" standalone="no"?>
<!-- Created with Inkscape (http://www.inkscape.org/) -->

<svg
   xmlns:dc="http://purl.org/dc/elements/1.1/"
   xmlns:cc="http://creativecommons.org/ns#"
   xmlns:rdf="http://www.w3.org/1999/02/22-rdf-syntax-ns#"
   xmlns:svg="http://www.w3.org/2000/svg"
   xmlns="http://www.w3.org/2000/svg"
   xmlns:sodipodi="http://sodipodi.sourceforge.net/DTD/sodipodi-0.dtd"
   xmlns:inkscape="http://www.inkscape.org/namespaces/inkscape"
   width="64"
   height="64"
   viewBox="0 0 64.000001 64.000001"
   id="svg2"
   version="1.1"
   inkscape:version="0.91 r13725"
   sodipodi:docname="confirm-line.svg"
   inkscape:export-filename="/home/mku/dev/qfield/QField/images/themes/qfield/confirm-line.png"
   inkscape:export-xdpi="45"
   inkscape:export-ydpi="45">
  <defs
     id="defs4" />
  <sodipodi:namedview
     id="base"
     pagecolor="#ffffff"
     bordercolor="#666666"
     borderopacity="1.0"
     inkscape:pageopacity="0.0"
     inkscape:pageshadow="2"
     inkscape:zoom="11.2"
     inkscape:cx="-6.0531593"
     inkscape:cy="31.337974"
     inkscape:document-units="px"
     inkscape:current-layer="layer1"
     showgrid="true"
     units="px"
     inkscape:window-width="1920"
     inkscape:window-height="1016"
     inkscape:window-x="0"
     inkscape:window-y="27"
     inkscape:window-maximized="1">
    <inkscape:grid
       type="xygrid"
       id="grid4684"
       dotted="true" />
  </sodipodi:namedview>
  <metadata
     id="metadata7">
    <rdf:RDF>
      <cc:Work
         rdf:about="">
        <dc:format>image/svg+xml</dc:format>
        <dc:type
           rdf:resource="http://purl.org/dc/dcmitype/StillImage" />
        <dc:title />
      </cc:Work>
    </rdf:RDF>
  </metadata>
  <g
     inkscape:label="Layer 1"
     inkscape:groupmode="layer"
     id="layer1"
     transform="translate(0,-988.36216)">
    <path
       style="fill:none;fill-rule:evenodd;stroke:#27ae60;stroke-width:4.5;stroke-linecap:butt;stroke-linejoin:miter;stroke-miterlimit:4;stroke-dasharray:none;stroke-opacity:1"
       d="m 23,1037.3622 22,-14"
       id="path4819" />
    <path
       style="fill:none;fill-rule:evenodd;stroke:#27ae60;stroke-width:4.5;stroke-linecap:butt;stroke-linejoin:miter;stroke-miterlimit:4;stroke-dasharray:none;stroke-opacity:1"
       d="m 45,1023.3622 0,-18"
       id="path4688" />
    <circle
       style="fill:#2ecc71;fill-opacity:1;stroke:#27ae60;stroke-width:1.5;stroke-linecap:round;stroke-linejoin:round;stroke-miterlimit:4;stroke-dasharray:none;stroke-opacity:1"
       id="path4686-6"
       cx="45"
       cy="1023.3622"
       r="4.2105527" />
    <ellipse
       style="fill:#2ecc71;fill-opacity:1;stroke:#27ae60;stroke-width:1.51193571;stroke-linecap:round;stroke-linejoin:round;stroke-miterlimit:4;stroke-dasharray:none;stroke-opacity:1"
       id="path4686-7"
       cx="44.999996"
       cy="1005.3622"
       rx="4.2440319"
       ry="4.2440324" />
    <path
       style="fill:none;fill-rule:evenodd;stroke:#2ecc71;stroke-width:1.5;stroke-linecap:butt;stroke-linejoin:miter;stroke-miterlimit:4;stroke-dasharray:none;stroke-opacity:1"
       d="m 45,1023.3622 0,-18"
       id="path4705" />
    <ellipse
       style="fill:#2ecc71;fill-opacity:1;stroke:#27ae60;stroke-width:1.5;stroke-linecap:round;stroke-linejoin:round;stroke-miterlimit:4;stroke-dasharray:none;stroke-opacity:1"
       id="path4686"
       cx="22.960501"
       cy="1037.4016"
       rx="4.2105002"
       ry="4.210557" />
    <path
       style="fill:#2ecc71;fill-rule:evenodd;stroke:#2ecc71;stroke-width:1.5;stroke-linecap:butt;stroke-linejoin:miter;stroke-miterlimit:4;stroke-dasharray:none;stroke-opacity:1;fill-opacity:1"
       d="m 23,1037.3622 22,-14"
       id="path4823" />
    <g
       style="display:inline"
       id="g3001"
       transform="matrix(0.69230716,0,0,0.69230769,40.846167,1029.2083)">
      <rect
         ry="2.6149368"
         inkscape:export-ydpi="120"
         inkscape:export-xdpi="120"
         y="19"
         x="19"
         height="13"
         width="13"
         id="rect3563"
         style="display:inline;fill:#c4a000;fill-opacity:1;stroke:#000000;stroke-width:0;stroke-linejoin:round;stroke-miterlimit:4;stroke-dasharray:none;stroke-opacity:1"
         inkscape:export-filename="C:\Program Files\QGIS-Dev\themes\gis-0.1\mActionAddOgrLayer.png"
         rx="2.6149371" />
      <path
         inkscape:connector-curvature="0"
         sodipodi:nodetypes="ccsssc"
         id="path6992"
         d="m 20.3,25.499999 10.4,0 c 0,0 0,0 0,-2.6 C 30.7,20.3 30.05,20.3 25.5,20.3 c -4.55,0 -5.2,0 -5.2,2.599999 0,2.6 0,2.6 0,2.6 z"
         style="display:inline;opacity:0.3;fill:#fcffff;fill-rule:evenodd;stroke:none;enable-background:new" />
      <g
         transform="matrix(0.60271547,0,0,0.60365952,29.090173,29.540413)"
         id="text3831"
         style="font-style:normal;font-weight:normal;font-size:40px;line-height:125%;font-family:Sans;letter-spacing:0px;word-spacing:0px;fill:#ffffff;fill-opacity:1;stroke:#ffffff;stroke-width:0.49735793;stroke-miterlimit:4;stroke-dasharray:none;stroke-opacity:1">
        <path
           inkscape:connector-curvature="0"
           id="path3836"
           style="font-variant:normal;font-weight:bold;font-stretch:normal;font-family:'Century Schoolbook L';-inkscape-font-specification:'Century Schoolbook L Bold';fill:#ffffff;fill-opacity:1;stroke:#ffffff;stroke-width:0.49735793;stroke-miterlimit:4;stroke-dasharray:none;stroke-opacity:1"
           d="m -6.4566626,-5.8131979 0,0.76 c 0,1.039999 -0.1600005,1.7600009 -0.64,2.68 -0.7199993,1.55999844 -0.8,1.7600006 -0.8,2.36 0,1.1599988 0.880001,2.12 1.92,2.12 1.0799989,0 1.92,-0.9600012 1.92,-2.16 0,-0.3999996 -0.1200003,-0.92000052 -0.4,-1.44 -0.9199991,-1.959998 -1,-2.2800013 -1,-3.56 l 0,-0.76 0.64,0.4 c 0.8399992,0.4799995 1.4800006,1.0400008 2.04,1.84 1.3199987,1.7999982 1.7600011,2.16 2.84,2.16 0.999999,0 1.8,-0.760001 1.8,-1.76 0,-1.2399988 -1.04000156,-2.1600001 -2.6,-2.28 -1.959998,-0.1199999 -2.3200012,-0.2000007 -3.56,-0.88 l -0.64,-0.36 0.64,-0.36 c 0.9199991,-0.5199995 1.600001,-0.76 2.64,-0.8 1.5999984,-0.1599998 1.72000048,-0.1600002 2.2,-0.36 0.7999992,-0.3999996 1.32,-1.1200008 1.32,-1.9600001 0,-1.039999 -0.840001,-1.84 -1.88,-1.84 -0.87999912,0 -1.6000006,0.440001 -2.24,1.4 -1.1199989,1.6799984 -1.3600012,1.9200008 -2.56,2.6400001 l -0.64,0.4 0,-0.76 c 0,-0.999999 0.1600005,-1.7600011 0.64,-2.6800001 0.7599992,-1.599998 0.8,-1.76 0.8,-2.32 0,-1.199999 -0.8800011,-2.16 -1.96,-2.16 -1.039999,0 -1.92,0.960001 -1.92,2.12 0,0.44 0.1200003,0.960001 0.4,1.48 0.959999,1.9999981 1.04,2.2800014 1.04,3.5600001 l 0,0.76 -0.64,-0.4 c -0.9199991,-0.5199995 -1.4400006,-1.0400008 -2.04,-1.88 -0.7999992,-1.1999991 -0.8000003,-1.2000001 -1.1200004,-1.5200001 -0.439999,-0.399999 -1.08,-0.64 -1.6,-0.64 -1.079999,0 -1.92,0.840001 -1.92,1.84 0,1.2399989 1.000002,2.1200002 2.56,2.2400001 2.0399984,0.1199999 2.3600016,0.2000007 3.6000004,0.88 l 0.64,0.36 -0.64,0.4 c -0.8399992,0.4799995 -1.640001,0.7200001 -2.6400004,0.8 -1.559998,0.08 -1.68,0.1200002 -2.2,0.32 -0.799999,0.3599996 -1.32,1.1200008 -1.32,1.96 0,0.999999 0.840001,1.84 1.88,1.84 0.88,0 1.640001,-0.4800009 2.2400004,-1.4 1.0799989,-1.5999984 1.4000012,-1.9600007 2.56,-2.64 l 0.64,-0.4" />
      </g>
    </g>
  </g>
</svg>
