<?xml version="1.0" encoding="UTF-8"?>
<svg width="24px" height="24px" fill="#ffffff" version="1.1" viewBox="0 -960 960 960" xmlns="http://www.w3.org/2000/svg">
 <path d="m160-800c-22 0-40.818 7.849-56.484 23.516-15.667 15.667-23.516 34.484-23.516 56.484v480c0 22 7.849 40.818 23.516 56.484 15.667 15.667 34.484 23.516 56.484 23.516h320v-80h-320v-480h640v240l80 40v-280c0-22-7.849-40.818-23.516-56.484-15.667-15.667-34.484-23.516-56.484-23.516z"/>
 <path d="m760-440 12 60c8 3.3333 15.5 6.8333 22.5 10.5s14.167 8.1667 21.5 13.5l58-18 40 68-46 40c1.3333 8 2 16.667 2 26s-0.66667 18-2 26l46 40-40 68-58-18c-7.3333 5.3333-14.5 9.8333-21.5 13.5s-14.5 7.1667-22.5 10.5l-12 60h-80l-12-60c-8-3.3333-15.5-6.8333-22.5-10.5s-14.167-8.1667-21.5-13.5l-58 18-40-68 46-40c-1.3333-8-2-16.667-2-26s0.66667-18 2-26l-46-40 40-68 58 18c7.3333-5.3333 14.5-9.8333 21.5-13.5s14.5-7.1667 22.5-10.5l12-60zm-40 120c-22 0-40.833 7.8333-56.5 23.5s-23.5 34.5-23.5 56.5 7.8333 40.833 23.5 56.5 34.5 23.5 56.5 23.5 40.833-7.8333 56.5-23.5 23.5-34.5 23.5-56.5-7.8333-40.833-23.5-56.5-34.5-23.5-56.5-23.5z"/>
</svg>
