<?xml version="1.0" encoding="UTF-8"?>
<svg width="24px" height="24px" fill="#ffffff" version="1.1" viewBox="0 -960 960 960" xmlns="http://www.w3.org/2000/svg">
 <path d="M160-160q-33 0-56.5-23.5T80-240v-480q0-33 23.5-56.5T160-800h640q33 0 56.5 23.5T880-720v480q0 33-23.5 56.5T800-160H160Zm0-80h640v-480H160v480Zm280-40h80l12-60q12-5 22.5-10.5T576-364l58 18 40-68-46-40q2-13 2-26t-2-26l46-40-40-68-58 18q-11-8-21.5-13.5T532-620l-12-60h-80l-12 60q-12 5-22.5 10.5T384-596l-58-18-40 68 46 40q-2 13-2 26t2 26l-46 40 40 68 58-18q11 8 21.5 13.5T428-340l12 60Zm-16.5-143.5Q400-447 400-480t23.5-56.5Q447-560 480-560t56.5 23.5Q560-513 560-480t-23.5 56.5Q513-400 480-400t-56.5-23.5ZM160-240v-480 480Z"/>
</svg>
