<?xml version="1.0" encoding="UTF-8"?>
<!DOCTYPE svg PUBLIC "-//W3C//DTD SVG 1.1//EN" "http://www.w3.org/Graphics/SVG/1.1/DTD/svg11.dtd">
<svg xmlns="http://www.w3.org/2000/svg" version="1.1" width="24px" height="24px" style="shape-rendering:geometricPrecision; text-rendering:geometricPrecision; image-rendering:optimizeQuality; fill-rule:evenodd; clip-rule:evenodd" xmlns:xlink="http://www.w3.org/1999/xlink">
<g><path style="opacity:0.892" fill="#222321" d="M 6.5,1.5 C 9.8499,1.33499 13.1832,1.50166 16.5,2C 21.2238,4.43529 22.7238,8.26863 21,13.5C 17.8666,15.4142 17.6999,17.5809 20.5,20C 15.4795,19.5293 10.4795,18.5293 5.5,17C -0.061466,11.3527 0.271867,6.18602 6.5,1.5 Z M 4.5,7.5 C 7.86057,8.20318 8.1939,9.53651 5.5,11.5C 3.35765,10.5629 3.02431,9.22955 4.5,7.5 Z M 10.5,7.5 C 13.8606,8.20318 14.1939,9.53651 11.5,11.5C 9.35765,10.5629 9.02431,9.22955 10.5,7.5 Z M 16.5,7.5 C 19.8606,8.20318 20.1939,9.53651 17.5,11.5C 15.3576,10.5629 15.0243,9.22955 16.5,7.5 Z"/></g>
</svg>
