<?xml version="1.0" encoding="UTF-8" standalone="no"?>
<svg
   xmlns:dc="http://purl.org/dc/elements/1.1/"
   xmlns:cc="http://creativecommons.org/ns#"
   xmlns:rdf="http://www.w3.org/1999/02/22-rdf-syntax-ns#"
   xmlns:svg="http://www.w3.org/2000/svg"
   xmlns="http://www.w3.org/2000/svg"
   xmlns:xlink="http://www.w3.org/1999/xlink"
   xmlns:sodipodi="http://sodipodi.sourceforge.net/DTD/sodipodi-0.dtd"
   xmlns:inkscape="http://www.inkscape.org/namespaces/inkscape"
   height="16"
   width="16"
   version="1.1"
   id="svg22"
   sodipodi:docname="ic_annotationlayer_18dp.svg"
   inkscape:version="1.0 (4035a4fb49, 2020-05-01)">
  <metadata
     id="metadata28">
    <rdf:RDF>
      <cc:Work
         rdf:about="">
        <dc:format>image/svg+xml</dc:format>
        <dc:type
           rdf:resource="http://purl.org/dc/dcmitype/StillImage" />
        <dc:title />
      </cc:Work>
    </rdf:RDF>
  </metadata>
  <defs
     id="defs26">
    <linearGradient
       inkscape:collect="always"
       id="linearGradient923">
      <stop
         style="stop-color:#eeeeee;stop-opacity:1"
         offset="0"
         id="stop919" />
      <stop
         style="stop-color:#d7d7d7;stop-opacity:1"
         offset="1"
         id="stop921" />
    </linearGradient>
    <linearGradient
       y2="10.5"
       y1="3.5"
       x2="6.5"
       x1="4.5"
       gradientUnits="userSpaceOnUse"
       id="a"
       gradientTransform="translate(27.5,-7.853401)">
      <stop
         id="stop2"
         stop-color="#eee"
         offset="0" />
      <stop
         id="stop4"
         stop-color="#cfcfcf"
         offset="1" />
    </linearGradient>
    <linearGradient
       inkscape:collect="always"
       xlink:href="#linearGradient923"
       id="linearGradient925"
       x1="7"
       y1="8"
       x2="9.8867512"
       y2="13"
       gradientUnits="userSpaceOnUse"
       gradientTransform="translate(0,1.0000001)" />
  </defs>
  <sodipodi:namedview
     inkscape:document-rotation="0"
     pagecolor="#ffffff"
     bordercolor="#666666"
     borderopacity="1"
     objecttolerance="10"
     gridtolerance="10"
     guidetolerance="10"
     inkscape:pageopacity="0"
     inkscape:pageshadow="2"
     inkscape:window-width="1870"
     inkscape:window-height="1015"
     id="namedview24"
     showgrid="true"
     inkscape:zoom="2.8284271"
     inkscape:cx="57.093481"
     inkscape:cy="-23.331384"
     inkscape:window-x="50"
     inkscape:window-y="28"
     inkscape:window-maximized="1"
     inkscape:current-layer="svg22">
    <inkscape:grid
       type="xygrid"
       id="grid853" />
  </sodipodi:namedview>
  <path
     id="path6"
     style="fill:url(#linearGradient925);fill-opacity:1;fill-rule:evenodd;stroke:#888a85;stroke-width:0.999996;stroke-linejoin:round;stroke-miterlimit:0.4;stroke-dasharray:none;stroke-opacity:1"
     d="M 3.5227993,14.500016 8,7.4999556 12.522865,14.500016 Z"
     sodipodi:nodetypes="cccc" />
  <path
     style="fill:#888a85;fill-rule:evenodd;stroke:#888a85;stroke-width:0.999998;stroke-linecap:round;stroke-linejoin:round;fill-opacity:1"
     d="m 12.5,3.5000015 c 0,0.5522858 -0.447715,1.0000015 -1,1.0000015 -0.552285,0 -1,-0.4477157 -1,-1.0000015 C 10.5,2.9477156 10.947715,2.5 11.5,2.5 c 0.552285,0 1,0.4477156 1,1.0000015 z"
     overflow="visible"
     id="path2" />
  <g
     style="font-style:normal;font-weight:normal;font-size:7.90153px;line-height:1.25;font-family:sans-serif;letter-spacing:0px;word-spacing:0px;fill:#888a85;fill-opacity:1;stroke:#888a85;stroke-width:2.4;stroke-linecap:round;stroke-linejoin:round;stroke-miterlimit:4;stroke-dasharray:none;stroke-opacity:1"
     id="text917-3"
     transform="scale(0.98634874,1.0138402)"
     aria-label="a">
    <path
       id="path851"
       style="font-size:7.90153px;fill:#888a85;fill-opacity:1;stroke:#888a85;stroke-width:2.4;stroke-linecap:round;stroke-linejoin:round;stroke-miterlimit:4;stroke-dasharray:none;stroke-opacity:1"
       d="m 4.4643282,4.4231378 q -0.8603716,0 -1.1921741,0.1967666 -0.3318026,0.1967666 -0.3318026,0.6713214 0,0.3781005 0.2469228,0.6018743 0.250781,0.2199156 0.6790378,0.2199156 0.5902998,0 0.9452513,-0.4166822 Q 5.1703731,5.2757931 5.1703731,4.5813227 V 4.4231378 Z M 5.8802762,4.129917 V 6.5952868 H 5.1703731 V 5.9393981 Q 4.9273085,6.3329314 4.5646406,6.5219816 4.2019728,6.7071737 3.6772618,6.7071737 q -0.6636051,0 -1.0571383,-0.3703842 -0.389675,-0.3742423 -0.389675,-0.9992657 0,-0.7291939 0.4861292,-1.0995781 0.4899875,-0.3703842 1.4583879,-0.3703842 h 0.9954075 v -0.069447 q 0,-0.4899874 -0.3240862,-0.7562011 -0.320228,-0.2700718 -0.9028115,-0.2700718 -0.3703842,0 -0.7214775,0.088738 -0.3510934,0.088738 -0.6751796,0.2662137 V 2.4709044 q 0.3896751,-0.1504686 0.7562011,-0.2237738 0.3665261,-0.077163 0.7137612,-0.077163 0.9375351,0 1.4005153,0.4861293 0.4629803,0.4861292 0.4629803,1.4738205 z" />
  </g>
  <g
     style="font-style:normal;font-weight:normal;font-size:7.90153px;line-height:1.25;font-family:sans-serif;letter-spacing:0px;word-spacing:0px;fill:#eeeeec;fill-opacity:1;stroke:#eeeeec;stroke-width:0.4;stroke-miterlimit:4;stroke-dasharray:none;stroke-opacity:1"
     id="text917"
     transform="scale(0.98634874,1.0138402)"
     aria-label="a">
    <path
       id="path848"
       style="font-size:7.90153px;fill:#eeeeec;fill-opacity:1;stroke:#eeeeec;stroke-width:0.4;stroke-miterlimit:4;stroke-dasharray:none;stroke-opacity:1"
       d="m 4.4643282,4.4231378 q -0.8603716,0 -1.1921741,0.1967666 -0.3318026,0.1967666 -0.3318026,0.6713214 0,0.3781005 0.2469228,0.6018743 0.250781,0.2199156 0.6790378,0.2199156 0.5902998,0 0.9452513,-0.4166822 Q 5.1703731,5.2757931 5.1703731,4.5813227 V 4.4231378 Z M 5.8802762,4.129917 V 6.5952868 H 5.1703731 V 5.9393981 Q 4.9273085,6.3329314 4.5646406,6.5219816 4.2019728,6.7071737 3.6772618,6.7071737 q -0.6636051,0 -1.0571383,-0.3703842 -0.389675,-0.3742423 -0.389675,-0.9992657 0,-0.7291939 0.4861292,-1.0995781 0.4899875,-0.3703842 1.4583879,-0.3703842 h 0.9954075 v -0.069447 q 0,-0.4899874 -0.3240862,-0.7562011 -0.320228,-0.2700718 -0.9028115,-0.2700718 -0.3703842,0 -0.7214775,0.088738 -0.3510934,0.088738 -0.6751796,0.2662137 V 2.4709044 q 0.3896751,-0.1504686 0.7562011,-0.2237738 0.3665261,-0.077163 0.7137612,-0.077163 0.9375351,0 1.4005153,0.4861293 0.4629803,0.4861292 0.4629803,1.4738205 z" />
  </g>
  <path
     id="path2-3"
     overflow="visible"
     d="m 14.499999,7.5000005 c 0,0.5522858 -0.447715,1.0000015 -1,1.0000015 -0.552285,0 -1,-0.4477157 -1,-1.0000015 0,-0.5522859 0.447715,-1.0000015 1,-1.0000015 0.552285,0 1,0.4477156 1,1.0000015 z"
     style="fill:#888a85;fill-opacity:1;fill-rule:evenodd;stroke:#888a85;stroke-width:0.999998;stroke-linecap:round;stroke-linejoin:round" />
</svg>
