<?xml version="1.0" encoding="UTF-8"?>
<svg width="24" height="24" version="1.1" viewBox="0 0 24 24" xmlns="http://www.w3.org/2000/svg">
 <path d="m11.998 2c-5.5233 0-9.9976 3.6381-9.9976 8.1266 0 4.4885 4.4767 8.1266 10 8.1266 0.53154 0 1.0536-0.03544 1.5592-0.09922 2.1498 2.1498 4.9603 2.7893 7.4408 2.846-1.0027-0.97758-2.6879-2.3274-2.7515-3.9988 0-0.18899 0.01654-0.37798 0.04252-0.55989 2.2632-1.4883 3.709-3.7656 3.709-6.3147 0-4.4885-4.4767-8.1266-10.002-8.1266z" fill="#212121"/>
 <g fill="#80cc28">
  <path d="m20 9.9986a2 2 0 1 1-4 0 2 2 0 0 1 4 0z"/>
  <path d="m14 10a2 2 0 1 1-4 0 2 2 0 0 1 4 0z"/>
  <path d="m8 9.9996a2 2 0 1 1-4 0 2 2 0 0 1 4 0z"/>
 </g>
</svg>
