<svg xmlns="http://www.w3.org/2000/svg" width="36" height="36" viewBox="0 0 9.525 9.525"><path d="M4.762.797C2.424.797.53 2.337.53 4.237s1.895 3.44 4.233 3.44c.225 0 .446-.015.66-.042.91.91 1.995 1.072 3.045 1.096V8.51C7.9 8.23 7.408 7.725 7.408 7.147c0-.08.007-.16.018-.237.958-.63 1.57-1.594 1.57-2.673 0-1.9-1.895-3.44-4.234-3.44z" fill="#212121"/><g fill="#80cc28"><path d="M3.41 4.168a.661.661 0 11-1.323 0 .661.661 0 011.323 0zM5.413 4.168a.661.661 0 11-1.322 0 .661.661 0 011.322 0zM7.417 4.168a.661.661 0 11-1.323 0 .661.661 0 011.323 0z"/></g></svg>
