<?xml version="1.0" encoding="UTF-8"?>
<svg width="48" height="48" version="1.1" viewBox="0 0 48 48" xmlns="http://www.w3.org/2000/svg" xmlns:cc="http://creativecommons.org/ns#" xmlns:dc="http://purl.org/dc/elements/1.1/" xmlns:rdf="http://www.w3.org/1999/02/22-rdf-syntax-ns#">
 <metadata>
  <rdf:RDF>
   <cc:Work rdf:about="">
    <dc:format>image/svg+xml</dc:format>
    <dc:type rdf:resource="http://purl.org/dc/dcmitype/StillImage"/>
    <dc:title/>
   </cc:Work>
  </rdf:RDF>
 </metadata>
 <path d="m38 10v28h-28v-28h28m2.2-4h-32.4c-1 0-1.8 0.8-1.8 1.8v32.4c0 0.8 0.8 1.8 1.8 1.8h32.4c0.8 0 1.8-1 1.8-1.8v-32.4c0-1-1-1.8-1.8-1.8zm-18.2 8h12v4h-12zm0 8h12v4h-12zm0 8h12v4h-12zm-8-16h4v4h-4zm0 8h4v4h-4zm0 8h4v4h-4z" fill="#050000"/>
 <path d="m0 0h24v24h-24z" fill="none"/>
</svg>
