<?xml version="1.0" encoding="UTF-8"?>
<svg width="24" height="24" version="1.1" xmlns="http://www.w3.org/2000/svg">
 <path d="M11 22v-7.6L6.4 19 5 17.6l5.6-5.6L5 6.4 6.4 5 11 9.6V2h1l5.7 5.7-4.3 4.3 4.3 4.3L12 22Zm2-12.4 1.9-1.9L13 5.85Zm0 8.55 1.9-1.85-1.9-1.9Z"/>
 <g transform="translate(10 7)" fill="none" stroke="#000" stroke-width="1px">
  <path d="m7 7.5h3"/>
  <path d="m10.751 5h2.2495"/>
  <path d="m7.5 8v-6"/>
  <path d="m13 2.5h-1.5c-0.986 0.00101-1-0.00369-1 1v3c-0.0092 0.99356-0.0037 1 1 1h1.5"/>
 </g>
</svg>
