<?xml version="1.0" encoding="UTF-8"?>
<svg width="24" height="24" version="1.1" viewBox="0 96 960 960" xmlns="http://www.w3.org/2000/svg">
 <path d="M480 796q75 0 127.5-52.5T660 616q0-75-52.5-127.5T480 436q-75 0-127.5 52.5T300 616q0 75 52.5 127.5T480 796Zm0-80q-42 0-71-29t-29-71q0-42 29-71t71-29q42 0 71 29t29 71q0 42-29 71t-71 29ZM160 936q-33 0-56.5-23.5T80 856V376q0-33 23.5-56.5T160 296h126l74-80h240l74 80h126q33 0 56.5 23.5T880 376v480q0 33-23.5 56.5T800 936H160Zm640-80V376H638l-73-80H395l-73 80H160v480h640ZM480 616Z"/>
</svg>
