<?xml version="1.0" encoding="UTF-8"?>
<svg width="24" height="24" version="1.1" viewBox="0 0 24 24" xmlns="http://www.w3.org/2000/svg" xmlns:cc="http://creativecommons.org/ns#" xmlns:dc="http://purl.org/dc/elements/1.1/" xmlns:rdf="http://www.w3.org/1999/02/22-rdf-syntax-ns#">
 <metadata>
  <rdf:RDF>
   <cc:Work rdf:about="">
    <dc:format>image/svg+xml</dc:format>
    <dc:type rdf:resource="http://purl.org/dc/dcmitype/StillImage"/>
   </cc:Work>
  </rdf:RDF>
 </metadata>
 <path d="M0 0h24v24H0z" fill="none"/>
 <path d="m12 4c-2.89 0-5.4004 1.6391-6.6504 4.0391-3.01 0.32-5.3496 2.8709-5.3496 5.9609 0 3.31 2.69 6 6 6h13c2.76 0 5-2.24 5-5 0-2.64-2.0504-4.7809-4.6504-4.9609-0.68-3.45-3.7096-6.0391-7.3496-6.0391zm-4 3 5 5h-3v4h-4v-4h-3zm6 3h4v4h3l-5 5-5-5h3z" fill="#4c6dac"/>
</svg>
