<?xml version="1.0" encoding="UTF-8" standalone="no"?>
<!-- Generator: Adobe Illustrator 27.7.0, SVG Export Plug-In . SVG Version: 6.00 Build 0)  -->

<svg
   version="1.1"
   id="Layer_1"
   x="0px"
   y="0px"
   viewBox="0 0 24 24"
   xml:space="preserve"
   width="24"
   height="24"
   xmlns="http://www.w3.org/2000/svg"
   xmlns:svg="http://www.w3.org/2000/svg"><defs
   id="defs100" />
<g
   id="g95"
   style="fill:#ffffff"
   transform="matrix(0.04687493,0,0,0.04687493,3.6517036e-5,7.2634995e-6)">
	<path
   d="M 486.4,422.4 H 70.82 L 277.95,77.17 c 7.27,-12.12 3.34,-27.85 -8.78,-35.12 -12.12,-7.27 -27.85,-3.34 -35.12,8.78 l -230.4,384 c -4.75,7.91 -4.87,17.75 -0.33,25.78 4.55,8.03 13.05,12.99 22.28,12.99 h 460.8 c 14.14,0 25.6,-11.46 25.6,-25.6 0,-14.14 -11.46,-25.6 -25.6,-25.6 z"
   id="path85"
   style="fill:#ffffff" />
	<path
   d="m 476.54,375.58 h 0.38 c 14.14,0 25.6,-11.46 25.6,-25.6 0,-14.14 -11.46,-25.6 -25.6,-25.6 h -0.38 c -14.14,0 -25.6,11.46 -25.6,25.6 0,14.14 11.47,25.6 25.6,25.6"
   id="path87"
   style="fill:#ffffff" />
	<path
   d="m 448.38,288.54 h 0.38 c 14.14,0 25.6,-11.46 25.6,-25.6 0,-14.14 -11.46,-25.6 -25.6,-25.6 h -0.38 c -14.14,0 -25.6,11.46 -25.6,25.6 0,14.14 11.47,25.6 25.6,25.6"
   id="path89"
   style="fill:#ffffff" />
	<path
   d="m 402.3,209.18 h 0.38 c 14.14,0 25.6,-11.46 25.6,-25.6 0,-14.14 -11.46,-25.6 -25.6,-25.6 h -0.38 c -14.14,0 -25.6,11.46 -25.6,25.6 0,14.14 11.47,25.6 25.6,25.6"
   id="path91"
   style="fill:#ffffff" />
	<path
   d="m 343.42,140.06 h 0.38 c 14.14,0 25.6,-11.46 25.6,-25.6 0,-14.14 -11.46,-25.6 -25.6,-25.6 h -0.38 c -14.14,0 -25.6,11.46 -25.6,25.6 0,14.14 11.47,25.6 25.6,25.6"
   id="path93"
   style="fill:#ffffff" />
</g>
</svg>
