<?xml version="1.0" encoding="UTF-8"?>
<svg width="24px" height="24px" version="1.1" viewBox="0 -960 960 960" xmlns="http://www.w3.org/2000/svg">
 <path d="m360-840-73.984 80h-126.02c-22 0-40.818 7.849-56.484 23.516-15.667 15.667-23.516 34.484-23.516 56.484v480c0 22 7.849 40.818 23.516 56.484 15.667 15.667 34.484 23.516 56.484 23.516h351.33l-36.641-62.344 20.312-17.656h-335v-480h162.03l72.969-80h170l72.969 80h162.03v235.94l7.2656 36.25 14.766 8.0469 57.969-17.969v-262.27c0-22-7.849-40.818-23.516-56.484-15.667-15.667-34.484-23.516-56.484-23.516h-126.02l-73.984-80h-240zm120 220c-50 0-92.5 17.5-127.5 52.5s-52.5 77.5-52.5 127.5 17.5 92.5 52.5 127.5 77.5 52.5 127.5 52.5c11.231 0 20.698-4.0936 31.172-5.8594l-36.484-31.797 27.344-46.484c-7.2598 1.5626-14.071 4.1406-22.031 4.1406-28 0-51.682-9.6511-71.016-28.984-19.333-19.333-28.984-43.016-28.984-71.016s9.6511-51.682 28.984-71.016c19.333-19.333 43.016-28.984 71.016-28.984s51.682 9.6511 71.016 28.984c19.333 19.333 28.984 43.016 28.984 71.016 0 9.7395-2.7389 18.262-5.0781 26.953l43.047 13.281 14.766-8.0469 14.453-72.188h5.2344c-7.1814-32.507-20.012-62.591-44.922-87.5-35-35-77.5-52.5-127.5-52.5z"/>
 <path d="m760-440 12 60c8 3.3333 15.5 6.8333 22.5 10.5s14.167 8.1667 21.5 13.5l58-18 40 68-46 40c1.3333 8 2 16.667 2 26s-0.66667 18-2 26l46 40-40 68-58-18c-7.3333 5.3333-14.5 9.8333-21.5 13.5s-14.5 7.1667-22.5 10.5l-12 60h-80l-12-60c-8-3.3333-15.5-6.8333-22.5-10.5s-14.167-8.1667-21.5-13.5l-58 18-40-68 46-40c-1.3333-8-2-16.667-2-26s0.66667-18 2-26l-46-40 40-68 58 18c7.3333-5.3333 14.5-9.8333 21.5-13.5s14.5-7.1667 22.5-10.5l12-60zm-40 120c-22 0-40.833 7.8333-56.5 23.5s-23.5 34.5-23.5 56.5 7.8333 40.833 23.5 56.5 34.5 23.5 56.5 23.5 40.833-7.8333 56.5-23.5 23.5-34.5 23.5-56.5-7.8333-40.833-23.5-56.5-34.5-23.5-56.5-23.5z"/>
</svg>
