<svg width="64" height="64" viewBox="0 0 16.933 16.933" xmlns="http://www.w3.org/2000/svg"><g transform="translate(0 -280.328)" fill="none" stroke="#80cc28" stroke-width=".397"><path d="m9.243 283.65-2.628-.67-3.97 1.057v10.055l3.97-1.059 3.968 1.059 3.97-1.059v-6.085" stroke-linecap="round"/><path d="M6.615 293.03v-10.054M10.583 294.09v-7.144"/><circle cx="12.568" cy="284.04" r="1.191" stroke-linecap="round" stroke-linejoin="round"/><path d="M12.561 287.356c-.845-1.171-2.637-1.861-2.465-3.593.381-3.124 4.669-3.053 4.932.012.149 1.737-1.631 2.398-2.467 3.581z"/></g><path d="M12.7 12.3a4.113 4.113 0 0 0-4.101-4.101A4.1 4.1 0 0 0 4.626 11.3c-1.23.205-2.179 1.256-2.179 2.538a2.57 2.57 0 0 0 2.564 2.563H12.7c1.128 0 2.05-.923 2.05-2.05A2.056 2.056 0 0 0 12.7 12.3z" fill="#4c6dac"/></svg>
