<svg xmlns="http://www.w3.org/2000/svg" width="64" height="64" viewBox="0 0 16.933 16.933" version="1.1" id="svg8"><g id="layer1" transform="translate(0 -280.067)"><g id="g1008" transform="translate(0 -.258)" fill="none" stroke="#80cc28" stroke-width=".397" stroke-miterlimit="4" stroke-dasharray="none" stroke-opacity="1"><path id="path828" d="M9.243 283.648l-2.628-.67-3.97 1.057v10.055l3.97-1.059 3.968 1.059 3.97-1.059v-6.085" stroke-linecap="round" stroke-linejoin="miter"/><path id="path830" d="M6.615 293.031v-10.054" stroke-linecap="butt" stroke-linejoin="miter"/><path id="path832" d="M10.583 294.09v-7.144" stroke-linecap="butt" stroke-linejoin="miter"/><circle r="1.191" cy="284.035" cx="12.568" id="path836" opacity="1" fill-opacity=".627" stroke-linecap="round" stroke-linejoin="round"/><path id="path840" d="M12.561 287.356c-.845-1.171-2.637-1.861-2.465-3.593.381-3.124 4.669-3.053 4.932.012.149 1.737-1.631 2.398-2.467 3.581z" stroke-linecap="butt" stroke-linejoin="miter"/></g><path d="M12.7 292.37a4.113 4.113 0 00-4.101-4.101 4.1 4.1 0 00-3.973 3.101c-1.23.205-2.179 1.256-2.179 2.538a2.57 2.57 0 002.564 2.563H12.7c1.128 0 2.05-.923 2.05-2.05 0-1.128-.922-2.051-2.05-2.051z" id="path912" fill="#212121" fill-opacity="1" stroke-width=".265"/><text xml:space="preserve" style="line-height:1.25" x="7.749" y="294.755" id="text1395" font-style="normal" font-weight="400" font-size="10.583" font-family="sans-serif" letter-spacing="0" word-spacing="0" fill="#fff" fill-opacity="1" stroke="none" stroke-width=".265"><tspan id="tspan1393" x="7.749" y="294.755" style="-inkscape-font-specification:'Fira Sans Bold'" font-style="normal" font-variant="normal" font-weight="700" font-stretch="normal" font-size="7.056" font-family="Fira Sans" fill="#fff" fill-opacity="1" stroke-width=".265">!</tspan></text></g><style id="style902" type="text/css"></style></svg>
