<svg xmlns="http://www.w3.org/2000/svg" width="64" height="64" viewBox="0 0 16.933 16.933" version="1.1" id="svg8"><g id="g825" transform="translate(0 -280.325)" fill="none" stroke="#80cc28" stroke-width=".397" stroke-miterlimit="4" stroke-dasharray="none" stroke-opacity="1"><path id="path828" d="M9.243 283.648l-2.628-.67-3.97 1.057v10.055l3.97-1.059 3.968 1.059 3.97-1.059v-6.085" stroke-linecap="round" stroke-linejoin="miter"/><path id="path830" d="M6.615 293.031v-10.054" stroke-linecap="butt" stroke-linejoin="miter"/><path id="path832" d="M10.583 294.09v-7.144" stroke-linecap="butt" stroke-linejoin="miter"/><circle r="1.191" cy="284.035" cx="12.568" id="path836" opacity="1" fill-opacity=".627" stroke-linecap="round" stroke-linejoin="round"/><path id="path840" d="M12.561 287.356c-.845-1.171-2.637-1.861-2.465-3.593.381-3.124 4.669-3.053 4.932.012.149 1.737-1.631 2.398-2.467 3.581z" stroke-linecap="butt" stroke-linejoin="miter"/></g><path d="M12.7 12.303a4.113 4.113 0 00-4.101-4.101 4.1 4.1 0 00-3.973 3.101c-1.23.205-2.179 1.256-2.179 2.538a2.57 2.57 0 002.564 2.563H12.7c1.128 0 2.05-.923 2.05-2.05a2.056 2.056 0 00-2.05-2.051z" id="path912" fill="#4c6dac" fill-opacity="1" stroke-width=".265"/><g aria-label="↓" style="line-height:1.25" id="text829" font-style="normal" font-weight="400" font-size="10.583" font-family="sans-serif" letter-spacing="0" word-spacing="0" fill="#fff" fill-opacity="1" stroke="none" stroke-width=".265" transform="translate(0 -280.067)"><path d="M8.137 294.829h.924v-3.585a-2.064-2.064 0 00.508.642l.819.748.564-.6-2.35-2.124-2.356 2.124.564.6.819-.748c.24-.219.374-.381.508-.642z" style="-inkscape-font-specification:'Fira Sans Semi-Bold Italic'" id="path831" font-style="italic" font-variant="normal" font-weight="600" font-stretch="normal" font-size="7.056" font-family="'Fira Sans'" fill="#fff" fill-opacity="1" stroke-width=".265"/></g><style id="style902" type="text/css"/></svg>
