<?xml version="1.0" encoding="UTF-8" standalone="no"?>
<!-- Generator: Adobe Illustrator 27.7.0, SVG Export Plug-In . SVG Version: 6.00 Build 0)  -->

<svg
   version="1.1"
   id="Layer_1"
   x="0px"
   y="0px"
   viewBox="0 0 512 512"
   style="enable-background:new 0 0 512 512;"
   xml:space="preserve"
   xmlns="http://www.w3.org/2000/svg"
   xmlns:svg="http://www.w3.org/2000/svg"><defs
   id="defs100" />
<g
   id="g95"
   style="fill:#ffffff">
	<path
   d="M486.4,422.4H70.82L277.95,77.17c7.27-12.12,3.34-27.85-8.78-35.12c-12.12-7.27-27.85-3.34-35.12,8.78l-230.4,384   c-4.75,7.91-4.87,17.75-0.33,25.78c4.55,8.03,13.05,12.99,22.28,12.99h460.8c14.14,0,25.6-11.46,25.6-25.6   S500.54,422.4,486.4,422.4L486.4,422.4z"
   id="path85"
   style="fill:#ffffff" />
	<path
   d="M476.54,375.58h0.38c14.14,0,25.6-11.46,25.6-25.6s-11.46-25.6-25.6-25.6h-0.38c-14.14,0-25.6,11.46-25.6,25.6   S462.41,375.58,476.54,375.58"
   id="path87"
   style="fill:#ffffff" />
	<path
   d="M448.38,288.54h0.38c14.14,0,25.6-11.46,25.6-25.6c0-14.14-11.46-25.6-25.6-25.6h-0.38c-14.14,0-25.6,11.46-25.6,25.6   C422.78,277.08,434.25,288.54,448.38,288.54"
   id="path89"
   style="fill:#ffffff" />
	<path
   d="M402.3,209.18h0.38c14.14,0,25.6-11.46,25.6-25.6c0-14.14-11.46-25.6-25.6-25.6h-0.38c-14.14,0-25.6,11.46-25.6,25.6   C376.7,197.72,388.17,209.18,402.3,209.18"
   id="path91"
   style="fill:#ffffff" />
	<path
   d="M343.42,140.06h0.38c14.14,0,25.6-11.46,25.6-25.6c0-14.14-11.46-25.6-25.6-25.6h-0.38c-14.14,0-25.6,11.46-25.6,25.6   C317.82,128.6,329.29,140.06,343.42,140.06"
   id="path93"
   style="fill:#ffffff" />
</g>
</svg>
