<?xml version="1.0" encoding="UTF-8" standalone="no"?>
<svg
   height="24"
   width="24"
   version="1.1"
   id="svg4"
   sodipodi:docname="content_copy_FILL0_wght400_GRAD0_opsz24.svg"
   inkscape:version="1.1.2 (0a00cf5339, 2022-02-04)"
   xmlns:inkscape="http://www.inkscape.org/namespaces/inkscape"
   xmlns:sodipodi="http://sodipodi.sourceforge.net/DTD/sodipodi-0.dtd"
   xmlns="http://www.w3.org/2000/svg"
   xmlns:svg="http://www.w3.org/2000/svg">
  <defs
     id="defs8" />
  <sodipodi:namedview
     id="namedview6"
     pagecolor="#ffffff"
     bordercolor="#666666"
     borderopacity="1.0"
     inkscape:pageshadow="2"
     inkscape:pageopacity="0.0"
     inkscape:pagecheckerboard="0"
     showgrid="false"
     inkscape:zoom="2.7513373"
     inkscape:cx="124.12146"
     inkscape:cy="53.792023"
     inkscape:window-width="1866"
     inkscape:window-height="1016"
     inkscape:window-x="54"
     inkscape:window-y="27"
     inkscape:window-maximized="1"
     inkscape:current-layer="svg4" />
  <path
     d="M5 22q-.825 0-1.413-.587Q3 20.825 3 20V6h2v14h11v2Zm4-4q-.825 0-1.412-.587Q7 16.825 7 16V4q0-.825.588-1.413Q8.175 2 9 2h9q.825 0 1.413.587Q20 3.175 20 4v12q0 .825-.587 1.413Q18.825 18 18 18Zm0-2h9V4H9v12Zm0 0V4v12Z"
     id="path2" />
</svg>
