<?xml version="1.0" encoding="UTF-8"?>
<svg width="24" height="24" version="1.1" viewBox="0 96 960 960" xml:space="preserve" xmlns="http://www.w3.org/2000/svg"><path d="m440 616h-160v-80h160v-160h80v160h160v80h-160v160h-80z" fill="#fff"/><path d="m400 232.25c-132.38 31.193-234.08 132.9-265.78 263.75h79.219c27.299-88.395 97.129-156.88 186.56-183.91v-79.844zm160 0v79.844c89.433 27.024 159.26 95.511 186.56 183.91h79.219c-31.696-130.85-133.4-232.56-265.78-263.75zm-425.78 423.75c31.696 130.85 133.4 232.56 265.78 263.75v-79.844c-89.433-27.024-159.26-95.511-186.56-183.91h-79.219zm612.34 0c-27.299 88.395-97.129 156.88-186.56 183.91v79.844c132.38-31.193 234.08-132.9 265.78-263.75h-79.219z" color="#000000" fill="#fff" style="-inkscape-stroke:none"/></svg>
