<?xml version="1.0" encoding="UTF-8"?>
<svg width="24" height="24" version="1.1" viewBox="0 -960 960 960" xmlns="http://www.w3.org/2000/svg">
 <path d="m200-200h57l391-391-57-57-391 391zm-80 80v-170l528-527c8-7.3333 16.833-13 26.5-17s19.833-6 30.5-6 21 2 31 6 18.667 10 26 18l55 56c8 7.3333 13.833 16 17.5 26s5.5 20 5.5 30c0 10.667-1.8333 20.833-5.5 30.5s-9.5 18.5-17.5 26.5l-182.94 182.94c-64.22 24.056-108.06 67.457-138.08 138.08l-205.97 205.97zm640-584-56-56zm-141 85-28-29 57 57z"/>
 <path d="m760-440 12 60c8 3.3333 15.5 6.8333 22.5 10.5s14.167 8.1667 21.5 13.5l58-18 40 68-46 40c1.3333 8 2 16.667 2 26s-0.66667 18-2 26l46 40-40 68-58-18c-7.3333 5.3333-14.5 9.8333-21.5 13.5s-14.5 7.1667-22.5 10.5l-12 60h-80l-12-60c-8-3.3333-15.5-6.8333-22.5-10.5s-14.167-8.1667-21.5-13.5l-58 18-40-68 46-40c-1.3333-8-2-16.667-2-26s0.66667-18 2-26l-46-40 40-68 58 18c7.3333-5.3333 14.5-9.8333 21.5-13.5s14.5-7.1667 22.5-10.5l12-60zm-40 120c-22 0-40.833 7.8333-56.5 23.5s-23.5 34.5-23.5 56.5 7.8333 40.833 23.5 56.5 34.5 23.5 56.5 23.5 40.833-7.8333 56.5-23.5 23.5-34.5 23.5-56.5-7.8333-40.833-23.5-56.5-34.5-23.5-56.5-23.5z"/>
</svg>
