<?xml version="1.0" encoding="UTF-8"?>
<svg width="24" height="24" enable-background="new 4 4 24 24" version="1.1" viewBox="4 4 24 24" xmlns="http://www.w3.org/2000/svg">
 <path d="m13.269 15.218c-2.248-.799-3.374-2.011-3.374-3.632 0-1.279.594-2.301 1.78-3.067 1.198-.764 2.683-1.147 4.451-1.147 1.606 0 2.88.269 3.828.804.949.526 1.423 1.161 1.423 1.903 0 .388-.147.729-.446 1.028-.295.285-.639.428-1.026.428-.64 0-1.165-.446-1.576-1.337-.567-1.233-1.42-1.85-2.559-1.85-.901 0-1.645.296-2.227.89-.583.594-.875 1.423-.875 2.485 0 2.089 1.081 3.135 3.239 3.135.227 0 .488-.023.783-.069.513-.067.911-.102 1.196-.102.693 0 1.042.199 1.042.599 0 .445-.354.667-1.061.667-.25 0-.624-.04-1.125-.12-.377-.069-.667-.103-.871-.103-2.285 0-3.426 1.16-3.426 3.485 0 1.13.303 2.044.909 2.741.604.685 1.452 1.028 2.534 1.028 1.355 0 2.251-.704 2.697-2.109.229-.741.479-1.256.753-1.542.287-.284.664-.428 1.133-.428.388 0 .733.144 1.044.428.32.274.479.629.479 1.062 0 1.04-.583 1.902-1.747 2.589-1.166.672-2.573 1.009-4.224 1.009-1.813 0-3.43-.433-4.843-1.301-1.404-.869-2.107-2.029-2.107-3.478 0-1.812 1.399-3.142 4.196-3.996"/>
</svg>
