<?xml version="1.0" encoding="utf-8"?>
<svg xmlns="http://www.w3.org/2000/svg" viewBox="212.236 192.507 46.72 46.47" width="46.72px" height="46.47px" fill="#000000">
  <g id="Capa_2">
    <g id="Capa_1-2" transform="matrix(1, 0, 0, 1, 46.926, 192.507)">
      <g>
        <g/>
        <g>
          <g/>
        </g>
        <g>
          <path class="cls-1" d="m192.71,20.17l-.2.2c.06.08.12.14.17.23l.2-.2c-.04-.08-.1-.16-.17-.23Zm-1.54,1.94l-.21.2c.06.08.1.16.14.25l.21-.2h0c-.04-.09-.09-.17-.15-.25Z" style=""/>
          <g>
            <path class="cls-1" d="m196.91,16.35l-.2.2c-.06-.07-.12-.14-.18-.21l.19-.19c.07.07.13.13.19.2Z" style=""/>
            <path class="cls-1" d="m198.19,15.07l-.2.2c-.06-.07-.11-.13-.19-.2l.2-.2c.07.07.13.13.19.2Z" style=""/>
            <path class="cls-1" d="m198,14.87l-.2.2c.08.07.13.13.19.2l.2-.2c-.06-.07-.12-.13-.19-.2Zm-1.09,1.48c-.06-.07-.12-.13-.19-.2l-.19.19-.2.2c.07.06.12.12.19.2.06.07.12.13.18.21l.2-.19c-.06-.07-.12-.13-.19-.21l.2-.2Z" style=""/>
          </g>
          <path class="cls-1" d="m209.03,24.61c0,12.05-9.8,21.86-21.86,21.86s-21.86-9.8-21.86-21.86,9.8-21.86,21.86-21.86c2.54,0,5.02.43,7.4,1.28.68.25,1.05,1,.79,1.69-.11.33-.36.6-.68.76-.32.14-.68.17-1.01.04-2.07-.75-4.27-1.13-6.5-1.13-10.58,0-19.21,8.61-19.21,19.21s8.62,19.21,19.21,19.21,19.21-8.61,19.21-19.21c0-3.82-1.11-7.52-3.24-10.68-.19-.3-.27-.65-.2-.99.07-.36.27-.66.57-.85.29-.2.65-.27.99-.2.35.07.65.27.85.56,2.42,3.61,3.69,7.81,3.69,12.17Z" style=""/>
          <g>
            <path class="cls-1" d="m192.87,20.4l-.2.2c-.04-.09-.11-.16-.17-.23l.2-.2c.07.08.12.16.17.23Z" style=""/>
            <path class="cls-1" d="m196.91,16.35l-.39.39c-.07-.08-.12-.14-.19-.2l.2-.2.19-.19c.07.07.13.13.19.2Z" style=""/>
            <path class="cls-1" d="m198.19,15.07l-.2.2c-.06-.07-.11-.13-.19-.2l.2-.2c.07.07.13.13.19.2Z" style=""/>
            <path class="cls-1" d="m198,14.87l-.2.2c.08.07.13.13.19.2l.2-.2c-.06-.07-.12-.13-.19-.2Zm-1.09,1.48c-.06-.07-.12-.13-.19-.2l-.19.19-.2.2c.07.06.12.12.19.2.06.07.12.13.18.21l.2-.19c-.06-.07-.12-.13-.19-.21l.2-.2Zm-4.2,3.81l-.2.2c.06.08.12.14.17.23l.2-.2c-.04-.08-.1-.16-.17-.23Zm-1.54,1.94l-.21.2c.06.08.1.16.14.25l.21-.2h0c-.04-.09-.09-.17-.15-.25Z" style=""/>
          </g>
          <g>
            <path class="cls-1" d="m204.06,7.52v.02s-.02-.02-.03-.02h.03Z" style=""/>
            <path class="cls-1" d="m204.03,7.52s.02.01.03.02v-.02h-.03Z" style=""/>
          </g>
          <g>
            <path class="cls-1" d="m204.06,7.52v.02s-.02-.02-.03-.02h.03Z" style=""/>
            <path class="cls-1" d="m204.03,7.52s.02.01.03.02v-.02h-.03Z" style=""/>
            <path class="cls-1" d="m210.7,7.24h-6.36V1.34c0-.74-.59-1.34-1.33-1.34s-1.33.6-1.33,1.34v6.89l-5.02,5.02c-2.52-2.01-5.69-3.21-9.15-3.21-8.1,0-14.68,6.58-14.68,14.67,0,2.79.78,5.49,2.26,7.83.19.3.49.5.84.58.35.09.69.02.99-.17.62-.39.8-1.21.41-1.83-1.2-1.92-1.85-4.13-1.85-6.42,0-6.63,5.4-12.02,12.03-12.02,2.73,0,5.25.91,7.26,2.44l-4.26,4.26c-.09.04-.17.11-.23.18-.08.08-.13.16-.19.25l-3.87,3.87c-.51.51-.51,1.36,0,1.87.26.26.58.39.94.39s.69-.13.94-.39l3-3c-.04-.09-.09-.17-.14-.25l.21-.2c.06.08.1.16.15.23h0s-.21.21-.21.21c.32.61.49,1.3.49,2.02,0,2.43-1.98,4.41-4.42,4.41s-4.41-1.98-4.41-4.41,1.98-4.42,4.41-4.42c.74,0,1.33-.59,1.33-1.33s-.59-1.33-1.33-1.33c-3.9,0-7.06,3.18-7.06,7.07s3.16,7.06,7.06,7.06,7.07-3.18,7.07-7.06c0-1.44-.42-2.8-1.2-3.96l3.65-3.65c-.06-.08-.12-.14-.18-.21-.07-.08-.12-.14-.19-.2l.2-.2.19-.19c.07.07.13.13.19.2l-.2.2c.07.08.13.14.19.21l-.2.19c1.77,2.09,2.84,4.8,2.84,7.75,0,6.63-5.39,12.03-12.02,12.03-2.6,0-5.07-.81-7.15-2.36-.59-.43-1.41-.31-1.85.28s-.31,1.41.27,1.86c2.54,1.87,5.56,2.87,8.73,2.87,8.09,0,14.67-6.58,14.67-14.68,0-3.68-1.37-7.05-3.61-9.63l5.19-5.19h6.93c.73,0,1.33-.6,1.33-1.33s-.59-1.33-1.33-1.33Zm-18.03,13.36c-.04-.09-.11-.16-.17-.23l.2-.2c.07.08.12.16.17.23l-.2.2Zm5.31-5.33c-.06-.07-.11-.13-.19-.2l.2-.2c.07.07.13.13.19.2l-.2.2Zm6.07-7.73s-.02-.02-.03-.02h.03v.02Z" style=""/>
          </g>
        </g>
      </g>
    </g>
  </g>
</svg>
