<?xml version="1.0" encoding="UTF-8"?>
<svg width="24" height="24" version="1.1" viewBox="0 0 24 24" xmlns="http://www.w3.org/2000/svg" xmlns:cc="http://creativecommons.org/ns#" xmlns:dc="http://purl.org/dc/elements/1.1/" xmlns:rdf="http://www.w3.org/1999/02/22-rdf-syntax-ns#">
 <metadata>
  <rdf:RDF>
   <cc:Work rdf:about="">
    <dc:format>image/svg+xml</dc:format>
    <dc:type rdf:resource="http://purl.org/dc/dcmitype/StillImage"/>
   </cc:Work>
  </rdf:RDF>
 </metadata>
 <path d="m11.744 13.951 0.54891 2.0485 2.0486-0.5489 4.423-7.6606-2.5975-1.4996zm8.1802-8.1697c0.15596-0.27013 0.06375-0.61428-0.20639-0.77024l-1.6208-0.93576c-0.27014-0.15596-0.61429-0.063744-0.77026 0.20638l-0.73183 1.2675 2.5975 1.4996z" fill="#fff" stroke-width=".56555"/>
 <path d="M0 0h24v24H0z" fill="none"/>
 <g transform="translate(.60118 -.32086)">
  <path d="m5.3572 13.25 0.096209-0.02086 0.037362-0.09108 0.049566 0.08506 0.098167 0.0074-0.065576 0.07342 0.023309 0.09565-0.090094-0.03968-0.083761 0.05172 0.00989-0.09795z" fill="#fff"/>
  <path d="m5.1431 7.8201 1.564 9.3841 8.737 1.5101" fill="none" stroke="#fff" stroke-width="1.4"/>
  <g fill="#fff" stroke="#fff" stroke-width="1.9319">
   <rect x="4.3648" y="6.9212" width="1.5681" height="1.5681"/>
   <rect x="5.8316" y="16.169" width="1.5681" height="1.5681"/>
   <rect x="14.964" y="17.787" width="1.5681" height="1.5681"/>
  </g>
 </g>
</svg>
