<?xml version="1.0" encoding="UTF-8"?>
<svg width="64" height="64" version="1.1" viewBox="0 0 16.933 16.933" xml:space="preserve" xmlns="http://www.w3.org/2000/svg"><style type="text/css"/><path d="m1.4552 2.7781h5.8207l0.79373 1.3229h7.4082v10.054h-14.023z" fill="none" stroke="#fff" stroke-linecap="round" stroke-linejoin="round" stroke-opacity=".5" stroke-width="1.3229"/><path d="m1.4552 2.7781h5.8207l0.79373 1.3229h7.4082v10.054h-14.023z" fill="#212121" stroke="#212121" stroke-linecap="round" stroke-linejoin="round" stroke-width=".39687"/><style type="text/css">.st0{fill:#80CC28;}</style><path d="m8.4662 7.252 0.43224 1.0204 0.20943 0.49462 0.53473 0.04456 1.1006 0.093577-0.83774 0.72634-0.4055 0.35203 0.12031 0.52581 0.24954 1.0739-0.94468-0.57038-0.45897-0.28519-0.45897 0.27628-0.94468 0.57038 0.24954-1.0739 0.12031-0.52581-0.4055-0.35203-0.83774-0.72634 1.1006-0.093577 0.53473-0.044561 0.20943-0.49462 0.43224-1.0115m0-2.286-1.2522 2.9544-3.2039 0.27182 2.433 2.1077-0.73079 3.1326 2.7538-1.6621 2.7538 1.6621-0.73079-3.1326 2.433-2.1077-3.2039-0.27182z" fill="#80cc28" stroke-width=".26458"/></svg>
