<?xml version="1.0" encoding="UTF-8"?>
<svg width="64" height="64" version="1.1" viewBox="0 0 16.933 16.933" xmlns="http://www.w3.org/2000/svg">
 <style type="text/css"/>
 <path d="m1.4552 2.7781h5.8207l0.79373 1.3229h7.4082v10.054h-14.023z" fill="#212121" stroke="#212121" stroke-linecap="round" stroke-linejoin="round" stroke-width=".39687"/>
 <style type="text/css">.st0{fill:#80CC28;}</style>
 <g transform="matrix(.01796 0 0 .01796 3.8101 4.6308)">
  <g transform="matrix(1.2279 0 0 1.2279 -55.034 -60.029)" stroke-width=".81439">
   <polygon class="st0" points="243.47 363.3 422.09 422.97 362.43 244.34 339.1 339.97"/>
   <path class="st0" d="m255.96 393.69c-36.77 0-71.33-14.32-97.33-40.31-26-26-40.31-60.56-40.31-97.33s14.32-71.33 40.31-97.33c26-26 60.56-40.31 97.33-40.31s71.33 14.32 97.33 40.31c26 26 40.31 60.56 40.31 97.33 0 7.78-0.65 15.46-1.91 22.99l26.56 79.53c18.78-29.66 29.65-64.82 29.65-102.52 0-106.01-85.94-191.96-191.96-191.96s-191.94 85.94-191.94 191.95 85.94 191.96 191.96 191.96c37.83 0 73.1-10.95 102.83-29.84l-79.24-26.47c-7.72 1.32-15.61 2-23.59 2z"/>
  </g>
 </g>
</svg>
