<?xml version="1.0" encoding="UTF-8"?>
<svg width="24" height="24" version="1.1" xml:space="preserve" xmlns="http://www.w3.org/2000/svg"><g fill-rule="evenodd" stroke="#000" stroke-linecap="round" stroke-linejoin="round"><path d="m5.5 20c0 0.82843-0.67157 1.5-1.5 1.5s-1.5-0.67157-1.5-1.5c0-0.82843 0.67157-1.5 1.5-1.5s1.5 0.67157 1.5 1.5z" overflow="visible"/><path d="m9.5 8c0 0.82843-0.67157 1.5-1.5 1.5-0.82843 0-1.5-0.67157-1.5-1.5 0-0.82843 0.67157-1.5 1.5-1.5 0.82843 0 1.5 0.67157 1.5 1.5z" overflow="visible"/><path d="m21.5 3c0 0.82843-0.67157 1.5-1.5 1.5s-1.5-0.67157-1.5-1.5c0-0.82843 0.67157-1.5 1.5-1.5s1.5 0.67157 1.5 1.5z" overflow="visible"/></g></svg>
