<?xml version="1.0" encoding="UTF-8"?>
<svg width="24" height="24" version="1.1" viewBox="0 96 960 960" xmlns="http://www.w3.org/2000/svg">
 <path d="M120 856q-33 0-56.5-23.5T40 776V376q0-33 23.5-56.5T120 296h400q33 0 56.5 23.5T600 376v400q0 33-23.5 56.5T520 856H120Zm600-320q-17 0-28.5-11.5T680 496V336q0-17 11.5-28.5T720 296h160q17 0 28.5 11.5T920 336v160q0 17-11.5 28.5T880 536H720Zm40-80h80v-80h-80v80ZM120 776h400V376H120v400Zm40-80h320L375 556l-75 100-55-73-85 113Zm560 160q-17 0-28.5-11.5T680 816V656q0-17 11.5-28.5T720 616h160q17 0 28.5 11.5T920 656v160q0 17-11.5 28.5T880 856H720Zm40-80h80v-80h-80v80Zm-640 0V376v400Zm640-320v-80 80Zm0 320v-80 80Z"/>
</svg>
