<?xml version="1.0" encoding="UTF-8"?>
<svg width="24px" height="24px" version="1.1" viewBox="0 -960 960 960" xml:space="preserve" xmlns="http://www.w3.org/2000/svg"><path d="m480-920c-233.17 3.8994-350.52 224.38-310 400 11.179 45.488 41.594 101.68 77.5 159.38l123.52-123.52c-31.043-29.184-51.016-69.89-51.016-115.86 0-88.365 71.635-160 160-160 45.97 0 86.675 19.972 115.86 51.016l106.8-106.8c-53.972-58.54-125.72-102.94-222.66-104.22zm304.45 248.67-445 445c64.756 85.878 128.75 160.87 140.55 173.75 27.535-29.225 275.35-331.55 310-467.42 11.174-49.021 7.0953-100.83-5.5469-151.33z" fill="#fff" fill-opacity=".5" stop-color="#000000" stroke-linecap="square" stroke-width="80" style="paint-order:stroke fill markers"/><path d="m170-170 660-660" fill="none" stop-color="#000000" stroke="#fff" stroke-linecap="round" stroke-width="80" style="paint-order:stroke fill markers"/></svg>
