<?xml version="1.0" encoding="UTF-8"?>
<svg width="24" height="24" version="1.1" xml:space="preserve" xmlns="http://www.w3.org/2000/svg"><path d="m2.5259 7.3704 4.8635 11.164m1.3262 0.36757 6.5282-14.549m2.1514-1.3523 3.2017-1.5e-6" fill="none" overflow="visible" stroke="#000" stroke-linejoin="round" stroke-width="2"/><g fill-rule="evenodd" stroke="#000" stroke-linecap="round" stroke-linejoin="round"><path d="m3.5 6c0 0.82843-0.67157 1.5-1.5 1.5-0.82843 0-1.5-0.67157-1.5-1.5 0-0.82843 0.67157-1.5 1.5-1.5 0.82843 0 1.5 0.67157 1.5 1.5z" overflow="visible"/><path d="m9.5 20c0 0.82843-0.67157 1.5-1.5 1.5-0.82843 0-1.5-0.67157-1.5-1.5 0-0.82843 0.67157-1.5 1.5-1.5 0.82843 0 1.5 0.67157 1.5 1.5z" overflow="visible"/><path d="m17.5 3c0 0.82843-0.67157 1.5-1.5 1.5s-1.5-0.67157-1.5-1.5c0-0.82843 0.67157-1.5 1.5-1.5s1.5 0.67157 1.5 1.5z" overflow="visible"/><path d="m23.5 3c0 0.82843-0.67157 1.5-1.5 1.5s-1.5-0.67157-1.5-1.5c0-0.82843 0.67157-1.5 1.5-1.5s1.5 0.67157 1.5 1.5z" overflow="visible"/></g></svg>
