<?xml version="1.0" encoding="UTF-8"?>
<svg width="24" height="24" version="1.1" viewBox="0 96 960 960" xmlns="http://www.w3.org/2000/svg">
 <path d="m784 770-58-58q17-30 25.5-64t8.5-70q0-116-82-198t-198-82q-36 0-70 8.5T346 332l-58-58q35-21 72.5-35t79.5-19v-80h80v80q125 14 214.5 103.5T838 538h80v80h-80q-5 42-19 79.5T784 770Zm-344 246v-80q-125-14-214.5-103.5T122 618H42v-80h80q5-42 19-79.5t35-72.5L56 266l56-56 736 736-58 56-118-120q-35 21-72.5 35T520 936v80h-80Zm40-158q36 0 70-8.5t64-25.5L234 444q-17 30-25.5 64t-8.5 70q0 116 82 198t198 82Z" fill="#fff"/>
</svg>
