<?xml version="1.0" encoding="UTF-8"?>
<svg width="24" height="24" version="1.1" viewBox="0 96 960 960" xml:space="preserve" xmlns="http://www.w3.org/2000/svg"><path d="M440 1016v-80q-125-14-214.5-103.5T122 618H42v-80h80q14-125 103.5-214.5T440 220v-80h80v80q125 14 214.5 103.5T838 538h80v80h-80q-14 125-103.5 214.5T520 936v80h-80Zm40-158q116 0 198-82t82-198q0-116-82-198t-198-82q-116 0-198 82t-82 198q0 116 82 198t198 82Z" fill="#fff"/><path d="m440 616h-160v-80h160v-160h80v160h160v80h-160v160h-80z" fill="#fff"/><g fill="none" stroke="#fff" stroke-linecap="square" stroke-width="80"><path d="m80 296v-120h120" stop-color="#000000" style="paint-order:stroke fill markers"/><path d="m760 176h120v120" stop-color="#000000" style="paint-order:stroke fill markers"/><path d="m880 856v120h-120" stop-color="#000000" style="paint-order:stroke fill markers"/><path d="m200 976h-120v-120" stop-color="#000000" style="paint-order:stroke fill markers"/></g></svg>
