<?xml version="1.0" encoding="UTF-8"?>
<svg width="24" height="24" version="1.1" viewBox="0 0 24 24" xmlns="http://www.w3.org/2000/svg">
 <path d="M0 0h24v24H0z" fill="none"/>
 <path d="m3 13h2v-2h-2zm0 4h2v-2h-2zm0-8h2v-2h-2zm4 4h4.8786c3.4892-2.2817 7.2414-1.5414 9.1214-0.61575v-1.3843h-14zm0 4h1.5818c0.20394-0.5527 0.63343-1.2787 1.1447-2h-2.7265zm0-10v2h14v-2z"/>
 <path d="m17 20c0.98333 0 1.896-0.225 2.738-0.675 0.84133-0.45 1.512-1.0583 2.012-1.825-0.5-0.76667-1.1707-1.375-2.012-1.825-0.842-0.45-1.7547-0.675-2.738-0.675s-1.896 0.225-2.738 0.675c-0.84133 0.45-1.512 1.0583-2.012 1.825 0.5 0.76667 1.1707 1.375 2.012 1.825 0.842 0.45 1.7547 0.675 2.738 0.675zm0 2c-1.6 0-3.029-0.42067-4.287-1.262-1.2587-0.842-2.163-1.9213-2.713-3.238 0.55-1.3167 1.4543-2.396 2.713-3.238 1.258-0.84133 2.687-1.262 4.287-1.262s3.0293 0.42067 4.288 1.262c1.258 0.842 2.162 1.9213 2.712 3.238-0.55 1.3167-1.454 2.396-2.712 3.238-1.2587 0.84133-2.688 1.262-4.288 1.262zm0-3c-0.41667 0-0.77067-0.146-1.062-0.438-0.292-0.29133-0.438-0.64533-0.438-1.062s0.146-0.77067 0.438-1.062c0.29133-0.292 0.64533-0.438 1.062-0.438s0.77067 0.146 1.062 0.438c0.292 0.29133 0.438 0.64533 0.438 1.062s-0.146 0.77067-0.438 1.062c-0.29133 0.292-0.64533 0.438-1.062 0.438z"/>
</svg>
