<?xml version="1.0" encoding="UTF-8"?>
<svg width="24" height="24" version="1.1" viewBox="0 96 960 960" xml:space="preserve" xmlns="http://www.w3.org/2000/svg"><path d="m512.27 332.09c-24.212 1.6345-43.906 20.939-43.906 45.547 0 25.667 20.974 46.719 46.641 46.719 25.667 0 46.641-21.052 46.641-46.719 0-23.298-18.157-40.749-40.547-44.141a249 249 0 0 0-8.8281-1.4062zm-32.266 103.91c-7 0-11.672 2.3438-18.672 2.3438l-121.33 51.328v109.69h46.641v-79.375l42.031-16.328-55.078 277.27a249 249 0 0 0 46.094 19.062l34.609-153.98 49.062 46.641v122.66a249 249 0 0 0 46.641-19.297v-138.36l-48.984-46.641 13.984-70c30.333 35 77.026 58.359 128.36 58.359v-46.719c-44.333 0-81.724-23.271-100.39-55.938l-23.281-37.344c-9.3333-14-23.354-23.359-39.688-23.359z" fill="#fff" stop-color="#000000" stroke-linecap="round" stroke-width="159.95" style="paint-order:stroke fill markers"/><path d="m440 1014v-80q-125-14-214.5-103.5t-103.5-214.5h-80v-80h80q14-125 103.5-214.5t214.5-103.5v-80h80v80q125 14 214.5 103.5t103.5 214.5h80v80h-80q-14 125-103.5 214.5t-214.5 103.5v80zm40-158q116 0 198-82t82-198-82-198-198-82-198 82-82 198 82 198 198 82z" fill="#fff"/></svg>
