<?xml version="1.0" encoding="UTF-8"?>
<svg width="24" height="24" version="1.1" viewBox="0 96 960 960" xml:space="preserve" xmlns="http://www.w3.org/2000/svg"><g fill="#fff"><path d="m634 976c-9.3333 0-17.333-3.3333-24-10s-10-14.667-10-24v-132c0-9.3333 3.3333-17.333 10-24s14.667-10 24-10h6v-40c0-22 7.8333-40.833 23.5-56.5s34.5-23.5 56.5-23.5 40.833 7.8333 56.5 23.5 23.5 34.5 23.5 56.5v40h6c9.3333 0 17.333 3.3333 24 10s10 14.667 10 24v132c0 9.3333-3.3333 17.333-10 24s-14.667 10-24 10zm46-200h80v-40c0-11.333-3.8333-20.833-11.5-28.5s-17.167-11.5-28.5-11.5-20.833 3.8333-28.5 11.5-11.5 17.167-11.5 28.5z"/><path d="m200 216c-22 0-40.818 7.849-56.484 23.516-15.667 15.667-23.516 34.484-23.516 56.484v560c0 22 7.849 40.818 23.516 56.484 15.667 15.667 34.484 23.516 56.484 23.516h320v-80h-320v-560h560v320h80v-320c0-22-7.849-40.818-23.516-56.484-15.667-15.667-34.484-23.516-56.484-23.516h-560z"/><circle cx="300" cy="396" r="60"/><circle cx="660" cy="396" r="60"/></g></svg>
