<?xml version="1.0" encoding="UTF-8"?>
<svg width="24" height="24" version="1.1" xmlns="http://www.w3.org/2000/svg">
 <path d="m4 18c-0.55 0-1.0207-0.19567-1.412-0.587-0.392-0.392-0.588-0.863-0.588-1.413v-8c0-0.55 0.196-1.0207 0.588-1.412 0.39133-0.392 0.862-0.588 1.412-0.588h16c0.55 0 1.021 0.196 1.413 0.588 0.39133 0.39133 0.587 0.862 0.587 1.412v8c0 0.55-0.19567 1.021-0.587 1.413-0.392 0.39133-0.863 0.587-1.413 0.587zm0-2h16v-8h-3v4h-2v-4h-2v6h-2v-6h-2v4h-2v-4h-3zm3-4h2zm4 2h2zm4-2h2z"/>
</svg>
