<svg width="24" height="24" viewBox="0 0 24 24" fill="none" xmlns="http://www.w3.org/2000/svg">
<g clip-path="url(#clip0_1220_9)">
<path d="M12.4 19.45L4.575 11.6C4.39167 11.4167 4.25 11.2083 4.15 10.975C4.05 10.7417 4 10.5 4 10.25C4 10 4.05 9.75833 4.15 9.525C4.25 9.29167 4.39167 9.08333 4.575 8.9L8.9 4.575C9.08333 4.39167 9.29167 4.25433 9.525 4.163C9.75833 4.07167 10 4.02567 10.25 4.025C10.5 4.02433 10.7417 4.07033 10.975 4.163C11.2083 4.25567 11.4167 4.393 11.6 4.575L19.425 12.4C19.6083 12.5833 19.75 12.7917 19.85 13.025C19.95 13.2583 20 13.5 20 13.75C20 14 19.95 14.2417 19.85 14.475C19.75 14.7083 19.6083 14.9167 19.425 15.1L15.1 19.45C14.9167 19.6333 14.7083 19.771 14.475 19.863C14.2417 19.955 14 20.0007 13.75 20C13.5 19.9993 13.2583 19.9537 13.025 19.863C12.7917 19.7723 12.5833 19.6347 12.4 19.45ZM13.75 18L18 13.75L10.25 6L6 10.25L13.75 18ZM12 24C10.35 24 8.796 23.6877 7.338 23.063C5.88 22.4383 4.605 21.58 3.513 20.488C2.421 19.396 1.56267 18.121 0.938 16.663C0.313333 15.205 0.000666667 13.6507 0 12H2C2 13.1833 2.2 14.3167 2.6 15.4C3 16.4833 3.55433 17.4583 4.263 18.325C4.97167 19.1917 5.81733 19.9293 6.8 20.538C7.78267 21.1467 8.85767 21.5757 10.025 21.825L7.4 19.2L8.8 17.8L14.7 23.7C14.2667 23.8 13.821 23.875 13.363 23.925C12.905 23.975 12.4507 24 12 24ZM22 12C22 10.8167 21.8 9.68333 21.4 8.6C21 7.51667 20.446 6.54167 19.738 5.675C19.03 4.80833 18.184 4.071 17.2 3.463C16.216 2.855 15.141 2.42567 13.975 2.175L16.6 4.8L15.2 6.2L9.3 0.3C9.73333 0.2 10.1793 0.125 10.638 0.075C11.0967 0.025 11.5507 0 12 0C13.65 0 15.2043 0.312667 16.663 0.938C18.1217 1.56333 19.3967 2.42167 20.488 3.513C21.5793 4.60433 22.4377 5.87933 23.063 7.338C23.6883 8.79667 24.0007 10.3507 24 12H22ZM9.325 10.1C9.54167 10.1 9.721 10.025 9.863 9.875C10.005 9.725 10.0757 9.55 10.075 9.35C10.075 9.13333 10.004 8.95433 9.862 8.813C9.72 8.67167 9.541 8.60067 9.325 8.6C9.125 8.6 8.95 8.671 8.8 8.813C8.65 8.955 8.575 9.134 8.575 9.35C8.575 9.55 8.65 9.725 8.8 9.875C8.95 10.025 9.125 10.1 9.325 10.1Z" fill="black"/>
</g>
<defs>
<clipPath id="clip0_1220_9">
<rect width="24" height="24" fill="white"/>
</clipPath>
</defs>
</svg>
