<svg width="24" height="24" xmlns="http://www.w3.org/2000/svg"><path d="M0 15.582c.012 2.542.01 5.084.007 7.626 1.146-1.159 2.285-2.325 3.458-3.457 1.888 2.078 4.396 3.682 7.21 4.106 4.394.739 9.217-1.284 11.55-5.108.312-.608 1.543-1.905.258-2.14-.89.025-.787 1.204-1.285 1.722-2.518 4.02-8.063 5.634-12.43 3.887-1.764-.662-3.299-1.848-4.509-3.277 1.119-1.126 2.256-2.233 3.388-3.345-2.549-.023-5.098-.04-7.647-.014zM24 8.418c-.012-2.542-.01-5.084-.007-7.626-1.146 1.159-2.285 2.325-3.458 3.457C18.646 2.17 16.14.567 13.325.143 8.93-.596 4.108 1.427 1.775 5.25c-.312.608-1.543 1.905-.258 2.14.89-.025.787-1.204 1.285-1.722C5.32 1.65 10.865.035 15.232 1.782c1.764.662 3.299 1.848 4.509 3.277-1.119 1.126-2.256 2.233-3.388 3.345 2.549.023 5.098.04 7.647.014z" overflow="visible"/></svg>