<svg xmlns="http://www.w3.org/2000/svg" height="24px" viewBox="0 -960 960 960" width="24px" fill="#333333"><path d="M324-111.5Q251-143 197-197t-85.5-127Q80-397 80-480t31.5-156Q143-709 197-763t127-85.5Q397-880 480-880t156 31.5Q709-817 763-763t85.5 127Q880-563 880-480t-31.5 156Q817-251 763-197t-127 85.5Q563-80 480-80t-156-31.5ZM480-160q56 0 105.5-17.5T676-227l-57-57q-29 21-64.5 32.5T480-240q-100 0-170-70t-70-170q0-100 70-170t170-70q100 0 170 70t70 170q0 39-12 75t-33 65l57 57q32-41 50-91t18-106q0-134-93-227t-227-93q-134 0-227 93t-93 227q0 134 93 227t227 93Zm0-160q22 0 42.5-5.5T561-342l-61-61q-5 2-10 2.5t-10 .5q-33 0-56.5-23.5T400-480q0-33 23.5-56.5T480-560q33 0 56.5 23.5T560-480q0 6-.5 11.5T557-458l60 60q11-18 17-38.5t6-43.5q0-66-47-113t-113-47q-66 0-113 47t-47 113q0 66 47 113t113 47Z"/></svg>