<?xml version="1.0" encoding="UTF-8"?>
<!-- Created with Inkscape (http://www.inkscape.org/) -->
<svg width="24" height="24" version="1.1" viewBox="0 0 24 24" xmlns="http://www.w3.org/2000/svg">
 <g stroke-width=".046894">
  <path d="m15.742 7.1263e-7c-0.71607-2.2509e-4 -1.1069 0.052815-1.7663 0.24033-0.98589 0.28034-1.8758 0.79797-2.6299 1.5279-1.6143 1.5626-2.2877 3.843-1.7761 6.016 0.58642 2.491 2.6129 4.3709 5.1798 4.8046 0.78072 0.13192 1.9408 0.06572 2.6964-0.15436 1.8164-0.52905 3.3231-1.827 4.068-3.5014 1.5409-3.4637-0.20582-7.4247-3.8042-8.6284-0.62773-0.20997-1.2336-0.30458-1.9676-0.30481zm-0.13091 1.4537c0.98271-0.025741 1.9756 0.25239 2.8664 0.83822 0.63419 0.41709 1.3496 1.2584 1.6843 1.9793 0.3461 0.74553 0.5014 1.6732 0.42204 2.5108-0.21141 2.2313-1.902 4.0242-4.111 4.3572-0.83594 0.126-1.5822 0.05255-2.374-0.23056-1.5411-0.55102-2.6561-1.7879-3.1106-3.4525-0.06497-0.23794-0.0822-0.48485-0.08206-1.1254 1.92e-4 -0.95629 0.07408-1.3206 0.41813-2.0496 0.36914-0.78217 0.83622-1.3634 1.4791-1.8406 0.8508-0.63145 1.825-0.96098 2.8078-0.98672zm0.16803 1.5006c-0.30814 0-0.39299 0.10061-0.40836 0.48457l-0.011725 0.31849-0.26768 0.10746c-0.58851 0.23879-0.9281 0.70627-0.9281 1.2739 0 0.65563 0.26516 0.95199 1.3111 1.4674 0.82215 0.40512 0.91638 0.49302 0.91638 0.84994 0 0.25022-0.11033 0.41322-0.37515 0.55295-0.22234 0.11732-0.68126 0.088515-1.1508-0.072298-0.47994-0.16435-0.56172-0.1477-0.67409 0.14654-0.15759 0.41263-0.04899 0.52399 0.68386 0.7034l0.43767 0.10746 0.02345 0.34779c0.02106 0.31137 0.03538 0.35141 0.14068 0.40446 0.14926 0.07521 0.31969 0.07521 0.46894 0 0.10636-0.053601 0.11941-0.092196 0.14068-0.424l0.02345-0.36538 0.24033-0.082062c0.38339-0.12945 0.70184-0.40196 0.87144-0.74639 0.12288-0.24956 0.14654-0.35058 0.14654-0.64088 0-0.62472-0.33246-1.0802-1.0238-1.4068-0.18141-0.085704-0.46542-0.2185-0.63306-0.29699-0.40715-0.19063-0.58641-0.38113-0.58031-0.61352 0.0061-0.23277 0.07954-0.36153 0.26378-0.46112 0.21486-0.11614 0.72594-0.10299 1.1235 0.029309 0.37178 0.12372 0.45886 0.095451 0.57054-0.18367 0.10261-0.25645 0.09568-0.40727-0.01954-0.46894-0.052028-0.027845-0.27887-0.096846-0.5041-0.15436l-0.40836-0.10551-0.015636-0.30285c-0.017687-0.37597-0.087995-0.46894-0.36147-0.46894z"/>
  <path d="m7.051 13.175c-0.20633 0.02828-0.53693 0.09103-0.73466 0.14068-0.19773 0.04965-0.39132 0.09184-0.42986 0.09184-0.038535 0-0.11647-0.09448-0.17194-0.20907-0.12758-0.26355-0.40886-0.55653-0.65846-0.68387-0.1231-0.062805-0.98503-0.25691-2.3759-0.53537-2.4095-0.48239-2.4227-0.48345-2.5967-0.1993-0.089325 0.14578-0.089835 0.25488-0.078161 4.3162l0.011725 4.1657 0.15436 0.13873 0.15631 0.13873 1.8601-0.01368 1.8621-0.01368 0.2501-0.14068c0.24901-0.13792 0.53371-0.41799 0.62915-0.62134 0.027241-0.05803 0.07614-0.10551 0.10746-0.10551 0.031322 0 0.26505 0.09619 0.51974 0.21493 2.958 1.3791 5.6917 2.371 7.2275 2.6221 0.85443 0.13969 1.7083 0.01257 3.0832-0.45916 1.5961-0.54762 2.661-1.0174 6.3306-2.7902 1.9005-0.91808 1.858-0.88449 1.7702-1.397-0.06805-0.39724-0.21787-0.68297-0.50215-0.95155-0.31689-0.29938-0.60968-0.46505-1.0922-0.61548l-0.4025-0.12504c-0.48491-0.12696-0.95166-0.06738-1.4381-0.0469-0.57406 0.04672-2.0926 0.37538-3.1653 0.68582-0.18046 0.05222-0.3412 0.09574-0.35756 0.09574-0.01637 0-0.05542-0.10024-0.08597-0.22274-0.17659-0.70806-0.8694-1.2621-2.0653-1.6491-0.24502-0.07929-0.89085-0.24805-1.4342-0.37515-1.0741-0.25127-1.4555-0.38485-2.5381-0.88902-0.75054-0.34952-1.2625-0.5321-1.7214-0.61352-0.1525-0.027061-0.28588-0.057273-0.29699-0.068387-0.39168-0.035874-0.96413-0.009004-1.8171 0.11528zm-6.059-0.51778c0.007403 0 0.80403 0.15824 1.7702 0.3517 1.1966 0.2396 1.7939 0.37871 1.8738 0.43767 0.28296 0.20894 0.2891 0.06599-0.13482 3.0344-0.21288 1.4907-0.4078 2.7472-0.43181 2.7921-0.02401 0.04487-0.097969 0.12618-0.16608 0.17976-0.11912 0.09372-0.17909 0.0977-1.526 0.0977h-1.399v-3.4467c0-1.8957 0.006302-3.4467 0.013675-3.4467zm7.5303 1.4166c0.70671 0.02436 0.92783 0.09108 2.0457 0.61157 1.1256 0.5241 1.3054 0.58664 2.6045 0.90661 1.5451 0.38056 2.1413 0.59437 2.5068 0.89879 0.33754 0.2811 0.40606 0.62036 0.16804 0.82064-0.21959 0.18477-0.60501 0.23962-1.4713 0.20907-1.0707-0.03777-2.2117-0.25139-3.9957-0.74639-0.9709-0.26938-1.092-0.26812-1.2798 0.0098-0.13567 0.20078-0.11625 0.43084 0.052751 0.59985 0.13065 0.13065 0.89152 0.35972 2.3056 0.69363 2.473 0.58396 4.1164 0.61317 4.9101 0.08792 0.26105-0.17276 2.0844-0.6738 3.4838-0.95741 1.0777-0.2184 1.8564-0.18733 2.5088 0.1016 0.27347 0.12111 0.59359 0.40052 0.5295 0.46112-0.06585 0.06227-3.9853 1.9403-4.8203 2.3095-1.5657 0.69244-3.0319 1.2242-3.7515 1.3619-0.73167 0.13997-1.1043 0.13198-1.8992-0.04299-1.2924-0.28448-3.8168-1.2341-6.229-2.3447-0.8812-0.40571-0.99623-0.47201-0.97695-0.55686 0.012025-0.05292 0.14274-0.96093 0.29113-2.0184 0.14839-1.0574 0.28937-1.9489 0.31262-1.9793 0.055882-0.073 0.9107-0.27289 1.5787-0.36929 0.36213-0.05227 0.72361-0.07052 1.1254-0.05666z"/>
 </g>
</svg>
