<svg xmlns="http://www.w3.org/2000/svg" width="24" height="24"><path d="M18.3 4l-5.4 5.3 1.8 1.8L21 4.8V4m-9 8.45a.45.45 0 110-.9.45.45 0 010 .9M6.6 19.2a1.8 1.8 0 110-3.6 1.8 1.8 0 010 3.6m0-10.8a1.8 1.8 0 110-3.6 1.8 1.8 0 010 3.6m3.276-.324c.207-.45.324-.945.324-1.476a3.6 3.6 0 10-3.6 3.6c.531 0 1.026-.117 1.476-.324L10.2 12l-2.124 2.124A3.507 3.507 0 006.6 13.8a3.6 3.6 0 103.6 3.6c0-.531-.117-1.026-.324-1.476L12 13.8l6.3 6.2H21v-.8z" fill="#fff"/><path d="M1 11h7v2H1zM16 11h7v2h-7z" fill="#fff"/></svg>
