<?xml version="1.0" encoding="UTF-8"?>
<svg width="24" height="24" version="1.1" viewBox="0 0 6.35 6.35" xml:space="preserve" xmlns="http://www.w3.org/2000/svg" xmlns:cc="http://creativecommons.org/ns#" xmlns:dc="http://purl.org/dc/elements/1.1/" xmlns:rdf="http://www.w3.org/1999/02/22-rdf-syntax-ns#"><metadata><rdf:RDF><cc:Work rdf:about=""><dc:format>image/svg+xml</dc:format><dc:type rdf:resource="http://purl.org/dc/dcmitype/StillImage"/></cc:Work></rdf:RDF></metadata><g transform="matrix(.2659 0 0 .26682 -.046617 -.047527)"><path d="m10.504 5.2903 5.4802 5.7334c3.5893 3.5887-1.0335 8.3395-4.9285 4.7251l-5.7647-5.2463-3.1278 3.1273 6.0689 6.0041 0.45005 0.43638c2.9767 2.8005 7.8279 2.5137 10.896-0.64416 3.0921-3.163 3.3718-8.0967 0.46679-10.998l-0.29897-0.30008-6.1142-5.9646z" fill="none" stroke="#fff" stroke-linecap="square" stroke-linejoin="round" stroke-width="1.9867"/><g fill="#fff" stroke-width="1.5028"><path transform="matrix(-.71808 -.69596 -.69588 .71816 0 0)" d="m-15.678 3.9754 3.9629-0.054066 0.10342 3.5562-4.039 0.094501z"/><path d="m16.409 5.9693-2.8744-2.8355-2.428 2.3722 2.8624 2.9918z"/></g></g></svg>
