<?xml version="1.0" encoding="UTF-8"?>
<svg width="24" height="24" version="1.1" xmlns="http://www.w3.org/2000/svg">
 <path d="m17 22-1.4-1.4 4.55-4.6-4.55-4.6 1.4-1.4 6 6zm-10 0-6-6 6-6 1.4 1.4-4.55 4.6 4.55 4.6zm1-5q-0.425 0-0.713-0.288-0.287-0.287-0.287-0.712t0.287-0.713q0.288-0.287 0.713-0.287t0.713 0.287q0.287 0.288 0.287 0.713t-0.287 0.712q-0.288 0.288-0.713 0.288zm4 0q-0.425 0-0.712-0.288-0.288-0.287-0.288-0.712t0.288-0.713q0.287-0.287 0.712-0.287t0.713 0.287q0.287 0.288 0.287 0.713t-0.287 0.712q-0.288 0.288-0.713 0.288zm4 0q-0.425 0-0.712-0.288-0.288-0.287-0.288-0.712t0.288-0.713q0.287-0.287 0.712-0.287t0.712 0.287q0.288 0.288 0.288 0.713t-0.288 0.712q-0.287 0.288-0.712 0.288z"/>
 <g fill="none" stroke="#000" stroke-width="1px">
  <path d="m15.5 8v-5.5h2c0.99857-0.0019 1-0.00369 1 1v1c0.0052 0.99719 0.0037 1-1 1h-1.5"/>
  <path d="m5 2.5h5"/>
  <path d="m7.5 2v6"/>
  <path d="m14 2.5h-2.5c-0.986 0.00101-1-0.00369-1 1v3c-0.0092 0.99356-0.0037 1 1 1h2.5"/>
 </g>
</svg>
