<?xml version="1.0" encoding="UTF-8"?>
<svg width="24" height="24" version="1.1" xmlns="http://www.w3.org/2000/svg">
 <g transform="translate(0 -288.53)">
  <path d="m12 300.525.002-6.995m3.998 10-3.995-2.995" fill="#888a85" stroke="#74b727" stroke-linecap="round" stroke-width="1.5"/>
  <circle cx="12" cy="300.53" r="10.5" fill="none" stroke="#74b727"/>
  <g fill="#74b727">
   <path d="m12.75 291.78q0 .302-.201.526-.202.224-.549.224-.347 0-.549-.224-.201-.224-.201-.526 0-.302.201-.526.202-.224.549-.224.347 0 .549.224.201.224.201.526z"/>
   <path d="m12.75 309.28q0 .302-.201.526-.202.224-.549.224-.347 0-.549-.224-.201-.224-.201-.526 0-.302.201-.526.202-.224.549-.224.347 0 .549.224.201.224.201.526z"/>
   <path d="m21.5 300.53q0 .302-.201.526-.202.224-.549.224-.347 0-.549-.224-.201-.224-.201-.526 0-.302.201-.526.202-.224.549-.224.347 0 .549.224.201.224.201.526z"/>
   <path d="m4 300.53q0 .302-.201.526-.202.224-.549.224-.347 0-.549-.224-.201-.224-.201-.526 0-.302.201-.526.202-.224.549-.224.347 0 .549.224.201.224.201.526z"/>
   <path d="m17.455 293.16q0 .303-.201.527-.202.223-.549.223-.347 0-.548-.223-.202-.224-.202-.527 0-.302.202-.526.201-.224.548-.224.347 0 .549.224.201.224.201.526z"/>
   <path d="m20.529 304.701q0 .303-.202.526-.201.224-.548.224-.347 0-.549-.224-.201-.223-.201-.526 0-.302.201-.526.202-.224.549-.224.347 0 .548.224.202.224.202.526z"/>
   <path d="m8.62 308.313q0 .302-.201.526-.201.224-.548.224-.347 0-.549-.224-.201-.224-.201-.526 0-.303.201-.527.202-.223.549-.223.347 0 .548.223.202.224.202.527z"/>
   <path d="m20.499 296.387q0 .302-.202.526-.201.224-.548.224-.347 0-.549-.224-.201-.224-.201-.526 0-.303.201-.526.202-.224.549-.224.347 0 .548.224.202.223.202.526z"/>
   <path d="m17.57 307.819q0 .302-.202.526-.201.224-.548.224-.347 0-.549-.224-.201-.224-.201-.526 0-.302.201-.526.202-.224.549-.224.347 0 .548.224.202.224.202.526z"/>
   <path d="m5.432 305.33q0 .303-.202.527-.201.223-.548.223-.347 0-.549-.223-.201-.224-.201-.527 0-.302.201-.526.202-.224.549-.224.347 0 .548.224.202.224.202.526z"/>
   <path d="m5.194 296.126q0 .302-.202.526-.201.224-.548.224-.347 0-.549-.224-.201-.224-.201-.526 0-.302.201-.526.202-.224.549-.224.347 0 .548.224.202.224.202.526z"/>
   <path d="m8.304 292.97q0 .302-.202.526-.201.224-.548.224-.347 0-.549-.224-.201-.224-.201-.526 0-.303.201-.526.202-.224.549-.224.347 0 .548.224.202.223.202.526z"/>
  </g>
 </g>
</svg>
