<?xml version="1.0" encoding="UTF-8"?>
<svg width="24" height="24" version="1.1" xmlns="http://www.w3.org/2000/svg">
 <path d="m17 22-1.4-1.4 4.55-4.6-4.55-4.6 1.4-1.4 6 6zm-10 0-6-6 6-6 1.4 1.4-4.55 4.6 4.55 4.6zm1-5q-0.425 0-0.713-0.288-0.287-0.287-0.287-0.712t0.287-0.713q0.288-0.287 0.713-0.287t0.713 0.287q0.287 0.288 0.287 0.713t-0.287 0.712q-0.288 0.288-0.713 0.288zm4 0q-0.425 0-0.712-0.288-0.288-0.287-0.288-0.712t0.288-0.713q0.287-0.287 0.712-0.287t0.713 0.287q0.287 0.288 0.287 0.713t-0.287 0.712q-0.288 0.288-0.713 0.288zm4 0q-0.425 0-0.712-0.288-0.288-0.287-0.288-0.712t0.288-0.713q0.287-0.287 0.712-0.287t0.712 0.287q0.288 0.288 0.288 0.713t-0.288 0.712q-0.287 0.288-0.712 0.288z"/>
 <g fill="none" stroke="#000" stroke-width="1px">
  <path d="m5.5 2v4.5c-0.00494 0.98532-0.00369 1 1 1h1c1.0153 0.018005 1 0.00369 1-1v-4.5"/>
  <path d="m12.5 7.5h-2v-5h2c1.0065 0.00758 1-0.00369 1 1v3c-0.0057 1.0006 0.0037 1-1 1z"/>
  <path d="m15.5 8v-5.5h2c0.99857-0.0019 1-0.00369 1 1v1c0.0052 0.99719 0.0037 1-1 1h-1.5"/>
 </g>
</svg>
