<?xml version="1.0" encoding="UTF-8"?>
<svg width="24px" height="24px" fill="#ffffff" version="1.1" viewBox="0 -960 960 960" xml:space="preserve" xmlns="http://www.w3.org/2000/svg"><path d="m344-60-76-128-144-32 14-148-98-112 98-112-14-148 144-32 76-128 136 58 136-58 76 128 144 32-14 148 98 112-98 112 14 148-144 32-76 128-136-58zm34-102 102-44 104 44 56-96 110-26-10-112 74-84-74-86 10-112-110-24-58-96-102 44-104-44-56 96-110 24 10 112-74 86 74 84-10 114 110 24z"/><g transform="translate(0,80)" fill="#fff"><path d="m440-320v-327l-104 103-56-56 200-200 200 200-56 56-104-103v327z"/></g></svg>
