<?xml version="1.0" encoding="UTF-8" standalone="no"?>
<!-- Created with Inkscape (http://www.inkscape.org/) -->

<svg
   xmlns:dc="http://purl.org/dc/elements/1.1/"
   xmlns:cc="http://creativecommons.org/ns#"
   xmlns:rdf="http://www.w3.org/1999/02/22-rdf-syntax-ns#"
   xmlns:svg="http://www.w3.org/2000/svg"
   xmlns="http://www.w3.org/2000/svg"
   version="1.1"
   width="446.04764"
   height="439.34506"
   id="svg3613">
  <defs
     id="defs3615" />
  <g
     transform="translate(-196.54737,-262.40419)"
     id="layer1">
    <path
       d="m 483.23102,364.89835 c 0,0 6.16604,-4.54434 7.6296,-9.90475 0,0 1.62916,-0.15814 1.62916,1.78432 0,1.94842 0.80563,4.22358 -9.25876,8.12043 m -28.88015,43.79904 c 0,0 11.81588,-3.18521 16.50345,-5.75129 0,0 1.19651,1.65303 0.75938,3.47912 -0.45503,1.81565 0.45652,6.51217 -18.91735,11.19824 0,0 4.07886,-4.99042 1.65452,-8.92607 m -20.27708,59.89879 c 0,0 4.83825,-2.91817 4.83825,-8.99321 0,0 10.12407,0.45653 13.28094,-2.1379 0,0 1.22634,0.11339 1.22634,2.36617 0,2.0454 -2.67946,8.99171 -15.20847,8.9932 -1.27558,0 -2.65112,-0.0716 -4.13706,-0.22826 m 16.02784,-34.77407 c 0,0 11.81588,-0.44608 15.30545,-4.23999 0,0 0.91155,0.45652 0.91155,2.57651 0,2.12 -1.97677,7.27155 -18.93675,10.29564 0,0 3.93714,-0.9026 2.71975,-8.63216 m 19.63958,-3.23221 c 0,0 24.67909,-6.71058 33.20533,-13.86874 0,0 1.30243,0 1.01748,1.4919 -0.2954,1.49191 -6.3227,14.02092 -40.82896,22.97683 0,0 6.01685,-3.58356 6.60615,-10.59999 m 2.61426,-10.90343 c 0,0 28.92654,-9.10659 37.86305,-23.37517 0,0 1.35018,-0.8474 1.35018,3.00321 0,3.83121 -7.55799,20.70465 -42.83557,29.06081 0,0 5.76173,-5.68416 3.62234,-8.68885 m -18.61314,0.66539 c 0,0 8.32781,-0.91305 13.77475,-4.39217 0,0 1.52025,1.20695 1.21591,3.47912 -0.30286,2.27217 -3.17478,8.63216 -18.17588,10.59998 0,0 5.91391,-2.88086 3.18522,-9.68693 m 16.80704,-6.3597 c -1.5113,0 6.35999,-1.35912 3.9446,-11.19823 0,0 26.94082,-6.81502 38.60602,-23.02457 0,0 1.65303,0.6087 1.65303,3.93565 0,3.33739 -11.35041,21.80717 -41.78825,32.7115 0,0 -0.91305,-2.42435 -2.4154,-2.42435 M 515.3832,365.8396 c 0,0 2.71079,15.90072 -42.10454,34.06764 0,0 3.71186,-7.39687 -0.26108,-11.26239 0,0 28.72663,-7.81011 40.38885,-27.04375 0,0 1.99169,0.91603 1.97677,4.2385 m -63.94125,23.93104 c -1.39791,0.12383 4.42052,-0.50427 5.16199,-11.60701 0,0 39.50713,-9.59145 53.51015,-32.4355 0,0 2.02451,-0.75043 2.40495,2.40495 0,0 2.40495,7.94738 -7.70867,17.53883 -10.08677,9.59146 -25.85769,21.07613 -50.59198,25.99941 0,0 -1.38897,-2.02451 -2.77644,-1.90068 m 37.51842,-47.41057 c -14.99215,17.92821 -40.729,27.22726 -40.729,27.22726 -0.74147,-1.86339 -2.61083,-0.22379 -2.61083,-0.22379 -17.26283,14.13579 -47.14419,17.045 -47.14419,17.045 -11.3698,1.26364 -8.95143,11.59956 -8.95143,11.59956 8.63216,30.41695 -6.35253,44.90186 -11.41307,48.78528 -1.95141,-2.33184 -0.44757,-17.64177 -0.44757,-17.64177 3.50896,-27.14073 -6.71357,-31.96406 -6.71357,-31.96406 -4.72486,-3.30904 -3.46868,-4.5876 -3.46868,-4.5876 8.97381,-2.0827 4.6622,-11.33847 4.6622,-11.33847 -5.26642,-2.09016 -10.9282,4.59804 -11.45037,4.99787 -0.552,0.40878 -0.55946,-0.33568 -0.55946,-0.33568 1.69331,-5.94224 -1.34271,-3.31947 -1.34271,-3.31947 0,0 -2.91817,1.24274 -10.74172,0.63404 -7.8325,-0.60868 -5.78859,-1.63064 -9.77197,-1.75297 -3.98339,-0.13427 -3.31949,3.43137 -3.31949,3.43137 0,0 0.89514,-0.19544 0.89514,0.74595 0,0.95034 -0.48487,0.85784 -0.48487,0.85784 -16.68397,-0.92199 -16.83465,5.71101 -17.60447,8.95143 -0.76983,3.24191 0.62212,6.79563 1.23082,5.40816 0.61765,-1.38747 2.77643,-5.39771 6.78816,-3.54328 4.01024,1.85444 9.73468,6.34209 9.73468,7.27304 0,0.922 -0.78325,1.5292 -0.78325,1.5292 -12.96614,5.86617 -13.57633,-0.29838 -13.57633,-0.29838 -0.46697,15.76048 12.16499,4.76216 15.25472,6.3033 3.09869,1.54859 9.44376,2.19757 12.532,2.34975 3.08974,0.16261 9.86,-1.41582 10.62983,-2.49894 0.77131,-1.08462 1.86488,0.29838 1.86488,0.29838 -7.56694,9.73318 -21.13582,1.88875 -18.35043,4.51301 2.77643,2.62426 1.04433,10.36874 1.04433,10.36874 -21.35214,38.45384 -8.46954,49.93405 -10.29414,60.08646 -1.8067,10.14346 4.84869,23.4602 4.84869,23.4602 -6.51216,15.88431 -9.69887,25.27585 -12.5693,35.13436 -2.88087,9.82867 -8.95143,21.03585 -8.95143,21.03585 -1.01748,3.34635 -4.73679,3.43139 -4.73679,3.43139 -9.66755,-2.51983 -11.33848,3.0957 -11.33848,3.0957 l -0.11183,0.14919 c -4.39366,-0.0284 -5.08889,1.94544 -4.92329,3.91625 -3.97891,-0.0985 -3.50597,-1.23082 -3.50597,-1.23082 0,0 0.90111,-4.08036 -1.90218,-5.22167 -2.79583,-1.13981 -0.14919,-3.80436 -0.14919,-3.80436 0,0 43.55168,-58.43343 9.51089,-71.23845 -8.52773,-3.20312 -8.09358,-3.72976 -8.09358,-3.72976 -5.04712,-30.67654 2.83461,-28.45808 2.83461,-28.45808 0,0 -6.61958,-2.0275 -10.59252,-1.90218 -3.97294,0.2581 -9.3617,1.90218 -9.3617,1.90218 0,0 7.91008,-2.21846 2.87192,28.45808 0,0 0.40579,0.52664 -8.13088,3.72976 -34.02289,12.80502 9.51089,71.23845 9.51089,71.23845 0,0 2.67349,2.66455 -0.11184,3.80436 -2.79433,1.14131 -1.90217,5.22167 -1.90217,5.22167 0,0 0.50724,1.26812 -4.06544,1.26812 0,0 -1.23083,-0.50874 -1.23083,2.20056 0,2.55563 0.94587,2.64813 1.04434,2.64813 l 10.62982,0 2.79732,0 10.59252,0 c 0.0567,0 0.36254,-0.0372 0.63406,-0.52217 0.185,0.11482 0.40729,0.23423 0.63406,0.33568 0.25661,0.10443 -1.32033,-6.18842 3.84166,-6.3406 1.82609,1.36808 0.51023,-0.26406 -0.33568,3.31949 0,3.08824 2.76151,3.18522 4.58761,2.90922 -2.02601,-5.79904 3.65516,-4.99789 3.65516,-4.99789 -0.76982,4.88599 -0.0149,4.12512 1.26812,4.88599 1.28304,0.76983 9.25578,-0.50128 8.98873,-2.57353 -0.2566,-2.05286 2.07822,-3.31949 3.61787,-3.31949 1.53964,0 3.17029,-1.90218 3.17029,-1.90218 0,0 20.21531,-43.15931 43.60092,-56.09562 0,0 -2.01706,-11.78604 5.93032,-14.73256 0,0 -4.1087,7.24768 -1.38001,13.38985 0,0 16.57655,3.40005 28.38349,-4.7741 0,0 46.34005,-30.64372 61.09349,-13.38984 0,0 1.38449,32.67868 34.76138,44.49606 0,0 31.10771,10.6701 15.88879,29.05484 0,0 -9.1036,-2.01556 -7.04925,3.43138 0,0 -6.28838,-1.70226 -6.56438,2.98381 -0.28495,1.28453 -0.60273,6.1556 3.61787,5.63194 0,0 -2.51088,-5.23062 2.49894,-4.77409 0,0 -2.25427,3.66412 3.46868,5.03518 0.39834,-0.0388 -5.30671,-5.29328 4.02814,-5.93033 0,0 -6.1735,3.0778 0.67136,5.44546 0,0 5.90197,-1.35018 11.33847,0 0,0 6.3764,-0.45802 2.98381,-20.4391 0,0 -2.71974,-5.6767 0,-20.88666 0,0 2.25278,-5.91391 -3.87895,-6.82547 0,0 -14.29245,1.13385 -23.16182,-22.04289 0,0 9.99278,-23.8302 -2.05137,-41.54955 0,0 24.07934,-6.80159 30.65864,46.54743 0,0 3.20312,43.04294 19.09638,49.23286 0,0 5.97956,10.77453 22.90074,3.72976 0,0 5.85722,-1.4934 4.36382,-3.28219 -2.06181,-2.44225 -5.85572,-2.38705 -5.85572,-2.38705 0,0 -11.40412,-7.20441 -20.10342,-4.51301 0,0 -9.99427,-2.23338 -12.97957,-48.22582 0,0 -3.75065,-63.48204 -53.3356,-53.14911 0,0 -6.30777,-3.02111 -13.35254,-3.02111 0,0 -1.31139,-1.47549 -7.31034,-2.83461 0,0 32.94723,-10.77156 31.74028,-23.34831 0,0 -17.53734,10.62534 -33.71705,13.76282 0,0 2.27366,7.61916 -6.86276,11.97253 0,0 5.06502,19.03372 -24.28075,14.0985 0,0 -1.64706,1.49191 -4.7741,1.49191 0,0 4.02516,18.72639 -25.0267,7.7952 0,0 23.95701,6.43011 21.85641,-7.49682 0,0 -16.30055,0.461 -14.80716,-4.62491 0,0 26.51413,8.08314 27.26456,-8.39196 0,0 -18.42502,1.48295 -18.42502,-4.36382 0,0 25.58616,6.8926 25.58616,-9.73468 0,0 -18.86662,4.65773 -20.66288,-2.38705 0,0 26.58425,6.05117 24.13156,-10.48063 0,0 -20.93739,5.64537 -20.66288,-0.89514 0,0 27.8658,2.27217 22.75155,-11.26388 0,0 -18.12068,7.43565 -20.3645,1.82758 0,0 29.49943,-2.04689 20.3645,-13.94931 0,0 -17.28819,7.83399 -19.17098,2.38705 0,0 28.14926,-3.11062 19.46936,-17.94015 0,0 -17.82528,10.30757 -20.3645,5.22166 0,0 28.16269,-6.58825 21.70721,-19.02177 0,0 -13.91201,9.71975 -43.7128,12.42009 0,0 -10.18822,0.89813 -7.9444,8.09359 6.01835,19.24109 0.60572,44.36626 -16.93312,52.14207 -17.51943,7.7952 -16.48554,15.10553 -16.48554,15.10553 0,0 0.51023,7.39388 -1.30542,-1.90218 -1.57396,-8.08015 10.16733,-15.48597 13.31525,-17.30609 3.68799,-1.34122 14.37749,-6.75535 18.35043,-25.21319 1.77835,-10.34188 -2.05137,-24.95211 -2.05137,-24.95211 -1.52174,-6.5599 4.58761,-7.31033 4.58761,-7.31033 44.7646,-6.05564 54.19344,-16.67202 54.19344,-16.67202 1.26513,-0.50427 2.76002,2.53623 2.76002,2.53623 12.46337,-3.02259 22.37857,-8.83953 22.37857,-8.83953 19.33509,-21.70274 10.9282,-24.69102 10.9282,-24.69102 z M 367.9669,384.20798 c 0.23129,-0.0179 0.45843,-0.0137 0.70865,0 0.2669,0.0147 0.53178,0.0566 0.82055,0.11183 0,0 2.67946,4.66519 -4.28922,6.45249 l -0.67136,-0.93244 0.29838,-0.0372 c 0.094,-0.0179 0.2402,-0.0746 0.37298,-0.11183 l 0.48487,-0.18649 c 0.23273,-0.0911 0.42668,-0.17604 0.63405,-0.29838 0.0209,-0.0149 0.461,-0.30136 0.78325,-0.59676 0.13278,-0.12383 0.24915,-0.2954 0.37298,-0.44757 l 0.14919,-0.22379 c 0.0941,-0.17007 0.185,-0.35955 0.26108,-0.55946 l 0.0746,-0.26108 c 0.0656,-0.26556 0.10897,-0.56096 0.11183,-0.85785 -0.0193,-0.13129 -0.0641,-0.36701 -0.18649,-0.44757 -0.0522,-0.0269 -0.10288,-0.0507 -0.29838,-0.0746 -0.13128,0.007 -0.21035,0.0165 -0.29838,0.0372 -0.22975,0.0537 -0.52813,0.19544 -0.89514,0.41028 -0.20887,0.12382 -0.461,0.25809 -0.70865,0.44757 l -0.22379,0.18648 c -0.19096,0.15516 -0.40729,0.35955 -0.63406,0.55947 -0.31479,0.28495 -0.66837,0.61914 -1.04433,1.00703 l -0.67136,-0.29838 c 0,0 1.37921,-3.61017 4.84869,-3.87895 z m -26.81699,0.93244 c 2.83313,0 5.07248,1.30542 5.07248,1.30542 0,0 2.75704,1.8052 5.37086,1.00703 0,0 -1.9723,2.76003 -4.58761,1.75299 l -0.33568,-0.18649 c 0.13427,0.3133 0.18649,0.65495 0.18649,1.00704 0,1.46356 -1.20248,2.61083 -2.72273,2.61083 -1.52174,0 -2.76002,-1.14727 -2.76002,-2.61083 0,-1.16965 0.79071,-2.14685 1.86488,-2.53624 -0.83696,-0.30435 -1.68436,-0.52216 -2.31245,-0.52216 -2.02452,0 -1.82759,1.00703 -1.82759,1.00703 0,0 -0.77131,-2.83462 2.05137,-2.83462 z m 2.98381,3.69247 c -0.65644,0 -1.23082,0.53708 -1.23082,1.19352 0,0.63704 0.57438,1.11893 1.23082,1.11893 0.65495,0 1.19353,-0.48189 1.19353,-1.11893 0,-0.65644 -0.53858,-1.19352 -1.19353,-1.19352 z m -62.51081,60.08646 c -1.93947,0.18052 -2.57353,2.76002 -2.57353,2.76002 -1.20695,-1.55009 -2.23786,0 -2.23786,0 0,0 -4.83228,4.15794 -2.76002,8.13088 2.07225,3.97444 6.37789,1.52921 6.37789,1.52921 0,0 -2.93905,-1.52622 -1.90218,-5.14708 1.03538,-3.64174 3.99085,-1.41731 3.99085,-1.41731 0,0 -2.26621,-0.13725 -1.75299,3.133 0.38043,2.40496 2.99574,2.83313 4.36382,2.90922 0.33269,0.14173 -4.32951,-4.31757 2.64813,-5.48275 -1.27856,0.2581 -1.11893,2.38705 -1.11893,2.38705 1.64557,5.41859 4.14004,3.99084 4.14004,3.99084 0,0 -1.55457,-2.93756 4.14003,-1.90218 5.69311,1.02793 3.09869,3.95504 17.08231,24.84022 13.98363,20.89412 22.26668,22.45316 22.26668,22.45316 -5.52303,-16.56909 -3.43138,-16.06483 -3.43138,-22.45316 0,-6.38834 -2.23786,-9.99576 -2.23786,-9.99576 0,0 -13.29287,-10.35681 -14.50877,-13.46444 -1.198,-3.11958 -11.23703,-12.78861 -13.65093,-12.08443 -2.41539,0.68478 -12.60659,0.82054 -12.60659,0.82054 0,0 -4.29818,-1.1786 -6.22871,-1.00703 z m 169.92795,47.74095 c -0.80861,-0.10443 -7.71762,0.49382 -7.8698,1.45461 -0.16112,0.96974 1.79029,2.72272 1.79029,2.72272 -0.80115,14.34467 8.02943,31.21513 8.01899,31.33 0.16858,0.15665 2.72272,2.80329 2.72272,8.98873 0,6.5793 -21.18504,30.47215 -21.18504,30.47215 -12.52902,-3.22251 -11.22659,3.2076 -11.22659,3.2076 -3.53581,1.28304 -6.2839,2.75405 -5.33356,5.96762 0.96974,3.21356 5.48275,1.5665 5.48275,1.5665 -1.75895,-4.00129 3.2076,-5.59465 3.2076,-5.59465 0.64599,-1.13086 6.74788,0.0179 2.57354,0.48487 -4.17286,0.49382 -3.53433,4.65027 -3.05841,5.29626 0.20439,0.26855 0.98317,0.37298 2.08867,0.37298 1.51726,0 3.64174,-0.19096 5.78113,-0.37298 3.67904,-0.32225 7.38493,0 7.38493,0 17.32996,-28.72811 31.14202,-32.434 33.71704,-34.20191 2.56757,-1.76791 0.93244,-3.84166 0.93244,-3.84166 -2.88086,-5.30521 -1.75298,-13.50173 -1.75298,-13.50173 -11.88303,-7.69972 -13.31525,-30.17378 -13.31525,-30.17378 -5.30522,-4.96356 -9.1603,-4.0729 -9.95847,-4.17733 z m -10.51867,-39.07275 c 0,0 6.3033,-1.33973 5.75726,-12.13217 0.23722,0.18649 1.97379,0.27899 12.55289,-2.39301 0,0 1.07268,-0.45652 1.2159,3.0226 0.14323,3.26578 -6.78966,11.61448 -17.39561,11.61448 -0.69522,0 -1.40537,-0.0358 -2.13044,-0.11184 m 5.7513,-12.25301 c 0.002,0.0402 0.005,0.0806 0.006,0.12084 -0.0716,-0.0553 -0.006,-0.12084 -0.006,-0.12084 m 5.50125,-40.81613 c 0.89812,-0.9757 3.53283,-4.80691 2.39898,-9.98531 0,0 12.34849,-3.42243 15.95144,-4.94418 0,0 1.71122,0.48487 1.05478,4.56374 -0.66539,4.08782 -2.28112,7.5013 -17.4717,11.20868 0,0 -1.30392,-0.95631 -1.9335,-0.84293 m -0.26258,0.17754 c 0.0567,-0.103 0.14919,-0.15665 0.26258,-0.17754 -0.1477,0.16113 -0.24766,0.24468 -0.2775,0.24318 -0.0149,0 -0.0119,-0.0209 0.0149,-0.0656"
       id="path88"
       style="fill:#00378b;fill-opacity:1;fill-rule:nonzero;stroke:none" />
    <path
       d="m 428.58569,693.4583 c 0,4.01919 -3.27175,7.29094 -7.29989,7.29094 -4.02815,0 -7.29243,-3.27175 -7.29243,-7.29094 0,-4.03709 3.26428,-7.29541 7.29243,-7.29541 4.02814,0 7.29989,3.25832 7.29989,7.29541 m 59.63262,-26.3278 17.81931,17.83721 -6.28987,-17.06589 c -0.58035,-1.57098 -1.11445,-2.48999 -1.59634,-2.75555 -0.6624,-0.35507 -1.49638,-0.34762 -2.5064,0.0239 l -0.90857,0.33269 -0.25213,-0.68329 8.89623,-3.27921 0.25362,0.6833 -0.91006,0.33717 c -1.08312,0.39983 -1.7321,1.01002 -1.94544,1.83056 -0.12681,0.50427 0.0732,1.47699 0.60123,2.91071 l 6.15113,16.68994 c 0.41922,1.12937 0.84591,1.90367 1.28304,2.31544 0.31479,0.29688 0.74893,0.48337 1.31287,0.55349 0.56543,0.0702 1.36957,-0.0835 2.41689,-0.46995 l 0.25213,0.68479 -7.25364,2.672 -16.6601,-16.59595 -1.79178,23.40052 -7.20142,2.6541 -0.25213,-0.68478 0.89066,-0.32822 c 1.09506,-0.40431 1.7515,-1.01748 1.96335,-1.83803 0.13129,-0.50575 -0.0702,-1.47698 -0.59825,-2.91219 l -6.15411,-16.68845 c -0.58035,-1.57545 -1.11744,-2.48999 -1.61424,-2.75107 -0.66092,-0.35657 -1.49787,-0.34762 -2.5064,0.0254 l -0.88918,0.32673 -0.25213,-0.68479 10.89836,-4.01919 0.25214,0.68478 -0.90857,0.33568 c -1.09805,0.40431 -1.74702,1.0145 -1.94694,1.83057 -0.12979,0.50874 0.0702,1.47699 0.60124,2.9122 l 6.28987,17.0644 1.92456,-25.1177 0.63107,-0.23125 z m 42.24522,9.23803 0.37745,0.62063 -8.09955,4.93075 -0.37745,-0.62362 0.8653,-0.52664 c 0.9026,-0.55051 1.36509,-1.36062 1.38151,-2.42733 0.0209,-0.50128 -0.36552,-1.40239 -1.15772,-2.70482 l -5.72444,-9.41094 c -1.41731,-2.33035 -2.28411,-4.2758 -2.60188,-5.83931 -0.31778,-1.56501 -0.0776,-3.21953 0.71909,-4.96357 0.79519,-1.73956 2.35871,-3.32098 4.69205,-4.74127 2.53773,-1.54263 4.73083,-2.27665 6.5793,-2.19459 1.84996,0.0761 3.49851,0.69373 4.95163,1.84399 0.98167,0.7922 2.32438,2.58845 4.02665,5.38279 l 5.52005,9.07675 c 0.87276,1.43521 1.64109,2.25874 2.30051,2.47209 0.65793,0.21483 1.41731,0.0597 2.27963,-0.46548 l 0.85636,-0.51918 0.37745,0.62362 -9.92564,6.03475 -0.37746,-0.62362 0.87724,-0.53261 c 0.93841,-0.5714 1.42328,-1.28303 1.45909,-2.13939 0.0268,-0.58184 -0.35955,-1.5292 -1.15325,-2.84058 l -6.15261,-10.11064 c -0.55051,-0.9026 -1.26066,-1.88428 -2.13342,-2.94651 -0.87128,-1.05926 -1.72465,-1.78432 -2.55564,-2.17073 -0.83546,-0.38192 -1.78879,-0.53708 -2.86296,-0.4595 -1.07716,0.0746 -2.21101,0.47741 -3.40453,1.20247 -1.52622,0.92648 -2.68692,2.08718 -3.48956,3.47912 -0.80265,1.39643 -1.10998,2.74362 -0.922,4.04307 0.18499,1.30243 1.02643,3.18521 2.5243,5.64686 l 5.71698,9.39601 c 0.88619,1.45908 1.60081,2.27665 2.13939,2.4512 0.74595,0.23423 1.56053,0.0911 2.43031,-0.43713 l 0.86382,-0.52664 z m 27.2562,-16.61325 -6.55394,-6.56588 0.46548,-0.40579 c 2.45567,1.55307 4.66966,2.28261 6.6345,2.19459 1.96484,-0.091 3.75661,-0.84442 5.3813,-2.26173 1.36062,-1.18905 2.2856,-2.60934 2.78091,-4.26088 0.49531,-1.65154 0.39386,-3.50747 -0.29689,-5.57376 -0.69523,-2.06479 -2.02899,-4.22358 -3.99681,-6.47486 -1.62318,-1.85892 -3.32695,-3.21058 -5.11126,-4.055 -1.78731,-0.84442 -3.59699,-1.10848 -5.42159,-0.79071 -1.82907,0.3133 -3.50747,1.13982 -5.03965,2.47656 -1.3278,1.1622 -2.25278,2.47209 -2.77196,3.93266 -0.51471,1.46207 -0.63854,3.57312 -0.37298,6.33911 l -0.72805,0.11637 c -0.56991,-2.72422 -0.5341,-5.10978 0.097,-7.15667 0.63108,-2.0454 1.88726,-3.89238 3.77602,-5.53944 3.39259,-2.96889 7.12533,-4.00875 11.19226,-3.11958 3.03156,0.65793 5.65134,2.25427 7.87129,4.79499 1.78432,2.04391 2.96591,4.32354 3.54626,6.8359 0.57737,2.51535 0.47592,4.94567 -0.30584,7.28796 -0.78623,2.34676 -2.13342,4.35338 -4.03262,6.01387 -1.48295,1.29497 -3.26578,2.20652 -5.34549,2.73018 -0.62063,0.14621 -1.02046,0.29838 -1.20099,0.45503 -0.27152,0.23871 -0.42668,0.54007 -0.45801,0.91305 -0.0209,0.50426 0.12681,1.04731 0.4416,1.63363 l -0.55051,0.4804 z m 4.96551,-41.57417 -0.55051,-0.48338 7.65496,-8.7351 0.54903,0.48188 -0.63108,0.72059 c -0.737,0.83995 -1.02494,1.66795 -0.86381,2.48253 0.11637,0.52366 0.78921,1.32631 2.02302,2.40794 l 13.21082,11.57569 c 1.04284,0.91155 1.7873,1.45013 2.23487,1.61275 0.34015,0.12084 0.737,0.10741 1.19203,-0.0448 0.62809,-0.22677 1.15324,-0.58035 1.57396,-1.06224 l 0.63257,-0.72059 0.54753,0.48338 -7.65497,8.7351 -0.54902,-0.48188 0.64152,-0.73104 c 0.72358,-0.82651 1.00405,-1.64557 0.83994,-2.45866 -0.10598,-0.53261 -0.77579,-1.33973 -2.00959,-2.42136 l -13.20933,-11.57569 c -1.04433,-0.91304 -1.78879,-1.45013 -2.23636,-1.61275 -0.33568,-0.12233 -0.73999,-0.10598 -1.20098,0.0537 -0.61616,0.21633 -1.13385,0.56245 -1.55457,1.03986 l -0.64003,0.73402 z m -297.1097,-13.1031 0.56245,-0.46399 7.39388,8.95889 -0.56095,0.46249 -0.61019,-0.73849 c -0.71313,-0.86083 -1.48296,-1.27856 -2.31395,-1.24872 -0.5341,0.0283 -1.4367,0.56543 -2.70034,1.60976 l -13.5465,11.18034 c -1.0682,0.8832 -1.71718,1.53218 -1.95141,1.94693 -0.17306,0.31778 -0.22229,0.71164 -0.1477,1.18308 0.12383,0.65793 0.38939,1.23381 0.79519,1.72464 l 0.61019,0.7385 -0.56245,0.46547 -7.39388,-8.9574 0.56245,-0.46547 0.61914,0.75043 c 0.6997,0.8474 1.46355,1.25469 2.29305,1.22336 0.54306,-0.0179 1.44566,-0.55051 2.71229,-1.59634 l 13.545,-11.18033 c 1.06969,-0.88172 1.72017,-1.5307 1.95141,-1.94545 0.17455,-0.31628 0.22229,-0.71462 0.13726,-1.1965 -0.11184,-0.64301 -0.37,-1.20994 -0.77579,-1.70077 l -0.61915,-0.75043 z m -5.70936,34.12791 4.15048,-4.83078 0.55499,0.52216 c -0.66241,0.92051 -1.06522,1.64259 -1.21143,2.16774 -0.23124,0.84889 -0.2208,1.64259 0.0269,2.37959 0.24914,0.73849 0.78175,1.49041 1.59783,2.25576 l 2.78389,2.61382 14.24769,-15.18013 c 1.14727,-1.22038 1.73061,-2.10956 1.74851,-2.66156 0.0107,-0.76237 -0.37148,-1.50981 -1.15026,-2.23935 l -0.69672,-0.65196 0.49979,-0.53261 8.46955,7.94886 -0.49979,0.53261 -0.70418,-0.6624 c -0.84293,-0.7922 -1.67989,-1.09953 -2.50939,-0.92051 -0.51023,0.1104 -1.289,0.72358 -2.33483,1.83654 l -14.24769,15.18162 2.38854,2.24084 c 0.92946,0.87277 1.65453,1.42328 2.17371,1.65452 0.6818,0.29242 1.45162,0.34016 2.30648,0.15516 0.85636,-0.18947 1.74106,-0.69821 2.65261,-1.53368 l 0.55499,0.52366 -4.55926,4.44588 -16.24237,-15.24578 z m 27.49863,24.75786 5.34699,-7.76536 0.60124,0.41326 c -0.82503,1.62468 -1.28155,3.05244 -1.37255,4.29072 -0.0941,1.2338 0.15814,2.43777 0.75341,3.6119 0.59676,1.17114 1.40239,2.11104 2.42136,2.81224 1.15026,0.79369 2.34527,1.09804 3.57908,0.91901 1.2353,-0.18201 2.15729,-0.71462 2.77046,-1.60678 0.46995,-0.68329 0.66241,-1.46953 0.57439,-2.35572 -0.11637,-1.29348 -0.98615,-3.51791 -2.60934,-6.66434 -1.32183,-2.56756 -2.16326,-4.41454 -2.51834,-5.54391 -0.35656,-1.12938 -0.4595,-2.24383 -0.31479,-3.34635 0.14621,-1.10102 0.52664,-2.09612 1.13982,-2.98828 1.16816,-1.69331 2.83461,-2.70035 4.99937,-3.01962 2.16475,-0.31777 4.28624,0.23572 6.36148,1.66646 0.65196,0.44906 1.22933,0.922 1.73359,1.41731 0.30286,0.29092 0.87277,0.98466 1.70525,2.07972 0.83397,1.09356 1.39493,1.73956 1.68138,1.93947 0.276,0.18947 0.552,0.25512 0.82651,0.19544 0.2775,-0.0551 0.63555,-0.32225 1.07567,-0.79518 l 0.59974,0.41325 -5.28433,7.67436 -0.60123,-0.41475 c 0.81905,-1.80222 1.25916,-3.26876 1.32332,-4.40112 0.0642,-1.12937 -0.22379,-2.3035 -0.85785,-3.51791 -0.63555,-1.21292 -1.5486,-2.23338 -2.74063,-3.05393 -1.37852,-0.95034 -2.71825,-1.33674 -4.01919,-1.15772 -1.30243,0.17456 -2.29455,0.76088 -2.97933,1.75299 -0.37895,0.5535 -0.61168,1.21441 -0.69821,1.98573 -0.0865,0.77131 0.0239,1.61573 0.32672,2.5422 0.20141,0.62511 0.89515,2.13194 2.08569,4.52495 1.19054,2.39003 1.97379,4.1833 2.34378,5.38279 0.3685,1.19949 0.49979,2.32887 0.38491,3.38812 -0.1104,1.05925 -0.48636,2.05137 -1.12341,2.98082 -1.10997,1.60529 -2.68244,2.56757 -4.72486,2.8749 -2.04092,0.3133 -4.0162,-0.19245 -5.93181,-1.5098 -1.19502,-0.82503 -2.26024,-1.98871 -3.19566,-3.5015 -0.42818,-0.7012 -0.77132,-1.13982 -1.02494,-1.31586 -0.28794,-0.19843 -0.58184,-0.27601 -0.8847,-0.22976 -0.29838,0.0448 -0.68329,0.29092 -1.15324,0.73551 l -0.59975,-0.41326 z m 51.19652,28.03902 -6.60914,-3.12853 -6.37043,-25.64733 -6.73746,14.22531 c -0.7161,1.51428 -0.9936,2.54221 -0.83248,3.0778 0.21037,0.72357 0.79966,1.31288 1.77089,1.77537 l 0.85784,0.4043 -0.3118,0.65793 -8.57249,-4.05798 0.3133,-0.65793 0.87426,0.41326 c 1.04582,0.49531 1.93351,0.52963 2.67051,0.10897 0.45204,-0.26258 1.00554,-1.08462 1.659,-2.46612 l 9.81822,-20.73748 0.64301,0.30584 6.8553,27.52266 7.18353,-15.17118 c 0.7176,-1.51428 1.00106,-2.53922 0.85038,-3.06884 -0.21931,-0.72805 -0.8101,-1.31885 -1.77089,-1.77388 l -0.87276,-0.41475 0.3118,-0.65793 8.5695,4.05649 -0.3118,0.65942 -0.85636,-0.4058 c -1.05627,-0.49829 -1.9529,-0.54007 -2.6899,-0.11636 -0.45056,0.26257 -1.00256,1.08312 -1.659,2.46611 l -8.09209,17.08977 c 0.31628,1.18159 0.59229,1.99468 0.83397,2.44076 0.24318,0.4416 0.66539,0.95034 1.26812,1.52174 0.29988,0.27302 0.80563,0.58184 1.51876,0.91902 l -0.31181,0.65942 z m 16.95459,-22.43811 0.21931,-0.69522 11.0759,3.49702 -0.21931,0.69374 -0.91454,-0.28645 c -1.06373,-0.33717 -1.93798,-0.26705 -2.61979,0.21036 -0.43265,0.31181 -0.89663,1.25171 -1.39194,2.81522 l -5.28731,16.74962 c -0.41624,1.32332 -0.61019,2.21995 -0.57885,2.69736 0.0253,0.35806 0.19841,0.71462 0.51768,1.07268 0.46398,0.48487 0.99808,0.82204 1.60678,1.0145 l 0.91305,0.28793 -0.21931,0.69672 -11.07738,-3.50001 0.21931,-0.69373 0.92945,0.2939 c 1.04732,0.32972 1.90963,0.25661 2.58845,-0.2208 0.44607,-0.31181 0.91453,-1.24723 1.40835,-2.81224 l 5.28881,-16.74961 c 0.41773,-1.32183 0.61018,-2.21996 0.58036,-2.69289 -0.0239,-0.36104 -0.20291,-0.72357 -0.5341,-1.08014 -0.44608,-0.47741 -0.97274,-0.81458 -1.57696,-1.00703 l -0.92796,-0.29093 z m 202.92575,-358.421 -4.9024,7.88024 -0.49829,-0.35955 c 0.94735,-2.74809 1.15771,-5.068 0.6251,-6.96123 -0.53708,-1.89173 -1.67988,-3.46718 -3.43138,-4.72486 -1.46356,-1.05179 -3.05691,-1.63214 -4.78304,-1.73508 -1.71868,-0.10599 -3.50747,0.41475 -5.35743,1.56053 -1.85295,1.14578 -3.64771,2.93458 -5.39473,5.3634 -1.4382,2.00512 -2.36765,3.97145 -2.78539,5.90496 -0.41326,1.93052 -0.2581,3.74915 0.46846,5.45887 0.72208,1.70824 1.90964,3.15389 3.55819,4.34145 1.4382,1.02941 2.92563,1.62916 4.4608,1.80073 1.54263,0.17007 3.62533,-0.18948 6.26003,-1.08014 l 0.27749,0.6818 c -2.52579,1.17264 -4.85465,1.68585 -6.98957,1.53815 -2.13491,-0.14919 -4.21911,-0.95333 -6.25406,-2.41241 -3.66263,-2.63172 -5.52602,-6.02879 -5.59017,-10.18971 -0.0492,-3.09868 0.91155,-6.01685 2.87639,-8.75449 1.5859,-2.20504 3.53582,-3.87746 5.84976,-5.0128 2.31544,-1.13684 4.70398,-1.59037 7.1686,-1.36062 2.46165,0.22826 4.72039,1.08014 6.77176,2.55414 1.59634,1.14727 2.88982,2.67648 3.87597,4.58313 0.28047,0.56991 0.51769,0.92349 0.71611,1.06373 0.29241,0.21036 0.62212,0.29092 0.99212,0.23721 0.49233,-0.094 0.99211,-0.36253 1.48892,-0.80413 l 0.59676,0.42668 z m -41.62265,4.6449 -0.34463,0.64301 -10.25088,-5.46187 0.34463,-0.64301 0.84442,0.45056 c 0.98466,0.52515 1.85742,0.61765 2.61531,0.27152 0.48189,-0.22826 1.11147,-1.0682 1.88278,-2.51684 l 8.2562,-15.50089 c 0.65495,-1.22187 1.00704,-2.07076 1.06224,-2.5422 0.0418,-0.35955 -0.0627,-0.74446 -0.3133,-1.15175 -0.36552,-0.55947 -0.8295,-0.98914 -1.39195,-1.2905 l -0.84591,-0.45056 0.34165,-0.6445 10.25088,5.46186 -0.34314,0.64451 -0.85635,-0.45802 c -0.96825,-0.5162 -1.83057,-0.60124 -2.58548,-0.25661 -0.49531,0.22528 -1.12788,1.06075 -1.89919,2.51088 l -8.26068,15.49791 c -0.65047,1.22485 -1.00554,2.07225 -1.06223,2.54518 -0.0402,0.35806 0.0702,0.74596 0.32971,1.15772 0.3491,0.55201 0.80414,0.97869 1.36509,1.27558 l 0.86083,0.45802 z m -10.57701,-35.57209 -2.27963,8.30842 -0.68627,-0.25064 c 0.076,-2.25277 -0.22528,-4.08185 -0.9041,-5.48722 -0.97869,-2.0275 -2.65559,-3.47913 -5.03816,-4.35487 -3.24489,-1.19651 -6.18991,-0.81906 -8.82611,1.12489 -2.21399,1.64856 -3.87448,3.96847 -4.97699,6.96272 -0.89365,2.4333 -1.23978,4.82482 -1.03389,7.17756 0.2029,2.35422 0.89663,4.27729 2.0827,5.77516 1.18308,1.49489 2.58099,2.54071 4.19225,3.133 0.94139,0.34761 1.89919,0.56245 2.86744,0.64898 0.96825,0.0865 1.94693,0.0477 2.93607,-0.11482 l 2.71676,-7.38344 c 0.47293,-1.28303 0.68627,-2.16027 0.63555,-2.62873 -0.0507,-0.46846 -0.24318,-0.88172 -0.57439,-1.23977 -0.33418,-0.35955 -1.02046,-0.72955 -2.05435,-1.10998 l 0.25363,-0.68479 9.84507,3.62533 -0.25362,0.68479 -0.46547,-0.17157 c -0.97123,-0.35806 -1.76194,-0.2775 -2.36467,0.24318 -0.42072,0.37447 -0.88321,1.24872 -1.38747,2.61978 l -2.88833,7.84295 c -1.73061,0.25064 -3.36425,0.29838 -4.9024,0.14769 -1.53965,-0.15217 -3.16881,-0.54603 -4.88748,-1.1786 -4.92925,-1.81266 -8.08911,-4.7726 -9.48404,-8.87833 -1.04582,-3.07929 -0.99659,-6.16902 0.14472,-9.2692 0.828,-2.24532 2.15878,-4.2012 3.99382,-5.86169 2.18117,-1.97678 4.62939,-3.21207 7.34614,-3.70888 2.27068,-0.4043 4.67713,-0.13875 7.22381,0.79817 0.92647,0.34165 1.74254,0.72954 2.44672,1.1607 0.7012,0.43116 1.65154,1.1622 2.85252,2.1931 0.60422,0.52515 1.02494,0.8295 1.26514,0.91752 0.23721,0.0881 0.48039,0.0522 0.73252,-0.10741 0.24915,-0.15814 0.51471,-0.5535 0.78922,-1.18607 l 0.68329,0.25213 z m -73.73142,3.08616 0.67136,0.14471 -2.42286,7.35808 -21.04182,-0.18947 0.006,-0.72805 1.013,0.007 c 1.13832,0.0107 1.95589,-0.35508 2.4512,-1.10252 0.28346,-0.42519 0.42967,-1.41283 0.44459,-2.9674 l 0.15814,-17.5627 c 0.0149,-1.70817 -0.16262,-2.77936 -0.52664,-3.2135 -0.51173,-0.59527 -1.27707,-0.89813 -2.29455,-0.90708 l -1.0145,-0.008 0.007,-0.72954 12.23213,0.10897 -0.006,0.72954 c -1.42477,-0.0269 -2.42434,0.097 -3.00171,0.36999 -0.57438,0.27302 -0.97123,0.62064 -1.18457,1.04285 -0.21633,0.4222 -0.32971,1.43372 -0.34314,3.03602 l -0.15516,17.139 c -0.008,1.11296 0.0911,1.87831 0.30137,2.29455 0.15814,0.28496 0.40281,0.49233 0.737,0.63108 0.33568,0.13725 1.37852,0.21185 3.1315,0.22826 l 1.98871,0.0179 c 2.08867,0.0195 3.55372,-0.11935 4.40112,-0.41922 0.84591,-0.29988 1.6217,-0.83398 2.32588,-1.60977 0.70269,-0.7728 1.40985,-1.99766 2.12149,-3.67008 m -86.50915,-5.63746 3.4284,10.21358 5.69162,-1.90964 c 1.46803,-0.49232 2.3766,-1.03836 2.72422,-1.6396 0.46547,-0.79071 0.49382,-1.92008 0.0865,-3.38662 l 0.69075,-0.23125 2.98082,8.8828 -0.69075,0.23274 c -0.59825,-1.19203 -1.04284,-1.935 -1.33973,-2.2304 -0.37447,-0.36402 -0.8653,-0.5893 -1.46952,-0.66688 -0.60273,-0.0791 -1.44268,0.0627 -2.51983,0.4237 l -5.69162,1.90964 2.86446,8.53369 c 0.38491,1.14728 0.66986,1.82759 0.85337,2.04093 0.18649,0.21483 0.42818,0.35358 0.73103,0.41475 0.30137,0.0612 0.80861,-0.0284 1.51876,-0.26556 l 4.37128,-1.46654 c 1.45759,-0.49084 2.48104,-0.94736 3.07183,-1.37255 0.58931,-0.4252 1.08909,-1.04285 1.49638,-1.84698 0.5177,-1.05776 0.92051,-2.5243 1.20845,-4.40261 l 0.79817,-0.26556 -0.0537,7.23872 -19.89903,6.67478 -0.23272,-0.69075 0.90856,-0.30435 c 0.60572,-0.20439 1.12937,-0.54305 1.57397,-1.02046 0.33417,-0.33866 0.50574,-0.73849 0.51171,-1.198 0.007,-0.45951 -0.2014,-1.32183 -0.6251,-2.59293 l -5.62449,-16.75708 c -0.54603,-1.63363 -1.04732,-2.58397 -1.50384,-2.85401 -0.62213,-0.35209 -1.46653,-0.35209 -2.5243,0.005 l -0.91007,0.30435 -0.22975,-0.69224 19.89455,-6.67627 2.17669,5.60508 -0.74595,0.24915 c -0.72805,-1.28901 -1.33973,-2.13641 -1.83505,-2.54221 -0.49679,-0.40729 -1.10699,-0.63853 -1.83204,-0.6997 -0.57291,-0.0224 -1.49789,0.18201 -2.77794,0.61168 l -7.07611,2.37213 z m -60.54955,47.15613 9.93012,-7.7967 -4.81437,-6.13471 c -0.86232,-1.09655 -1.49638,-1.76343 -1.90517,-2.00512 -0.31031,-0.18052 -0.70865,-0.23274 -1.19054,-0.16113 -0.64897,0.10145 -1.22336,0.34911 -1.72762,0.74148 l -0.75341,0.59229 -0.44907,-0.57289 9.13643,-7.17308 0.45055,0.57438 -0.7549,0.5908 c -0.50128,0.39535 -0.88321,0.88917 -1.1428,1.48593 -0.2029,0.43116 -0.22975,0.86531 -0.0806,1.30094 0.1477,0.43713 0.63406,1.18159 1.46057,2.23488 l 10.84615,13.81504 c 0.85486,1.09058 1.48892,1.75746 1.8977,1.99915 0.3133,0.18201 0.70567,0.24019 1.17861,0.17753 0.6624,-0.10896 1.24126,-0.35954 1.74403,-0.7549 l 0.75342,-0.59079 0.45055,0.57289 -9.13493,7.17308 -0.45056,-0.57439 0.75341,-0.59079 c 0.86829,-0.6818 1.29796,-1.4382 1.28901,-2.26919 -0.006,-0.54305 -0.51322,-1.46057 -1.52771,-2.75256 l -5.12768,-6.53156 -9.93011,7.7952 5.12767,6.53305 c 0.85486,1.09058 1.48892,1.75597 1.8977,1.99915 0.31181,0.18351 0.70866,0.2402 1.19204,0.16859 0.6445,-0.097 1.21888,-0.34314 1.72016,-0.73551 l 0.76386,-0.60124 0.45204,0.57438 -9.13642,7.17308 -0.45055,-0.57587 0.75341,-0.5908 c 0.87873,-0.68926 1.31287,-1.45013 1.30392,-2.28112 -0.0149,-0.5341 -0.52813,-1.44864 -1.54263,-2.73914 l -10.84465,-13.81653 c -0.85934,-1.09356 -1.49489,-1.76194 -1.90367,-2.00362 -0.31032,-0.17903 -0.70269,-0.23722 -1.17562,-0.17456 -0.65793,0.11184 -1.23978,0.36254 -1.74106,0.7564 l -0.7549,0.59079 -0.45056,-0.57289 9.13792,-7.17158 0.45056,0.57289 -0.76684,0.60123 c -0.49979,0.39088 -0.87724,0.8862 -1.13385,1.47848 -0.19097,0.42072 -0.21334,0.85337 -0.0716,1.29348 0.14322,0.44012 0.62958,1.18756 1.4546,2.23935 l 4.81736,6.13621 z m 173.19463,-58.47894 c 3.47166,0.61914 6.24213,2.47357 8.31587,5.56778 2.07226,3.09272 2.75854,6.61362 2.05436,10.56418 -0.72358,4.06992 -2.60785,7.21933 -5.64835,9.44823 -3.042,2.2304 -6.38386,3.02111 -10.02411,2.37213 -3.68053,-0.65494 -6.54051,-2.51535 -8.57845,-5.58121 -2.03795,-3.06587 -2.68394,-6.68075 -1.94396,-10.84167 0.7564,-4.25343 2.8212,-7.46699 6.19141,-9.63771 2.92413,-1.88278 6.13769,-2.51386 9.63323,-1.89173 m -0.62063,1.31586 c -2.38854,-0.42669 -4.46229,0.12382 -6.22274,1.65153 -2.19459,1.8992 -3.67158,4.98893 -4.43394,9.26921 -0.78176,4.3862 -0.45056,7.92798 0.99062,10.62385 1.10998,2.05137 2.84208,3.28667 5.19183,3.7044 2.50491,0.44608 4.75172,-0.16858 6.73446,-1.84549 1.98573,-1.67839 3.35529,-4.63833 4.11169,-8.87981 0.81756,-4.59656 0.52813,-8.1831 -0.8668,-10.76409 -1.12489,-2.05436 -2.95844,-3.30756 -5.50512,-3.7596 m -72.87522,-2.05748 c 3.48062,-0.55499 6.70761,0.29092 9.68097,2.53176 2.97337,2.24233 4.77559,5.34698 5.40517,9.30799 0.65047,4.08185 -0.097,7.67436 -2.23935,10.77901 -2.14237,3.10316 -5.04114,4.94716 -8.69183,5.52751 -3.69396,0.58632 -7.0045,-0.23274 -9.9346,-2.46164 -2.93159,-2.22891 -4.72784,-5.42904 -5.39174,-9.60489 -0.67882,-4.26684 0.21782,-7.9787 2.6899,-11.13408 2.14536,-2.73914 4.97252,-4.38769 8.48148,-4.94566 m -0.15516,1.44416 c -2.396,0.38342 -4.17584,1.58291 -5.33952,3.60295 -1.44864,2.51237 -1.83206,5.9154 -1.14877,10.2091 0.7012,4.40112 2.17371,7.63706 4.42051,9.7123 1.72166,1.57545 3.7596,2.17371 6.11831,1.79924 2.51385,-0.40132 4.43244,-1.71867 5.75726,-3.95206 1.32481,-2.23636 1.64855,-5.48275 0.97272,-9.73617 -0.73551,-4.61147 -2.18415,-7.90709 -4.34741,-9.88685 -1.73658,-1.57097 -3.88045,-2.15431 -6.4331,-1.74851 m -57.35359,36.59672 -9.37214,4.98595 0.37297,4.63833 c 0.0955,1.15175 0.26705,1.95589 0.51322,2.41987 0.19544,0.3685 0.54305,0.59676 1.03836,0.69075 0.49681,0.0941 1.34719,-0.12681 2.54967,-0.65942 l 0.34165,0.6445 -7.5565,4.01919 -0.34463,-0.64301 c 0.91006,-0.71462 1.43819,-1.2905 1.58142,-1.73508 0.29838,-0.89067 0.3491,-2.40495 0.15366,-4.54435 l -1.95738,-24.30014 0.57737,-0.30733 18.97554,15.54117 c 1.53069,1.25469 2.69885,1.97528 3.50448,2.16326 0.80414,0.18649 1.71271,0.0492 2.72571,-0.41326 l 0.34314,0.64451 -9.48851,5.04711 -0.34463,-0.6445 c 0.93393,-0.55648 1.49488,-1.05926 1.68734,-1.5113 0.19096,-0.45056 0.1835,-0.87426 -0.0239,-1.26514 -0.2775,-0.52067 -0.95333,-1.21888 -2.02452,-2.09314 l -3.25235,-2.67797 z m -1.22038,-1.00256 -9.22146,-7.56097 0.94139,11.96358 8.28007,-4.40261 z m -64.58829,25.64688 7.29542,5.73488 -0.41475,0.461 c -2.62426,-1.24872 -4.90837,-1.70972 -6.84934,-1.38598 -1.93947,0.32375 -3.6298,1.28453 -5.07098,2.88833 -1.20844,1.34122 -1.95887,2.86147 -2.25129,4.56075 -0.2939,1.69928 0.0284,3.53134 0.96228,5.49916 0.93692,1.96783 2.51685,3.95206 4.73978,5.95121 1.83505,1.65154 3.68799,2.78986 5.56332,3.41497 1.87234,0.62362 3.69694,0.67136 5.47529,0.13726 1.77835,-0.53112 3.34634,-1.55308 4.70696,-3.06288 1.18009,-1.31139 1.94096,-2.72571 2.27963,-4.23552 0.34015,-1.51279 0.21036,-3.62533 -0.38641,-6.3391 l 0.70866,-0.20141 c 0.88768,2.63769 1.14131,5.01131 0.76087,7.11638 -0.38193,2.10657 -1.40985,4.08931 -3.08377,5.94972 -3.01961,3.35529 -6.60018,4.83377 -10.74171,4.43692 -3.08526,-0.28943 -5.8796,-1.56202 -8.386,-3.81778 -2.01854,-1.81714 -3.46569,-3.93863 -4.34144,-6.36297 -0.87575,-2.42733 -1.06373,-4.85317 -0.56543,-7.27453 0.49829,-2.42285 1.59186,-4.57418 3.28517,-6.45249 1.31437,-1.46207 2.97486,-2.5795 4.97849,-3.34932 0.59676,-0.21782 0.9757,-0.41774 1.13683,-0.59677 0.24169,-0.26705 0.35656,-0.58632 0.34463,-0.95929 -0.0388,-0.50128 -0.24915,-1.02494 -0.63555,-1.56949 l 0.48934,-0.54305 z m -35.18612,133.44566 -24.0674,7.50727 18.03414,2.34676 c 1.66198,0.21484 2.72273,0.17008 3.18223,-0.13576 0.62213,-0.42072 1.00256,-1.16368 1.1428,-2.2304 l 0.12532,-0.96078 0.72208,0.094 -1.22187,9.40496 -0.72506,-0.0955 0.12532,-0.9578 c 0.14919,-1.14728 -0.0895,-2.00661 -0.7191,-2.57652 -0.38789,-0.34761 -1.33973,-0.62063 -2.857,-0.81906 l -17.63879,-2.29311 c -1.198,-0.15665 -2.07971,-0.13577 -2.64664,0.0627 -0.40878,0.13725 -0.77579,0.43563 -1.10102,0.9026 -0.32374,0.46696 -0.55947,1.2532 -0.70269,2.35869 l -0.72506,-0.0925 0.99808,-7.66542 22.43377,-7.0567 -19.89604,-12.44548 0.98913,-7.6102 0.72507,0.0925 -0.12383,0.9399 c -0.15068,1.16069 0.0881,2.02599 0.71761,2.59591 0.38789,0.34761 1.33973,0.62212 2.85699,0.81756 l 17.6373,2.29604 c 1.66497,0.21484 2.72571,0.16559 3.18671,-0.15665 0.62212,-0.42072 1.00405,-1.16368 1.1428,-2.23039 l 0.12234,-0.9399 0.72208,0.0955 -1.49787,11.5175 -0.72209,-0.0939 0.12383,-0.96078 c 0.15218,-1.15921 -0.0895,-2.01557 -0.72059,-2.57354 -0.3864,-0.3491 -1.33973,-0.62063 -2.857,-0.81905 l -18.03265,-2.34677 21.35513,13.36001 -0.088,0.66837 z m -27.74465,33.16296 -0.72805,0.0477 -0.6266,-9.46166 0.72656,-0.0477 0.0672,1.01002 c 0.0701,1.05626 0.57439,1.83951 1.51279,2.34527 0.43564,0.25213 1.41433,0.32524 2.9316,0.22528 l 10.99533,-0.73104 c 2.71826,-0.18052 4.84422,-0.0492 6.38088,0.39088 1.53517,0.44161 2.89131,1.41881 4.06843,2.92861 1.17711,1.5113 1.85742,3.62981 2.03794,6.35253 0.19842,2.96293 -0.1671,5.24852 -1.09058,6.85083 -0.92499,1.6038 -2.23189,2.78389 -3.92371,3.5388 -1.15623,0.50725 -3.37022,0.86829 -6.636,1.08312 l -10.597,0.70567 c -1.67839,0.1104 -2.7645,0.41028 -3.25832,0.89664 -0.49232,0.48487 -0.70716,1.23231 -0.64002,2.23636 l 0.0671,1.00107 -0.72805,0.0477 -0.76982,-11.58912 0.72805,-0.0493 0.0686,1.02046 c 0.0716,1.09805 0.48039,1.85892 1.22336,2.28262 0.50277,0.2954 1.52174,0.39088 3.05095,0.28943 l 11.80991,-0.78474 c 1.05329,-0.0702 2.25278,-0.24766 3.59699,-0.53112 1.34719,-0.28346 2.38108,-0.70418 3.10763,-1.26514 0.72507,-0.55797 1.30244,-1.33376 1.7321,-2.32438 0.42967,-0.99063 0.59826,-2.18117 0.50576,-3.5761 -0.12084,-1.77984 -0.61168,-3.34634 -1.47699,-4.70248 -0.8653,-1.35614 -1.91859,-2.25129 -3.15836,-2.68543 -1.23977,-0.43713 -3.2986,-0.55797 -6.17648,-0.36701 l -10.96998,0.72805 c -1.70375,0.11183 -2.75853,0.3685 -3.16284,0.76535 -0.55797,0.55648 -0.80115,1.34122 -0.73551,2.3587 l 0.0671,1.01002 z m 2.4885,30.3346 6.12725,-1.74106 0.17455,0.74148 c -1.05925,0.40282 -1.79476,0.78325 -2.20503,1.13982 -0.66241,0.58184 -1.09208,1.24872 -1.2905,2.00064 -0.20141,0.75341 -0.17008,1.67392 0.0865,2.7645 l 0.88022,3.71484 20.25709,-4.80244 c 1.63214,-0.38789 2.60785,-0.80563 2.9286,-1.25618 0.42967,-0.63108 0.52068,-1.46356 0.27452,-2.50342 l -0.21931,-0.92796 0.71014,-0.1671 2.67797,11.30267 -0.70865,0.1671 -0.22379,-0.9414 c -0.26705,-1.12489 -0.79369,-1.8425 -1.5844,-2.15281 -0.48636,-0.18798 -1.474,-0.10742 -2.96292,0.24765 l -20.2541,4.80095 0.7549,3.18969 c 0.29391,1.23679 0.59378,2.09613 0.89962,2.57503 0.40878,0.61914 1.02195,1.0876 1.83952,1.40239 0.81756,0.31629 1.83653,0.37745 3.05691,0.185 l 0.17754,0.74148 -6.25705,1.19501 -5.13961,-21.67588 z m 12.78487,41.10496 -0.67136,0.28197 -3.67754,-8.74107 0.67135,-0.28347 0.39387,0.93394 c 0.41027,0.9757 1.14279,1.55158 2.19459,1.72762 0.49233,0.0939 1.44118,-0.15516 2.84506,-0.74595 l 10.1554,-4.27132 c 2.51385,-1.05627 4.56522,-1.62618 6.16156,-1.70973 1.59485,-0.0821 3.19566,0.39834 4.80095,1.44268 1.60529,1.04582 2.93756,2.82716 3.99532,5.34101 1.15175,2.74063 1.55158,5.01728 1.20099,6.83442 -0.35209,1.81565 -1.20397,3.35828 -2.55564,4.62192 -0.92945,0.85785 -2.90474,1.92008 -5.92286,3.1882 l -9.78988,4.11915 c -1.55009,0.65196 -2.47805,1.28751 -2.78538,1.90815 -0.30883,0.62063 -0.26855,1.39493 0.12233,2.32438 l 0.38939,0.92499 -0.67136,0.28197 -4.50555,-10.70741 0.67434,-0.28197 0.39536,0.9414 c 0.42668,1.01598 1.06074,1.60081 1.90068,1.76044 0.57289,0.11339 1.5665,-0.12681 2.97934,-0.72059 l 10.9088,-4.58909 c 0.97273,-0.41028 2.04988,-0.96825 3.22849,-1.67541 1.18009,-0.70866 2.02153,-1.44268 2.52579,-2.20951 0.50426,-0.76386 0.79817,-1.68436 0.87873,-2.76003 0.085,-1.07566 -0.14471,-2.25725 -0.68627,-3.54476 -0.69076,-1.64557 -1.66795,-2.9674 -2.92712,-3.96698 -1.26066,-0.99808 -2.54817,-1.50235 -3.86254,-1.5113 -1.31437,-0.007 -3.2986,0.54753 -5.95867,1.66497 l -10.13302,4.26386 c -1.57396,0.6639 -2.48849,1.24873 -2.74212,1.75597 -0.34463,0.70567 -0.32076,1.52771 0.0746,2.46761 l 0.39237,0.93394 z m 12.21855,27.86162 5.22913,-3.63727 0.40729,0.646 c -0.87127,0.72357 -1.44565,1.32332 -1.71718,1.79327 -0.43713,0.76534 -0.62511,1.53666 -0.56991,2.31096 0.0551,0.77877 0.38044,1.6396 0.97869,2.58696 l 2.03943,3.22848 17.6,-11.11917 c 1.41881,-0.89663 2.20653,-1.60976 2.36169,-2.13939 0.20141,-0.737 0.0179,-1.55307 -0.55201,-2.45716 l -0.50874,-0.80712 0.61616,-0.3879 6.20334,9.81972 -0.61466,0.38789 -0.51769,-0.81607 c -0.61765,-0.9772 -1.35018,-1.48594 -2.19907,-1.52323 -0.52068,-0.0179 -1.42775,0.38043 -2.71974,1.19501 l -17.6,11.11917 1.75,2.77046 c 0.68031,1.07716 1.24126,1.79178 1.68734,2.14536 0.58632,0.45354 1.32034,0.69523 2.1946,0.72805 0.87724,0.0344 1.8604,-0.23721 2.95098,-0.81756 l 0.40729,0.6445 -5.529,3.16135 -11.89794,-18.83231 z m 36.75248,-225.2436 -3.91177,6.16306 -15.71573,0.9936 c -0.33269,0.57886 -0.61317,1.04285 -0.83845,1.39792 -0.0909,0.14322 -0.19096,0.2954 -0.30285,0.45801 -0.11041,0.16262 -0.22677,0.32822 -0.3506,0.49681 l 6.68075,4.2385 c 1.45311,0.922 2.45716,1.33973 3.00768,1.25022 0.76982,-0.10897 1.42178,-0.58632 1.96185,-1.43671 l 0.56245,-0.88917 0.61765,0.39087 -6.22274,9.80928 -0.61765,-0.39237 0.54306,-0.85337 c 0.61019,-0.96079 0.72805,-1.84996 0.35507,-2.66753 -0.20439,-0.45801 -0.96526,-1.10551 -2.28112,-1.94097 l -14.83103,-9.41093 c -1.45311,-0.922 -2.45567,-1.33824 -3.00618,-1.24872 -0.77729,0.11935 -1.4382,0.60869 -1.98424,1.46952 l -0.54305,0.85337 -0.61466,-0.39088 5.30521,-8.36212 c 1.5471,-2.43628 2.86595,-4.12065 3.95504,-5.05159 1.0876,-0.93095 2.36467,-1.49788 3.83121,-1.70078 1.46505,-0.2014 2.85849,0.11482 4.17733,0.95333 1.41134,0.89365 2.34229,2.13044 2.79434,3.71037 0.45354,1.57993 0.28197,3.47017 -0.51322,5.6752 l 9.61981,-0.5893 c 2.21398,-0.1178 3.81629,-0.40729 4.81288,-0.86978 0.99659,-0.46249 1.96036,-1.27856 2.8943,-2.44672 l 0.61466,0.39088 z m -22.20849,8.81865 c 0.13278,-0.21185 0.25362,-0.39387 0.35955,-0.54753 0.103,-0.15218 0.18798,-0.28048 0.25213,-0.38044 1.37404,-2.16475 1.93649,-4.09677 1.68734,-5.79903 -0.24765,-1.70077 -1.1055,-3.01514 -2.57055,-3.9446 -1.43074,-0.90857 -2.87639,-1.20397 -4.33547,-0.8847 -1.45909,0.31927 -2.65261,1.20994 -3.58058,2.6735 -0.41027,0.64599 -0.83994,1.60379 -1.289,2.87042 l 9.47658,6.01238 z m -7.57888,25.47889 -4.0729,9.80181 3.23445,3.34634 c 0.80563,0.82801 1.45013,1.34123 1.935,1.54263 0.38342,0.15964 0.79668,0.1178 1.24127,-0.12681 0.4416,-0.24318 0.95929,-0.95183 1.54859,-2.12745 l 0.67434,0.28047 -3.28517,7.90412 -0.67434,-0.27899 c 0.25064,-1.12788 0.29092,-1.90815 0.12084,-2.34229 -0.33568,-0.87873 -1.25916,-2.08121 -2.77046,-3.60892 l -16.94357,-17.52391 0.25064,-0.60572 24.52692,-0.0493 c 1.97826,-0.002 3.34037,-0.18947 4.08036,-0.55499 0.74147,-0.367 1.35465,-1.04881 1.84399,-2.04987 l 0.67434,0.28047 -4.12511,9.92415 -0.67285,-0.27898 c 0.36551,-1.02196 0.48039,-1.7694 0.34164,-2.23935 -0.14024,-0.46995 -0.41176,-0.79071 -0.82204,-0.96079 -0.54603,-0.22527 -1.5098,-0.33568 -2.8928,-0.3312 l -4.21314,-0.001 z m -1.57993,-0.001 -11.92628,0.0193 8.32781,8.6426 3.59847,-8.662 z m 381.60761,190.79791 -4.01323,6.11532 -26.2799,2.77046 13.16158,8.63664 c 1.40389,0.91901 2.38108,1.33526 2.93607,1.24723 0.74297,-0.10598 1.40836,-0.60869 1.99915,-1.50831 l 0.51768,-0.7922 0.6102,0.39983 -5.20077,7.92947 -0.61021,-0.39983 0.53263,-0.8101 c 0.63107,-0.96825 0.7892,-1.844 0.47441,-2.63023 -0.19692,-0.48338 -0.93244,-1.14429 -2.21397,-1.98274 l -19.18293,-12.58571 0.39388,-0.59527 28.20296,-2.99127 -14.03436,-9.20953 c -1.40387,-0.91901 -2.37957,-1.34271 -2.92115,-1.26663 -0.75489,0.1178 -1.42178,0.62064 -2.00361,1.50981 l -0.52964,0.80861 -0.61167,-0.39983 5.20078,-7.92798 0.61168,0.39983 -0.5177,0.7922 c -0.64301,0.9772 -0.80712,1.85892 -0.48933,2.64813 0.19842,0.48189 0.9369,1.1428 2.21397,1.98125 l 15.80973,10.37471 c 1.2129,-0.14919 2.05881,-0.3133 2.53175,-0.48935 0.47442,-0.17902 1.03538,-0.52813 1.68288,-1.04731 0.31179,-0.2581 0.68775,-0.71761 1.11893,-1.37703 l 0.61019,0.39983 z m -3.22237,-69.79727 24.6015,-5.51706 -17.78201,-3.81033 c -1.6396,-0.35209 -2.70035,-0.39237 -3.18223,-0.12532 -0.65644,0.3685 -1.09506,1.07865 -1.31884,2.13044 l -0.2044,0.94736 -0.71462,-0.15516 1.98871,-9.27069 0.71164,0.15217 -0.20141,0.94587 c -0.24019,1.13086 -0.0716,2.00512 0.50576,2.62426 0.35656,0.37894 1.28304,0.72954 2.78091,1.0503 l 17.39113,3.72827 c 1.18159,0.25213 2.06331,0.30286 2.64216,0.15217 0.42072,-0.10145 0.81309,-0.37297 1.17413,-0.8101 0.36104,-0.43862 0.66092,-1.20248 0.89216,-2.29306 l 0.71463,0.15218 -1.62021,7.55799 -22.93655,5.20078 18.81591,14.02838 -1.61126,7.50577 -0.71164,-0.15218 0.19842,-0.92945 c 0.24468,-1.1428 0.0761,-2.02452 -0.50426,-2.64366 -0.35657,-0.37745 -1.28304,-0.72805 -2.78091,-1.04881 l -17.38964,-3.72827 c -1.64259,-0.35209 -2.70483,-0.3864 -3.1882,-0.10443 -0.65644,0.36552 -1.09506,1.07715 -1.32183,2.12895 l -0.19693,0.92796 -0.71462,-0.15516 2.43329,-11.35637 0.71463,0.15366 -0.2029,0.94438 c -0.24468,1.14578 -0.0776,2.01854 0.50724,2.62575 0.35955,0.37894 1.28603,0.72954 2.77942,1.0503 l 17.78351,3.81033 -20.19293,-15.05929 0.14024,-0.65793 z m 27.03957,-73.61699 -10.6701,1.50682 0.84144,5.94375 c 0.21483,1.53517 0.58631,2.52729 1.11594,2.97784 0.69224,0.60273 1.79625,0.83696 3.31651,0.70568 l 0.10001,0.72208 -9.27815,1.3084 -0.10444,-0.72059 c 1.28155,-0.37298 2.09464,-0.67583 2.43927,-0.91156 0.42668,-0.30285 0.737,-0.74446 0.922,-1.32332 0.18947,-0.57885 0.20439,-1.43073 0.0448,-2.55563 l -0.84143,-5.94375 -8.91115,1.25768 c -1.19949,0.17008 -1.91859,0.32673 -2.16475,0.46846 -0.24468,0.14173 -0.42221,0.35507 -0.53858,0.64152 -0.11482,0.28793 -0.11935,0.79966 -0.0135,1.54113 l 0.64152,4.56672 c 0.21633,1.52175 0.4804,2.61233 0.78773,3.27026 0.3133,0.65942 0.8295,1.26215 1.54263,1.80968 0.94736,0.70119 2.31543,1.36509 4.10721,1.99169 l 0.11935,0.83249 -7.10892,-1.37256 -2.9316,-20.78521 0.72209,-0.10145 0.13427,0.94885 c 0.0865,0.63107 0.32672,1.20993 0.71462,1.7321 0.27451,0.39088 0.63555,0.63257 1.08461,0.72507 0.44758,0.088 1.33974,0.0418 2.66604,-0.14472 l 17.50004,-2.47059 c 1.70376,-0.2402 2.73168,-0.55947 3.0778,-0.95781 0.46398,-0.54753 0.61467,-1.37702 0.45951,-2.48253 l -0.13427,-0.94885 0.72506,-0.103 2.93159,20.78074 -5.90645,1.11744 -0.11183,-0.77878 c 1.40239,-0.48039 2.34527,-0.92796 2.83611,-1.34122 0.49084,-0.41475 0.83248,-0.97123 1.02196,-1.67242 0.12532,-0.55947 0.0955,-1.50683 -0.0925,-2.84507 l -1.04434,-7.3894 z m -2.41374,-22.37156 -7.96677,3.28219 -0.21931,-0.69523 c 1.8231,-1.32034 3.08674,-2.67797 3.78496,-4.07589 1.00405,-2.01257 1.12339,-4.22955 0.35806,-6.64792 -1.04286,-3.3001 -3.13748,-5.39622 -6.29286,-6.29136 -2.65708,-0.74297 -5.50811,-0.63257 -8.55309,0.32821 -2.47059,0.78176 -4.57269,1.9723 -6.30777,3.57461 -1.73807,1.6038 -2.83014,3.33142 -3.29114,5.18437 -0.45951,1.85145 -0.42669,3.59698 0.0895,5.23211 0.30435,0.9578 0.71761,1.84697 1.23977,2.66454 0.52515,0.81905 1.15623,1.5665 1.89174,2.2483 l 7.4998,-2.36765 c 1.30393,-0.41177 2.12597,-0.78325 2.46612,-1.10849 0.34016,-0.32673 0.55052,-0.73103 0.63108,-1.21441 0.079,-0.48338 -0.0493,-1.25171 -0.37745,-2.30201 l 0.69373,-0.2208 3.15986,10.0062 -0.69523,0.22081 -0.15068,-0.47592 c -0.31181,-0.98913 -0.85785,-1.56203 -1.63811,-1.72017 -0.55648,-0.103 -1.52921,0.0656 -2.92563,0.50576 L 610.22,436.907 c -1.25618,-1.21441 -2.29604,-2.47656 -3.11659,-3.78645 -0.82204,-1.31138 -1.50832,-2.8391 -2.0633,-4.58462 -1.58292,-5.00833 -1.17413,-9.31844 1.21739,-12.93482 1.79178,-2.71079 4.26386,-4.56523 7.41775,-5.56033 2.28261,-0.72059 4.64132,-0.8653 7.08058,-0.42967 2.89579,0.51322 5.37235,1.69182 7.4267,3.53731 1.71271,1.5486 2.97486,3.61339 3.79093,6.20036 0.29987,0.94288 0.49233,1.8231 0.58184,2.64365 0.0895,0.81906 0.0941,2.01855 0.0108,3.59997 -0.0448,0.79817 -0.0269,1.31884 0.0507,1.56053 0.0776,0.24318 0.25363,0.41177 0.5341,0.51471 0.28048,0.10145 0.75192,0.0656 1.4188,-0.103 l 0.22081,0.69672 z m -29.57492,140.64947 4.16689,-9.76452 -3.20611,-3.37618 c -0.79518,-0.83546 -1.43372,-1.35614 -1.91859,-1.56053 -0.38043,-0.16411 -0.79518,-0.12681 -1.24126,0.11338 -0.44608,0.2402 -0.96825,0.94587 -1.56949,2.11553 l -0.67135,-0.28794 3.36126,-7.87428 0.66837,0.28645 c -0.26257,1.12639 -0.30734,1.90665 -0.14322,2.3408 0.32822,0.88321 1.23977,2.09314 2.73764,3.63577 l 16.77944,17.68206 -0.25659,0.60123 -24.52393,-0.18052 c -1.98274,-0.0135 -3.34336,0.15814 -4.08783,0.51769 -0.74595,0.35955 -1.36808,1.03688 -1.86488,2.03347 l -0.66986,-0.28794 4.21611,-9.88536 0.67287,0.28645 c -0.37596,1.01748 -0.49682,1.76343 -0.36553,2.23487 0.13876,0.47144 0.40729,0.79369 0.81458,0.96974 0.54306,0.23124 1.50832,0.3506 2.88834,0.35806 l 4.21312,0.0418 z m 1.58291,0.0149 11.9233,0.0939 -8.24576,-8.72018 -3.67754,8.62619 z m 7.01358,-65.54803 0.15516,-7.29989 12.93034,-8.98276 c -0.0149,-0.66837 -0.0149,-1.20993 -0.008,-1.62916 0.008,-0.17008 0.0107,-0.35507 0.0254,-0.54902 0.0107,-0.19693 0.0253,-0.39983 0.0418,-0.6087 l -7.90859,-0.16709 c -1.72165,-0.0358 -2.79433,0.12532 -3.21953,0.48785 -0.60273,0.48935 -0.91453,1.23828 -0.93691,2.24383 l -0.0224,1.05179 -0.73103,-0.0149 0.25064,-11.61448 0.72805,0.0165 -0.0209,1.01152 c -0.0254,1.13832 0.33419,1.96036 1.07715,2.46611 0.41028,0.28794 1.39643,0.44758 2.95547,0.4804 l 17.56121,0.37297 c 1.72166,0.0372 2.79434,-0.12532 3.21953,-0.48636 0.60273,-0.50426 0.91454,-1.26662 0.93542,-2.2856 l 0.0224,-1.01151 0.72805,0.0149 -0.21036,9.90327 c -0.0627,2.88385 -0.31628,5.00832 -0.76833,6.36894 -0.44906,1.36061 -1.24723,2.5064 -2.39898,3.43735 -1.14728,0.93244 -2.50342,1.3815 -4.06395,1.34719 -1.66795,-0.0344 -3.10615,-0.61019 -4.3131,-1.72614 -1.20695,-1.11743 -2.03794,-2.82417 -2.49894,-5.12022 l -7.925,5.48275 c -1.83504,1.24724 -3.05392,2.32439 -3.66859,3.23744 -0.61019,0.90857 -1.013,2.10806 -1.20695,3.58952 l -0.72805,-0.0163 z M 628.2461,484.3359 c -0.006,0.25064 -0.0135,0.46995 -0.0239,0.65346 -0.0107,0.18499 -0.0165,0.33717 -0.0209,0.45652 -0.0537,2.56309 0.46548,4.50854 1.55905,5.83484 1.09207,1.3263 2.5049,2.0081 4.24148,2.0454 1.6948,0.0372 3.08228,-0.461 4.1654,-1.48892 1.08461,-1.02942 1.64706,-2.40943 1.68138,-4.14004 0.0165,-0.76684 -0.11339,-1.80819 -0.38342,-3.12255 L 628.2461,484.3359 z m -46.86848,-107.13457 13.36597,-21.38049 -15.20549,9.97338 c -1.40388,0.92051 -2.17967,1.64707 -2.33036,2.17819 -0.19544,0.72357 -0.002,1.53666 0.5908,2.43478 l 0.52813,0.8116 -0.61019,0.39983 -5.20078,-7.92947 0.61019,-0.40133 0.52963,0.81011 c 0.63555,0.96526 1.37852,1.46207 2.22592,1.48295 0.52067,0.0119 1.42178,-0.40132 2.69886,-1.23977 l 14.87578,-9.75706 c 1.00703,-0.66091 1.66347,-1.25171 1.96484,-1.77089 0.2208,-0.37148 0.30434,-0.83994 0.24467,-1.40537 -0.0551,-0.56394 -0.39237,-1.31288 -1.00256,-2.24532 l 0.61019,-0.39983 4.23999,6.46144 -12.41563,19.97362 23.19912,-3.52686 4.20866,6.41817 -0.6072,0.39983 -0.52217,-0.7922 c -0.64152,-0.97869 -1.383,-1.47848 -2.23338,-1.50235 -0.52217,-0.0119 -1.4203,0.40282 -2.70035,1.23978 l -14.87429,9.75705 c -1.40239,0.91902 -2.1752,1.65005 -2.31544,2.1931 -0.19693,0.72507 -10e-4,1.53666 0.58632,2.43628 l 0.52366,0.7922 -0.61019,0.39983 -6.37192,-9.7123 0.61019,-0.39983 0.52813,0.81011 c 0.64301,0.97869 1.38598,1.47251 2.22741,1.48295 0.52068,0.0119 1.4203,-0.40132 2.69737,-1.23977 l 15.20997,-9.97338 -24.90437,3.78347 -0.37148,-0.56245 z m -0.54664,-43.25599 0.52068,-0.51023 6.6345,6.77474 -0.52068,0.51023 -0.70716,-0.72357 c -0.74297,-0.75491 -1.63364,-1.02196 -2.67648,-0.79519 -0.49531,0.0925 -1.28303,0.67285 -2.37063,1.73658 l -7.87428,7.71016 c -1.94544,1.90666 -3.64621,3.19268 -5.09933,3.85658 -1.45013,0.6624 -3.11659,0.80413 -4.99191,0.4237 -1.88129,-0.38193 -3.77601,-1.54562 -5.68117,-3.49554 -2.07972,-2.12148 -3.29115,-4.09378 -3.63578,-5.91391 -0.33866,-1.81714 -0.11183,-3.56416 0.67882,-5.23658 0.54902,-1.13833 1.99468,-2.85402 4.331,-5.14409 l 7.58932,-7.43118 c 1.20248,-1.17711 1.82908,-2.10955 1.88875,-2.8003 0.0611,-0.68926 -0.26108,-1.39642 -0.97123,-2.11701 l -0.70119,-0.71463 0.52365,-0.51023 8.12492,8.29648 -0.51769,0.51173 -0.71612,-0.72954 c -0.77131,-0.78773 -1.57396,-1.09805 -2.41688,-0.93692 -0.57439,0.10288 -1.40985,0.69374 -2.50342,1.76492 l -8.45611,8.28306 c -0.75342,0.73849 -1.55009,1.65303 -2.38556,2.74361 -0.83696,1.09357 -1.34868,2.08568 -1.53517,2.98381 -0.18947,0.89514 -0.11935,1.86041 0.19693,2.89131 0.31927,1.0324 0.96676,2.0454 1.94246,3.04349 1.24873,1.27558 2.64366,2.14536 4.18032,2.61083 1.54263,0.46547 2.92562,0.45951 4.14898,-0.0165 1.22337,-0.47592 2.86894,-1.72315 4.92777,-3.7417 l 7.85637,-7.69226 c 1.21888,-1.19352 1.85443,-2.07524 1.89919,-2.64067 0.0641,-0.78325 -0.26108,-1.53965 -0.9757,-2.26769 l -0.70717,-0.72358 z"
       id="path228"
       style="fill:#00378b;fill-opacity:1;fill-rule:nonzero;stroke:none" />
  </g>
</svg>
