<?xml version="1.0" encoding="UTF-8" standalone="no"?>
<svg
   height="176.44629"
   viewBox="0 0 84.265605 84.503452"
   width="175.56567"
   version="1.1"
   id="svg37"
   sodipodi:docname="nls.svg"
   inkscape:version="1.3.1 (9b9bdc1480, 2023-11-25, custom)"
   xmlns:inkscape="http://www.inkscape.org/namespaces/inkscape"
   xmlns:sodipodi="http://sodipodi.sourceforge.net/DTD/sodipodi-0.dtd"
   xmlns="http://www.w3.org/2000/svg"
   xmlns:svg="http://www.w3.org/2000/svg">
  <defs
     id="defs37" />
  <sodipodi:namedview
     id="namedview37"
     pagecolor="#ffffff"
     bordercolor="#000000"
     borderopacity="0.25"
     inkscape:showpageshadow="2"
     inkscape:pageopacity="0.0"
     inkscape:pagecheckerboard="0"
     inkscape:deskcolor="#d1d1d1"
     inkscape:zoom="3.7064317"
     inkscape:cx="240.66273"
     inkscape:cy="103.60369"
     inkscape:window-width="2498"
     inkscape:window-height="1376"
     inkscape:window-x="0"
     inkscape:window-y="0"
     inkscape:window-maximized="1"
     inkscape:current-layer="svg37" />
  <path
     d="m 82.229297,41.965579 -23.99,-36.5199999 a 12.17,12.17 0 0 0 -16.86,-3.58 L 5.4492967,25.555579 a 12.23,12.23 0 0 0 -3.41,16.94 l 24.0000003,36.52 a 12.17,12.17 0 0 0 16.85,3.6 l 35.98,-23.75 a 12.23,12.23 0 0 0 3.36,-16.9 z m -51.29,34.66 -7.39,-11.25 a 0.69,0.69 0 0 1 -0.1,-0.51 0.67,0.67 0 0 1 0.79,-0.52 l 26,5.54 a 0.69,0.69 0 0 1 0.53,0.81 0.67,0.67 0 0 1 -0.3,0.43 l -11.07,7.3 a 6.08,6.08 0 0 1 -8.46,-1.8 z m 22.43,-68.7599999 8.3,12.6299999 -29.16,-6.25 12.43,-8.2099999 a 6.08,6.08 0 0 1 8.43,1.83 z m -15.33,30.4799999 a 6.82,6.82 0 0 0 4.29,2.95 6.63,6.63 0 0 0 5.07,-0.95 l 18.53,-12.22 c 0.26,-0.16 0.44,0 0.53,0.22 a 4.54,4.54 0 0 1 0.1,2.19 l -6.43,32.44 a 4.43,4.43 0 0 1 -5.29,3.49 l -33.56,-7.17 a 4.6,4.6 0 0 1 -3.53,-5.37 l 6.43,-32.44 a 4.45,4.45 0 0 1 0.93,-2 c 0.17,-0.18 0.39,-0.25 0.57,0 z m -7.72,-19.48 a 0.67,0.67 0 0 1 0.79,-0.53 l 30.27,6.47 a 0.69,0.69 0 0 1 0.53,0.81 0.67,0.67 0 0 1 -0.29,0.43 l -16.46,10.88 a 2.66,2.66 0 0 1 -2,0.38 2.74,2.74 0 0 1 -1.72,-1.18 l -11,-16.74 a 0.68,0.68 0 0 1 -0.12,-0.52 z m -12.13,4.83 a 0.66,0.66 0 0 1 0.51,-0.1 0.69,0.69 0 0 1 0.53,0.81 l -4.92,24.8 a 0.67,0.67 0 0 1 -0.79,0.52 0.68,0.68 0 0 1 -0.43,-0.3 l -6.8900003,-10.46 a 6.12,6.12 0 0 1 1.68,-8.47 z m 47.94,37.07 a 0.66,0.66 0 0 1 -0.51,0.1 0.69,0.69 0 0 1 -0.53,-0.81 l 4.95,-24.8 a 0.66,0.66 0 0 1 0.79,-0.52 0.67,0.67 0 0 1 0.43,0.3 l 6.88,10.47 a 6.12,6.12 0 0 1 -1.68,8.47 z"
     fill="#6e6666"
     id="path6"
     style="display:inline" />
  <path
     d="m 25.119297,19.515579 a 4.45,4.45 0 0 0 -0.93,2 l -6.44,32.41 a 4.6,4.6 0 0 0 3.53,5.37 l 33.56,7.17 a 4.43,4.43 0 0 0 5.29,-3.49 l 6.43,-32.44 a 4.54,4.54 0 0 0 -0.1,-2.19 c -0.08,-0.24 -0.26,-0.39 -0.53,-0.22 l -18.52,12.22 a 6.63,6.63 0 0 1 -5.07,0.95 6.82,6.82 0 0 1 -4.3,-2.95 l -12.35,-18.81 c -0.18,-0.27 -0.41,-0.2 -0.57,-0.02 z"
     id="path7"
     style="display:inline;fill:#7abed7" />
</svg>
