<?xml version="1.0" encoding="UTF-8" standalone="no"?>
<!-- Generator: Adobe Illustrator 19.2.1, SVG Export Plug-In . SVG Version: 6.00 Build 0)  -->

<svg
   version="1.1"
   id="layer"
   x="0px"
   y="0px"
   viewBox="0 0 164.7 191.8"
   xml:space="preserve"
   sodipodi:docname="sevenson-environmental-services-inc-logo-vector.svg"
   width="164.7"
   height="191.8"
   inkscape:version="1.3.1 (9b9bdc1480, 2023-11-25, custom)"
   xmlns:inkscape="http://www.inkscape.org/namespaces/inkscape"
   xmlns:sodipodi="http://sodipodi.sourceforge.net/DTD/sodipodi-0.dtd"
   xmlns="http://www.w3.org/2000/svg"
   xmlns:svg="http://www.w3.org/2000/svg"><defs
   id="defs34">
	
	
	
	
	
	
	
	
	
	
	
	
	
	
	
	
	
	
	
	
	
	
	
	
	
	
	
	
	
	
	
	
	
	
	
	
	
	
</defs><sodipodi:namedview
   id="namedview34"
   pagecolor="#ffffff"
   bordercolor="#000000"
   borderopacity="0.25"
   inkscape:showpageshadow="2"
   inkscape:pageopacity="0.0"
   inkscape:pagecheckerboard="0"
   inkscape:deskcolor="#d1d1d1"
   inkscape:zoom="1.7392638"
   inkscape:cx="304.15168"
   inkscape:cy="101.19224"
   inkscape:window-width="2498"
   inkscape:window-height="1376"
   inkscape:window-x="0"
   inkscape:window-y="0"
   inkscape:window-maximized="1"
   inkscape:current-layer="layer" />
<style
   type="text/css"
   id="style1">
	.st0{fill:#00559D;}
	.st1{fill:none;stroke:#00559D;stroke-width:0;stroke-miterlimit:3.864;}
	.st2{fill:#696865;}
</style>
<path
   class="st0"
   d="M 0,68.3 C 0,30.6 32.2,0 73.8,0 h 19.5 c 22.3,0 23.3,28.4 0,28.4 H 70.2 c 0,0 -41.8,0 -41.8,40.3 0,20.5 19.5,40.3 41.6,40.3 l 23.3,0.1 c 22.3,-0.1 22.3,27.5 0,27.5 H 73.9 C 33.1,136.6 0,106 0,68.3"
   id="path1" /><path
   class="st1"
   d="M 0,68.3 C 0,30.6 32.2,0 73.8,0 h 19.5 c 22.3,0 23.3,28.4 0,28.4 H 70.2 c 0,0 -41.8,0 -41.8,40.3 0,20.5 19.5,40.3 41.6,40.3 l 23.3,0.1 c 22.3,-0.1 22.3,27.5 0,27.5 H 73.9 C 33.1,136.6 0,106 0,68.3 Z"
   id="path2" /><path
   class="st0"
   d="m 164.7,123.5 c 0,37.7 -32.2,68.3 -73.8,68.3 H 71.4 c -22.3,0 -23.3,-28.4 0,-28.4 h 23.1 c 0,0 41.8,0 41.8,-40.3 0,-20.5 -19.5,-40.3 -41.6,-40.3 L 71.4,82.7 c -22.3,0.1 -22.3,-27.5 0,-27.5 h 19.4 c 40.8,0 73.9,30.6 73.9,68.3"
   id="path3" /><path
   class="st1"
   d="m 164.7,123.5 c 0,37.7 -32.2,68.3 -73.8,68.3 H 71.4 c -22.3,0 -23.3,-28.4 0,-28.4 h 23.1 c 0,0 41.8,0 41.8,-40.3 0,-20.5 -19.5,-40.3 -41.6,-40.3 L 71.4,82.7 c -22.3,0.1 -22.3,-27.5 0,-27.5 h 19.4 c 40.8,0 73.9,30.6 73.9,68.3 z"
   id="path4" />
</svg>
