<?xml version="1.0" encoding="UTF-8" standalone="no"?>
<!-- Created with Inkscape (http://www.inkscape.org/) -->

<svg
   width="92.368858mm"
   height="96.76165mm"
   viewBox="0 0 92.368858 96.76165"
   version="1.1"
   id="svg1"
   inkscape:version="1.3.1 (9b9bdc1480, 2023-11-25, custom)"
   xmlns:inkscape="http://www.inkscape.org/namespaces/inkscape"
   xmlns:sodipodi="http://sodipodi.sourceforge.net/DTD/sodipodi-0.dtd"
   xmlns="http://www.w3.org/2000/svg"
   xmlns:svg="http://www.w3.org/2000/svg">
  <sodipodi:namedview
     id="namedview1"
     pagecolor="#ffffff"
     bordercolor="#000000"
     borderopacity="0.25"
     inkscape:showpageshadow="2"
     inkscape:pageopacity="0.0"
     inkscape:pagecheckerboard="0"
     inkscape:deskcolor="#d1d1d1"
     inkscape:document-units="mm"
     inkscape:zoom="1.0102273"
     inkscape:cx="363.28459"
     inkscape:cy="434.55568"
     inkscape:window-width="2498"
     inkscape:window-height="1376"
     inkscape:window-x="0"
     inkscape:window-y="0"
     inkscape:window-maximized="1"
     inkscape:current-layer="layer1" />
  <defs
     id="defs1">
    <clipPath
       clipPathUnits="userSpaceOnUse"
       id="clipPath2">
      <path
         d="M 0,595.276 H 595.276 V 0 H 0 Z"
         transform="translate(-253.99171,-317.31441)"
         id="path2" />
    </clipPath>
    <clipPath
       clipPathUnits="userSpaceOnUse"
       id="clipPath4">
      <path
         d="M 0,595.276 H 595.276 V 0 H 0 Z"
         transform="translate(-365.27641,-264.10691)"
         id="path4" />
    </clipPath>
    <clipPath
       clipPathUnits="userSpaceOnUse"
       id="clipPath6">
      <path
         d="M 0,595.276 H 595.276 V 0 H 0 Z"
         transform="translate(-362.86721,-286.55221)"
         id="path6" />
    </clipPath>
    <clipPath
       clipPathUnits="userSpaceOnUse"
       id="clipPath8">
      <path
         d="M 0,595.276 H 595.276 V 0 H 0 Z"
         transform="translate(-218.57571,-324.03901)"
         id="path8" />
    </clipPath>
    <clipPath
       clipPathUnits="userSpaceOnUse"
       id="clipPath10">
      <path
         d="M 0,595.276 H 595.276 V 0 H 0 Z"
         transform="translate(-250.49611,-274.16551)"
         id="path10" />
    </clipPath>
    <clipPath
       clipPathUnits="userSpaceOnUse"
       id="clipPath12">
      <path
         d="M 0,595.276 H 595.276 V 0 H 0 Z"
         transform="translate(-340.92681,-274.18501)"
         id="path12" />
    </clipPath>
    <clipPath
       clipPathUnits="userSpaceOnUse"
       id="clipPath14">
      <path
         d="M 0,595.276 H 595.276 V 0 H 0 Z"
         transform="translate(-403.12011,-344.35981)"
         id="path14" />
    </clipPath>
    <clipPath
       clipPathUnits="userSpaceOnUse"
       id="clipPath16">
      <path
         d="M 0,595.276 H 595.276 V 0 H 0 Z"
         transform="translate(-210.23341,-314.70941)"
         id="path16" />
    </clipPath>
    <clipPath
       clipPathUnits="userSpaceOnUse"
       id="clipPath18">
      <path
         d="M 0,595.276 H 595.276 V 0 H 0 Z"
         transform="translate(-388.12791,-328.78511)"
         id="path18" />
    </clipPath>
    <clipPath
       clipPathUnits="userSpaceOnUse"
       id="clipPath20">
      <path
         d="M 0,595.276 H 595.276 V 0 H 0 Z"
         transform="translate(-187.87011,-377.03171)"
         id="path20" />
    </clipPath>
    <clipPath
       clipPathUnits="userSpaceOnUse"
       id="clipPath22">
      <path
         d="M 0,595.276 H 595.276 V 0 H 0 Z"
         transform="translate(-201.5566,-404.15181)"
         id="path22" />
    </clipPath>
    <clipPath
       clipPathUnits="userSpaceOnUse"
       id="clipPath24">
      <path
         d="M 0,595.276 H 595.276 V 0 H 0 Z"
         transform="translate(-390.02731,-404.27441)"
         id="path24" />
    </clipPath>
    <clipPath
       clipPathUnits="userSpaceOnUse"
       id="clipPath26">
      <path
         d="M 0,595.276 H 595.276 V 0 H 0 Z"
         transform="translate(-382.31051,-392.17521)"
         id="path26" />
    </clipPath>
    <clipPath
       clipPathUnits="userSpaceOnUse"
       id="clipPath28">
      <path
         d="M 0,595.276 H 595.276 V 0 H 0 Z"
         transform="translate(-204.00241,-381.15521)"
         id="path28" />
    </clipPath>
    <clipPath
       clipPathUnits="userSpaceOnUse"
       id="clipPath30">
      <path
         d="M 0,595.276 H 595.276 V 0 H 0 Z"
         transform="translate(-234.17581,-424.70601)"
         id="path30" />
    </clipPath>
    <clipPath
       clipPathUnits="userSpaceOnUse"
       id="clipPath32">
      <path
         d="M 0,595.276 H 595.276 V 0 H 0 Z"
         transform="translate(-357.56741,-424.53121)"
         id="path32" />
    </clipPath>
    <clipPath
       clipPathUnits="userSpaceOnUse"
       id="clipPath34">
      <path
         d="M 0,595.276 H 595.276 V 0 H 0 Z"
         transform="translate(-363.13961,-333.35541)"
         id="path34" />
    </clipPath>
    <clipPath
       clipPathUnits="userSpaceOnUse"
       id="clipPath36">
      <path
         d="M 0,595.276 H 595.276 V 0 H 0 Z"
         transform="translate(-330.91411,-412.68111)"
         id="path36" />
    </clipPath>
    <clipPath
       clipPathUnits="userSpaceOnUse"
       id="clipPath38">
      <path
         d="M 0,595.276 H 595.276 V 0 H 0 Z"
         transform="translate(-236.32521,-318.70651)"
         id="path38" />
    </clipPath>
    <clipPath
       clipPathUnits="userSpaceOnUse"
       id="clipPath40">
      <path
         d="M 0,595.276 H 595.276 V 0 H 0 Z"
         transform="translate(-234.5122,-321.28851)"
         id="path40" />
    </clipPath>
    <clipPath
       clipPathUnits="userSpaceOnUse"
       id="clipPath42">
      <path
         d="M 0,595.276 H 595.276 V 0 H 0 Z"
         transform="translate(-230.8843,-325.28611)"
         id="path42" />
    </clipPath>
    <clipPath
       clipPathUnits="userSpaceOnUse"
       id="clipPath44">
      <path
         d="M 0,595.276 H 595.276 V 0 H 0 Z"
         transform="translate(-226.9126,-339.41601)"
         id="path44" />
    </clipPath>
    <clipPath
       clipPathUnits="userSpaceOnUse"
       id="clipPath46">
      <path
         d="M 0,595.276 H 595.276 V 0 H 0 Z"
         transform="translate(-310.72661,-410.44621)"
         id="path46" />
    </clipPath>
    <clipPath
       clipPathUnits="userSpaceOnUse"
       id="clipPath48">
      <path
         d="M 0,595.276 H 595.276 V 0 H 0 Z"
         transform="translate(-315.83791,-400.73091)"
         id="path48" />
    </clipPath>
    <clipPath
       clipPathUnits="userSpaceOnUse"
       id="clipPath50">
      <path
         d="M 0,595.276 H 595.276 V 0 H 0 Z"
         transform="translate(-312.21871,-403.32611)"
         id="path50" />
    </clipPath>
    <clipPath
       clipPathUnits="userSpaceOnUse"
       id="clipPath52">
      <path
         d="M 0,595.276 H 595.276 V 0 H 0 Z"
         transform="translate(-311.20021,-404.35641)"
         id="path52" />
    </clipPath>
    <clipPath
       clipPathUnits="userSpaceOnUse"
       id="clipPath54">
      <path
         d="M 0,595.276 H 595.276 V 0 H 0 Z"
         transform="translate(-305.14841,-411.74161)"
         id="path54" />
    </clipPath>
    <clipPath
       clipPathUnits="userSpaceOnUse"
       id="clipPath56">
      <path
         d="M 0,595.276 H 595.276 V 0 H 0 Z"
         transform="translate(-281.94921,-389.41941)"
         id="path56" />
    </clipPath>
    <clipPath
       clipPathUnits="userSpaceOnUse"
       id="clipPath58">
      <path
         d="M 0,595.276 H 595.276 V 0 H 0 Z"
         transform="translate(-339.34961,-377.71481)"
         id="path58" />
    </clipPath>
    <clipPath
       clipPathUnits="userSpaceOnUse"
       id="clipPath60">
      <path
         d="M 0,595.276 H 595.276 V 0 H 0 Z"
         transform="translate(-337.88671,-384.41401)"
         id="path60" />
    </clipPath>
    <clipPath
       clipPathUnits="userSpaceOnUse"
       id="clipPath62">
      <path
         d="M 0,595.276 H 595.276 V 0 H 0 Z"
         transform="translate(-336.76461,-387.23631)"
         id="path62" />
    </clipPath>
    <clipPath
       clipPathUnits="userSpaceOnUse"
       id="clipPath64">
      <path
         d="M 0,595.276 H 595.276 V 0 H 0 Z"
         transform="translate(-339.33011,-382.24701)"
         id="path64" />
    </clipPath>
    <clipPath
       clipPathUnits="userSpaceOnUse"
       id="clipPath66">
      <path
         d="M 0,595.276 H 595.276 V 0 H 0 Z"
         transform="translate(-339.92971,-380.05361)"
         id="path66" />
    </clipPath>
    <clipPath
       clipPathUnits="userSpaceOnUse"
       id="clipPath68">
      <path
         d="M 0,595.276 H 595.276 V 0 H 0 Z"
         transform="translate(-290.91361,-344.77781)"
         id="path68" />
    </clipPath>
    <clipPath
       clipPathUnits="userSpaceOnUse"
       id="clipPath70">
      <path
         d="M 0,595.276 H 595.276 V 0 H 0 Z"
         transform="translate(-301.12301,-355.04291)"
         id="path70" />
    </clipPath>
    <clipPath
       clipPathUnits="userSpaceOnUse"
       id="clipPath72">
      <path
         d="M 0,595.276 H 595.276 V 0 H 0 Z"
         transform="translate(-288.11431,-357.65031)"
         id="path72" />
    </clipPath>
    <clipPath
       clipPathUnits="userSpaceOnUse"
       id="clipPath74">
      <path
         d="M 0,595.276 H 595.276 V 0 H 0 Z"
         transform="translate(-297.57081,-352.90861)"
         id="path74" />
    </clipPath>
    <clipPath
       clipPathUnits="userSpaceOnUse"
       id="clipPath76">
      <path
         d="M 0,595.276 H 595.276 V 0 H 0 Z"
         transform="translate(-287.48731,-358.89841)"
         id="path76" />
    </clipPath>
    <clipPath
       clipPathUnits="userSpaceOnUse"
       id="clipPath78">
      <path
         d="M 0,595.276 H 595.276 V 0 H 0 Z"
         transform="translate(-336.68951,-351.80021)"
         id="path78" />
    </clipPath>
    <clipPath
       clipPathUnits="userSpaceOnUse"
       id="clipPath80">
      <path
         d="M 0,595.276 H 595.276 V 0 H 0 Z"
         transform="translate(-327.19531,-334.62251)"
         id="path80" />
    </clipPath>
    <clipPath
       clipPathUnits="userSpaceOnUse"
       id="clipPath82">
      <path
         d="M 0,595.276 H 595.276 V 0 H 0 Z"
         transform="translate(-263.22361,-345.53901)"
         id="path82" />
    </clipPath>
    <clipPath
       clipPathUnits="userSpaceOnUse"
       id="clipPath84">
      <path
         d="M 0,595.276 H 595.276 V 0 H 0 Z"
         transform="translate(-261.4048,-353.39741)"
         id="path84" />
    </clipPath>
    <clipPath
       clipPathUnits="userSpaceOnUse"
       id="clipPath86">
      <path
         d="M 0,595.276 H 595.276 V 0 H 0 Z"
         transform="translate(-260.86911,-349.18941)"
         id="path86" />
    </clipPath>
    <clipPath
       clipPathUnits="userSpaceOnUse"
       id="clipPath88">
      <path
         d="M 0,595.276 H 595.276 V 0 H 0 Z"
         transform="translate(-260.55421,-351.12981)"
         id="path88" />
    </clipPath>
    <clipPath
       clipPathUnits="userSpaceOnUse"
       id="clipPath90">
      <path
         d="M 0,595.276 H 595.276 V 0 H 0 Z"
         transform="translate(-291.7021,-376.55221)"
         id="path90" />
    </clipPath>
    <clipPath
       clipPathUnits="userSpaceOnUse"
       id="clipPath92">
      <path
         d="M 0,595.276 H 595.276 V 0 H 0 Z"
         transform="translate(-328.37111,-375.89151)"
         id="path92" />
    </clipPath>
    <clipPath
       clipPathUnits="userSpaceOnUse"
       id="clipPath94">
      <path
         d="M 0,595.276 H 595.276 V 0 H 0 Z"
         transform="translate(-331.71681,-376.89541)"
         id="path94" />
    </clipPath>
    <clipPath
       clipPathUnits="userSpaceOnUse"
       id="clipPath96">
      <path
         d="M 0,595.276 H 595.276 V 0 H 0 Z"
         transform="translate(-306.89161,-376.36811)"
         id="path96" />
    </clipPath>
    <clipPath
       clipPathUnits="userSpaceOnUse"
       id="clipPath98">
      <path
         d="M 0,595.276 H 595.276 V 0 H 0 Z"
         transform="translate(-308.47751,-331.82611)"
         id="path98" />
    </clipPath>
    <clipPath
       clipPathUnits="userSpaceOnUse"
       id="clipPath100">
      <path
         d="M 0,595.276 H 595.276 V 0 H 0 Z"
         transform="translate(-301.67581,-330.98381)"
         id="path100" />
    </clipPath>
    <clipPath
       clipPathUnits="userSpaceOnUse"
       id="clipPath102">
      <path
         d="M 0,595.276 H 595.276 V 0 H 0 Z"
         transform="translate(-310.24711,-334.06201)"
         id="path102" />
    </clipPath>
    <clipPath
       clipPathUnits="userSpaceOnUse"
       id="clipPath104">
      <path
         d="M 0,595.276 H 595.276 V 0 H 0 Z"
         transform="translate(-299.26461,-332.42281)"
         id="path104" />
    </clipPath>
    <clipPath
       clipPathUnits="userSpaceOnUse"
       id="clipPath106">
      <path
         d="M 0,595.276 H 595.276 V 0 H 0 Z"
         transform="translate(-337.21481,-360.83541)"
         id="path106" />
    </clipPath>
    <clipPath
       clipPathUnits="userSpaceOnUse"
       id="clipPath108">
      <path
         d="M 0,595.276 H 595.276 V 0 H 0 Z"
         transform="translate(-223.55571,-230.29441)"
         id="path108" />
    </clipPath>
    <clipPath
       clipPathUnits="userSpaceOnUse"
       id="clipPath110">
      <path
         d="M 0,595.276 H 595.276 V 0 H 0 Z"
         transform="translate(-272.31541,-214.808)"
         id="path110" />
    </clipPath>
    <clipPath
       clipPathUnits="userSpaceOnUse"
       id="clipPath112">
      <path
         d="M 0,595.276 H 595.276 V 0 H 0 Z"
         transform="translate(-290.13231,-221.102)"
         id="path112" />
    </clipPath>
    <clipPath
       clipPathUnits="userSpaceOnUse"
       id="clipPath114">
      <path
         d="M 0,595.276 H 595.276 V 0 H 0 Z"
         transform="translate(-313.33111,-221.01211)"
         id="path114" />
    </clipPath>
    <clipPath
       clipPathUnits="userSpaceOnUse"
       id="clipPath116">
      <path
         d="M 0,595.276 H 595.276 V 0 H 0 Z"
         transform="translate(-340.22561,-220.64881)"
         id="path116" />
    </clipPath>
    <clipPath
       clipPathUnits="userSpaceOnUse"
       id="clipPath118">
      <path
         d="M 0,595.276 H 595.276 V 0 H 0 Z"
         transform="translate(-378.01171,-216.81581)"
         id="path118" />
    </clipPath>
    <clipPath
       clipPathUnits="userSpaceOnUse"
       id="clipPath120">
      <path
         d="M 0,595.276 H 595.276 V 0 H 0 Z"
         transform="translate(-406.50101,-200.05901)"
         id="path120" />
    </clipPath>
    <clipPath
       clipPathUnits="userSpaceOnUse"
       id="clipPath122">
      <path
         d="M 0,595.276 H 595.276 V 0 H 0 Z"
         transform="translate(-428.55471,-208.36081)"
         id="path122" />
    </clipPath>
    <clipPath
       clipPathUnits="userSpaceOnUse"
       id="clipPath124">
      <path
         d="M 0,595.276 H 595.276 V 0 H 0 Z"
         id="path124" />
    </clipPath>
    <clipPath
       clipPathUnits="userSpaceOnUse"
       id="clipPath126">
      <path
         d="M 0,595.276 H 595.276 V 0 H 0 Z"
         transform="translate(-255.46681,-174.9067)"
         id="path126" />
    </clipPath>
    <clipPath
       clipPathUnits="userSpaceOnUse"
       id="clipPath128">
      <path
         d="M 0,595.276 H 595.276 V 0 H 0 Z"
         transform="translate(-372.18071,-160.49551)"
         id="path128" />
    </clipPath>
  </defs>
  <g
     inkscape:label="Layer 1"
     inkscape:groupmode="layer"
     id="layer1"
     transform="translate(-8.9958318,-33.602083)">
    <path
       id="path1"
       d="M 0,0 -0.298,0.364 -0.526,0.601 C -0.857,0.895 -1.114,0.882 -1.354,0.534 -1.466,0.381 -1.532,0.207 -1.644,0 -1.392,-0.302 -1.143,-0.588 -0.882,-0.895 -0.522,-0.65 -0.265,-0.377 0,0 M 47,28.336 C 46.801,28.125 46.635,27.98 46.523,27.802 l -0.104,-0.464 c 0.03,-0.405 0.473,-1.163 0.871,-1.557 0.293,0.228 0.31,0.568 0.314,0.878 0.009,0.58 -0.087,1.143 -0.604,1.677 M 47.373,-4.22 c -0.386,0.626 -0.634,0.833 -1.185,0.986 -0.985,0.265 -1.959,0.194 -2.948,-0.079 -0.12,-0.422 -0.112,-0.82 -0.005,-1.271 1.38,0.054 2.713,0.215 4.138,0.364 m 16.543,56.822 c 0.29,0.534 0.293,0.539 0.219,0.861 -0.05,0.22 -0.12,0.427 -0.158,0.642 -0.091,0.468 -0.012,0.634 0.427,0.866 0.17,0.087 0.352,0.157 0.526,0.236 1.08,0.464 1.143,0.654 0.414,1.619 -0.53,0.708 -1.089,1.396 -1.636,2.087 l -0.339,0.352 C 63.071,59 62.777,58.822 62.603,58.47 c 0.273,-0.128 0.501,-0.228 0.725,-0.331 0.604,-0.294 0.786,-0.609 0.658,-1.251 -0.058,-0.294 -0.191,-0.571 -0.311,-0.849 -0.099,-0.231 -0.249,-0.435 -0.331,-0.671 -0.389,-1.027 -0.133,-1.929 0.572,-2.766 m 4.401,-41.621 -0.033,0.27 c -0.161,0.149 -0.323,0.311 -0.522,0.401 -0.745,0.352 -1.507,0.688 -2.277,1.015 -0.555,0.24 -1.131,0.435 -1.752,0.464 -0.782,0.045 -1.532,0.232 -2.261,0.509 -0.207,0.079 -0.418,0.166 -0.629,0.207 -0.497,0.075 -0.779,-0.099 -1.04,-0.629 0.605,-0.203 1.201,-0.41 1.802,-0.605 1.553,-0.509 3.109,-1.014 4.658,-1.515 0.671,-0.216 1.35,-0.207 2.054,-0.117 M 9.826,41.136 c 0.195,0.559 0.249,1.085 0.274,1.611 0.008,0.261 -0.071,0.488 -0.311,0.633 C 9.044,43.84 8.253,44.031 7.404,43.761 6.841,43.583 6.46,43.202 6.311,42.619 6.22,42.233 6.34,41.853 6.679,41.678 7.652,41.173 8.659,40.817 9.826,41.136 M 0.994,32.32 c -0.096,0.58 -0.182,1.097 -0.265,1.615 -0.12,0.729 -0.038,1.433 0.273,2.112 0.269,0.576 0.522,1.163 0.77,1.747 l 0.1,0.448 C 0.534,38.354 -2,38.316 -2.572,38.184 l -0.016,-0.245 c 0.157,-1.569 0.311,-3.143 0.484,-4.712 0.066,-0.63 0.406,-1.077 1.002,-1.313 0.767,-0.298 1.466,-0.227 2.096,0.406 m 16.187,22.833 0.128,-0.033 c 0.915,-0.008 1.83,-0.033 2.741,-0.008 1.387,0.037 3.06,-1.098 3.429,-2.559 0.029,-0.133 0.075,-0.253 0.137,-0.452 0.554,0.709 1.225,0.762 1.983,0.53 0.261,-0.078 0.543,-0.108 0.82,-0.128 0.149,-0.008 0.335,-0.017 0.381,0.232 l -0.203,0.244 c -2.083,2.075 -4.161,4.149 -6.244,6.224 l -0.075,0.041 -0.099,0.005 -0.17,-0.145 C 19.073,57.857 18.146,56.619 17.214,55.368 Z M 84.819,44.18 c -0.381,0.728 -0.538,1.387 -0.364,2.095 0.124,0.509 0.29,1.006 0.455,1.507 0.07,0.228 0.186,0.444 0.215,0.779 l -0.323,-0.269 c -0.377,-0.477 -0.778,-0.94 -1.105,-1.45 -0.444,-0.691 -1.052,-1.043 -1.856,-1.068 -0.501,-0.017 -1.002,-0.012 -1.495,-0.017 -0.277,0 -0.558,0.021 -0.832,-0.004 -0.455,-0.037 -0.641,-0.228 -0.662,-0.683 -0.017,-0.331 -0.029,-0.667 0.004,-0.998 0.083,-0.849 -0.286,-1.425 -1.002,-1.843 -0.381,-0.224 -0.729,-0.501 -1.085,-0.774 L 76.628,41.19 c 0.729,-0.104 6.912,-0.153 9.098,-0.075 l 0.385,0.054 c 0.057,0.663 -0.137,2.924 -0.319,3.611 -0.306,-0.186 -0.6,-0.364 -0.973,-0.6 M 43.231,13.45 c 0.758,-0.005 1.475,0.016 2.191,0.099 0.862,0.104 1.581,-0.195 2.165,-0.824 0.15,-0.162 0.27,-0.352 0.414,-0.522 0.291,-0.348 0.647,-0.501 1.106,-0.372 0.534,0.14 1.073,0.269 1.607,0.41 0.895,0.227 1.751,0.526 2.542,1.006 0.324,0.194 0.713,0.298 1.085,0.406 1.346,0.376 2.493,1.052 3.392,2.137 l 0.348,0.463 c 0.162,0.261 0.166,0.526 -0.038,0.774 -0.244,0.294 -0.467,0.621 -0.944,0.742 -0.252,-0.145 -0.551,-0.29 -0.811,-0.489 -0.402,-0.294 -0.766,-0.634 -1.168,-0.936 -0.592,-0.451 -1.358,-0.372 -1.788,0.157 -0.129,0.162 -0.204,0.344 -0.104,0.535 0.174,0.335 0.207,0.674 0.157,1.047 -0.046,0.332 0.128,0.592 0.381,0.783 0.198,0.157 0.414,0.286 0.638,0.393 0.617,0.315 1.25,0.601 1.863,0.915 0.27,0.141 0.526,0.311 0.775,0.485 0.161,0.12 0.24,0.306 0.214,0.518 -0.074,0.579 -0.765,0.919 -1.258,0.596 -0.228,-0.149 -0.418,-0.364 -0.625,-0.546 -0.402,-0.361 -0.841,-0.526 -1.367,-0.266 -0.124,0.059 -0.256,0.1 -0.439,0.166 -0.078,-0.261 -0.174,-0.489 -0.203,-0.733 -0.071,-0.497 -0.099,-0.99 -0.161,-1.487 -0.037,-0.385 -0.075,-0.774 -0.165,-1.147 -0.088,-0.347 -0.328,-0.662 -0.361,-1.002 -0.033,-0.343 0.104,-0.704 0.161,-1.031 -0.989,-0.828 -1.573,-0.815 -2.377,0.063 -0.256,0.285 -0.46,0.625 -0.667,0.948 -0.26,0.401 -0.558,0.757 -1.018,0.952 -0.281,0.124 -0.563,0.195 -0.841,0.02 -0.058,-0.269 0.025,-0.471 0.203,-0.625 0.191,-0.161 0.406,-0.298 0.58,-0.472 0.253,-0.257 0.518,-0.509 0.704,-0.811 0.241,-0.41 0.331,-0.862 0.017,-1.338 l -0.369,0.241 c -0.952,0.616 -1.921,1.221 -2.862,1.859 -0.595,0.414 -1.175,0.418 -1.784,0.062 -0.212,-0.128 -0.435,-0.245 -0.633,-0.394 -0.349,-0.256 -0.56,-0.604 -0.638,-1.039 -0.104,-0.551 -0.079,-1.102 0.078,-1.743 M 74.048,5.536 C 73.821,5.3 73.642,5.122 73.481,4.944 L 73.104,4.497 c -0.542,-0.799 -0.348,-1.772 0.493,-2.278 1.259,-0.753 2.074,-1.905 2.865,-3.076 0.294,-0.435 0.207,-0.675 -0.182,-1.102 -0.236,-0.265 -0.472,-0.546 -0.65,-0.849 -0.369,-0.617 -0.671,-1.275 -1.143,-1.83 -0.244,-0.281 -0.24,-0.609 -0.112,-0.936 l 0.183,-0.372 c 0.149,-0.249 0.169,-0.51 0.152,-0.8 -0.024,-0.662 -0.02,-1.325 -0.02,-1.991 l 0.079,-0.303 0.281,0.021 c 0.398,0.224 7.21,5.776 7.562,6.149 -0.187,0.129 -0.348,0.269 -0.534,0.373 -0.738,0.414 -1.338,0.977 -1.847,1.648 -0.319,0.418 -0.654,0.828 -1.019,1.205 -1.569,1.607 -3.156,3.193 -4.742,4.787 -0.107,0.116 -0.235,0.219 -0.422,0.393 M 20.129,20.353 c 0.17,0.145 0.265,0.203 0.34,0.281 2.451,2.448 4.903,4.899 7.35,7.354 l 0.24,0.327 c -0.484,0.659 -0.94,1.284 -1.408,1.905 l -0.281,0.187 c -0.03,-0.543 0.028,-1.014 -0.199,-1.458 -0.336,-0.666 -0.638,-1.354 -0.982,-2.02 -0.091,-0.191 -0.252,-0.357 -0.41,-0.502 -0.153,-0.145 -0.356,-0.161 -0.542,-0.057 l -0.34,0.235 c -0.6,0.618 -0.977,1.326 -0.931,2.228 0.024,0.468 -0.033,0.94 -0.063,1.408 l -0.095,0.219 -0.149,0.034 -0.054,-0.042 -0.045,-0.484 c 0.004,-0.501 -0.008,-0.998 -0.265,-1.47 -1.711,0.228 -2.332,1.478 -2.787,2.936 l -0.402,-0.025 c -0.546,-0.041 -0.964,0.17 -1.283,0.617 -0.216,0.315 -0.452,0.629 -0.688,0.936 -0.128,0.165 -0.273,0.323 -0.435,0.513 -0.691,-0.538 -1.362,-0.468 -2.054,-0.099 -0.265,0.141 -0.554,0.252 -0.844,0.348 l -0.385,0.041 c 0.004,-1.068 0.849,-3.789 1.826,-5.963 1.23,-2.72 2.832,-5.197 4.886,-7.449 M 43.21,-19.11 c 1.078,-0.17 3.93,0.078 8.432,0.741 1.962,0.294 4.294,0.84 5.002,1.184 -0.096,0.364 -0.364,0.601 -0.621,0.849 -0.99,0.932 -1.976,1.867 -2.97,2.795 -0.703,0.658 -0.865,1.449 -0.612,2.352 0.074,0.265 0.174,0.53 0.227,0.799 0.083,0.398 0.046,0.807 -0.244,1.098 -0.423,0.426 -0.658,0.948 -0.935,1.461 -0.253,0.464 -0.643,0.754 -1.127,0.936 -0.422,0.162 -0.862,0.211 -1.313,0.158 -1.652,-0.199 -3.299,-0.389 -4.952,-0.593 -0.294,-0.037 -0.613,0.03 -0.899,-0.178 l -0.066,-0.31 c 0,-3.69 0.004,-7.384 0.008,-11.069 z m -60.428,57.327 c 0,-0.228 -0.017,-0.423 0.004,-0.613 0.149,-1.52 0.302,-3.036 0.468,-4.551 0.116,-1.077 0.244,-2.154 0.406,-3.222 0.389,-2.555 1.068,-5.043 1.764,-7.528 0.054,-0.195 0.103,-0.381 0.182,-0.555 0.203,-0.476 0.559,-0.762 1.081,-0.787 0.36,-0.016 0.729,-0.021 1.081,0.046 1.561,0.285 2.463,1.379 2.463,2.973 0,0.385 -0.062,0.77 -0.124,1.155 -0.198,1.222 -0.124,2.39 0.687,3.396 0.274,0.34 0.456,0.679 0.431,1.126 -0.033,0.447 0.245,0.717 0.629,0.883 l 0.394,0.132 c 0.402,0.161 0.708,0.443 0.878,0.845 0.079,0.178 0.149,0.36 0.211,0.542 0.245,0.783 0.742,1.288 1.574,1.416 l 0.145,0.141 c -0.129,1.508 -0.249,3.048 -0.419,4.568 -0.774,0.136 -6.538,0.186 -11.283,0.09 -0.183,-0.003 -0.374,-0.037 -0.572,-0.057 m 60.421,30.51 -0.046,-0.381 c 0,-3.441 0,-6.882 0.004,-10.323 l 0.079,-0.419 c 0.616,-0.12 1.221,-0.207 1.813,-0.347 0.655,-0.166 1.185,-0.008 1.665,0.476 0.444,0.459 1.002,0.783 1.582,1.052 0.509,0.24 0.923,0.058 1.126,-0.468 0.199,-0.501 0.141,-0.982 -0.128,-1.437 -0.125,-0.203 -0.282,-0.389 -0.419,-0.588 l 0.224,-0.195 c 0.898,-0.538 1.806,-1.08 2.713,-1.615 l 0.294,-0.161 c 0.381,-0.166 0.691,-0.104 0.965,0.22 0.252,0.293 0.471,0.612 0.704,0.927 l -0.017,0.285 c -0.344,-0.256 -0.687,-0.517 -1.011,-0.77 -0.264,0.17 -0.327,0.39 -0.327,0.609 0.004,0.319 0.154,0.588 0.352,0.832 0.277,0.344 1.267,1.177 1.793,1.495 0.365,-0.261 0.746,-0.522 0.874,-0.998 1.127,0.274 2.534,1.019 3.288,1.744 0.161,0.153 0.303,0.327 0.406,0.517 0.165,0.298 0,0.626 -0.323,0.721 -0.39,0.107 -0.974,-0.132 -1.102,-0.514 -0.153,-0.439 -0.447,-0.683 -0.857,-0.832 -0.29,-0.103 -0.567,-0.228 -0.849,-0.335 l -0.397,-0.12 c -0.402,-0.075 -0.551,0.012 -0.717,0.385 -0.083,0.199 -0.161,0.397 -0.22,0.534 -0.442,0.269 -0.943,0.149 -1.292,0.476 0.187,0.274 0.46,0.339 0.721,0.422 0.87,0.278 1.748,0.207 2.634,-0.012 0.17,0.178 0.307,0.343 0.468,0.493 0.256,0.252 0.522,0.496 0.807,0.72 0.543,0.427 1.164,0.481 1.81,0.249 0.207,-0.071 0.406,-0.166 0.604,-0.269 0.344,-0.183 0.659,-0.104 0.978,0.103 -5.247,4.895 -12.534,7.516 -18.199,7.524 M 22.349,18.096 c 0.294,-0.261 0.534,-0.48 0.791,-0.692 1.138,-0.931 2.339,-1.784 3.594,-2.55 2.845,-1.74 5.905,-2.92 9.164,-3.611 0.654,-0.137 1.267,-0.087 1.859,0.207 0.485,0.236 0.998,0.331 1.532,0.327 0.249,0 0.501,0 0.746,0.02 0.273,0.025 0.377,0.149 0.372,0.448 -0.004,0.132 -0.041,0.269 -0.066,0.443 -0.248,-0.058 -0.46,-0.104 -0.667,-0.166 -0.439,-0.136 -0.828,-0.042 -1.155,0.261 -0.269,0.244 -0.509,0.513 -0.749,0.779 -0.348,0.401 -0.477,0.877 -0.381,1.399 0.074,0.435 0.161,0.874 0.281,1.3 0.162,0.584 0.381,0.721 0.969,0.584 0.447,-0.099 0.878,-0.087 1.313,0.058 0.393,0.137 0.497,0.398 0.31,0.783 L 39.993,18.1 c -0.099,0.166 -0.211,0.327 -0.294,0.501 -0.149,0.336 -0.087,0.497 0.228,0.683 l 0.365,0.191 -0.013,0.439 c -0.199,0.116 -0.418,0.207 -0.654,0.318 0.149,0.253 0.277,0.46 0.393,0.684 0.087,0.169 0.157,0.352 0.211,0.534 0.042,0.161 0.05,0.356 -0.124,0.439 l -0.402,0.008 c -0.057,-0.219 -0.095,-0.41 -0.161,-0.588 -0.195,-0.555 -0.721,-0.679 -1.243,-0.298 0.046,0.377 0.299,0.7 0.315,1.143 -3.106,0.621 -5.876,1.896 -8.286,3.892 -0.517,-0.372 -7.3,-7.13 -7.979,-7.95 m 57.882,29.898 c 0.782,-0.191 1.176,-0.125 1.706,0.343 0.265,0.236 0.501,0.526 0.691,0.824 0.501,0.766 0.953,1.561 1.45,2.332 0.248,0.381 0.294,0.741 0.136,1.175 -0.426,1.172 -0.837,2.353 -1.213,3.541 -0.356,1.105 -1.014,1.967 -1.992,2.58 -0.464,0.298 -0.968,0.534 -1.445,0.824 -0.277,0.174 -0.564,0.36 -0.791,0.596 -0.323,0.344 -0.311,0.77 -0.004,1.131 l 0.451,0.364 0.444,0.228 c 0.181,0.111 0.26,0.306 0.186,0.501 l -0.224,0.443 c -1.478,2.389 -3.126,4.65 -5.064,6.696 l -0.414,0.381 c -0.526,-0.385 -8.142,-7.98 -8.68,-8.646 l 0.087,-0.228 c 1.019,-1.388 2.042,-2.766 3.069,-4.149 l 0.29,-0.29 c 0.161,-0.129 0.418,-0.071 0.484,0.128 0.079,0.265 0.12,0.534 0.17,0.808 0.087,0.447 0.405,0.641 0.811,0.724 0.352,0.075 0.527,-0.025 0.783,-0.459 l 0.103,-0.29 c -0.281,-0.373 -0.79,-0.431 -1.076,-0.878 0.571,-0.195 1.076,-0.406 1.61,-0.534 0.767,-0.195 1.185,-0.667 1.326,-1.425 l 0.045,-0.248 c 0.1,-0.617 0.423,-1.007 1.065,-1.102 0.538,-0.074 0.981,-0.377 1.399,-0.696 0.237,-0.173 0.244,-0.422 0.071,-0.658 -0.158,-0.211 -0.324,-0.248 -0.584,-0.165 -0.22,0.074 -0.369,0.36 -0.675,0.232 0.488,-0.609 0.811,-0.878 1.321,-1.098 0.194,0.294 0.377,0.609 0.601,0.895 0.227,0.306 0.463,0.625 0.757,0.873 0.269,0.224 0.6,0.431 0.932,0.514 1.433,0.347 3.213,-0.994 2.845,-2.741 -0.096,-0.444 -0.274,-0.841 -0.527,-1.214 -0.29,-0.414 -0.38,-0.853 -0.144,-1.312 m -49.965,5.412 c 1.35,1.055 2.758,1.838 4.133,2.671 0.518,0.31 0.99,0.72 1.42,1.138 0.303,0.29 0.609,0.468 1.019,0.46 l 0.12,-0.133 c -0.104,-0.173 -0.207,-0.347 -0.335,-0.559 l 0.294,-0.041 c 1.138,0.228 2.273,0.455 3.391,0.675 0.116,0.828 0.153,5.702 0.079,10.534 0,0.187 -0.025,0.373 -0.038,0.593 -0.455,0.083 -0.865,0.028 -1.271,-0.017 -1.515,-0.182 -3.015,-0.422 -4.493,-0.799 -4.348,-1.106 -8.22,-3.122 -11.636,-6.025 -0.182,-0.153 -0.427,-0.269 -0.48,-0.588 2.571,-2.609 5.159,-5.234 7.797,-7.909 M 6.696,20.174 C 6.675,19.098 6.82,18.054 6.986,17.015 7.073,16.481 7.305,16.017 7.632,15.595 7.834,15.33 8.029,15.056 8.195,14.771 8.373,14.477 8.468,14.125 8.332,13.81 8.166,13.429 8.427,13.181 8.51,12.874 8.601,12.543 8.555,12.216 8.443,11.893 8.373,11.686 8.282,11.47 8.253,11.255 l 0.087,-0.46 c 0.352,-0.422 0.724,-0.828 1.122,-1.188 0.65,0.497 8.269,8.128 8.721,8.725 -0.282,0.356 -0.563,0.725 -0.866,1.085 -0.931,1.105 -1.789,2.261 -2.555,3.486 -1.921,3.065 -3.242,6.369 -4.062,9.889 -0.078,0.348 -0.153,0.704 -0.257,1.048 -0.132,0.426 -0.401,0.737 -0.861,0.811 -0.497,0.083 -0.791,0.356 -0.865,0.882 0.393,0.361 0.931,0.237 1.466,0.402 -0.15,0.77 -0.096,1.544 -0.34,2.307 l -0.336,0.045 c -1.221,0 -2.439,0.004 -3.66,-0.013 C 4.99,38.262 4.857,38.101 4.911,37.215 L 4.915,37.127 C 4.965,36.129 4.687,35.79 3.686,35.616 L 3.271,35.558 C 3.085,35.521 2.886,35.492 2.704,35.434 2.066,35.223 1.71,34.693 1.813,34.022 1.958,33.09 2.149,32.163 2.311,31.235 2.422,30.618 2.737,30.22 3.42,30.22 l 0.158,-0.078 0.14,-0.186 C 3.996,29.479 4.29,29.003 4.559,28.515 4.895,27.901 4.853,27.736 4.249,27.289 4.079,27.168 3.946,27.048 4.054,26.816 4.323,26.68 4.596,26.792 4.87,26.809 5.392,26.846 5.652,26.622 5.694,26.108 5.71,25.918 5.702,25.719 5.681,25.524 5.652,25.168 5.611,24.812 5.561,24.452 5.512,24.05 5.578,23.682 5.776,23.33 6.046,22.846 6.307,22.353 6.567,21.864 6.994,21.715 7.417,21.579 7.748,21.243 7.512,20.754 7.085,20.485 6.696,20.174 M 72.57,15.305 c 0.634,-0.199 1.018,-0.593 1.172,-1.214 0.046,-0.186 0.087,-0.372 0.116,-0.567 0.174,-1.068 0.335,-2.132 0.514,-3.205 l 0.136,-0.364 c 2.915,2.451 7.234,9.598 9.185,15.16 1.449,4.128 2.732,11.238 2.364,13.085 -0.65,0.099 -7.934,0.116 -8.721,0.017 -0.083,-0.352 0.083,-0.646 0.224,-0.945 0.302,-0.654 0.621,-1.3 0.902,-1.958 0.22,-0.505 0.56,-0.895 1.028,-1.172 l 0.509,-0.282 c 1.064,-0.637 1.801,-1.548 2.219,-2.712 0.063,-0.182 0.12,-0.373 0.141,-0.563 0.037,-0.344 -0.078,-0.543 -0.394,-0.642 -0.26,-0.087 -0.538,-0.132 -0.811,-0.153 -1.309,-0.083 -2.579,-0.327 -3.797,-0.816 -0.551,-0.22 -1.044,-0.294 -1.586,0.021 -0.394,0.232 -0.604,0.124 -0.812,-0.257 L 74.79,28.361 C 74.662,28.183 74.537,27.98 74.359,27.869 73.705,27.45 73.17,27.765 73.03,28.295 c -0.046,0.178 -0.116,0.352 -0.187,0.567 -0.368,-0.331 -0.534,-0.716 -0.712,-1.093 -0.489,-1.056 -1.002,-2.1 -1.454,-3.176 -0.29,-0.683 -0.753,-1.168 -1.416,-1.437 -0.277,-0.116 -0.464,-0.29 -0.621,-0.522 -0.443,-0.671 -0.89,-1.337 -1.333,-2.008 l -0.033,-0.232 c 0.368,0.05 0.588,0.269 0.774,0.497 0.248,0.298 0.472,0.621 0.688,0.944 0.418,0.629 0.985,1.006 1.734,1.188 0.771,0.195 1.268,0.067 1.412,-0.877 l 0.026,-0.17 c 0.091,-1.101 0.194,-2.207 0.268,-3.313 0.013,-0.207 -0.07,-0.431 -0.14,-0.638 -0.431,-1.32 -0.886,-2.629 -1.317,-3.946 -0.095,-0.307 -0.299,-0.609 -0.129,-0.956 0.233,-0.067 0.386,0.037 0.497,0.215 0.257,0.393 0.51,0.795 0.784,1.176 0.185,0.269 0.322,0.592 0.699,0.791 M 11.553,7.433 11.723,7.209 12.087,6.87 c 3.57,-3.23 7.545,-5.831 11.964,-7.752 3.71,-1.615 7.561,-2.729 11.565,-3.276 1.4,-0.19 2.82,-0.265 4.228,-0.381 0.182,-0.016 0.364,0.038 0.547,0.062 0.025,0.381 0.095,0.705 -0.083,1.032 -0.398,0.066 -0.774,0.145 -1.156,0.19 -1.126,0.137 -2.223,0.456 -3.387,0.339 -0.795,-0.082 -1.437,0.336 -1.913,0.982 l -0.282,0.41 c -0.567,0.783 -1.117,1.59 -1.722,2.348 -0.605,0.762 -1.259,1.478 -1.889,2.219 -0.136,0.166 -0.248,0.344 -0.372,0.514 0.257,0.389 0.489,0.733 0.716,1.081 0.357,0.53 0.667,1.089 0.791,1.727 0.083,0.409 0.269,0.786 0.518,1.13 0.29,0.406 0.596,0.799 0.882,1.209 0.095,0.129 0.161,0.269 0.273,0.456 -0.94,0.339 -1.83,0.633 -2.691,0.985 -0.899,0.365 -1.785,0.762 -2.651,1.197 -0.84,0.43 -1.664,0.899 -2.459,1.4 -0.828,0.509 -1.628,1.068 -2.402,1.644 -0.754,0.558 -1.474,1.167 -2.249,1.784 -2.931,-2.923 -5.838,-5.822 -8.762,-8.737 M -2.572,41.115 c 0.278,-0.025 0.439,-0.053 0.605,-0.053 1.557,-0.005 3.11,-0.005 4.667,-0.005 l 0.331,0.013 c 0.584,0 1.201,0.559 1.085,1.296 -0.066,0.435 -0.103,0.894 -0.029,1.325 0.315,1.826 0.973,3.528 2.033,5.056 0.584,0.845 1.454,1.259 2.477,1.35 l 0.331,0.017 c 0.621,0.062 0.944,0.406 0.965,1.031 0.004,0.223 -0.046,0.447 -0.054,0.667 -0.008,0.252 0.12,0.414 0.377,0.463 0.277,0.046 0.555,0.054 0.824,0.116 0.182,0.05 0.439,0.132 0.488,0.265 0.191,0.48 0.613,0.588 1.002,0.787 0.286,0.145 0.534,0.389 0.758,0.634 0.182,0.202 0.319,0.455 0.439,0.703 0.572,1.147 1.284,2.208 2.042,3.235 0.695,0.935 1.403,1.863 2.099,2.795 l 0.278,0.46 C 17.301,62.247 9.951,69.555 9.441,69.928 7.346,68.296 3.102,61.953 1.167,57.551 m 42.503,-32.71 -0.107,0.228 c -0.356,0.311 -0.39,0.671 -0.278,1.122 0.435,1.785 1.093,3.491 1.777,5.189 l 0.186,0.369 c 0.136,0.227 0.327,0.376 0.6,0.405 0.22,0.021 0.444,0.037 0.663,0.037 0.609,0.009 1.222,0 1.834,0.009 0.22,0 0.44,0.021 0.658,0.037 0.274,0.025 0.469,0.149 0.56,0.423 l 0.182,0.467 c 0.223,0.625 0.46,1.247 0.671,1.876 0.203,0.605 0.136,0.779 -0.335,1.143 l -0.278,0.191 c -0.31,0.273 -0.269,0.592 0.116,0.79 l 0.385,0.145 c 0.298,0.071 0.597,0.121 0.895,0.187 0.301,0.066 0.6,0.124 0.889,0.219 0.279,0.092 0.377,0.278 0.316,0.584 l -0.203,0.381 c -0.46,-0.252 -0.869,-0.468 -1.272,-0.7 -0.41,-0.232 -0.791,-0.223 -1.146,0.054 -0.158,0.787 -0.174,0.808 -0.634,1.454 -0.174,0.244 -0.353,0.492 -0.481,0.766 -0.136,0.29 -0.314,0.517 -0.596,0.675 l -0.344,0.232 c -0.455,0.389 -0.542,0.894 -0.224,1.408 l 0.353,0.455 c 0.472,0.51 0.608,1.106 0.46,1.777 -0.12,0.538 -0.233,1.076 -0.369,1.619 -0.116,0.484 -0.195,0.579 -0.667,0.563 -0.546,-0.017 -0.877,0.24 -1.143,0.683 -0.194,0.327 -0.397,0.667 -0.638,0.969 -0.641,0.808 -1.478,1.242 -2.529,1.193 l -0.502,-0.025 c -0.741,-0.046 -1.271,0.281 -1.664,0.894 -0.211,0.323 -0.448,0.634 -0.683,0.936 -0.651,0.832 -0.522,1.214 0.517,1.52 0.228,0.062 0.456,0.149 0.721,0.232 -0.029,0.294 -0.042,0.546 -0.095,0.782 -0.117,0.464 -0.361,0.659 -0.825,0.675 -0.476,0.021 -0.944,-0.045 -1.375,-0.257 l -0.418,-0.372 c 0.216,-0.244 0.398,-0.456 0.543,-0.621 -0.025,-1.002 -0.046,-1.947 -0.07,-2.89 l -0.021,-0.162 c -0.046,-0.613 -0.328,-1.052 -0.928,-1.247 -0.298,-0.09 -0.559,-0.24 -0.782,-0.459 -0.646,-0.63 -1.433,-0.932 -2.332,-0.969 L 34.73,47.791 c -0.244,-0.029 -0.394,-0.183 -0.48,-0.406 l -0.083,-0.319 c -0.158,-0.708 -0.559,-1.201 -1.292,-1.367 -0.596,-0.136 -0.866,-0.526 -0.911,-1.134 0.282,-0.153 0.567,-0.253 0.873,-0.298 0.439,-0.071 0.866,-0.149 1.21,-0.476 0.07,-0.062 0.224,-0.191 0.352,0.016 -0.236,0.298 -0.477,0.6 -0.704,0.882 0.563,0.857 0.936,0.749 1.507,0.103 l 0.166,-0.256 c 0.049,-0.377 -0.34,-0.518 -0.236,-0.866 0.232,0.029 0.447,0.062 0.662,0.079 0.286,0.017 0.477,-0.186 0.431,-0.48 l -0.183,-0.348 c -0.235,-0.22 -0.509,-0.311 -0.84,-0.224 -0.427,0.112 -0.857,0.195 -1.234,0.278 -0.36,-0.232 -0.464,-0.638 -0.844,-0.779 -0.166,0.195 -0.332,0.381 -0.489,0.572 -0.182,0.227 -0.419,0.269 -0.671,0.182 -0.249,-0.092 -0.298,-0.315 -0.311,-0.543 l 0.013,-0.497 c 0.037,-0.496 0.087,-0.997 0.111,-1.494 0.03,-0.443 -0.103,-0.626 -0.534,-0.692 -0.381,-0.062 -0.77,-0.075 -1.155,-0.099 -0.65,-0.029 -1.184,-0.266 -1.569,-0.804 L 28.121,38.44 c -0.269,0.195 -0.447,0.39 -0.563,0.675 0.435,0.53 0.853,1.044 1.267,1.549 -0.174,0.236 -0.319,0.464 -0.605,0.426 -0.356,-0.045 -0.708,-0.111 -1.06,-0.186 -0.269,-0.05 -0.447,-0.211 -0.496,-0.488 l -0.042,-0.493 c 0.042,-0.58 0.091,-1.164 0.145,-1.739 0.017,-0.191 0.012,-0.39 0.249,-0.572 0.244,0.021 0.546,0.025 0.848,0.066 0.299,0.046 0.593,0.133 0.895,0.199 0.542,0.128 1.043,0.046 1.487,-0.311 l 0.331,-0.219 c 0.294,0.609 0.256,0.791 -0.182,1.056 -0.199,0.12 -0.46,0.149 -0.646,0.43 0.791,0.291 1.594,0.381 2.302,0.692 0.178,0.592 -0.042,1.184 0.165,1.756 0.382,-0.025 0.671,-0.145 0.998,-0.315 -0.294,-0.584 -0.571,-1.118 -0.848,-1.673 0.144,-0.228 0.269,-0.439 0.418,-0.637 0.348,-0.468 0.389,-0.978 0.182,-1.499 -0.261,-0.638 -0.518,-1.292 -0.849,-1.897 -0.248,-0.451 -0.617,-0.849 -0.94,-1.263 -0.078,-0.1 -0.186,-0.211 -0.368,-0.132 l -0.257,0.496 c -0.224,0.348 -0.538,0.398 -0.824,0.083 C 29.43,34.117 29.152,33.765 28.916,33.393 28.63,32.941 28.605,32.436 28.866,31.964 29.065,31.6 29.31,31.26 29.545,30.92 l 0.357,-0.31 c 1.114,1.284 2.199,2.505 3.242,3.768 0.985,1.185 1.748,2.497 2.182,3.992 0.153,0.518 0.472,0.932 0.816,1.338 0.464,0.546 1.002,0.55 1.648,0.223 0.232,-0.116 0.286,-0.323 0.29,-0.559 0,-0.215 -0.112,-0.372 -0.319,-0.431 -0.319,-0.083 -0.642,-0.153 -0.969,-0.211 l -0.422,-0.004 0.087,-0.269 c 0.219,-0.22 0.484,-0.369 0.812,-0.369 0.384,0 0.774,0.004 1.163,0 0.667,0 1.255,-0.215 1.718,-0.704 0.493,-0.526 0.721,-1.13 0.435,-1.83 -0.542,-1.342 -1.089,-2.675 -1.66,-3.996 -0.236,-0.538 -0.683,-0.874 -1.267,-0.981 -0.324,-0.058 -0.659,-0.087 -0.994,-0.1 -1.739,-0.066 -3.305,-0.642 -4.737,-1.611 l -0.203,-0.19 0.008,-0.129 0.282,-0.302 c 0.878,-0.778 1.842,-1.429 2.878,-1.963 1.167,-0.608 2.414,-0.965 3.672,-1.324 0.899,-0.27 1.79,-0.381 2.692,0.045 0.75,-0.704 1.57,-0.29 2.414,-0.162 m 38.888,38.544 c 0.352,-0.696 0.737,-1.292 1.222,-1.838 0.36,-0.414 0.658,-0.895 0.915,-1.383 0.22,-0.41 0.368,-0.866 0.513,-1.313 0.559,-1.772 1.102,-3.549 1.661,-5.317 0.062,-0.211 0.153,-0.41 0.236,-0.621 0.19,-0.013 0.36,-0.013 0.521,-0.041 0.775,-0.117 1.11,-0.543 1.006,-1.33 -0.049,-0.352 -0.128,-0.716 -0.268,-1.039 -0.303,-0.716 -0.369,-1.441 -0.249,-2.199 0.166,-1.073 0.31,-2.141 0.452,-3.213 0.111,-0.994 0.202,-1.988 0.306,-2.982 0.033,-0.323 0.025,-0.658 0.19,-0.965 l 0.353,-0.029 c 3.602,0 7.212,-0.004 10.816,0.005 0.157,0 0.318,0.041 0.492,0.07 0,0.314 0.009,0.592 0,0.865 -0.091,3.031 -0.451,6.026 -1.031,9.003 -0.873,4.509 -2.285,8.853 -4.178,13.031 l -0.236,0.39 c -0.435,-0.348 -0.812,-0.675 -1.213,-0.957 -0.518,-0.364 -0.754,-0.344 -1.28,0.045 -0.745,0.547 -1.396,1.185 -1.947,1.922 -0.546,0.733 -1.08,1.482 -1.623,2.215 -0.218,0.29 -0.434,0.576 -0.678,0.841 -0.331,0.356 -0.738,0.601 -1.243,0.58 -0.857,-0.033 -1.511,0.286 -1.892,1.081 l -0.05,0.045 c -0.281,0.054 -0.58,0.045 -0.811,0.166 -1.056,0.538 -2.009,1.171 -2.386,2.41 -0.104,0.352 -0.393,0.662 -0.642,0.952 -0.219,0.257 -0.48,0.223 -0.712,-0.037 l -0.323,-0.373 c -0.161,-0.153 -0.381,-0.14 -0.497,0.054 -0.157,0.257 -0.29,0.534 -0.405,0.811 -0.29,0.663 -0.564,0.729 -1.098,0.22 -0.729,-0.687 -1.441,-1.387 -2.153,-2.083 l -0.319,-0.372 c 0.493,-0.555 0.965,-1.044 1.59,-1.384 0.575,-0.306 1.031,-0.761 1.375,-1.304 0.269,-0.418 0.481,-0.87 0.72,-1.312 0.183,-0.336 0.349,-0.696 0.559,-1.015 0.282,-0.422 0.638,-0.762 1.143,-0.928 0.257,-0.083 0.51,-0.227 0.721,-0.406 0.592,-0.476 0.844,-1.076 0.592,-1.838 z m -71.009,8.762 0.269,-0.322 c 2.791,-2.816 5.591,-5.637 8.39,-8.448 l 0.07,-0.042 0.12,0.009 c 0.228,0.186 0.489,0.402 0.737,0.609 2.087,1.772 4.348,3.271 6.808,4.455 3.54,1.706 7.267,2.717 11.177,3.056 0.405,0.037 0.811,0.104 1.25,0.162 0.012,0.178 0.033,0.314 0.033,0.447 v 11.495 c 0,0.158 -0.054,0.311 -0.087,0.505 C 29.293,83.539 19.728,79.622 11.549,72.147 m 51.567,-8.753 c 0.659,0.505 8.411,8.215 8.845,8.787 -1.672,1.834 -6.286,5.114 -9.727,6.911 -5.048,2.638 -10.423,4.166 -16.079,4.774 -1.404,0.154 -2.418,0.22 -2.982,0.095 l -0.045,-0.48 c -0.004,-3.772 -0.004,-7.544 0,-11.317 0,-0.182 0.054,-0.364 0.091,-0.592 7.566,-0.472 14.216,-3.114 19.897,-8.178 m 3.031,20.758 c 0.671,0.398 1.068,0.377 1.541,-0.116 0.178,-0.178 0.323,-0.381 0.468,-0.584 0.455,-0.629 0.915,-1.259 1.366,-1.896 0.228,-0.327 0.518,-0.58 0.928,-0.634 0.998,-0.145 1.759,-0.795 2.621,-1.226 0.406,-0.198 0.593,-0.571 0.584,-1.027 -0.004,-0.223 -0.021,-0.447 -0.013,-0.666 0.022,-0.282 0.187,-0.46 0.456,-0.522 l 0.41,-0.045 0.381,-0.216 -0.149,-0.157 -0.22,-0.12 c -0.401,-0.253 -0.468,-0.501 -0.202,-0.886 0.235,-0.344 0.525,-0.642 0.923,-0.915 0.588,0.529 1.192,1.002 1.648,1.635 0.352,0.493 0.526,1.039 0.481,1.644 -0.054,0.783 -0.237,1.54 -0.634,2.224 -0.161,0.281 -0.39,0.542 -0.63,0.757 -0.464,0.407 -0.998,0.473 -1.548,0.183 -0.29,-0.162 -0.572,-0.34 -0.853,-0.518 -0.303,-0.199 -0.601,-0.401 -0.924,-0.621 -0.368,0.634 -0.666,1.255 -0.952,1.88 -0.315,0.704 -0.414,1.433 -0.294,2.195 0.029,0.244 0.062,0.493 0.07,0.741 0.009,0.617 -0.265,1.068 -0.824,1.333 -0.195,0.095 -0.398,0.178 -0.642,0.29 -0.215,0.758 -0.431,1.532 -0.65,2.306 -0.066,0.27 -0.066,0.584 -0.215,0.796 -0.571,0.82 -1.143,1.677 -2.327,1.636 l -0.162,0.078 c 0.095,0.394 0.19,0.791 0.298,1.226 -0.302,0.157 -0.563,0.323 -0.833,0.439 -1.196,0.509 -2.384,1.055 -3.61,1.499 -4.944,1.784 -10.021,3.052 -15.243,3.673 -0.936,0.111 -1.88,0.128 -2.824,0.157 -0.459,0.021 -0.927,-0.008 -1.387,-0.166 -0.013,-0.236 -0.029,-0.426 -0.029,-0.621 -0.004,-0.637 -0.004,-1.275 -0.004,-1.913 0,-2.745 0,-5.499 0.004,-8.245 0,-0.293 -0.054,-0.604 0.12,-0.927 1.151,-0.128 2.298,-0.286 3.458,-0.377 2.103,-0.174 4.19,-0.488 6.215,-1.081 2.344,-0.683 4.679,-1.391 7.003,-2.115 0.443,-0.137 0.861,-0.381 1.266,-0.613 0.423,-0.237 0.821,-0.327 1.243,-0.025 0.199,0.14 0.41,0.17 0.625,0.087 0.252,-0.087 0.481,-0.104 0.716,0.062 l 0.381,0.145 c 0.709,0.215 0.709,0.211 0.933,0.878 l 0.161,-0.034 c 0.675,-0.5 1.068,-1.184 1.242,-1.996 0.037,-0.14 -0.02,-0.297 -0.037,-0.492 -0.729,0.31 -1.392,0.397 -2.025,-0.067 0.435,-0.443 2.927,-1.95 3.627,-2.186 l 0.062,0.286 c -0.087,0.265 -0.202,0.521 -0.314,0.77 -0.261,0.563 -0.439,1.126 -0.422,1.76 0.024,0.613 -0.224,1.134 -0.692,1.54 -0.253,0.22 -0.502,0.439 -0.572,0.787 M 1.155,-3.006 c 0.195,-0.158 0.352,-0.274 0.493,-0.402 4.58,-4.178 9.636,-7.657 15.259,-10.282 4.899,-2.29 10.022,-3.864 15.367,-4.7 1.508,-0.232 3.019,-0.426 4.535,-0.592 1.019,-0.112 2.045,-0.145 3.072,-0.203 0.154,-0.017 0.311,0.033 0.489,0.058 0.012,0.207 0.033,0.373 0.033,0.534 v 10.651 c 0,0.186 -0.041,0.377 -0.066,0.588 -1.031,0.083 -2.025,0.141 -3.015,0.252 -0.993,0.1 -1.979,0.228 -2.969,0.385 -0.985,0.154 -1.967,0.327 -2.94,0.547 -0.973,0.211 -1.938,0.472 -2.894,0.753 -0.986,0.286 -1.959,0.605 -2.924,0.953 -0.936,0.339 -1.867,0.712 -2.774,1.114 -0.911,0.406 -1.814,0.84 -2.696,1.3 -0.886,0.46 -1.756,0.948 -2.613,1.458 -0.853,0.509 -1.69,1.051 -2.575,1.607 C 14.878,0.795 14.825,0.646 14.8,0.484 14.634,-0.427 14.059,-0.978 13.226,-1.288 12.779,-1.454 12.323,-1.553 11.843,-1.549 11.346,-1.541 10.841,-1.544 10.344,-1.528 9.777,-1.503 9.243,-1.603 8.729,-1.838 8.402,-1.988 8.063,-2.116 7.739,-2.27 7.16,-2.539 6.58,-2.808 6.017,-3.102 5.599,-3.321 5.188,-3.354 4.746,-3.164 4.091,-2.861 3.424,-2.584 2.766,-2.303 2.05,-1.992 1.917,-2.021 1.416,-2.625 1.346,-2.708 1.292,-2.808 1.155,-3.006 m 83.39,2.157 c 2.49,2.654 4.713,5.487 6.693,8.506 1.983,3.022 3.68,6.203 5.068,9.54 1.396,3.338 2.439,6.783 3.196,10.32 0.812,3.826 1.421,9.619 1.165,10.716 l -0.316,0.029 c -3.66,0.005 -7.325,0.005 -10.989,0 l -0.414,-0.058 c -0.03,-0.232 -0.059,-0.422 -0.067,-0.613 -0.12,-2.273 -0.406,-4.526 -0.833,-6.77 C 86.993,25.23 84.976,20.005 81.987,15.16 80.409,12.605 78.591,10.22 76.586,7.983 76.421,7.81 76.185,7.673 76.185,7.383 77.022,6.418 79.44,4.066 79.97,3.718 l 0.191,0.344 c 0.181,0.522 0.351,1.048 0.525,1.578 0.066,0.182 0.12,0.373 0.203,0.542 0.12,0.261 0.357,0.365 0.621,0.282 L 81.961,6.261 C 82.914,5.698 83.523,4.866 83.846,3.818 84.048,3.172 84.082,2.505 84.061,1.838 84.044,1.312 83.995,0.787 83.966,0.257 83.937,-0.178 83.991,-0.576 84.545,-0.849 M 7.313,71.887 c -0.58,0.724 -7.835,7.95 -8.369,8.34 -5.416,-5.843 -9.619,-12.436 -12.44,-19.91 -2.596,-6.886 -3.743,-15.239 -3.606,-19.123 l 0.224,-0.07 c 3.751,-0.004 7.495,-0.004 11.246,-0.004 l 0.249,0.078 c 0.14,1.408 0.248,2.816 0.434,4.212 0.187,1.399 0.402,2.799 0.696,4.182 0.29,1.383 0.646,2.758 1.06,4.108 0.402,1.321 0.874,2.633 1.396,3.909 0.538,1.316 1.13,2.6 1.78,3.855 0.65,1.255 1.371,2.48 2.137,3.665 0.766,1.188 1.598,2.335 2.46,3.461 0.861,1.118 1.797,2.179 2.733,3.297 m 2.132,2.19 c 0.915,0.758 1.764,1.466 2.626,2.17 3.929,3.197 8.257,5.702 12.982,7.52 4.331,1.661 8.812,2.629 13.449,2.861 0.418,0.021 0.833,0.046 1.247,0.1 0.463,0.058 0.638,0.228 0.708,0.675 0.033,0.19 0.033,0.389 0.029,0.579 -0.004,0.671 -0.025,1.334 -0.029,1.997 -0.004,2.447 0,4.89 -0.004,7.333 0,0.307 -0.004,0.613 -0.034,0.911 -0.012,0.157 -0.078,0.306 -0.14,0.497 -1.47,-0.112 -2.911,-0.182 -4.34,-0.336 C 33.124,98.082 30.333,97.61 27.583,96.935 17.657,94.5 9.036,89.685 1.541,82.79 L 1.209,82.409 c 2.749,-2.787 5.462,-5.524 8.236,-8.332 m -21.864,-86.189 0.336,0.281 c 3.022,3.027 6.041,6.05 9.064,9.077 l 0.033,0.075 0.025,0.107 -0.468,0.439 c -0.625,0.551 -1.246,1.106 -1.88,1.644 C -5.731,-0.128 -6.108,0.269 -6.39,0.766 -6.799,1.495 -7.42,2 -8.278,2.124 -8.576,2.166 -8.795,2.29 -8.974,2.521 -9.665,3.424 -10.46,4.252 -10.928,5.309 l -0.145,0.124 c -0.166,-0.058 -0.352,-0.112 -0.53,-0.17 -0.923,-0.282 -1.371,-0.153 -1.971,0.6 -0.29,0.365 -0.572,0.75 -0.824,1.148 -0.704,1.093 -1.586,2.004 -2.708,2.654 -0.456,0.265 -0.919,0.518 -1.4,0.733 -0.538,0.232 -0.977,0.526 -1.068,1.164 -0.033,0.269 -0.203,0.434 -0.464,0.517 l -0.191,-0.17 c -0.791,-0.712 -1.61,-0.679 -2.327,0.1 -0.265,0.285 -0.497,0.6 -0.762,0.882 -0.203,0.219 -0.344,0.505 -0.687,0.666 -0.298,-0.261 -0.687,-0.414 -0.956,-0.765 0.173,-0.229 0.335,-0.419 0.463,-0.626 0.178,-0.286 0.373,-0.567 0.48,-0.874 0.249,-0.716 0.1,-1.35 -0.48,-1.851 l -0.182,0.083 c -0.336,0.406 -0.65,0.832 -1.007,1.222 -0.252,0.285 -0.389,0.592 -0.281,0.961 -0.257,0.235 -0.493,0.426 -0.704,0.645 l -0.24,0.419 c -0.166,0.782 0.037,1.229 0.721,1.681 l 0.074,0.166 -0.41,0.339 c -0.228,-0.24 -0.414,-0.439 -0.617,-0.659 -0.356,0.195 -0.712,0.34 -0.985,0.68 0.488,0.791 0.405,1.648 0.294,2.509 -0.029,0.191 -0.062,0.385 -0.079,0.576 -0.013,0.161 0,0.318 0,0.513 h 0.468 c 0.07,-0.248 0.133,-0.489 0.198,-0.721 0.071,-0.223 0.142,-0.447 0.224,-0.72 0.327,0.306 0.327,0.658 0.344,0.973 0.008,0.298 -0.083,0.6 -0.17,0.891 -0.07,0.219 -0.269,0.348 -0.497,0.397 l -0.497,0.066 c -0.207,0.054 -0.319,0.274 -0.215,0.448 0.149,0.26 0.327,0.509 0.514,0.786 0.322,-0.198 0.6,-0.372 0.898,-0.559 0.571,0.245 1.01,0.671 1.495,1.09 -0.207,0.223 -0.393,0.414 -0.597,0.621 0.332,0.322 0.684,0.529 1.057,0.708 0.339,0.153 0.591,0.066 0.757,-0.278 0.129,-0.273 0.22,-0.567 0.319,-0.857 l 0.129,-0.481 c 0.12,-0.314 0.356,-0.434 0.658,-0.314 0.257,0.095 0.489,0.236 0.629,0.58 -0.36,0.053 -0.675,0.103 -0.977,0.148 -0.112,0.291 -0.112,0.522 0.112,0.742 0.169,0.012 0.36,0.041 0.555,0.041 0.161,0.005 0.323,-0.029 0.517,-0.045 0.025,-0.269 0.042,-0.506 0.062,-0.745 0.311,0 0.506,0.14 0.671,0.339 0.141,0.17 0.278,0.348 0.439,0.505 0.601,0.567 1.069,0.547 1.628,-0.095 0.178,-0.199 0.323,-0.443 0.476,-0.675 0.48,-0.708 0.749,-0.82 1.474,-0.265 l 0.099,0.178 c -0.111,0.394 -0.235,0.82 -0.36,1.242 -1.056,3.661 -1.788,7.388 -2.124,11.189 -0.116,1.321 -0.191,2.654 -0.286,3.984 -0.012,0.157 -0.049,0.314 -0.087,0.518 h -0.865 c -3.831,0 -7.661,0 -11.491,-0.005 -0.299,-0.004 -0.618,0.099 -0.932,-0.153 0.335,-9.524 2.195,-18.746 5.926,-27.562 3.577,-8.447 8.621,-15.93 14.944,-22.659 m 96.774,7.172 c -0.281,-0.249 -0.488,-0.427 -0.688,-0.613 -2.438,-2.278 -5.039,-4.348 -7.846,-6.157 -0.874,-0.56 -1.706,-1.135 -2.307,-2.001 -0.207,-0.302 -0.505,-0.493 -0.874,-0.596 -0.878,-0.24 -1.606,-0.733 -2.244,-1.375 -0.646,-0.654 -1.358,-1.226 -2.199,-1.619 -0.464,-0.215 -0.869,-0.526 -1.114,-0.973 -0.277,-0.505 -0.7,-0.679 -1.23,-0.708 -0.699,-0.029 -1.27,-0.352 -1.793,-0.795 -0.19,-0.158 -0.355,-0.352 -0.551,-0.505 -0.492,-0.402 -1.014,-0.605 -1.689,-0.468 -0.873,0.173 -1.743,0.356 -2.568,0.691 -0.587,0.245 -1.183,0.265 -1.793,0.158 -2.236,-0.394 -4.471,-0.82 -6.716,-1.197 -1.42,-0.244 -2.845,-0.447 -4.274,-0.63 -0.935,-0.12 -1.884,-0.169 -2.82,-0.257 -0.152,-0.015 -0.306,-0.07 -0.492,-0.119 0,-4.286 0,-8.531 0.004,-12.775 l 0.058,-0.302 c 1.971,-0.212 8.849,0.447 13.967,1.511 8.726,1.822 16.862,5.081 24.398,9.835 4.096,2.58 10.874,7.892 12.105,9.528 -3.085,3.093 -6.17,6.195 -9.334,9.367 m 2.34,87.386 0.074,-0.228 c 0.277,-0.6 0.774,-1.01 1.292,-1.383 1.068,-0.774 1.967,-1.714 2.737,-2.774 0.402,-0.551 0.858,-1.015 1.595,-1.168 0.161,-0.559 0.605,-0.907 0.997,-1.296 0.262,-0.244 0.485,-0.534 0.688,-0.828 0.319,-0.452 0.589,-0.936 0.903,-1.392 0.298,-0.439 0.617,-0.869 0.695,-1.403 0.054,-0.377 0.237,-0.588 0.56,-0.754 0.484,-0.24 0.894,-0.588 1.146,-1.056 0.41,-0.758 0.775,-1.536 1.131,-2.315 0.182,-0.372 0.07,-0.7 -0.265,-0.952 -0.236,-0.182 -0.472,-0.365 -0.692,-0.534 0.58,-1.379 1.168,-2.696 1.694,-4.038 0.518,-1.346 1.002,-2.704 1.433,-4.078 0.431,-1.375 0.819,-2.763 1.155,-4.166 0.335,-1.429 0.621,-2.874 0.862,-4.324 0.235,-1.42 0.414,-2.853 0.558,-4.285 0.146,-1.429 0.207,-2.862 0.307,-4.294 l 0.277,-0.071 c 4.274,0.004 8.547,0.008 12.817,0.013 l 0.203,0.099 c 0,0.236 0.008,0.509 0,0.779 -0.063,2.053 -0.253,4.099 -0.481,6.14 -0.373,3.313 -0.957,6.585 -1.759,9.822 -3.172,12.75 -9.442,23.799 -18.37,33.385 l -0.348,0.302 c -0.6,-0.459 -8.775,-8.626 -9.209,-9.201 M 103.544,38.184 C 102.915,22.452 97.292,8.833 86.666,-2.667 l 0.02,-0.141 c 2.949,-2.973 5.893,-5.954 8.842,-8.936 l 0.305,-0.277 0.08,-0.038 h 0.12 l 0.281,0.257 c 0.484,0.526 0.974,1.06 1.449,1.603 5.011,5.673 9.168,11.905 12.336,18.791 2.75,5.984 4.621,12.237 5.723,18.726 0.356,2.103 0.621,4.232 0.8,6.356 0.12,1.329 0.173,2.659 0.24,3.988 0.016,0.182 -0.029,0.364 -0.05,0.534 -0.882,0.103 -12.519,0.095 -13.268,-0.012 M -0.754,-4.974 -1.085,-5.259 c -2.981,-2.982 -5.963,-5.971 -8.944,-8.961 l -0.042,-0.066 v -0.083 c 1.528,-1.88 8.589,-7.33 12.941,-9.992 7.283,-4.465 15.118,-7.533 23.475,-9.288 4.898,-1.036 11.718,-1.723 13.979,-1.537 0.021,0.179 0.063,0.36 0.063,0.551 v 12.075 c 0,0.183 -0.046,0.364 -0.075,0.613 -3.818,0.149 -7.557,0.584 -11.255,1.354 -3.702,0.77 -7.305,1.864 -10.804,3.301 -3.524,1.444 -6.878,3.221 -10.07,5.304 -3.168,2.062 -6.117,4.41 -8.937,7.014 M 40.32,114.712 c -0.886,0.067 -1.71,-0.049 -2.542,-0.095 -2.965,-0.149 -5.909,-0.509 -8.841,-1.006 -3.756,-0.63 -7.437,-1.549 -11.048,-2.758 C 7.404,107.346 -1.76,101.644 -9.852,94.148 l -0.297,-0.343 c 0.563,-0.717 8.737,-8.899 9.341,-9.359 0.183,0.158 0.377,0.315 0.563,0.476 0.626,0.551 1.239,1.114 1.876,1.653 6.494,5.507 13.769,9.602 21.923,12.104 3.776,1.159 7.635,1.938 11.557,2.368 1.598,0.182 3.205,0.253 4.812,0.373 l 0.431,0.062 c 0.02,0.224 0.045,0.414 0.049,0.601 0.083,4.782 0.046,11.764 -0.083,12.629 M -12.348,91.593 c -2.485,-2.136 -8.133,-9.64 -11.019,-14.646 -4.274,-7.4 -7.123,-15.318 -8.672,-23.719 -0.712,-3.847 -1.382,-10.568 -1.155,-12.071 l 0.219,-0.062 c 4.249,-0.005 8.494,-0.005 12.738,0 l 0.282,0.078 c 0.02,0.186 0.037,0.373 0.045,0.559 0.096,1.831 0.22,3.657 0.439,5.475 0.336,2.815 0.857,5.59 1.59,8.327 2.651,9.889 7.45,18.601 14.399,26.121 0.182,0.207 0.356,0.414 0.496,0.572 -3.126,3.13 -6.223,6.224 -9.362,9.366 m 89.27,3.773 -0.025,0.025 c 0.419,-0.39 0.928,-0.7 1.205,-1.226 0.187,-0.36 0.468,-0.514 0.878,-0.501 0.65,0.017 1.197,-0.265 1.619,-0.737 0.663,-0.745 1.321,-1.503 1.939,-2.286 0.405,-0.501 0.629,-1.098 0.682,-1.76 0.067,-0.762 0.199,-0.911 0.957,-1.134 0.572,-0.174 0.779,-0.406 0.803,-1.011 0.021,-0.439 -0.028,-0.882 -0.037,-1.329 l 0.079,-0.361 0.153,0.042 c 2.812,2.845 5.619,5.69 8.427,8.538 l 0.107,0.207 c -2.003,2.353 -9.565,8.046 -14.468,10.899 -7.483,4.349 -15.495,7.247 -24.009,8.8 -3.623,0.658 -10.481,1.346 -12.022,1.118 l -0.049,-0.381 c -0.004,-3.002 -0.004,-5.996 0.004,-8.998 0,-0.1 -0.025,-0.228 0.149,-0.269 l 0.183,0.116 c 0.534,0.48 1.171,0.733 1.871,0.82 0.389,0.053 0.77,0.086 1.155,0.157 1.044,0.178 2.079,0.343 3.11,0.572 0.919,0.207 1.789,0.575 2.634,1.018 0.596,0.323 1.238,0.497 1.917,0.249 0.675,-0.249 1.358,-0.473 2.075,-0.593 l 0.236,-0.087 0.129,-0.422 c -0.125,-0.244 -0.324,-0.385 -0.584,-0.422 -0.464,-0.058 -0.932,-0.129 -1.405,-0.141 -0.753,-0.017 -1.486,-0.095 -2.219,-0.282 -1.325,-0.335 -2.671,-0.501 -4.041,-0.277 l -0.34,-0.017 c -0.137,-0.546 -0.025,-1.023 0.186,-1.478 0.228,-0.476 0.493,-0.932 0.734,-1.4 0.082,-0.157 0.194,-0.31 0.161,-0.53 -0.642,0.054 -1.156,0.236 -1.586,0.692 -0.257,0.277 -0.613,0.48 -0.952,0.654 -0.825,0.427 -2.279,0.65 -3.313,0.543 -0.154,-0.675 -0.15,-1.988 0.016,-2.638 l 0.468,-0.091 c 1.243,-0.112 2.485,-0.22 3.727,-0.336 2.435,-0.223 4.849,-0.621 7.238,-1.088 4.821,-0.941 9.412,-2.552 13.831,-4.676 0.199,-0.099 0.402,-0.186 0.6,-0.285 0.382,-0.187 0.733,-0.179 1.09,0.082 0.845,0.605 1.805,0.812 2.832,0.796 1.312,-0.021 2.6,-0.208 3.855,-0.572 M 41.244,-38.031 c -1.934,-0.024 -4.539,0.113 -7.139,0.377 -15.392,1.578 -29.194,7.118 -41.231,16.859 -13.268,10.732 -22.043,24.418 -26.407,40.92 -0.903,3.408 -1.529,6.874 -1.93,10.381 -0.315,2.708 -0.485,5.416 -0.522,8.137 -0.05,3.284 0.079,6.551 0.422,9.814 1.384,13.023 5.827,24.9 13.388,35.6 4.207,5.95 9.056,11.305 14.713,15.922 8.833,7.213 18.779,12.24 29.823,15.11 3.039,0.791 6.12,1.379 9.226,1.781 3.532,0.455 7.073,0.667 10.638,0.575 1.802,-0.045 3.603,-0.083 5.408,-0.223 1.905,-0.145 3.802,-0.381 5.706,-0.613 2.369,-0.294 4.704,-0.775 7.032,-1.313 10.278,-2.414 19.616,-6.837 27.997,-13.238 7.639,-5.827 14.145,-12.725 19.38,-20.8 4.898,-7.558 8.264,-15.748 10.128,-24.565 0.613,-2.935 1.052,-5.892 1.346,-8.882 0.274,-2.795 0.372,-5.594 0.364,-8.397 -0.008,-4.506 -0.364,-8.991 -1.114,-13.43 -1.863,-10.923 -5.896,-20.965 -12.282,-30.03 -6.973,-9.905 -15.645,-17.988 -26.133,-24.076 -6.576,-3.813 -13.599,-6.492 -21.032,-8.099 -2.766,-0.592 -5.557,-1.039 -8.377,-1.333 -2.903,-0.307 -5.81,-0.468 -9.404,-0.477"
       style="fill:#5381c1;fill-opacity:1;fill-rule:nonzero;stroke:none"
       transform="matrix(0.35277776,0,0,-0.35277776,39.782746,75.04151)"
       clip-path="url(#clipPath2)" />
    <path
       id="path3"
       d="m 0,0 c -0.041,-0.232 -0.257,-0.265 -0.41,-0.364 -3.594,-2.39 -7.528,-4.013 -11.69,-5.102 -2.443,-0.642 -4.927,-1.073 -7.437,-1.384 -2.128,-0.255 -4.261,-0.376 -6.398,-0.392 -2,-0.017 -3.987,0.107 -5.979,0.364 -4.985,0.642 -9.748,2.083 -14.39,3.983 -3.338,1.367 -6.724,2.592 -10.141,3.74 -1.533,0.513 -3.106,0.799 -4.725,0.878 -1.085,0.053 -2.17,0.029 -3.251,-0.03 l -0.322,-0.041 c 0.087,-0.256 0.298,-0.265 0.464,-0.331 2.666,-1.097 5.3,-2.282 7.839,-3.652 3.382,-1.818 6.591,-3.898 9.556,-6.349 1.926,-1.598 3.673,-3.379 5.168,-5.403 0.162,-0.216 0.311,-0.443 0.497,-0.713 -0.34,-0.298 -0.737,-0.431 -1.097,-0.621 -0.365,-0.198 -0.742,-0.377 -1.114,-0.555 -0.364,-0.186 -0.741,-0.368 -1.143,-0.567 -0.211,0.224 -0.409,0.414 -0.588,0.617 -0.899,1.023 -1.789,2.054 -2.688,3.072 -3.569,4.054 -7.672,7.466 -12.397,10.105 -2.534,1.407 -5.189,2.505 -7.972,3.32 -0.89,0.262 -1.739,0.249 -2.613,-0.004 -1.842,-0.538 -3.635,-1.213 -5.354,-2.05 -6.182,-3.001 -11.507,-7.101 -15.884,-12.414 -0.58,-0.708 -1.102,-1.458 -1.653,-2.19 -0.136,-0.179 -0.265,-0.353 -0.381,-0.518 -0.691,0.203 -3.118,1.433 -3.665,1.851 l 0.212,0.331 c 2.215,2.924 4.866,5.396 7.801,7.574 3.338,2.468 6.949,4.468 10.717,6.195 1.437,0.658 2.878,1.308 4.315,1.962 l 0.418,0.216 c -0.041,0.211 -0.182,0.141 -0.273,0.145 -0.721,0.013 -1.445,0.02 -2.166,0.024 -2.348,0.013 -4.63,-0.442 -6.878,-1.096 -2.294,-0.667 -4.501,-1.566 -6.704,-2.49 -2.605,-1.092 -5.222,-2.17 -7.922,-3.022 -2.675,-0.845 -5.399,-1.503 -8.182,-1.868 -3.056,-0.397 -6.129,-0.563 -9.214,-0.397 -4.228,0.232 -8.39,0.849 -12.46,2.032 -3.346,0.97 -6.522,2.34 -9.495,4.163 -0.422,0.26 -0.853,0.513 -1.276,0.981 0.22,-0.05 0.348,-0.054 0.448,-0.104 1.677,-0.753 3.445,-1.035 5.267,-1.068 1.975,-0.046 3.934,0.174 5.884,0.451 4.427,0.634 8.754,1.727 13.089,2.8 4.473,1.106 8.966,2.095 13.521,2.799 2.215,0.348 4.443,0.679 6.675,0.924 3.176,0.347 6.369,0.331 9.561,0.103 4.75,-0.343 9.401,-1.23 13.972,-2.555 0.629,-0.182 1.238,-0.195 1.88,-0.049 2.216,0.505 4.439,0.985 6.667,1.461 2.468,0.522 4.961,0.907 7.478,1.122 2.58,0.223 5.156,0.203 7.736,0.005 5.706,-0.436 11.35,-1.305 16.92,-2.63 3.722,-0.886 7.441,-1.784 11.164,-2.658 2.273,-0.531 4.55,-1.011 6.857,-1.363 2.277,-0.352 4.575,-0.506 6.887,-0.377 1.449,0.078 2.856,0.406 4.182,0.998 C -0.368,0 -0.36,-0.004 0,0"
       style="fill:#5381c1;fill-opacity:1;fill-rule:nonzero;stroke:none"
       transform="matrix(0.35277776,0,0,-0.35277776,79.041515,93.811933)"
       clip-path="url(#clipPath4)" />
    <path
       id="path5"
       d="m 0,0 0.368,-0.054 c 0.331,0.303 0.663,0.597 0.969,0.919 2.038,2.199 4.142,4.332 6.332,6.382 3.793,3.553 7.793,6.845 12.054,9.831 0.886,0.621 1.76,1.258 2.637,1.892 2.403,1.71 4.622,3.627 6.717,5.71 1.061,1.06 2.129,2.112 3.189,3.168 0.38,0.393 0.746,0.803 1.193,1.292 -0.033,-0.232 -0.038,-0.369 -0.07,-0.497 C 30.816,19.048 25.959,10.875 18.295,4.477 13.441,0.427 7.896,-2.269 1.764,-3.768 -0.501,-4.323 -2.804,-4.671 -5.123,-4.895 -5.582,-4.94 -6.05,-5.006 -6.506,-4.902 c -0.128,0.339 0.083,0.567 0.203,0.802 0.729,1.479 1.242,3.024 1.619,4.626 0.315,1.326 0.468,2.675 0.614,4.025 0.294,2.709 0.869,5.367 1.643,7.971 1.839,6.204 4.451,12.071 7.636,17.686 1.268,2.249 2.634,4.439 4.075,6.58 0.157,0.228 0.327,0.443 0.505,0.659 l 0.265,0.116 C 10.066,37.19 10.087,36.867 10.096,36.54 10.137,34.126 10.17,31.711 9.946,29.302 9.802,27.786 9.64,26.266 9.433,24.759 9.085,22.229 8.63,19.715 7.979,17.247 7.18,14.175 6.149,11.197 4.745,8.349 4.273,7.4 3.817,6.452 3.375,5.499 2.969,4.638 2.431,3.868 1.884,3.098 1.453,2.484 1.022,1.872 0.612,1.247 0.355,0.857 0.116,0.447 0,0"
       style="fill:#5381c1;fill-opacity:1;fill-rule:nonzero;stroke:none"
       transform="matrix(0.35277776,0,0,-0.35277776,78.191602,85.893729)"
       clip-path="url(#clipPath6)" />
    <path
       id="path7"
       d="m 0,0 0.277,0.017 0.324,-0.373 c 4.571,-6.737 8.36,-13.872 10.985,-21.603 0.891,-2.63 1.678,-5.288 2.145,-8.03 0.241,-1.39 0.436,-2.799 0.584,-4.207 0.274,-2.558 0.928,-5.011 2.079,-7.325 0.132,-0.27 0.307,-0.521 0.339,-0.861 -0.414,-0.096 -0.798,-0.037 -1.179,-0.004 -2.908,0.244 -5.781,0.712 -8.593,1.511 -8.94,2.542 -16.245,7.528 -21.918,14.891 -3.95,5.126 -6.621,10.882 -8.327,17.106 l -0.038,0.244 0.046,0.145 0.401,-0.36 c 0.957,-1.039 1.893,-2.112 2.875,-3.13 1.871,-1.943 3.966,-3.636 6.136,-5.235 2.212,-1.636 4.46,-3.213 6.655,-4.869 5.727,-4.328 11.031,-9.131 15.889,-14.419 0.339,-0.365 0.712,-0.696 1.085,-1.032 l 0.302,-0.07 c -0.071,0.613 -0.141,0.837 -0.373,1.188 L 9.5,-36.142 c -3.363,4.414 -5.595,9.363 -7.02,14.701 -0.778,2.902 -1.312,5.846 -1.677,8.824 C 0.584,-10.795 0.344,-8.978 0.22,-7.155 0.083,-5.188 0.066,-3.217 0.004,-1.246 -0.008,-0.836 0,-0.422 0,0"
       style="fill:#5381c1;fill-opacity:1;fill-rule:nonzero;stroke:none"
       transform="matrix(0.35277776,0,0,-0.35277776,27.28877,72.669219)"
       clip-path="url(#clipPath8)" />
    <path
       id="path9"
       d="m 0,0 c -0.062,0.314 -0.282,0.339 -0.456,0.377 -1.863,0.435 -3.313,1.516 -4.571,2.89 -1.752,1.913 -3.23,4.025 -4.576,6.241 -1.599,2.638 -2.936,5.407 -4.178,8.227 -1.768,4.017 -3.292,8.125 -4.796,12.241 -0.053,0.162 -0.223,0.352 0.03,0.543 0.227,-0.009 0.364,-0.199 0.526,-0.328 2.062,-1.61 3.958,-3.399 5.792,-5.258 3.947,-4.009 7.454,-8.373 10.515,-13.094 0.857,-1.329 1.648,-2.7 2.339,-4.125 C 2.451,3.975 5.11,0.923 8.41,-1.586 8.721,-1.822 9.04,-2.042 9.35,-2.277 L 9.689,-2.613 C 9.454,-2.708 9.284,-2.783 9.11,-2.837 7.147,-3.438 5.135,-3.843 3.114,-4.199 c -2.108,-0.368 -4.203,-0.754 -6.311,-1.11 -1.996,-0.332 -4,-0.646 -6.033,-0.7 -4.187,-0.111 -8.224,0.651 -12.113,2.199 -4.347,1.731 -8.244,4.207 -11.802,7.226 -3.171,2.7 -5.892,5.797 -8.228,9.238 -0.177,0.27 -0.434,0.505 -0.418,0.915 0.758,0 1.45,-0.181 2.071,-0.55 0.427,-0.252 0.845,-0.546 1.197,-0.895 1.279,-1.275 2.791,-2.178 4.455,-2.853 1.569,-0.637 3.21,-1.068 4.849,-1.47 2.878,-0.716 5.781,-1.346 8.642,-2.12 3.425,-0.927 6.812,-1.979 10.22,-2.977 C -7.351,1.826 -4.344,0.952 -1.342,0.066 -0.903,-0.066 -0.477,-0.141 0,0"
       style="fill:#5381c1;fill-opacity:1;fill-rule:nonzero;stroke:none"
       transform="matrix(0.35277776,0,0,-0.35277776,38.549576,90.263481)"
       clip-path="url(#clipPath10)" />
    <path
       id="path11"
       d="m 0,0 c 0.074,-0.277 0.252,-0.245 0.414,-0.203 0.592,0.124 1.189,0.269 1.78,0.401 1.897,0.444 3.723,1.094 5.582,1.665 3.235,0.99 6.456,2.021 9.706,2.956 1.674,0.481 3.392,0.821 5.107,1.168 3.072,0.642 6.074,1.52 9.056,2.493 0.787,0.261 1.569,0.542 2.369,0.783 1.299,0.385 2.451,1.027 3.507,1.859 0.517,0.414 1.04,0.837 1.537,1.275 0.761,0.659 1.627,1.044 2.621,1.152 l 0.388,-0.017 -0.186,-0.401 C 37.679,6.994 32.506,1.892 25.951,-1.719 c -3.312,-1.822 -6.811,-3.11 -10.53,-3.78 -1.798,-0.323 -3.615,-0.584 -5.454,-0.547 -1.479,0.025 -2.94,0.157 -4.389,0.41 -3.938,0.675 -7.868,1.379 -11.794,2.104 -1.006,0.19 -1.987,0.497 -2.981,0.758 -0.095,0.02 -0.187,0.065 -0.368,0.14 0.301,0.24 0.529,0.431 0.769,0.613 1.309,0.99 2.572,2.025 3.711,3.217 1.817,1.889 3.375,3.989 4.534,6.344 2.394,4.874 5.545,9.227 9.222,13.193 2.269,2.444 4.621,4.804 6.928,7.205 0.795,0.825 1.685,1.533 2.637,2.154 0.137,0.087 0.286,0.161 0.49,0.269 L 18.704,29.993 C 16.456,23.545 14.029,17.164 10.704,11.172 9.735,9.425 8.7,7.714 7.545,6.078 6.741,4.948 5.859,3.876 4.845,2.919 3.893,2.017 2.832,1.267 1.599,0.786 1.155,0.612 0.729,0.414 0.302,0.219 Z"
       style="fill:#5381c1;fill-opacity:1;fill-rule:nonzero;stroke:none"
       transform="matrix(0.35277776,0,0,-0.35277776,70.451518,90.256602)"
       clip-path="url(#clipPath12)" />
    <path
       id="path13"
       d="m 0,0 c 0.062,-1.988 0.107,-3.839 -0.157,-5.69 -0.518,-3.648 -1.507,-7.155 -3.098,-10.497 -1.366,-2.866 -3.101,-5.503 -5.039,-8.017 -1.399,-1.81 -2.907,-3.507 -4.646,-4.99 -1.487,-1.263 -3.081,-2.372 -4.812,-3.263 -1.503,-0.778 -2.795,-1.801 -3.938,-3.035 -0.546,-0.592 -1.069,-1.205 -1.615,-1.798 -1.09,-1.18 -2.195,-2.356 -3.297,-3.527 -0.131,-0.137 -0.285,-0.253 -0.48,-0.419 l -0.169,0.377 c 0.032,0.331 0.115,0.658 0.157,0.985 0.095,0.775 0.232,1.545 0.252,2.315 0.063,2.22 0.116,4.439 0.092,6.659 -0.017,1.358 -0.175,2.713 -0.29,4.067 -0.24,2.931 -0.597,5.859 -0.684,8.799 -0.099,3.056 -0.024,6.108 0.303,9.147 0.298,2.733 0.758,5.446 1.648,8.063 0.46,1.366 1.023,2.696 1.722,3.958 l 0.249,0.327 0.074,0.005 0.067,-0.038 c 0.066,-0.492 0.137,-0.989 0.203,-1.482 0.148,-1.131 0.298,-2.257 0.451,-3.387 0.137,-1.019 0.398,-2.013 0.758,-2.974 0.774,-2.062 1.213,-4.211 1.603,-6.368 0.364,-2.021 0.654,-4.054 0.72,-6.113 0.154,-4.008 -0.41,-7.913 -1.624,-11.735 -0.107,-0.331 -0.314,-0.65 -0.215,-1.097 l 0.274,0.178 c 0.728,0.878 1.399,1.785 1.954,2.787 2.046,3.71 4.551,7.101 7.297,10.319 1.697,1.984 3.473,3.897 5.3,5.756 2.861,2.911 5.077,6.232 6.472,10.079 C -0.377,-0.365 -0.377,-0.365 0,0"
       style="fill:#5381c1;fill-opacity:1;fill-rule:nonzero;stroke:none"
       transform="matrix(0.35277776,0,0,-0.35277776,92.391932,65.500492)"
       clip-path="url(#clipPath14)" />
    <path
       id="path15"
       d="m 0,0 c -0.087,0.348 -0.137,0.642 -0.228,0.927 -0.7,2.207 -1.031,4.485 -1.296,6.771 -0.211,1.764 -0.377,3.532 -0.335,5.313 0.037,2.115 0.348,4.198 0.774,6.265 0.352,1.685 0.746,3.358 1.135,5.035 0.128,0.534 0.265,1.077 0.472,1.59 0.733,1.827 1.002,3.748 1.151,5.686 0.037,0.501 0.099,0.994 0.161,1.491 l 0.092,0.14 C 2.162,33.131 2.211,32.896 2.315,32.713 3.288,30.961 3.988,29.094 4.497,27.156 5.218,24.444 5.64,21.678 5.864,18.87 6.062,16.352 6.058,13.831 5.963,11.3 5.909,9.888 5.76,8.48 5.636,7.072 5.503,5.631 5.33,4.203 5.218,2.766 5.064,0.803 4.949,-1.168 4.829,-3.131 c -0.125,-2.037 0.074,-4.041 0.405,-6.05 0.087,-0.492 0.166,-0.989 0.22,-1.482 0.033,-0.236 0.008,-0.481 0.008,-0.775 -0.381,0.096 -0.633,0.311 -0.865,0.535 -0.224,0.207 -0.423,0.439 -0.63,0.671 -1.093,1.209 -2.17,2.442 -3.296,3.635 -0.642,0.688 -1.346,1.326 -2.046,1.951 -0.642,0.575 -1.341,1.089 -2.107,1.482 -3.429,1.772 -6.311,4.216 -8.796,7.139 -2.22,2.609 -4.178,5.404 -5.752,8.448 -1.71,3.308 -2.869,6.795 -3.412,10.472 -0.199,1.371 -0.248,2.762 -0.352,4.145 -0.054,0.746 -0.079,1.495 -0.103,2.249 l 0.12,0.347 c 0.207,0.083 0.256,-0.136 0.323,-0.273 l 0.182,-0.464 c 1.412,-3.71 3.536,-6.964 6.307,-9.801 2.695,-2.758 5.308,-5.599 7.681,-8.646 C -5.814,8.571 -4.46,6.613 -3.201,4.576 -2.402,3.275 -1.569,2 -0.737,0.72 -0.567,0.451 -0.414,0.145 0,0"
       style="fill:#5381c1;fill-opacity:1;fill-rule:nonzero;stroke:none"
       transform="matrix(0.35277776,0,0,-0.35277776,24.345791,75.960495)"
       clip-path="url(#clipPath16)" />
    <path
       id="path17"
       d="m 0,0 c -0.058,0.472 -0.096,0.741 -0.128,1.01 -0.162,1.263 -0.294,2.534 -0.493,3.793 -0.281,1.764 -0.841,3.433 -1.656,5.036 -2.49,4.869 -4.261,10 -5.297,15.375 -0.708,3.632 -1.064,7.305 -1.03,11.007 0.007,1.056 0.103,2.108 0.165,3.163 l 0.042,0.327 c 0.065,0.237 0.314,0.357 0.525,0.245 l 0.336,-0.24 c 0.468,-0.439 0.89,-0.92 1.13,-1.528 0.153,-0.39 0.34,-0.766 0.484,-1.147 1.077,-2.812 2.431,-5.483 3.843,-8.125 0.476,-0.907 0.965,-1.813 1.462,-2.712 1.089,-1.963 1.748,-4.071 2.145,-6.269 0.335,-1.831 0.493,-3.686 0.683,-5.537 0.1,-0.965 0.207,-1.93 0.31,-2.895 0.039,-0.347 0.15,-0.633 0.464,-0.791 0.253,0.129 0.203,0.349 0.216,0.531 0.195,2.861 0.688,5.673 1.412,8.447 1.015,3.876 2.459,7.595 4.166,11.218 0.774,1.652 1.618,3.284 2.422,4.927 1.321,2.692 2.406,5.492 3.475,8.291 0.277,0.728 0.405,1.499 0.517,2.265 0.067,0.468 0.128,0.936 0.203,1.4 l 0.145,0.36 c 0.356,-0.029 0.534,-0.265 0.654,-0.501 0.145,-0.269 0.274,-0.559 0.324,-0.849 0.227,-1.371 0.501,-2.741 0.608,-4.12 0.107,-1.267 0.07,-2.547 0.008,-3.823 C 17.044,36.97 16.846,35.099 16.563,33.227 15.955,29.206 14.916,25.297 13.438,21.508 11.292,15.992 8.394,10.891 4.92,6.108 3.516,4.174 2.004,2.323 0.472,0.497 0.364,0.377 0.253,0.265 0,0"
       style="fill:#5381c1;fill-opacity:1;fill-rule:nonzero;stroke:none"
       transform="matrix(0.35277776,0,0,-0.35277776,87.103017,70.994901)"
       clip-path="url(#clipPath18)" />
    <path
       id="path19"
       d="m 0,0 c 0.042,-0.232 0.095,-0.468 0.128,-0.7 0.282,-2.476 1.003,-4.832 2.013,-7.101 0.7,-1.57 1.458,-3.115 2.224,-4.655 1.482,-2.977 2.977,-5.959 4.281,-9.023 1.354,-3.18 2.303,-6.48 2.887,-9.88 0.322,-1.889 0.671,-3.773 1.01,-5.653 0.033,-0.157 0.029,-0.347 0.232,-0.405 0.133,-0.042 0.248,0.136 0.273,0.434 0.108,1.33 0.203,2.654 0.323,3.984 0.207,2.323 0.534,4.629 1.21,6.874 0.331,1.093 0.741,2.153 1.295,3.147 1.773,3.188 3.202,6.53 4.659,9.859 0.269,0.609 0.547,1.214 0.824,1.818 0.398,0.891 0.957,1.686 1.507,2.485 0.203,0.294 0.46,0.468 0.87,0.481 0.161,-0.2 0.269,-0.444 0.273,-0.729 0.029,-2.775 0.182,-5.549 -0.033,-8.324 -0.488,-6.261 -2.075,-12.24 -4.749,-17.926 -0.58,-1.23 -1.135,-2.472 -1.744,-3.686 -0.675,-1.357 -1.081,-2.794 -1.279,-4.285 -0.203,-1.487 -0.344,-2.978 -0.514,-4.464 -0.012,-0.112 -0.033,-0.22 -0.054,-0.394 l -0.289,0.141 c -5.516,6.365 -10.109,13.297 -13.148,21.19 -1.425,3.685 -2.489,7.474 -3.097,11.379 -0.489,3.135 -0.77,6.277 -0.713,9.454 0.038,1.954 0.493,3.784 1.189,5.585 C -0.352,-0.224 -0.29,-0.017 0,0"
       style="fill:#5381c1;fill-opacity:1;fill-rule:nonzero;stroke:none"
       transform="matrix(0.35277776,0,0,-0.35277776,16.456516,53.974573)"
       clip-path="url(#clipPath20)" />
    <path
       id="path21"
       d="m 0,0 c -0.087,-0.314 -0.182,-0.629 -0.265,-0.944 -0.244,-0.911 -0.543,-1.814 -0.725,-2.733 -0.393,-2.062 -0.397,-4.141 -0.252,-6.224 0.165,-2.414 0.53,-4.799 0.865,-7.184 0.356,-2.51 0.571,-5.032 0.489,-7.562 -0.05,-1.66 -0.195,-3.321 -0.361,-4.977 -0.228,-2.406 -0.451,-4.804 -0.476,-7.338 l 0.207,0.323 c 1.06,3.963 3.06,7.421 5.719,10.51 1.014,1.18 2.136,2.265 3.184,3.408 2.216,2.414 4.423,4.836 6.622,7.259 0.223,0.248 0.418,0.525 0.592,0.807 0.364,0.584 0.932,0.849 1.553,1.04 0.199,0.058 0.393,-0.112 0.364,-0.332 l -0.103,-0.484 c -0.522,-2.34 -1.371,-4.563 -2.344,-6.75 -1.661,-3.739 -3.711,-7.267 -5.955,-10.671 -1.52,-2.298 -3.101,-4.543 -4.655,-6.808 -0.393,-0.575 -0.778,-1.147 -1.18,-1.718 -1.523,-2.162 -2.807,-4.46 -3.979,-6.829 -0.389,-0.791 -0.807,-1.573 -1.201,-2.339 -0.211,-0.042 -0.273,0.103 -0.331,0.219 -0.232,0.443 -0.493,0.878 -0.659,1.338 -0.956,2.637 -1.88,5.28 -2.824,7.917 -1.163,3.251 -1.975,6.589 -2.455,10.005 -0.186,1.345 -0.348,2.695 -0.485,4.049 -0.161,1.644 0.021,3.272 0.361,4.883 0.865,4.071 1.726,8.141 2.815,12.157 0.493,1.802 1.11,3.549 2.021,5.189 0.472,0.849 1.023,1.648 1.64,2.398 C -1.333,-0.803 -0.75,-0.352 0,0"
       style="fill:#5381c1;fill-opacity:1;fill-rule:nonzero;stroke:none"
       transform="matrix(0.35277776,0,0,-0.35277776,21.284808,44.407206)"
       clip-path="url(#clipPath22)" />
    <path
       id="path23"
       d="m 0,0 c 0.725,-0.435 1.32,-0.915 1.821,-1.516 0.796,-0.968 1.45,-2.028 1.996,-3.159 0.75,-1.549 1.301,-3.184 1.81,-4.824 1.073,-3.425 1.826,-6.916 2.364,-10.464 0.142,-0.932 0.303,-1.86 0.489,-2.787 0.377,-1.847 0.294,-3.698 0.045,-5.549 -0.629,-4.721 -1.813,-9.309 -3.465,-13.769 -0.716,-1.93 -1.383,-3.871 -2.067,-5.801 -0.223,-0.638 -0.513,-1.226 -0.889,-1.773 -0.237,-0.016 -0.266,0.17 -0.332,0.307 -0.265,0.522 -0.53,1.035 -0.77,1.565 -0.978,2.166 -2.199,4.178 -3.603,6.079 -1.652,2.232 -3.242,4.505 -4.762,6.833 -2.435,3.747 -4.738,7.573 -6.729,11.578 -1.321,2.671 -2.435,5.416 -3.221,8.286 -0.087,0.348 -0.179,0.696 -0.075,1.085 0.459,0.186 0.882,0.112 1.242,-0.191 0.252,-0.211 0.468,-0.476 0.65,-0.749 1.362,-2.042 2.97,-3.876 4.692,-5.615 1.342,-1.367 2.712,-2.708 4.058,-4.071 2.48,-2.509 4.53,-5.321 5.955,-8.568 0.518,-1.167 0.932,-2.372 1.259,-3.61 l 0.132,-0.39 0.162,-0.149 c 0.02,0.729 0.037,1.408 -0.026,2.091 -0.169,1.793 -0.368,3.582 -0.525,5.384 -0.253,2.878 -0.418,5.759 -0.207,8.65 0.12,1.52 0.331,3.031 0.505,4.551 0.14,1.267 0.303,2.534 0.43,3.805 0.163,1.653 0.299,3.317 0.44,4.978 0.19,2.339 -0.187,4.588 -1.181,6.725 C 0.095,-0.845 0.012,-0.6 -0.054,-0.364 -0.075,-0.273 -0.029,-0.169 0,0"
       style="fill:#5381c1;fill-opacity:1;fill-rule:nonzero;stroke:none"
       transform="matrix(0.35277776,0,0,-0.35277776,87.773082,44.363954)"
       clip-path="url(#clipPath24)" />
    <path
       id="path25"
       d="m 0,0 c -0.062,0.335 -0.096,0.576 -0.157,0.812 -0.775,3.379 -1.359,6.799 -1.992,10.203 -0.746,4.067 -1.549,8.125 -2.821,12.067 -0.426,1.316 -0.935,2.608 -1.407,3.913 -0.062,0.178 -0.129,0.352 -0.19,0.518 0.185,0.124 0.294,0.008 0.401,-0.067 1.528,-0.981 2.861,-2.19 4.062,-3.549 C 0.815,20.581 2.928,16.804 4.335,12.626 5.255,9.876 5.867,7.064 6.128,4.174 6.286,2.489 6.27,0.795 6.107,-0.898 6.054,-1.478 6.017,-2.062 6.013,-2.642 5.996,-5.226 5.706,-7.793 5.474,-10.365 c -0.016,-0.182 -0.091,-0.36 -0.136,-0.517 -0.357,-0.041 -0.493,0.194 -0.667,0.364 -1.536,1.45 -3.135,2.824 -4.787,4.129 -1.052,0.824 -2.091,1.652 -3.168,2.443 -2.27,1.669 -4.34,3.549 -6.286,5.573 -1.727,1.802 -3.446,3.62 -4.973,5.599 -2.514,3.259 -4.518,6.783 -5.822,10.696 -0.059,0.182 -0.187,0.36 -0.017,0.538 0.211,0.224 0.41,0.062 0.601,-0.028 0.584,-0.278 1.109,-0.638 1.527,-1.131 0.344,-0.402 0.688,-0.799 1.052,-1.184 0.796,-0.849 1.595,-1.698 2.415,-2.526 0.555,-0.551 1.167,-1.019 1.858,-1.392 2.854,-1.553 5.355,-3.569 7.583,-5.921 C -4.216,5.094 -3.164,3.835 -2.108,2.58 -1.719,2.121 -1.433,1.574 -1.085,1.068 -0.878,0.774 -0.654,0.489 -0.423,0.22 -0.344,0.133 -0.203,0.104 0,0"
       style="fill:#5381c1;fill-opacity:1;fill-rule:nonzero;stroke:none"
       transform="matrix(0.35277776,0,0,-0.35277776,85.050766,48.632284)"
       clip-path="url(#clipPath26)" />
    <path
       id="path27"
       d="m 0,0 c -0.203,0.886 -0.368,1.636 -0.426,2.406 -0.116,1.611 -0.216,3.213 -0.311,4.82 -0.078,1.47 -0.174,2.94 -0.207,4.41 -0.149,6.841 1.603,13.173 5.172,19.007 1.201,1.98 2.58,3.814 4.24,5.437 0.915,0.895 1.893,1.71 2.94,2.443 0.125,0.091 0.27,0.149 0.46,0.253 0.033,-0.369 -0.128,-0.605 -0.22,-0.853 C 10.671,35.326 9.802,32.693 9.069,30.018 8.294,27.202 7.719,24.353 7.234,21.475 6.717,18.382 6.091,15.309 5.301,12.274 5.193,11.852 5.031,11.425 5.168,10.998 c 0.186,-0.116 0.302,-0.02 0.389,0.083 0.319,0.377 0.667,0.746 0.94,1.16 1.387,2.053 2.928,3.975 4.696,5.722 1.946,1.918 4.096,3.578 6.493,4.899 1.387,0.758 2.564,1.739 3.578,2.936 0.323,0.381 0.621,0.787 0.956,1.155 0.589,0.63 1.18,1.247 1.789,1.859 0.352,0.369 0.816,0.568 1.288,0.742 0.099,0.046 0.245,-0.025 0.427,-0.058 C 25.633,29.181 25.558,28.92 25.479,28.66 24.382,25.053 22.535,21.848 20.253,18.87 18.692,16.841 16.966,14.965 15.189,13.127 14.013,11.909 12.8,10.725 11.607,9.52 10.94,8.849 10.216,8.245 9.425,7.731 7.553,6.518 5.859,5.081 4.183,3.624 2.953,2.547 1.719,1.47 0.485,0.389 0.365,0.286 0.236,0.187 0,0"
       style="fill:#5381c1;fill-opacity:1;fill-rule:nonzero;stroke:none"
       transform="matrix(0.35277776,0,0,-0.35277776,22.147632,52.519894)"
       clip-path="url(#clipPath28)" />
    <path
       id="path29"
       d="m 0,0 c -1.102,-2.083 -2.063,-4.087 -3.251,-5.959 -1.963,-3.097 -3.996,-6.141 -6.083,-9.156 -0.608,-0.873 -1.304,-1.66 -2.132,-2.327 -0.555,-0.455 -1.118,-0.911 -1.719,-1.312 -2.157,-1.416 -4.203,-2.998 -6.236,-4.589 -0.257,-0.202 -0.526,-0.397 -0.857,-0.646 -0.054,0.191 -0.104,0.311 -0.108,0.431 -0.025,1.317 0.195,2.6 0.522,3.868 1.407,5.416 4.323,9.872 8.625,13.425 2.067,1.71 4.315,3.122 6.725,4.286 1.176,0.562 2.348,1.126 3.524,1.693 C -0.721,-0.158 -0.456,-0.004 0,0"
       style="fill:#5381c1;fill-opacity:1;fill-rule:nonzero;stroke:none"
       transform="matrix(0.35277776,0,0,-0.35277776,32.792137,37.156141)"
       clip-path="url(#clipPath30)" />
    <path
       id="path31"
       d="m 0,0 c 0.187,-0.013 0.273,0 0.344,-0.025 4.554,-1.673 8.708,-4.004 12.212,-7.408 2.865,-2.783 5.109,-5.98 6.455,-9.769 0.642,-1.818 1.023,-3.685 1.221,-5.594 0.03,-0.273 0.004,-0.551 0.004,-0.828 -0.231,-0.108 -0.359,0.091 -0.501,0.194 -1.366,0.998 -2.72,2.009 -4.087,3.007 -0.96,0.708 -1.917,1.424 -2.885,2.116 -1.098,0.77 -2.072,1.661 -2.941,2.687 -2.264,2.713 -4.281,5.595 -6.033,8.663 C 2.58,-4.841 1.441,-2.684 0.27,-0.542 0.187,-0.402 0.124,-0.249 0,0"
       style="fill:#5381c1;fill-opacity:1;fill-rule:nonzero;stroke:none"
       transform="matrix(0.35277776,0,0,-0.35277776,76.32195,37.217804)"
       clip-path="url(#clipPath32)" />
    <path
       id="path33"
       d="m 0,0 c -0.141,-0.77 -0.281,-1.495 -0.435,-2.311 0.204,0.066 0.319,0.104 0.435,0.141 l 0.336,0.1 c 0.02,-0.646 -0.174,-1.152 -0.691,-1.45 -0.556,-0.314 -1.127,-0.219 -1.653,0.12 -0.506,0.34 -0.82,0.82 -0.928,1.417 -0.149,0.836 0.278,1.623 1.056,1.958 0.518,0.215 1.068,0.274 1.628,0.182 z"
       style="fill:#5381c1;fill-opacity:1;fill-rule:nonzero;stroke:none"
       transform="matrix(0.35277776,0,0,-0.35277776,78.287699,69.382602)"
       clip-path="url(#clipPath34)" />
    <path
       id="path35"
       d="M 0,0 -0.414,0.381 C -0.721,0.7 -1.043,1.006 -1.312,1.354 -1.523,1.636 -1.358,2.004 -1.022,2.05 -0.17,2.162 0.687,2.137 1.508,1.838 2.406,1.511 2.924,0.431 2.642,-0.464 2.456,-1.064 1.959,-1.234 1.508,-0.808 1.164,-0.484 0.837,-0.145 0.377,-0.004 l -0.406,0.029 z"
       style="fill:#5381c1;fill-opacity:1;fill-rule:nonzero;stroke:none"
       transform="matrix(0.35277776,0,0,-0.35277776,66.919259,41.398258)"
       clip-path="url(#clipPath36)" />
    <path
       id="path37"
       d="M 0,0 C -1.201,0.017 -1.516,0.439 -1.209,1.569 -0.895,1.64 -0.646,1.474 -0.431,1.259 -0.104,0.932 0,0.514 0,0"
       style="fill:#5381c1;fill-opacity:1;fill-rule:nonzero;stroke:none"
       transform="matrix(0.35277776,0,0,-0.35277776,33.550399,74.550406)"
       clip-path="url(#clipPath38)" />
    <path
       id="path39"
       d="M 0,0 C -0.753,-0.029 -1.072,0.158 -1.217,0.692 -1.288,0.973 -0.969,1.333 -0.691,1.259 -0.402,1.18 -0.124,1.048 0.017,0.758 0.145,0.501 0.162,0.245 0,0"
       style="fill:#5381c1;fill-opacity:1;fill-rule:nonzero;stroke:none"
       transform="matrix(0.35277776,0,0,-0.35277776,32.910811,73.639536)"
       clip-path="url(#clipPath40)" />
    <path
       id="path41"
       d="m 0,0 -0.282,-0.344 c -0.264,0.162 -0.513,0.315 -0.799,0.485 l 0.141,0.323 0.253,0.248 C -0.459,0.48 -0.252,0.265 0,0"
       style="fill:#5381c1;fill-opacity:1;fill-rule:nonzero;stroke:none"
       transform="matrix(0.35277776,0,0,-0.35277776,31.630968,72.22927)"
       clip-path="url(#clipPath42)" />
    <path
       id="path43"
       d="M 0,0 C 0.422,-0.215 0.617,-0.477 0.828,-0.704 0.808,-0.999 0.629,-1.123 0.394,-1.089 0.178,-1.061 -0.021,-0.916 -0.041,-0.659 -0.054,-0.48 -0.021,-0.29 0,0"
       style="fill:#5381c1;fill-opacity:1;fill-rule:nonzero;stroke:none"
       transform="matrix(0.35277776,0,0,-0.35277776,30.229841,67.244557)"
       clip-path="url(#clipPath44)" />
    <path
       id="path45"
       d="M 0,0 C -0.783,0.385 -1.454,0.766 -2.158,1.196 -0.857,1.627 -0.207,1.284 0,0"
       style="fill:#5381c1;fill-opacity:1;fill-rule:nonzero;stroke:none"
       transform="matrix(0.35277776,0,0,-0.35277776,59.797557,42.186679)"
       clip-path="url(#clipPath46)" />
    <path
       id="path47"
       d="m 0,0 c -0.307,0.369 -0.563,0.684 -0.837,1.015 l 0.187,0.298 0.227,0.182 C 0.046,1.383 0.451,1.114 0.902,0.845 0.646,0.489 0.368,0.282 0,0"
       style="fill:#5381c1;fill-opacity:1;fill-rule:nonzero;stroke:none"
       transform="matrix(0.35277776,0,0,-0.35277776,61.600711,45.614023)"
       clip-path="url(#clipPath48)" />
    <path
       id="path49"
       d="M 0,0 C 0.427,0.169 0.804,0.178 1.188,0.128 1.433,0.103 1.632,-0.116 1.611,-0.303 1.586,-0.522 1.313,-0.692 1.04,-0.625 0.75,-0.555 0.456,-0.46 0.179,-0.336 Z"
       style="fill:#5381c1;fill-opacity:1;fill-rule:nonzero;stroke:none"
       transform="matrix(0.35277776,0,0,-0.35277776,60.323938,44.698493)"
       clip-path="url(#clipPath50)" />
    <path
       id="path51"
       d="M 0,0 C 0.335,0.104 0.629,0.037 0.932,-0.009 1.102,-0.038 1.213,-0.249 1.118,-0.394 1.019,-0.551 0.89,-0.692 0.745,-0.878 0.405,-0.642 0.013,-0.505 0,0"
       style="fill:#5381c1;fill-opacity:1;fill-rule:nonzero;stroke:none"
       transform="matrix(0.35277776,0,0,-0.35277776,59.964634,44.335027)"
       clip-path="url(#clipPath52)" />
    <path
       id="path53"
       d="m 0,0 c 0.381,0 0.567,0.021 0.758,-0.004 0.277,-0.034 0.438,-0.211 0.48,-0.481 L 1.168,-0.779 0.874,-0.783 0.423,-0.435 C 0.323,-0.352 0.24,-0.249 0,0"
       style="fill:#5381c1;fill-opacity:1;fill-rule:nonzero;stroke:none"
       transform="matrix(0.35277776,0,0,-0.35277776,57.829692,41.729691)"
       clip-path="url(#clipPath54)" />
    <path
       id="path55"
       d="m 0,0 c -0.613,0.128 -1.234,0.24 -1.851,0.385 -0.236,0.054 -0.29,0.36 -0.116,0.522 0.385,0.364 0.828,0.563 1.354,0.381 C -0.252,1.159 0.104,0.998 0.422,0.803 0.725,0.617 0.658,0.224 0.327,0.091 Z"
       style="fill:#5381c1;fill-opacity:1;fill-rule:nonzero;stroke:none"
       transform="matrix(0.35277776,0,0,-0.35277776,49.645532,49.604469)"
       clip-path="url(#clipPath56)" />
    <path
       id="path57"
       d="M 0,0 C 0.597,0.187 1.168,0.153 1.731,-0.004 2.24,-0.153 2.521,-0.514 2.493,-1.06 2.447,-2.1 2.783,-3.019 3.242,-3.917 3.396,-4.211 3.532,-4.526 3.595,-4.841 3.756,-5.623 3.329,-6.319 2.604,-6.534 2.224,-6.646 1.963,-6.514 1.843,-6.12 1.776,-5.876 1.731,-5.636 1.682,-5.392 1.557,-4.849 1.441,-4.307 1.321,-3.768 1.168,-3.114 0.944,-2.493 0.642,-1.896 0.34,-1.304 0.104,-0.691 0,0"
       style="fill:#5381c1;fill-opacity:1;fill-rule:nonzero;stroke:none"
       transform="matrix(0.35277776,0,0,-0.35277776,69.895115,53.733591)"
       clip-path="url(#clipPath58)" />
    <path
       id="path59"
       d="M 0,0 C 0.331,-0.36 0.633,-0.679 0.923,-1.01 1.13,-1.254 1.117,-1.263 1.06,-1.789 L 0.67,-1.884 c -0.782,-0.091 -1.014,0.05 -1.324,0.787 -0.22,0.509 -0.29,0.998 -0.013,1.507 0.149,0.265 0.265,0.547 0.405,0.807 L -0.05,1.296 0.128,1.155 C 0.224,0.866 0.252,0.567 0.107,0.273 Z"
       style="fill:#5381c1;fill-opacity:1;fill-rule:nonzero;stroke:none"
       transform="matrix(0.35277776,0,0,-0.35277776,69.379038,51.370261)"
       clip-path="url(#clipPath60)" />
    <path
       id="path61"
       d="M 0,0 C 0.083,-0.356 0.17,-0.675 0.24,-0.99 0.318,-1.362 0.107,-1.578 -0.27,-1.524 l -0.24,0.058 c -0.447,0.319 -0.894,0.633 -1.329,0.969 -0.137,0.108 -0.157,0.282 -0.087,0.455 0.091,0.216 0.216,0.411 0.464,0.418 0.187,0 0.377,-0.062 0.559,-0.107 C -0.608,0.19 -0.323,0.099 0,0"
       style="fill:#5381c1;fill-opacity:1;fill-rule:nonzero;stroke:none"
       transform="matrix(0.35277776,0,0,-0.35277776,68.983187,50.374618)"
       clip-path="url(#clipPath62)" />
    <path
       id="path63"
       d="M 0,0 C 0.219,-0.314 0.431,-0.575 0.592,-0.857 0.754,-1.151 0.679,-1.441 0.427,-1.689 0.19,-1.913 -0.07,-2.021 -0.402,-1.884 c -0.385,0.166 -0.638,0.435 -0.779,0.816 -0.09,0.244 -0.011,0.439 0.22,0.55 0.248,0.121 0.501,0.228 0.745,0.344 z"
       style="fill:#5381c1;fill-opacity:1;fill-rule:nonzero;stroke:none"
       transform="matrix(0.35277776,0,0,-0.35277776,69.888236,52.134732)"
       clip-path="url(#clipPath64)" />
    <path
       id="path65"
       d="M 0,0 C 0.298,-0.435 0.484,-0.799 0.597,-1.192 L 0.514,-1.404 0.216,-1.479 0.079,-1.391 C -0.194,-0.977 -0.224,-0.551 0,0"
       style="fill:#5381c1;fill-opacity:1;fill-rule:nonzero;stroke:none"
       transform="matrix(0.35277776,0,0,-0.35277776,70.099763,52.908514)"
       clip-path="url(#clipPath66)" />
    <path
       id="path67"
       d="M 0,0 C -0.066,0.509 -0.125,0.919 -0.182,1.342 0.124,1.619 0.472,1.627 0.832,1.578 1.213,1.52 1.594,1.437 1.88,1.139 2.215,0.783 2.108,0.125 1.661,-0.157 1.391,-0.331 1.097,-0.385 0.787,-0.298 0.526,-0.219 0.277,-0.107 0,0"
       style="fill:#5381c1;fill-opacity:1;fill-rule:nonzero;stroke:none"
       transform="matrix(0.35277776,0,0,-0.35277776,52.807972,65.353032)"
       clip-path="url(#clipPath68)" />
    <path
       id="path69"
       d="M 0,0 C 0.229,-0.377 0.373,-0.787 0.456,-1.222 0.539,-1.627 0.741,-1.926 1.177,-2.033 L 1.603,-2.261 1.682,-2.704 1.321,-2.833 c -0.447,0.154 -0.874,0.332 -1.138,0.767 -0.2,0.327 -0.448,0.629 -0.651,0.952 -0.14,0.219 -0.128,0.472 -0.016,0.717 C -0.393,-0.19 -0.281,-0.004 0,0"
       style="fill:#5381c1;fill-opacity:1;fill-rule:nonzero;stroke:none"
       transform="matrix(0.35277776,0,0,-0.35277776,56.409621,61.731733)"
       clip-path="url(#clipPath70)" />
    <path
       id="path71"
       d="M 0,0 C 0.261,-0.219 0.472,-0.389 0.725,-0.601 0.426,-1.027 0.112,-1.383 -0.302,-1.652 -0.617,-1.524 -0.828,-1.329 -1.027,-1.019 -0.746,-0.654 -0.447,-0.319 0,0"
       style="fill:#5381c1;fill-opacity:1;fill-rule:nonzero;stroke:none"
       transform="matrix(0.35277776,0,0,-0.35277776,51.820441,60.811901)"
       clip-path="url(#clipPath72)" />
    <path
       id="path73"
       d="M 0,0 C 0.166,-0.406 0.17,-0.816 0.153,-1.222 0.137,-1.541 -0.141,-1.673 -0.439,-1.541 -0.87,-1.35 -1.052,-0.77 -0.783,-0.364 -0.608,-0.104 -0.364,0.062 0,0"
       style="fill:#5381c1;fill-opacity:1;fill-rule:nonzero;stroke:none"
       transform="matrix(0.35277776,0,0,-0.35277776,55.156485,62.484666)"
       clip-path="url(#clipPath74)" />
    <path
       id="path75"
       d="m 0,0 c 0.489,0.095 0.836,0.042 1.192,-0.017 0.249,-0.037 0.29,-0.132 0.315,-0.6 C 1.325,-0.621 1.122,-0.683 0.96,-0.621 0.646,-0.509 0.302,-0.397 0,0"
       style="fill:#5381c1;fill-opacity:1;fill-rule:nonzero;stroke:none"
       transform="matrix(0.35277776,0,0,-0.35277776,51.59925,60.371598)"
       clip-path="url(#clipPath76)" />
    <path
       id="path77"
       d="M 0,0 C 0.795,0.004 1.416,-0.638 1.346,-1.362 1.321,-1.603 1.209,-1.785 0.99,-1.889 0.58,-2.083 0.166,-2.211 -0.261,-1.901 c -0.177,0.129 -0.389,0.215 -0.558,0.352 -0.357,0.278 -0.407,0.654 -0.166,1.031 C -0.774,-0.187 -0.422,0 0,0"
       style="fill:#5381c1;fill-opacity:1;fill-rule:nonzero;stroke:none"
       transform="matrix(0.35277776,0,0,-0.35277776,68.956691,62.875686)"
       clip-path="url(#clipPath78)" />
    <path
       id="path79"
       d="M 0,0 C 0.272,0.249 0.488,0.447 0.691,0.634 1.097,0.601 1.337,0.389 1.606,0.112 1.383,-0.215 1.109,-0.456 0.766,-0.654 0.468,-0.542 0.285,-0.298 0,0"
       style="fill:#5381c1;fill-opacity:1;fill-rule:nonzero;stroke:none"
       transform="matrix(0.35277776,0,0,-0.35277776,65.607349,68.935596)"
       clip-path="url(#clipPath80)" />
    <path
       id="path81"
       d="m 0,0 c -0.17,-0.323 -0.307,-0.629 -0.48,-0.911 -0.303,-0.476 -0.841,-0.526 -1.156,-0.058 -0.393,0.567 -0.749,1.168 -1.035,1.793 -0.257,0.567 0.232,1.205 0.861,1.205 L -1.441,1.875 C -1.197,1.499 -0.833,1.242 -0.539,0.928 -0.302,0.671 -0.174,0.314 0,0"
       style="fill:#5381c1;fill-opacity:1;fill-rule:nonzero;stroke:none"
       transform="matrix(0.35277776,0,0,-0.35277776,43.039555,65.084499)"
       clip-path="url(#clipPath82)" />
    <path
       id="path83"
       d="m 0,0 c 0.584,-0.054 0.853,-0.36 0.977,-0.841 0.075,-0.294 0.162,-0.584 0.257,-0.873 0.294,-0.887 0.083,-1.624 -0.663,-2.262 -0.492,0.315 -0.815,0.692 -0.811,1.321 0,0.439 -0.092,0.883 -0.137,1.322 C -0.418,-0.854 -0.348,-0.398 0,0"
       style="fill:#5381c1;fill-opacity:1;fill-rule:nonzero;stroke:none"
       transform="matrix(0.35277776,0,0,-0.35277776,42.397922,62.312229)"
       clip-path="url(#clipPath84)" />
    <path
       id="path85"
       d="M 0,0 C 0.646,0.124 1.105,-0.108 1.383,-0.555 1.822,-0.63 2.141,-0.323 2.53,-0.497 2.41,-0.857 2.219,-1.151 1.971,-1.437 1.461,-1.466 1.002,-1.301 0.546,-1.11 0.074,-0.919 -0.149,-0.592 0,0"
       style="fill:#5381c1;fill-opacity:1;fill-rule:nonzero;stroke:none"
       transform="matrix(0.35277776,0,0,-0.35277776,42.208941,63.796719)"
       clip-path="url(#clipPath86)" />
    <path
       id="path87"
       d="m 0,0 c 0.025,-0.592 0.058,-1.052 0.062,-1.516 0.004,-0.232 -0.137,-0.398 -0.314,-0.426 -0.22,-0.025 -0.361,0.095 -0.469,0.269 -0.232,0.364 -0.219,0.812 0.038,1.151 l 0.286,0.29 C -0.319,-0.162 -0.215,-0.125 0,0"
       style="fill:#5381c1;fill-opacity:1;fill-rule:nonzero;stroke:none"
       transform="matrix(0.35277776,0,0,-0.35277776,42.097851,63.112189)"
       clip-path="url(#clipPath88)" />
    <path
       id="path89"
       d="M 0,0 0.319,-0.125 0.331,-0.323 C 0.224,-0.547 0.112,-0.77 -0.008,-0.986 l -0.344,-0.107 -0.1,0.273 c 0.1,0.281 0.17,0.584 0.452,0.82"
       style="fill:#5381c1;fill-opacity:1;fill-rule:nonzero;stroke:none"
       transform="matrix(0.35277776,0,0,-0.35277776,53.086136,54.143729)"
       clip-path="url(#clipPath90)" />
    <path
       id="path91"
       d="m 0,0 c -0.405,0 -0.849,-0.008 -1.288,0.004 -0.579,0.017 -0.985,0.311 -1.233,0.878 0.463,0.915 1.275,1.516 1.962,2.224 C -0.248,3.143 0.05,2.899 0.34,3.093 0.604,3.267 0.737,3.532 0.845,3.889 0.658,3.901 0.526,3.913 0.401,3.913 0.042,3.905 -0.318,3.864 -0.679,3.889 l -0.434,0.198 c -0.39,0.36 -0.283,0.849 0.239,0.911 0.638,0.071 0.866,0.435 0.961,0.965 0.103,0.609 0.484,0.894 1.068,0.994 0.49,0.075 0.974,0.166 1.536,0.269 L 2.609,6.891 2.427,6.721 C 2.004,6.398 1.996,5.984 2.17,5.524 2.24,5.35 2.34,5.181 2.414,5.002 2.658,4.41 2.588,4.121 2.029,3.843 1.441,3.545 1.155,3.019 0.804,2.497 0.932,2.303 1.052,2.125 1.209,1.893 0.832,1.305 0.451,0.708 0,0"
       style="fill:#5381c1;fill-opacity:1;fill-rule:nonzero;stroke:none"
       transform="matrix(0.35277776,0,0,-0.35277776,66.022145,54.376811)"
       clip-path="url(#clipPath92)" />
    <path
       id="path93"
       d="m 0,0 c -0.426,-0.397 -0.869,-0.269 -1.287,-0.306 0.082,0.534 0.244,0.695 0.625,0.612 l 0.385,-0.119 z"
       style="fill:#5381c1;fill-opacity:1;fill-rule:nonzero;stroke:none"
       transform="matrix(0.35277776,0,0,-0.35277776,67.202435,54.022656)"
       clip-path="url(#clipPath94)" />
    <path
       id="path95"
       d="m 0,0 c -0.741,-0.166 -1.366,-0.104 -1.987,-0.074 l -0.211,0.182 c 0.409,0.339 0.852,0.546 1.341,0.579 C -0.464,0.721 -0.231,0.422 0,0"
       style="fill:#5381c1;fill-opacity:1;fill-rule:nonzero;stroke:none"
       transform="matrix(0.35277776,0,0,-0.35277776,58.444655,54.208677)"
       clip-path="url(#clipPath96)" />
    <path
       id="path97"
       d="m 0,0 c -0.538,-0.124 -1.076,-0.261 -1.615,-0.373 l -0.265,0.116 0.091,0.282 C -1.523,0.22 -1.25,0.431 -0.944,0.551 -0.518,0.716 -0.231,0.53 0,0"
       style="fill:#5381c1;fill-opacity:1;fill-rule:nonzero;stroke:none"
       transform="matrix(0.35277776,0,0,-0.35277776,59.004125,69.922103)"
       clip-path="url(#clipPath98)" />
    <path
       id="path99"
       d="M 0,0 C -0.252,0.456 -0.248,0.456 -0.256,0.882 0.212,0.824 0.671,0.77 1.11,0.617 L 1.284,0.389 1.09,0.166 C 0.737,0.095 0.386,0.058 0,0"
       style="fill:#5381c1;fill-opacity:1;fill-rule:nonzero;stroke:none"
       transform="matrix(0.35277776,0,0,-0.35277776,56.604637,70.219249)"
       clip-path="url(#clipPath100)" />
    <path
       id="path101"
       d="m 0,0 h 1.229 c 0.117,-0.273 0,-0.464 -0.157,-0.621 L 0.72,-0.808 C 0.261,-0.808 0.157,-0.456 0,0"
       style="fill:#5381c1;fill-opacity:1;fill-rule:nonzero;stroke:none"
       transform="matrix(0.35277776,0,0,-0.35277776,59.628401,69.133327)"
       clip-path="url(#clipPath102)" />
    <path
       id="path103"
       d="M 0,0 H 0.534 C 0.497,-0.34 0.46,-0.63 0.423,-0.953 L -0.004,-0.999 C -0.148,-0.65 -0.091,-0.336 0,0"
       style="fill:#5381c1;fill-opacity:1;fill-rule:nonzero;stroke:none"
       transform="matrix(0.35277776,0,0,-0.35277776,55.75402,69.711601)"
       clip-path="url(#clipPath104)" />
    <path
       id="path105"
       d="M 0,0 C 0.302,0.112 0.592,0.137 0.89,0.1 0.902,-0.443 0.815,-0.6 0.501,-0.546 0.327,-0.513 0.153,-0.422 0.004,-0.314 Z"
       style="fill:#5381c1;fill-opacity:1;fill-rule:nonzero;stroke:none"
       transform="matrix(0.35277776,0,0,-0.35277776,69.142005,59.688269)"
       clip-path="url(#clipPath106)" />
    <path
       id="path107"
       d="m 0,0 h -4.936 v -15.454 c 0.025,-1.392 0.079,-2.824 0.149,-4.303 0.071,-1.473 0.12,-2.778 0.149,-3.913 H -4.766 L -19.11,0 h -6.729 v -30.398 h 4.894 v 15.325 c -0.058,1.478 -0.12,2.948 -0.19,4.41 -0.071,1.458 -0.137,2.828 -0.191,4.108 h 0.17 l 14.39,-23.843 H 0 Z m -37.89,0 v -18.99 c 0,-2.323 -0.529,-4.108 -1.594,-5.342 -1.064,-1.234 -2.774,-1.852 -5.13,-1.852 -2.27,0 -3.968,0.568 -5.086,1.707 -1.122,1.134 -1.685,2.949 -1.685,5.446 V 0 h -5.449 v -19.582 c 0,-3.38 1.022,-6.096 3.068,-8.154 2.041,-2.058 5.036,-3.085 8.982,-3.085 2.778,0 5.081,0.489 6.894,1.466 1.818,0.981 3.177,2.315 4.067,4.004 0.898,1.686 1.342,3.582 1.342,5.682 V 0 Z"
       style="fill:#5381c1;fill-opacity:1;fill-rule:nonzero;stroke:none"
       transform="matrix(0.35277776,0,0,-0.35277776,29.045603,105.74023)"
       clip-path="url(#clipPath108)" />
    <path
       id="path109"
       d="m 0,0 c 0,-3.279 -0.576,-6.137 -1.727,-8.576 -1.147,-2.435 -2.903,-4.331 -5.263,-5.69 -2.364,-1.362 -5.325,-2.041 -8.883,-2.041 -3.623,0 -6.6,0.679 -8.927,2.041 -2.332,1.359 -4.071,3.264 -5.218,5.715 -1.151,2.451 -1.722,5.317 -1.722,8.597 0,3.246 0.571,6.091 1.722,8.526 1.147,2.439 2.899,4.327 5.243,5.673 2.343,1.342 5.329,2.017 8.948,2.017 3.561,0 6.514,-0.675 8.858,-2.017 2.347,-1.346 4.095,-3.234 5.242,-5.673 C -0.576,6.137 0,3.279 0,0 m -25.368,0 c 0,-3.573 0.763,-6.381 2.294,-8.419 1.524,-2.037 3.926,-3.056 7.201,-3.056 3.372,0 5.794,1.019 7.276,3.056 1.478,2.038 2.22,4.846 2.22,8.419 0,3.573 -0.742,6.381 -2.22,8.419 -1.482,2.037 -3.892,3.056 -7.23,3.056 -3.304,0 -5.723,-1.019 -7.247,-3.056 C -24.605,6.381 -25.368,3.573 -25.368,0"
       style="fill:#60c057;fill-opacity:1;fill-rule:nonzero;stroke:none"
       transform="matrix(0.35277776,0,0,-0.35277776,46.24694,111.20349)"
       clip-path="url(#clipPath110)" />
    <path
       id="path111"
       d="m 0,0 c 2.803,0 5.06,-0.915 6.77,-2.741 1.71,-1.83 2.563,-4.547 2.563,-8.154 0,-3.602 -0.874,-6.331 -2.629,-8.19 -1.756,-1.852 -4.033,-2.779 -6.837,-2.779 -1.768,0 -3.2,0.286 -4.294,0.857 -1.089,0.571 -1.959,1.231 -2.609,1.984 h -0.352 c 0.087,-0.493 0.166,-1.023 0.241,-1.594 0.074,-0.571 0.111,-1.118 0.111,-1.636 v -8.559 h -5.573 v 30.423 h 4.513 l 0.795,-2.799 h 0.265 c 0.68,0.882 1.566,1.631 2.655,2.256 C -3.288,-0.311 -1.831,0 0,0 m -1.594,-3.967 c -1.976,0 -3.371,-0.517 -4.178,-1.556 -0.816,-1.04 -1.235,-2.605 -1.264,-4.708 v -0.623 c 0,-2.256 0.39,-3.987 1.172,-5.192 0.783,-1.209 2.237,-1.809 4.361,-1.809 1.739,0 3.026,0.629 3.872,1.883 0.84,1.259 1.258,2.978 1.258,5.157 0,2.177 -0.418,3.867 -1.258,5.059 -0.846,1.193 -2.162,1.789 -3.963,1.789"
       style="fill:#60c057;fill-opacity:1;fill-rule:nonzero;stroke:none"
       transform="matrix(0.35277776,0,0,-0.35277776,52.532348,108.98311)"
       clip-path="url(#clipPath112)" />
    <path
       id="path113"
       d="m 0,0 c 2.857,0 5.118,-0.845 6.779,-2.53 1.664,-1.686 2.492,-4.033 2.492,-7.039 v -2.494 H -4.791 c 0.05,-1.916 0.584,-3.399 1.606,-4.451 1.024,-1.051 2.436,-1.578 4.246,-1.578 1.362,0 2.596,0.137 3.693,0.41 1.101,0.274 2.228,0.666 3.379,1.189 v -3.93 c -1.043,-0.497 -2.132,-0.857 -3.259,-1.09 -1.126,-0.231 -2.477,-0.351 -4.05,-0.351 -2.095,0 -3.942,0.397 -5.536,1.184 -1.602,0.791 -2.853,1.988 -3.756,3.582 -0.903,1.594 -1.354,3.599 -1.354,6.008 0,3.608 0.898,6.357 2.691,8.249 C -5.337,-0.944 -2.961,0 0,0 m 0,-3.619 c -1.337,0 -2.418,-0.423 -3.242,-1.263 -0.824,-0.845 -1.305,-2.096 -1.433,-3.756 H 4.48 C 4.452,-7.185 4.079,-5.983 3.358,-5.035 2.643,-4.091 1.521,-3.619 0,-3.619"
       style="fill:#60c057;fill-opacity:1;fill-rule:nonzero;stroke:none"
       transform="matrix(0.35277776,0,0,-0.35277776,60.716368,109.01482)"
       clip-path="url(#clipPath114)" />
    <path
       id="path115"
       d="M 0,0 C 2.382,0 4.249,-0.584 5.599,-1.747 6.949,-2.915 7.62,-4.795 7.62,-7.399 V -20.522 H 2.671 v 12.195 c 0,1.511 -0.311,2.645 -0.943,3.403 -0.626,0.754 -1.624,1.131 -2.987,1.131 -1.991,0 -3.353,-0.597 -4.087,-1.785 -0.732,-1.189 -1.097,-2.886 -1.097,-5.093 v -9.851 h -4.953 v 20.149 h 3.81 l 0.708,-2.638 h 0.277 c 0.68,1.04 1.616,1.802 2.808,2.286 C -2.601,-0.24 -1.337,0 0,0"
       style="fill:#60c057;fill-opacity:1;fill-rule:nonzero;stroke:none"
       transform="matrix(0.35277776,0,0,-0.35277776,70.204149,109.14298)"
       clip-path="url(#clipPath116)" />
    <path
       id="path117"
       d="m 0,0 h 12.314 v -15.454 c -1.734,-0.538 -3.515,-0.948 -5.337,-1.233 -1.822,-0.287 -3.892,-0.423 -6.204,-0.423 -4.922,0 -8.708,1.358 -11.349,4.083 -2.647,2.724 -3.972,6.584 -3.972,11.578 0,3.18 0.663,5.933 1.988,8.261 1.321,2.328 3.243,4.128 5.764,5.408 2.526,1.275 5.595,1.913 9.214,1.913 1.793,0 3.512,-0.169 5.151,-0.509 1.644,-0.34 3.147,-0.783 4.518,-1.317 L 10.078,7.835 C 9.015,8.286 7.813,8.684 6.476,9.027 5.139,9.367 3.739,9.537 2.281,9.537 0.062,9.537 -1.855,9.081 -3.467,8.175 -5.077,7.264 -6.315,5.983 -7.181,4.323 c -0.87,-1.664 -1.3,-3.615 -1.3,-5.855 0,-2.157 0.335,-4.058 1.002,-5.702 0.67,-1.648 1.735,-2.94 3.193,-3.876 1.457,-0.936 3.358,-1.404 5.702,-1.404 1.15,0 2.132,0.054 2.939,0.165 0.808,0.117 1.541,0.245 2.212,0.386 v 7.321 H 0 Z"
       style="fill:#60c057;fill-opacity:1;fill-rule:nonzero;stroke:none"
       transform="matrix(0.35277776,0,0,-0.35277776,83.534246,110.49518)"
       clip-path="url(#clipPath118)" />
    <path
       id="path119"
       d="m 0,0 h -12.771 v 3.11 l 3.661,1.363 v 21.413 l -3.661,1.403 v 3.109 H 0 V 27.289 L -3.66,25.886 V 4.473 L 0,3.11 Z"
       style="fill:#60c057;fill-opacity:1;fill-rule:nonzero;stroke:none"
       transform="matrix(0.35277776,0,0,-0.35277776,93.584637,116.40661)"
       clip-path="url(#clipPath120)" />
    <path
       id="path121"
       d="m 0,0 c 0,-2.695 -0.981,-4.824 -2.94,-6.385 -1.958,-1.561 -4.666,-2.344 -8.128,-2.344 -3.351,0 -6.187,0.568 -8.514,1.707 v 5.105 c 1.275,-0.567 2.687,-1.085 4.231,-1.553 1.549,-0.468 3.102,-0.7 4.663,-0.7 1.843,0 3.189,0.36 4.025,1.085 0.837,0.721 1.255,1.652 1.255,2.787 0,1.251 -0.538,2.248 -1.615,3.002 -1.081,0.75 -2.655,1.569 -4.729,2.447 -1.246,0.51 -2.447,1.144 -3.599,1.897 -1.146,0.75 -2.083,1.702 -2.807,2.849 -0.725,1.152 -1.085,2.592 -1.085,4.324 0,2.579 0.915,4.612 2.746,6.087 1.83,1.473 4.277,2.211 7.342,2.211 1.59,0 3.101,-0.165 4.534,-0.509 1.433,-0.34 2.845,-0.824 4.236,-1.446 l -1.743,-4.385 c -1.28,0.538 -2.493,0.961 -3.641,1.275 -1.151,0.311 -2.335,0.468 -3.556,0.468 -1.475,0 -2.597,-0.327 -3.363,-0.982 -0.766,-0.649 -1.151,-1.515 -1.151,-2.591 0,-0.825 0.215,-1.529 0.642,-2.108 0.423,-0.584 1.085,-1.114 1.979,-1.598 0.891,-0.481 2.05,-1.036 3.466,-1.662 C -6.104,8.273 -4.704,7.528 -3.557,6.75 -2.406,5.968 -1.528,5.048 -0.915,3.979 -0.307,2.915 0,1.59 0,0"
       style="fill:#60c057;fill-opacity:1;fill-rule:nonzero;stroke:none"
       transform="matrix(0.35277776,0,0,-0.35277776,101.36469,113.47792)"
       clip-path="url(#clipPath122)" />
    <path
       id="path123"
       d="m 204.025,160.497 h 3.002 v 16.978 h -3.002 z"
       style="fill:#60c057;fill-opacity:1;fill-rule:nonzero;stroke:none"
       transform="matrix(0.35277776,0,0,-0.35277776,-49.81988,186.98298)"
       clip-path="url(#clipPath124)" />
    <path
       id="path125"
       d="M 0,0 H 5.424 V -14.411 H 8.427 V 0 h 5.449 V 2.567 H 0 Z m -12.51,-14.411 h 3.002 V 2.568 h -3.002 z m -24.928,0 h 2.853 v 12.485 h 0.074 l 7.802,-12.485 h 3.172 V 2.567 h -2.858 V -9.938 h -0.049 l -7.827,12.505 h -3.167 z"
       style="fill:#60c057;fill-opacity:1;fill-rule:nonzero;stroke:none"
       transform="matrix(0.35277776,0,0,-0.35277776,40.303129,125.27978)"
       clip-path="url(#clipPath126)" />
    <path
       id="path127"
       d="M 0,0 H 12.51 V 2.567 H 3.002 V 7.54 h 8.643 V 9.963 H 3.002 v 4.447 h 9.338 v 2.571 H 0 Z m -18.373,0 h 3.337 l 5.86,16.981 h -3.053 L -16.617,3.544 h -0.05 l -4.299,13.437 h -3.122 z m -17.889,0 h 3.002 v 16.981 h -3.002 z m -23.342,14.41 h 5.424 V 0 h 3.002 v 14.41 h 5.449 v 2.571 H -59.604 Z M -81.245,0 h 3.101 l 1.607,4.492 h 6.841 L -68.085,0 h 3.217 l -6.605,16.981 h -3.192 z m 8.116,14.058 h 0.074 l 2.568,-7.305 h -5.234 z M -93.374,0 h 3.002 v 16.981 h -3.002 z"
       style="fill:#60c057;fill-opacity:1;fill-rule:nonzero;stroke:none"
       transform="matrix(0.35277776,0,0,-0.35277776,81.477198,130.36373)"
       clip-path="url(#clipPath128)" />
  </g>
</svg>
