<?xml version="1.0" encoding="UTF-8"?>
<svg id="Layer_5" data-name="Layer 5" xmlns="http://www.w3.org/2000/svg" viewBox="0 0 763.82 817.2">
  <defs>
    <style>
      .cls-1 {
        fill: none;
        stroke: #80cc29;
        stroke-linecap: round;
        stroke-linejoin: round;
        stroke-width: 50px;
      }

      .cls-2 {
        fill: #80cc29;
      }
    </style>
  </defs>
  <path class="cls-2" d="M426.37,155.97l-72.32,72.32-19.95-19.95c-8.68-8.68-22.75-8.68-31.44,0-8.68,8.68-8.68,22.76,0,31.44l35.34,35.34c3.6,3.6,8.12,5.7,12.8,6.31,1.16.18,2.33.28,3.5.28,5.69,0,11.38-2.17,15.72-6.51l87.79-87.79c8.68-8.68,8.68-22.75,0-31.44-8.68-8.68-22.75-8.68-31.44,0Z"/>
  <g>
    <rect class="cls-1" x="92.08" y="527.56" width="64.3" height="147.61" rx="31.77" ry="31.77" transform="translate(400.61 53.01) rotate(38.42)"/>
    <rect class="cls-1" x="144.18" y="568.88" width="64.3" height="147.61" rx="31.77" ry="31.77" transform="translate(437.56 29.59) rotate(38.42)"/>
    <rect class="cls-1" x="196.59" y="610.45" width="64.3" height="147.61" rx="31.77" ry="31.77" transform="translate(474.75 6.02) rotate(38.42)"/>
    <rect class="cls-1" x="249.02" y="652.04" width="64.3" height="147.61" rx="31.77" ry="31.77" transform="translate(511.94 -17.56) rotate(38.42)"/>
    <path class="cls-1" d="M444.38,530.14l136.35,108.15c15.22,12.07,17.78,34.2,5.7,49.43h0c-12.07,15.22-34.2,17.78-49.43,5.7l-63.62-50.46"/>
    <path class="cls-1" d="M414.15,595.87l113.8,90.26c15.22,12.07,17.78,34.2,5.7,49.43h0c-12.07,15.22-34.2,17.78-49.43,5.7l-92.45-77.7"/>
    <path class="cls-1" d="M467.62,727.92c15.22,12.07,17.78,34.2,5.7,49.43h0c-12.07,15.22-34.2,17.78-49.43,5.7l-91.06-70.6"/>
    <path class="cls-1" d="M87.56,595.87l-46.98-33.74c-7.86-5.64-9.9-16.46-4.63-24.58l114.4-176.37c3.82-5.89,10.66-9.15,17.63-8.28,80.45,10.05,143.72-5.88,165.61-12.58,7.61-2.33,15.77-2.37,23.37.01,14.21,4.46,22.73,12.58,22.73,12.58"/>
    <path class="cls-1" d="M433.28,429.02l206.6,163.87c15.22,12.07,17.78,34.2,5.7,49.43h0c-12.07,15.22-34.2,17.78-49.43,5.7l-57.06-42.75"/>
    <path class="cls-1" d="M653.2,600.22l67.29-54.28c7.66-6.18,9.21-17.24,3.55-25.28l-115.67-164.39c-4.49-6.38-12.53-9.16-20.03-6.99-50.27,14.54-113.71,1.61-144.26-6.42-12.24-3.22-25.19-2.29-36.86,2.59l-132.51,55.37"/>
    <path class="cls-1" d="M274.7,400.82c-15.1,10.97-3.82,69.66,158.58,28.2"/>
  </g>
  <path class="cls-1" d="M522.86,354.05c34.62-59.25,59.77-127.98,59.77-183.03,0-14.31-1.22-27.62-3.55-39.98-1.31-6.93-6.83-12.29-13.8-13.34-75.88-11.41-141.11-38.76-185.05-75.71-43.93,36.94-109.14,64.28-185.01,75.7-6.99,1.05-12.54,6.43-13.85,13.38-2.33,12.35-3.55,25.65-3.55,39.94,0,55.05,24.9,123.78,59.34,183.03"/>
</svg>