<?xml version="1.0" encoding="UTF-8"?>
<svg id="Layer_5" xmlns="http://www.w3.org/2000/svg" version="1.1" viewBox="0 0 839.9 566">
  <!-- Generator: Adobe Illustrator 29.5.0, SVG Export Plug-In . SVG Version: 2.1.0 Build 137)  -->
  <defs>
    <style>
      .st0 {
        stroke-width: 50px;
      }

      .st0, .st1 {
        fill: none;
        stroke: #80cc29;
        stroke-linecap: round;
        stroke-linejoin: round;
      }

      .st1 {
        stroke-width: 50px;
      }
    </style>
  </defs>
  <path class="st0" d="M182.6,258.6h0c15.6,12.4,18.3,35.2,5.9,50.8l-58.2,73.4c-12.4,15.6-35.2,18.3-50.8,5.9h0c-15.6-12.4-18.3-35.2-5.9-50.8l58.2-73.4c12.4-15.6,35.2-18.3,50.8-5.9Z"/>
  <path class="st0" d="M241.2,305.1h0c15.6,12.4,18.3,35.2,5.9,50.8l-58.2,73.4c-12.4,15.6-35.2,18.3-50.8,5.9h0c-15.6-12.4-18.3-35.2-5.9-50.8l58.2-73.4c12.4-15.6,35.2-18.3,50.8-5.9Z"/>
  <path class="st0" d="M300.1,351.8h0c15.6,12.4,18.3,35.2,5.9,50.8l-58.2,73.4c-12.4,15.6-35.2,18.3-50.8,5.9h0c-15.6-12.4-18.3-35.2-5.9-50.8l58.2-73.4c12.4-15.6,35.2-18.3,50.8-5.9Z"/>
  <path class="st0" d="M359.1,398.6h0c15.6,12.4,18.3,35.2,5.9,50.8l-58.2,73.4c-12.4,15.6-35.2,18.3-50.8,5.9h0c-15.6-12.4-18.3-35.2-5.9-50.8l58.2-73.4c12.4-15.6,35.2-18.3,50.8-5.9Z"/>
  <path class="st1" d="M491,243.5l153.4,121.6c17.1,13.6,20,38.5,6.4,55.6h0c-13.6,17.1-38.5,20-55.6,6.4l-71.5-56.8"/>
  <path class="st1" d="M457,317.4l128,101.5c17.1,13.6,20,38.5,6.4,55.6h0c-13.6,17.1-38.5,20-55.6,6.4l-104-87.4"/>
  <path class="st1" d="M517.2,466c17.1,13.6,20,38.5,6.4,55.6h0c-13.6,17.1-38.5,20-55.6,6.4l-102.4-79.4"/>
  <path class="st1" d="M89.7,317.4l-52.8-37.9c-8.8-6.4-11.1-18.5-5.2-27.6L160.3,53.5c4.3-6.6,12-10.3,19.8-9.3,90.5,11.3,161.6-6.6,186.3-14.1,8.6-2.6,17.7-2.7,26.3,0,16,5,25.6,14.1,25.6,14.1"/>
  <path class="st1" d="M478.6,129.8l232.4,184.3c17.1,13.6,20,38.5,6.4,55.6h0c-13.6,17.1-38.5,20-55.6,6.4l-64.2-48.1"/>
  <path class="st1" d="M725.9,322.3l75.7-61c8.6-7,10.4-19.4,4-28.4l-130.1-184.9c-5-7.2-14.1-10.3-22.5-7.9-56.5,16.3-127.9,1.8-162.2-7.2-13.8-3.6-28.3-2.6-41.5,2.9l-149,62.3"/>
  <path class="st1" d="M300.2,98.1c-17,12.3-4.3,78.3,178.4,31.7"/>
</svg>