<?xml version="1.0" encoding="UTF-8" standalone="no"?>
<!-- Created with Inkscape (http://www.inkscape.org/) -->

<svg
   xmlns:dc="http://purl.org/dc/elements/1.1/"
   xmlns:cc="http://creativecommons.org/ns#"
   xmlns:rdf="http://www.w3.org/1999/02/22-rdf-syntax-ns#"
   xmlns:svg="http://www.w3.org/2000/svg"
   xmlns="http://www.w3.org/2000/svg"
   xmlns:sodipodi="http://sodipodi.sourceforge.net/DTD/sodipodi-0.dtd"
   xmlns:inkscape="http://www.inkscape.org/namespaces/inkscape"
   width="100mm"
   height="100mm"
   viewBox="0 0 100 100"
   version="1.1"
   id="svg825"
   inkscape:version="0.92.4 (5da689c313, 2019-01-14)"
   sodipodi:docname="point3.svg">
  <defs
     id="defs819">
    <inkscape:perspective
       sodipodi:type="inkscape:persp3d"
       inkscape:vp_x="0 : 50 : 1"
       inkscape:vp_y="0 : 1000 : 0"
       inkscape:vp_z="100 : 50 : 1"
       inkscape:persp3d-origin="50 : 33.333333 : 1"
       id="perspective1905" />
    <inkscape:path-effect
       effect="powerstroke"
       id="path-effect1440"
       is_visible="true"
       offset_points="0,0.30435355 | 0.47058356,0.94997636 | 1,3.3470424"
       sort_points="true"
       interpolator_type="CubicBezierFit"
       interpolator_beta="0.2"
       start_linecap_type="butt"
       linejoin_type="extrp_arc"
       miter_limit="4"
       end_linecap_type="butt" />
    <inkscape:path-effect
       effect="powerstroke"
       id="path-effect1440-5"
       is_visible="true"
       offset_points="0,0.30435355 | 0.47058356,0.94997636 | 1,3.3470424"
       sort_points="true"
       interpolator_type="CubicBezierFit"
       interpolator_beta="0.2"
       start_linecap_type="butt"
       linejoin_type="extrp_arc"
       miter_limit="4"
       end_linecap_type="butt" />
    <linearGradient
       id="a">
      <stop
         id="stop1840"
         offset="0"
         stop-color="#aec7e2" />
      <stop
         id="stop1842"
         offset="1"
         stop-color="#6e97c4" />
    </linearGradient>
  </defs>
  <sodipodi:namedview
     id="base"
     pagecolor="#ffffff"
     bordercolor="#666666"
     borderopacity="1.0"
     inkscape:pageopacity="0.0"
     inkscape:pageshadow="2"
     inkscape:zoom="1"
     inkscape:cx="90.89929"
     inkscape:cy="162.75297"
     inkscape:document-units="mm"
     inkscape:current-layer="layer1"
     showgrid="false"
     fit-margin-top="0"
     fit-margin-left="0"
     fit-margin-right="0"
     fit-margin-bottom="0"
     inkscape:window-width="1868"
     inkscape:window-height="1016"
     inkscape:window-x="52"
     inkscape:window-y="27"
     inkscape:window-maximized="1" />
  <metadata
     id="metadata822">
    <rdf:RDF>
      <cc:Work
         rdf:about="">
        <dc:format>image/svg+xml</dc:format>
        <dc:type
           rdf:resource="http://purl.org/dc/dcmitype/StillImage" />
        <dc:title></dc:title>
      </cc:Work>
    </rdf:RDF>
  </metadata>
  <g
     inkscape:label="Layer 1"
     inkscape:groupmode="layer"
     id="layer1"
     transform="translate(-3.4745102,-8.3077049)">
    <circle
       style="opacity:1;fill:#212121;fill-opacity:1;stroke:none;stroke-width:0.86500001;stroke-linecap:round;stroke-linejoin:round;stroke-miterlimit:4;stroke-dasharray:none;stroke-opacity:1"
       id="path1372"
       cx="53.47451"
       cy="58.307705"
       r="50" />
    <path
       id="path1334"
       d="m 78.236358,79.794088 -5.501484,-3.177067 v 2.266365 h -28.11962 l 5.475207,-5.784603 c 0.46596,-0.373494 1.075626,-0.635501 1.70277,-0.650014 2.537058,0 4.043682,-6.65e-4 4.598258,-0.0017 0.375913,1.071007 1.385682,1.844053 2.586097,1.844053 1.518605,0 2.751018,-1.232301 2.751018,-2.751457 0,-1.519816 -1.232301,-2.751678 -2.751018,-2.751678 -1.200415,0 -2.210184,0.772608 -2.586097,1.842735 l -4.544382,-7.9e-4 c -1.231644,0 -2.522219,0.675743 -3.343642,1.467921 0.02244,-0.02353 0.04574,-0.0486 -0.0012,4.57e-4 -0.01737,0.01957 -5.809008,6.136657 -5.809008,6.136657 -0.464975,0.372945 -1.074308,0.633303 -1.701012,0.648256 h -3.181028 c -0.421649,-2.101443 -2.277358,-3.684699 -4.503375,-3.684699 -2.537935,0 -4.595179,2.057243 -4.595179,4.594412 0,2.537935 2.057244,4.595292 4.595179,4.595292 2.226457,0 4.082163,-1.584578 4.503816,-3.687778 h 3.125281 c 0.008,0 0.01604,4.15e-4 0.02418,0 h 6.912564 c 0.625494,0.01596 1.234059,0.276629 1.698593,0.650012 0,0 5.790317,6.116647 5.80824,6.136439 0.0464,0.04915 0.02331,0.02352 4.15e-4,4.16e-4 0.821424,0.792068 2.112551,1.467371 3.344411,1.467371 l 4.379462,-8.31e-4 v 1.844601 h 5.502908 v -5.502509 h -5.502917 v 1.842183 c 0,0 -1.153466,-0.0021 -4.433117,-0.0021 -0.627252,-0.01442 -1.237579,-0.276081 -1.703318,-0.649571 l -5.476417,-5.785717 h 21.243011 v 2.269994 z"
       inkscape:connector-curvature="0"
       style="fill:#ffffff;fill-opacity:1;stroke-width:0.10994834" />
    <g
       id="layer1-9"
       transform="matrix(1.1558799,0,0,1.1558799,-122.28787,-151.76137)"
       style="fill:#ffffff;fill-opacity:1">
      <path
         inkscape:connector-curvature="0"
         style="fill:#ffffff;fill-opacity:1;stroke:none"
         id="path26127"
         d="m 151.52582,181.41625 c -0.88998,-0.11242 -1.71958,-0.53285 -2.3629,-1.19748 -0.70672,-0.73013 -1.08441,-1.59466 -1.13646,-2.60135 -0.10034,-1.94032 1.19559,-3.6482 3.12746,-4.12166 0.25808,-0.0632 0.39517,-0.0756 0.85699,-0.0772 0.73961,-0.003 1.23351,0.10355 1.79177,0.38468 1.36993,0.68989 2.19721,1.95947 2.25577,3.46182 0.0584,1.49611 -0.6769,2.84297 -1.98216,3.63108 -0.72803,0.43958 -1.66887,0.63141 -2.55047,0.52005 z m -4.17173,-9.02023 c -0.17784,-0.0883 -1.74372,-1.65415 -1.82858,-1.82863 -0.0562,-0.11564 -0.0632,-0.18498 -0.0538,-0.5336 0.009,-0.33066 0.0227,-0.42362 0.079,-0.53195 0.0792,-0.15237 0.69929,-0.76002 1.14201,-1.11915 0.9735,-0.78966 2.25303,-1.41157 3.47485,-1.68895 0.67425,-0.15306 1.07468,-0.19417 1.89184,-0.19417 0.81716,0 1.21759,0.0411 1.89183,0.19417 1.22172,0.27735 2.50042,0.89883 3.47502,1.68895 0.50002,0.40537 1.08674,0.9899 1.14847,1.14419 0.0686,0.17147 0.0989,0.82861 0.0457,0.99366 -0.0512,0.15892 -1.66192,1.78306 -1.86136,1.8768 -0.18063,0.0849 -0.49354,0.087 -0.67517,0.005 -0.0773,-0.0351 -0.21654,-0.1559 -0.33957,-0.29459 -0.28553,-0.32189 -0.73229,-0.6877 -1.13852,-0.93221 -1.80815,-1.08833 -4.09953,-0.908 -5.72767,0.45076 -0.16236,0.13551 -0.38905,0.35215 -0.50374,0.48145 -0.12303,0.13869 -0.26224,0.25947 -0.33955,0.29459 -0.18055,0.082 -0.50945,0.0792 -0.68081,-0.006 z m -4.70534,-4.68238 c -0.16939,-0.0859 -1.83229,-1.76511 -1.87444,-1.89284 -0.0194,-0.0587 -0.0298,-0.2731 -0.0238,-0.49057 0.008,-0.31468 0.0231,-0.41034 0.078,-0.5161 0.13045,-0.25095 1.32042,-1.35477 2.09803,-1.94614 1.24043,-0.94334 2.918,-1.81752 4.41926,-2.30287 3.37763,-1.09197 7.06123,-0.97537 10.32445,0.32681 1.21103,0.48326 2.53835,1.22795 3.52206,1.97606 0.77762,0.59137 1.96759,1.69519 2.09804,1.94614 0.0549,0.10576 0.0694,0.20142 0.078,0.5161 0.006,0.21799 -0.005,0.43183 -0.0239,0.49082 -0.0455,0.13807 -1.74216,1.83997 -1.89996,1.90592 -0.14703,0.0614 -0.45859,0.0594 -0.61704,-0.004 -0.085,-0.034 -0.23409,-0.16608 -0.45427,-0.40243 -1.15824,-1.24327 -2.83773,-2.30732 -4.57085,-2.89591 -1.2604,-0.42805 -2.37255,-0.609 -3.7429,-0.609 -1.37035,0 -2.4825,0.18095 -3.7429,0.609 -1.73313,0.58859 -3.41262,1.65264 -4.57086,2.89591 -0.22018,0.23635 -0.36926,0.36843 -0.45427,0.40243 -0.17077,0.0683 -0.49886,0.0635 -0.64264,-0.009 z m -4.73767,-4.75731 c -0.18768,-0.0854 -1.77335,-1.69111 -1.82334,-1.84634 -0.0222,-0.069 -0.0328,-0.26949 -0.0264,-0.50126 0.008,-0.31441 0.0231,-0.41035 0.0779,-0.51564 0.0995,-0.19126 1.1228,-1.1758 1.8851,-1.81373 3.13541,-2.62389 6.89193,-4.30511 10.89826,-4.8775 1.22705,-0.17531 1.5632,-0.19636 3.13689,-0.19636 1.5737,0 1.90984,0.0211 3.13689,0.19636 4.00632,0.57239 7.76285,2.25361 10.89825,4.8775 0.7623,0.63793 1.78558,1.62247 1.8851,1.81373 0.0548,0.10529 0.0693,0.20123 0.0779,0.51564 0.006,0.23177 -0.005,0.43227 -0.0264,0.50126 -0.0533,0.16554 -1.63816,1.76286 -1.8341,1.84853 -0.18774,0.0821 -0.49382,0.0803 -0.67935,-0.004 -0.0898,-0.0407 -0.32897,-0.2481 -0.66296,-0.57467 -1.42009,-1.38851 -2.81971,-2.39492 -4.5488,-3.27087 -2.13917,-1.08368 -4.25777,-1.68111 -6.7912,-1.91509 -0.94584,-0.0873 -2.64408,-0.0471 -3.73516,0.0885 -2.08405,0.25911 -4.07655,0.86908 -5.96655,1.82653 -1.72909,0.87594 -3.12871,1.88235 -4.54881,3.27087 -0.33399,0.32656 -0.57325,0.53396 -0.66295,0.57466 -0.18229,0.0827 -0.51031,0.0835 -0.69012,0.002 z" />
    </g>
  </g>
</svg>
