<?xml version="1.0" encoding="utf-8"?>
<!-- Generator: Adobe Illustrator 24.1.0, SVG Export Plug-In . SVG Version: 6.00 Build 0)  -->
<svg version="1.1" id="Ebene_1" xmlns="http://www.w3.org/2000/svg" xmlns:xlink="http://www.w3.org/1999/xlink" x="0px" y="0px"
	 viewBox="0 0 512 512" style="enable-background:new 0 0 512 512;" xml:space="preserve">
<style type="text/css">
	.st0{fill:#80CC28;}
</style>
<g>
	<polygon class="st0" points="339.1,339.97 243.47,363.3 422.09,422.97 362.43,244.34 	"/>
	<path class="st0" d="M255.96,393.69c-36.77,0-71.33-14.32-97.33-40.31c-26-26-40.31-60.56-40.31-97.33s14.32-71.33,40.31-97.33
		c26-26,60.56-40.31,97.33-40.31s71.33,14.32,97.33,40.31c26,26,40.31,60.56,40.31,97.33c0,7.78-0.65,15.46-1.91,22.99l26.56,79.53
		c18.78-29.66,29.65-64.82,29.65-102.52c0-106.01-85.94-191.96-191.96-191.96S64,150.03,64,256.04S149.94,448,255.96,448
		c37.83,0,73.1-10.95,102.83-29.84l-79.24-26.47C271.83,393.01,263.94,393.69,255.96,393.69z"/>
</g>
</svg>
