<?xml version="1.0" encoding="UTF-8" standalone="no"?>
<!-- Generator: Adobe Illustrator 24.1.0, SVG Export Plug-In . SVG Version: 6.00 Build 0)  -->

<svg
   xmlns:dc="http://purl.org/dc/elements/1.1/"
   xmlns:cc="http://creativecommons.org/ns#"
   xmlns:rdf="http://www.w3.org/1999/02/22-rdf-syntax-ns#"
   xmlns:svg="http://www.w3.org/2000/svg"
   xmlns="http://www.w3.org/2000/svg"
   xmlns:sodipodi="http://sodipodi.sourceforge.net/DTD/sodipodi-0.dtd"
   xmlns:inkscape="http://www.inkscape.org/namespaces/inkscape"
   version="1.1"
   id="Ebene_1"
   x="0px"
   y="0px"
   viewBox="0 0 512 512"
   style="enable-background:new 0 0 512 512;"
   xml:space="preserve"
   sodipodi:docname="QField_Final_white.svg"
   inkscape:version="0.92.5 (2060ec1f9f, 2020-04-08)"><metadata
   id="metadata15"><rdf:RDF><cc:Work
       rdf:about=""><dc:format>image/svg+xml</dc:format><dc:type
         rdf:resource="http://purl.org/dc/dcmitype/StillImage" /><dc:title></dc:title></cc:Work></rdf:RDF></metadata><defs
   id="defs13" /><sodipodi:namedview
   pagecolor="#ffffff"
   bordercolor="#666666"
   borderopacity="1"
   objecttolerance="10"
   gridtolerance="10"
   guidetolerance="10"
   inkscape:pageopacity="0"
   inkscape:pageshadow="2"
   inkscape:window-width="1920"
   inkscape:window-height="1016"
   id="namedview11"
   showgrid="false"
   inkscape:zoom="0.4609375"
   inkscape:cx="256"
   inkscape:cy="256"
   inkscape:window-x="0"
   inkscape:window-y="27"
   inkscape:window-maximized="1"
   inkscape:current-layer="Ebene_1" />
<style
   type="text/css"
   id="style2">
	.st0{fill:#80CC28;}
</style>
<g
   id="g8"
   style="fill:#ffffff">
	<polygon
   class="st0"
   points="339.1,339.97 243.47,363.3 422.09,422.97 362.43,244.34  "
   id="polygon4"
   style="fill:#ffffff" />
	<path
   class="st0"
   d="M255.96,393.69c-36.77,0-71.33-14.32-97.33-40.31c-26-26-40.31-60.56-40.31-97.33s14.32-71.33,40.31-97.33   c26-26,60.56-40.31,97.33-40.31s71.33,14.32,97.33,40.31c26,26,40.31,60.56,40.31,97.33c0,7.78-0.65,15.46-1.91,22.99l26.56,79.53   c18.78-29.66,29.65-64.82,29.65-102.52c0-106.01-85.94-191.96-191.96-191.96S64,150.03,64,256.04S149.94,448,255.96,448   c37.83,0,73.1-10.95,102.83-29.84l-79.24-26.47C271.83,393.01,263.94,393.69,255.96,393.69z"
   id="path6"
   style="fill:#ffffff" />
</g>
</svg>