<?xml version="1.0" encoding="UTF-8"?>
<svg id="Layer_1" xmlns="http://www.w3.org/2000/svg" version="1.1" viewBox="0 0 1031.7 483.7">
  <!-- Generator: Adobe Illustrator 29.5.1, SVG Export Plug-In . SVG Version: 2.1.0 Build 141)  -->
  <defs>
    <style>
      .st0 {
        stroke-width: .5px;
      }

      .st0, .st1, .st2 {
        fill: none;
        stroke: #80cc29;
        stroke-linecap: round;
        stroke-linejoin: round;
      }

      .st0, .st2, .st3 {
        opacity: .2;
      }

      .st1 {
        stroke-width: 3px;
      }

      .st2 {
        stroke-width: .8px;
      }
    </style>
  </defs>
  <g class="st3">
    <path class="st1" d="M12.3,3.5c28.9,84.1,62.6,169.6,137.6,224.8,5.3,3.9,10.1,8.4,14.3,13.4,6.5,8.4,16.2,13.2,24.4,19.7,5.9,4.9,11,10.6,15.3,17,11.4,17.4,18.1,39.1,24.6,58.6,1.4,4.5,2.7,9,3.2,13.8,1.4,20.2-7.5,33,3.9,53.3,8.6,17.5,18.2,32.5,25,50,5.1,15.8,15.7,25.6,33.1,22.1,35.1-9.2,70.8-17.5,106.8-21,27.8-1,56.7-8,75.5-29.8,8.7-9.4,15.1-22.6,18.8-34.8,1.8-5.1,3.7-9.1,7.4-11.6,6.4-4.1,15.3-4.9,21.1-10.2,5.9-5.1,8.5-12.5,14.3-17.2,35.3-25.6,95-36.8,98.8-83.4.8-9-.8-18.8,2.2-27.4,4-12.1,13.8-21.9,18.4-33.9,3.7-9.3,3.4-20.1,4.9-30.1,1.9-14.6,5.5-28.8,8.1-42.5,1.4-6.7,1.4-14,4.2-20.3,2-4.9,7.1-6.6,10.3-1.5,2.9,4.8,3.4,11.6,4.2,17.2,4,27.1,19.5,52.1,30.5,76.9,8.9,21.1,29.6,8,40.1,21.8,3.5,4.9,4.2,12.7,6.5,18.1,1.9,5.1,5.9,8.6,10.8,11,34,16,72.5,24.6,101.4,50.8,6.1,5.6,13.5,9.6,21.8,10,48.3,3.2,102.4-17.1,129.6-58.8"/>
    <path class="st1" d="M670.7,2.3c7.3,19.9,21.2,40.1,20,59.4-.3,7.2-4.2,16.2-12.2,17-7.1.6-12.3-5.3-16.9-9.9-6.3-6.5-14.7-14-19.8-22.1-9.4-15.1-13.1-32.8-26.5-44.8"/>
    <path class="st1" d="M776.4,3.4c-2,24.3,5.7,48.3,8.1,72.3.4,3.7.9,7.4,1.9,10.9,1.7,6.4,5.8,11.8,10,16.8,4.4,5.1,8.9,10.8,14.2,15.4,7.2,6.6,16.4,8.7,24.5,13.8,33.9,23.3,63.4,51.7,102.9,55.8,8.8.2,16.9,7.5,24.8,6,9.3-2.5,15.9-12.2,21.1-20,8.8-13.7,16.6-26.4,25.2-39.9,14.1-21.1,18.4-29.5,20.3-55.6"/>
    <path class="st1" d="M103.3,2.2c14.9,22.2,23.1,47.4,39.7,66.2,7.1,7.1,17.7,10.6,25.6,17.6,38.3,32.8,83.3,54.3,121.3,88,11.7,8.9,25.7,16.8,27.7,32.8,1.6,9,.7,18.4-.1,27.4-1,12.5-2.7,24.6-6.5,36.7-6.2,19.7-3.4,28.5,10.3,43,10.4,11.3,20.8,23.2,35.4,28.6,19.4,7.2,43.2,4.3,57.7-11.5,23.4-24.9,15.5-64.9,39.5-90.2,10.5-11.6,24.4-19,38.5-25.7,13.8-6.7,28.2-13.8,36.4-27.2,4.9-8.1,7.1-17.8,6.3-27.2-.5-8.9-4.8-17.2-5-25.8-.2-5.2,1.1-10.4,2.4-15.4,6.8-27.4,9-57.9-4-83.4-8-13.5-21.7-22.2-32.3-33.5"/>
    <path class="st1" d="M918,3.4c.7,2.7,1.5,5.4,2.1,8.1,2.8,12.4.8,23.6,1,35.5.2,4.6.5,10.3,4.7,13,5.2,2.8,10.4-2.8,12.8-7.2,7.4-13.4,7.4-30.1,16.3-43.1,1.6-2.4,3.5-4.7,5.3-7"/>
    <path class="st1" d="M307.9,2.8c7.1,19.6,25,30,42.7,39.3,3,1.7,6,3.7,8.1,6.4,4.7,6.4,5.1,15.3,8.9,22.4,14.7,27,34.2,51,36.7,82.5"/>
    <path class="st1" d="M404.3,153.4c2.2,10.4,6.9,7.4,9.9-.7,5.5-14.8,2.5-32.3-2.7-46.6-11.5-38-17.1-81.1-54.2-104.2"/>
  </g>
  <path class="st2" d="M890.7,1.5c4.7,16.3,14.5,36.9,3.4,52.8-3.6,4.7-8.5,9.2-7.8,15.6.4,5,2.9,9.5,5.3,13.7,9.4,16.1,20.4,33.9,39.8,37,8,1.4,17-.8,22.1-7.3,10.2-13.7,11.9-32.2,13.9-48.5,2.2-21.5,4.8-43,14.2-62.7"/>
  <path class="st2" d="M270.6,1.8c10.5,3.9,18.4,10.4,24,19.8,17,25.6,45.9,41.6,66.1,66.8,11.8,14.7,19.7,32.3,23.2,50.7,3,12.8,1.1,27.9,6.2,40.3,5,11.7,17.1,16.4,28.8,17.1,17.6,1.8,33.5-5.9,33.6-25.1.6-10.3-5.4-20.4-6.9-30.2-1-6.3.2-12.8-1.6-19-1.1-4.1-3.2-8.1-5.1-11.9-14.9-28.7-16-59.4-31-88-4.3-8.6-12.5-14.5-20.1-19.6"/>
  <path class="st2" d="M864.6,1.6c4.7,18.9-1.9,38.2-1.7,57.1,2.3,31,19.1,70.6,51.2,81.7,9.1,3.6,18.9,6.5,28.5,4.5,15.8-3.7,29.7-18,35.2-33.1,3.1-8.4,2.9-18,3.7-27.9,2.2-28.2,11.8-56,19.6-82.1"/>
  <path class="st2" d="M177.3,2.4c8.1,19.1,30.6-2.1,42.6,9,5.7,5.1,8.4,14.8,15.4,19.3,2.4,1.7,5,3,7.8,4.2,14.9,6.5,30.8,11.3,45.2,19,6.1,3.8,10.6,10,16,14.9,15.8,13.4,35.4,21.6,49.5,35.8,17.8,16.6,19.5,41.9,22.8,64.7,1.4,8.4,2.9,17.1,6.3,25.1,7.3,16.7,23.6,29.7,41.8,28.3,22.5-2.8,60-13.2,58-40.2-1.2-7.5-1.3-15.2-3-22.7-2.2-7.2-7.4-13.2-9.3-20.7-1.9-6.5-.5-13.4-1.2-20-1.3-11.9-14.1-21.4-17.3-33.6-3.4-9.9-2.2-20.5-3.8-30.6-4.1-21.1-20.3-39.9-36.8-52.7"/>
  <path class="st2" d="M827.8,2.6c-10.6,27.8,10.1,27.1,7.4,53.8,0,3.4-.2,6.9.2,10.3.9,8.4,5.2,14.5,8.2,22.1,3.2,8.3,7.6,16.3,12.3,23.5,4.5,7.4,8.8,15.5,15.1,21.5,15.1,14.9,36.3,21.9,56.6,17.1,20.1-3.4,41.2-8.7,54.8-25.1,14.7-18.7,9.7-43.2,17.9-64.7,2.5-7.1,5.4-14.2,5.2-21.8-.9-16.7-2.4-24.5,10.3-37.4"/>
  <path class="st2" d="M153.8,1.6c4,4.1,7.7,8.6,9,14.1,1.2,4.5,1.5,8.8,3.4,11.7,10.3,12.8,26-4.5,39.2,15.3,6.7,8.5,14.2,16.4,22.7,24.1,9,8.5,19.7,16,32.4,15.9,9,.3,18-1.5,27,0,30.6,6.9,49.7,37,62.5,63.2,5.6,12.8,7.3,26.6,11.6,39.9,4.2,17.6,1.9,36,1.2,53.9-.2,13.6-4.2,45.7,6.4,53.9,11.5,7.6,26.7-3.3,32.2-14,4.6-8.4,6.7-17.4,11.3-25.4,6.5-11.4,16.7-22.3,28.3-28.1,4.8-2.3,10-4,15.1-6.2,29.1-11.2,47.5-41.8,38.7-72-1.9-7.1-4.5-13.9-5.4-21.1-1-6.3-.6-13-2.8-18.7-2-6-5.9-11.2-7.9-17.2-5-18.8.1-41-12.5-57.4-10-13.1-25.4-19.9-35.9-32"/>
  <path class="st2" d="M811.8,2.6c-9.9,14.6-14,33.7-8,50.6,3.4,8.8,9.6,16.1,13.5,24.5,7.1,14.4,12.6,30,24.1,41.8,31.3,32.2,71.6,53.7,115.6,55.5,15.4-2.7,9.8-27.8,34.8-40.9,9.8-4.9,14.7-12.2,16.6-22.9,6.6-29.2,13.8-58.5,24.1-87.5"/>
  <path class="st2" d="M124.4,2.2c12,9.4,19.9,22.2,24.9,36.1,2.6,7.1,6.5,14,14.1,16.4,2.7,1,5.7,1.7,8.6,2.5,12.8,3.2,24.3,9.6,34.3,18.1,8.9,7.7,16.4,17.9,26.1,24.5,7.1,5,15.3,8.1,23.3,11.6,12.4,5.4,22.9,11.7,34.1,16.9,7,3.6,15,2.3,22.3,4.5,46.5,28.3,23.5,99.5,26.4,145.6.2,18.9,6,39.4,25.2,47.7,24.6,11,48.8-12.4,58.2-33.9,8.5-22.7,7.8-38.1,29.8-53.6,32.4-23.6,73.6-45.4,63.5-86.9-1.9-11.2-3.2-22.5-3.5-33.7-1.3-28.1,2.9-60.8-12.2-85.7-8.4-12.6-21.2-21.1-33.1-30.1"/>
  <path class="st2" d="M757.6,3.5c0,29-4.7,59.8,7.8,87.2,21,42,101.4,88.5,141.9,117.4,6.6,4.5,13.6,8.5,20.6,12,6.4,3.1,13.2,6.5,20.6,6.9,6.3.4,12.7-1.6,18.2-4.5,33.5-17.8,54-54.3,65.3-91.3"/>
  <path class="st2" d="M88.6,3.5c4.2,27.7,19.8,50.5,31.7,74.4,2.1,4.1,4.4,8.1,7.9,11.1,5,4.5,12.8,6,18.7,9.6,10.8,6.3,14.9,18.1,23.1,28,4.5,5.5,9.5,9.6,14,14.4,14.8,16.7,31.9,29.1,54.1,36.2,22.3,5.5,48.3,12.3,56.2,36.8,8.5,35.8-11.1,73,4.1,107.6,1.7,4.2,4.1,8.8,8.6,10.3,5.2,1.8,11.7.6,16.7,2.9,2.6,1,4.9,2.8,7,4.6,8.9,7.8,19.3,16.6,31.5,19.3,8.5,1.9,17,.7,25.7.2,5.9-.4,12-.7,17.9-1.6,22.9-2.5,37.1-14.9,39.5-38.3,2.6-35.5-2.1-69.1,38.6-81.3,14.2-4.7,29.3-6.5,43.1-12.6,12.6-4.9,20.5-15.7,26.2-28.1,3.5-7.9,7.3-16.2,7.8-24.9.3-8.3-4.1-17.5-2.3-26.1,17.5-51.4,4.4-106.4-35.4-144.2"/>
  <path class="st2" d="M731.4,2.6c2.5,21,5.5,41.2,4,61.3-4.9,36.5,17.5,54.4,46.2,71.4,10.1,6.7,24.6,11.9,25.7,25.9.6,10.9,6.8,19,15.4,25.1,15.6,12.3,25.9,16.6,45.7,17.4,10,.4,19.5,4.5,26.1,12.2,8.5,9.4,15.3,19.3,19.6,30.1,10.7,32.7,57.4-10.4,74.4-18.8,19.5-10.5,34.6-27.1,40.8-49.1"/>
  <path class="st2" d="M71.3,3.3c6.3,35.6,13.8,69.8,39.1,95.3,6.5,5.8,14.2,9,20.8,14.6,28.8,24,42.6,59.2,72.9,81.8,18.6,15.1,49.2,9.8,64.2,29.8,18.9,31.2-2.3,71.6,5.2,104.7,3.1,18.6,19.6,33.9,38.8,34.2,24.5.7,36.2-3.6,60,7.9,14.1,5.2,28.4,13,43.7,10.9,12.4-2,24.8-11.6,29.8-23.9,3.7-8.7,7.3-17.4,10-26.4,3.9-14.9-4.9-30.3-3-45.4,2.8-16.2,18.5-23.9,33.6-27.6,15.3-3.7,32.8-4.1,48.3-6.5,7.1-1,14.2-3.6,19.1-9,11.1-11.8,12.6-30.7,18.7-46,2.1-4.8,5.8-8.6,8.7-12.8,3.7-5,4.1-11.1,4-17.1,0-18.5,6.1-35.8,10-54.3,9.7-43.7-27.5-76.1-49.4-111.3"/>
  <path class="st2" d="M711.9,2.4c2.4,9.8,5.5,19.5,6.3,29.3,1.6,33.2-6.3,73.6,19.3,100.7,9.3,9.3,21.7,14.8,33.2,20.8,6.2,3.3,12.6,6.4,16.7,11.2,1.9,2.1,3.2,4.6,4.1,7.4,3.9,16.7,2.2,25.9,21.9,31.5,33.8,10.7,65.8,27.2,82.7,57.4,1.9,3.5,4.1,7.2,6.8,9.9,3.2,3.2,7.5,5,12.4,5.8,46.5,6.2,90.2-28.9,116.2-65.1"/>
  <path class="st2" d="M52.9,2.5c-2.3,53.8,36.2,92.4,63.7,137,3.4,5.4,7,10.8,11.3,15.5,7.9,8.7,17.9,15.3,26.5,23.2,6,5.4,10.8,11.9,16.5,17.5,15.2,14.4,34,20,52.4,30.4,17.9,9.1,29.1,25.6,32.2,45.2,1.5,8.6,1.6,17.5,1.9,26.2.8,21.4,4,44.5,11.5,65.9,2.6,8.1,9.8,12.9,14.2,19.7,3.3,5.8,4.3,12.5,8.1,18.2,6.9,13.9,23.3,9.3,35.1,4.5,40.3-22.4,96.2,21.4,131.9-16.1,16.2-18.3,18.4-45.2,16.5-68.7-.5-6.7-2.7-16.1,1.3-21,3.7-4.6,10.7-4.8,16.3-5.3,29.7-2.1,77.7-14.1,96.8-37.2,5.6-8.8,4.6-19.6,8.7-29.1,3.3-9.9,11.3-17.5,15.2-27.1,3.5-10.9,3.3-22.9,5.3-34.2,3.7-28.1,16.4-56.1,2.6-81.5-9.2-15.6-21.2-29.1-28.5-45.8-6.6-12.5-8.3-27.9-18.6-37.9"/>
  <path class="st2" d="M690.8,1.9c7.6,9.6,14,22.4,15.2,33,3.4,33.8-10.1,69.4,7.3,100.8,5.1,9,10.1,18.2,13.8,27.9,5.6,15.7,20.1,19.9,34.2,26.8,6.2,2.9,11.3,6,13.2,12.7,3.2,18,4.4,23.4,22.2,31.4,17,8.4,33.9,15.1,52.7,18.2,10.6,1.2,21.6,3.1,26.9,13.6,4.8,8.5,5.4,18.6,12.5,25.4,4.4,4.4,10.8,7,16.9,8.4,50.5,11,95.9-25.4,124.3-64.4"/>
  <path class="st2" d="M32.2,1.6c18.7,91.9,76.5,176.4,154.1,234.7,11.2,5.4,25.7.6,33.2,11.3,16.3,24.9,18.1,54.6,26.8,81.3,1.4,4.8,2.6,9.6,2.8,14.6.2,15.2-9.1,29.8,2.9,43.2,45.5,46,17.8,74.9,53.7,59.7,27.2-10.2,54.3-8.3,81.3-2.3,10.3,2.2,16.7-5.9,24.8-12,5.1-3.7,10.7-4.8,17.1-5.9,7.9-1.4,16.1-3.6,23.2-7.2,27.5-12.7,31.8-46.6,44.7-75.5,1.7-3.9,4.1-7.8,7.3-10.4,4.5-3.8,10.7-5.1,16.4-6.3,6.8-1.5,13.4-3.4,19.7-6.1,11.2-4.4,19-12.4,30-18.8,19-10.7,35.3-12.3,42.4-36.1,28.6-70.7,68.3-154.5,12.2-217.4-11.5-14.2-23.4-28.5-30.8-45.4"/>
  <path class="st0" d="M652.6,2.5c-.3,4.2,0,8.3.5,12.4.3,2.6.3,5.5-1.2,6.2-1,.5-2.5,0-3.6-.5-7.7-4.1-14.2-10.7-17.7-18.9"/>
</svg>